<svg xmlns="http://www.w3.org/2000/svg" xmlns:xlink="http://www.w3.org/1999/xlink" width="96" zoomAndPan="magnify" viewBox="0 0 72 72" height="96" preserveAspectRatio="xMidYMid meet" version="1.0"><defs><clipPath id="d92036a400"><path d="M 0.40625 37 L 26 37 L 26 51 L 0.40625 51 Z M 0.40625 37 " clip-rule="nonzero"/></clipPath><clipPath id="abf7e350ea"><path d="M 59 41 L 71.65625 41 L 71.65625 44 L 59 44 Z M 59 41 " clip-rule="nonzero"/></clipPath><clipPath id="61c936acad"><path d="M 41.136719 22.878906 L 49.386719 22.878906 L 49.386719 31.128906 L 41.136719 31.128906 Z M 41.136719 22.878906 " clip-rule="nonzero"/></clipPath><clipPath id="e8ae9fef1a"><path d="M 49.667969 21.195312 L 57.917969 21.195312 L 57.917969 29.445312 L 49.667969 29.445312 Z M 49.667969 21.195312 " clip-rule="nonzero"/></clipPath><clipPath id="9e3180aba5"><path d="M 47 25.460938 L 55.195312 25.460938 L 55.195312 33.710938 L 47 33.710938 Z M 47 25.460938 " clip-rule="nonzero"/></clipPath><clipPath id="5fbf22e08a"><path d="M 46.945312 25.460938 L 55.195312 25.460938 L 55.195312 33.710938 L 46.945312 33.710938 Z M 46.945312 25.460938 " clip-rule="nonzero"/></clipPath><clipPath id="c949d60fe1"><path d="M 50.671875 30.730469 L 57.421875 30.730469 L 57.421875 37.480469 L 50.671875 37.480469 Z M 50.671875 30.730469 " clip-rule="nonzero"/></clipPath><clipPath id="f7778f171c"><path d="M 48 19.984375 L 58 19.984375 L 58 24 L 48 24 Z M 48 19.984375 " clip-rule="nonzero"/></clipPath><clipPath id="6cbc98aa82"><path d="M 47.8125 27 L 58.3125 27 L 58.3125 34.234375 L 47.8125 34.234375 Z M 47.8125 27 " clip-rule="nonzero"/></clipPath><clipPath id="f66391f53d"><path d="M 50 27 L 54 27 L 54 34.234375 L 50 34.234375 Z M 50 27 " clip-rule="nonzero"/></clipPath><clipPath id="49d67972d6"><path d="M 52 27 L 56 27 L 56 34.234375 L 52 34.234375 Z M 52 27 " clip-rule="nonzero"/></clipPath></defs><rect x="-7.2" width="86.4" fill="#ffffff" y="-7.2" height="86.4" fill-opacity="1"/><rect x="-7.2" width="86.4" fill="#0c2340" y="-7.2" height="86.4" fill-opacity="1"/><g clip-path="url(#d92036a400)"><path fill="#04b1dc" d="M 25.753906 38.269531 L 14.558594 38.269531 C 14.320312 38.269531 14.054688 38.375 13.921875 38.585938 L 13.816406 38.71875 L 13.527344 38.71875 C 13.5 38.691406 13.449219 38.640625 13.421875 38.613281 L 12.867188 38.164062 C 12.734375 38.058594 12.550781 37.980469 12.367188 37.980469 L 5.738281 37.980469 C 5.394531 37.980469 5.078125 38.21875 4.972656 38.535156 L 4.550781 39.828125 C 4.445312 40.171875 4.578125 40.539062 4.867188 40.726562 L 5.183594 40.9375 C 5.261719 40.988281 5.316406 41.070312 5.34375 41.148438 C 5.371094 41.253906 5.34375 41.332031 5.289062 41.410156 L 0.617188 48.277344 C 0.484375 48.460938 0.433594 48.699219 0.511719 48.910156 C 0.5625 49.121094 0.695312 49.304688 0.90625 49.4375 L 1.382812 49.703125 C 1.515625 49.753906 1.644531 49.808594 1.777344 49.808594 C 2.042969 49.808594 2.28125 49.675781 2.4375 49.464844 L 2.753906 49.015625 L 4.921875 50.257812 C 5.050781 50.335938 5.183594 50.363281 5.316406 50.363281 C 5.371094 50.363281 5.449219 50.363281 5.5 50.335938 L 6.820312 50.019531 C 7.007812 49.964844 7.164062 49.859375 7.269531 49.703125 L 11.996094 43.074219 C 12.15625 42.863281 12.179688 42.546875 12.074219 42.28125 L 11.679688 41.386719 L 12.417969 41.386719 C 12.628906 41.386719 12.839844 41.304688 12.972656 41.148438 L 13.476562 40.644531 C 13.5 40.621094 13.5 40.59375 13.527344 40.566406 L 14.398438 40.777344 C 14.453125 40.777344 14.53125 40.804688 14.582031 40.804688 L 23.453125 40.804688 L 25.832031 38.324219 C 25.804688 38.269531 25.777344 38.269531 25.753906 38.269531 Z M 5.394531 49.886719 C 5.316406 49.914062 5.210938 49.886719 5.132812 49.859375 L 2.992188 48.644531 L 7.984375 41.597656 C 8.035156 41.515625 8.140625 41.464844 8.246094 41.464844 L 10.410156 41.4375 C 10.199219 41.597656 9.988281 41.730469 9.753906 41.886719 L 9.644531 41.964844 C 9.621094 41.992188 9.566406 42.019531 9.566406 42.019531 C 9.539062 42.019531 9.515625 42.046875 9.488281 42.046875 C 9.328125 42.046875 9.144531 42.046875 8.960938 42.019531 C 8.855469 42.019531 8.773438 42.019531 8.667969 42.019531 L 8.5625 42.019531 C 8.511719 42.019531 8.457031 42.019531 8.433594 42.046875 C 8.351562 42.070312 8.273438 42.097656 8.195312 42.125 C 8.035156 42.203125 7.902344 42.335938 7.796875 42.46875 C 7.746094 42.546875 7.71875 42.601562 7.71875 42.625 L 7.640625 42.757812 C 7.453125 43.101562 7.269531 43.472656 7.085938 43.839844 C 6.714844 44.582031 6.371094 45.320312 6.027344 46.007812 C 5.871094 46.347656 5.710938 46.691406 5.582031 47.007812 C 5.554688 47.089844 5.5 47.167969 5.476562 47.246094 C 5.449219 47.324219 5.394531 47.40625 5.371094 47.5625 C 5.316406 47.828125 5.371094 48.089844 5.527344 48.277344 C 5.738281 48.539062 5.921875 48.726562 6.082031 48.9375 C 6.242188 49.121094 6.398438 49.28125 6.503906 49.4375 C 6.558594 49.515625 6.636719 49.570312 6.6875 49.625 Z M 11.652344 42.785156 L 6.925781 49.410156 C 6.875 49.332031 6.847656 49.28125 6.792969 49.175781 C 6.609375 48.859375 6.347656 48.433594 6.003906 47.90625 C 5.976562 47.855469 5.949219 47.75 6.003906 47.695312 C 6.003906 47.667969 6.027344 47.617188 6.082031 47.539062 C 6.136719 47.457031 6.160156 47.378906 6.214844 47.300781 C 6.398438 46.984375 6.558594 46.667969 6.769531 46.324219 C 7.136719 45.664062 7.535156 44.921875 7.902344 44.210938 C 8.089844 43.839844 8.273438 43.472656 8.457031 43.128906 L 8.5625 42.890625 C 8.5625 42.863281 8.589844 42.863281 8.617188 42.835938 L 8.695312 42.835938 C 8.800781 42.835938 8.878906 42.835938 8.988281 42.835938 C 9.199219 42.835938 9.382812 42.8125 9.59375 42.8125 C 9.753906 42.785156 9.910156 42.730469 10.042969 42.652344 C 10.121094 42.601562 10.148438 42.574219 10.175781 42.546875 L 10.28125 42.46875 C 10.542969 42.230469 10.808594 42.019531 11.019531 41.808594 C 11.125 41.730469 11.203125 41.648438 11.285156 41.570312 L 11.679688 42.46875 C 11.730469 42.574219 11.730469 42.679688 11.652344 42.785156 Z M 11.652344 42.785156 " fill-opacity="1" fill-rule="nonzero"/></g><path fill="#ffffff" d="M 55.585938 32.277344 L 53.078125 32.539062 C 52.234375 32.539062 51.574219 33.4375 51.574219 34.546875 L 51.363281 37.371094 L 51.152344 34.546875 C 51.152344 33.4375 50.464844 32.539062 49.648438 32.539062 L 47.136719 32.277344 L 49.648438 32.011719 C 50.492188 32.011719 51.152344 31.113281 51.152344 30.007812 L 51.363281 27.179688 L 51.574219 30.007812 C 51.574219 31.113281 52.261719 32.011719 53.078125 32.011719 Z M 55.585938 32.277344 " fill-opacity="1" fill-rule="nonzero"/><path fill="#ffffff" d="M 47.480469 27.550781 L 45.898438 27.707031 C 45.371094 27.707031 44.921875 28.289062 44.921875 29.003906 L 44.789062 30.796875 L 44.65625 29.003906 C 44.65625 28.289062 44.234375 27.707031 43.679688 27.707031 L 42.09375 27.550781 L 43.679688 27.390625 C 44.207031 27.390625 44.65625 26.8125 44.65625 26.097656 L 44.789062 24.304688 L 44.921875 26.097656 C 44.921875 26.8125 45.34375 27.390625 45.898438 27.390625 Z M 47.480469 27.550781 " fill-opacity="1" fill-rule="nonzero"/><path fill="#ffffff" d="M 57.382812 24.910156 L 55.796875 25.070312 C 55.269531 25.070312 54.820312 25.648438 54.820312 26.363281 L 54.691406 28.15625 L 54.558594 26.363281 C 54.558594 25.648438 54.136719 25.070312 53.582031 25.070312 L 51.996094 24.910156 L 53.582031 24.75 C 54.109375 24.75 54.558594 24.171875 54.558594 23.457031 L 54.691406 21.664062 L 54.820312 23.457031 C 54.820312 24.171875 55.242188 24.75 55.796875 24.75 Z M 57.382812 24.910156 " fill-opacity="1" fill-rule="nonzero"/><path fill="#04b1dc" d="M 36.207031 52.15625 L 45.105469 52.15625 C 32.773438 57.753906 20.445312 56.9375 16.40625 49.808594 C 15.824219 48.777344 15.429688 47.667969 15.242188 46.480469 C 15.429688 46.984375 15.640625 47.457031 15.902344 47.933594 C 18.941406 53.292969 27.125 54.71875 36.207031 52.15625 Z M 36.207031 52.15625 " fill-opacity="1" fill-rule="nonzero"/><path fill="#04b1dc" d="M 61.15625 40.117188 C 60.628906 40.777344 60.050781 41.4375 59.441406 42.070312 C 59.125 42.390625 58.835938 42.707031 58.519531 43.023438 C 58.148438 43.390625 57.753906 43.761719 57.355469 44.132812 L 51.414062 44.132812 C 52.050781 43.601562 52.65625 43.074219 53.238281 42.519531 C 53.476562 42.308594 53.710938 42.070312 53.921875 41.859375 C 55.058594 40.75 56.0625 39.589844 56.960938 38.429688 C 61.105469 32.988281 62.503906 27.234375 60.101562 22.957031 C 59.730469 22.296875 59.257812 21.664062 58.730469 21.132812 C 54.53125 16.832031 45.84375 16.355469 36.761719 19.761719 C 49.039062 14.242188 61.265625 15.089844 65.277344 22.191406 C 68.050781 27.128906 66.199219 33.886719 61.15625 40.117188 Z M 61.15625 40.117188 " fill-opacity="1" fill-rule="nonzero"/><path fill="#ffffff" d="M 48.828125 19.601562 C 44.578125 20.050781 39.824219 21.582031 35.179688 24.222656 C 34.808594 24.433594 34.464844 24.644531 34.09375 24.855469 C 33.910156 24.964844 33.753906 25.070312 33.566406 25.175781 C 33.539062 25.175781 33.539062 25.199219 33.515625 25.199219 C 33.355469 25.304688 33.199219 25.410156 33.039062 25.492188 C 32.878906 25.597656 32.695312 25.703125 32.539062 25.835938 C 32.328125 25.964844 32.140625 26.097656 31.957031 26.230469 C 31.667969 26.441406 31.347656 26.652344 31.058594 26.863281 C 30.742188 27.101562 30.425781 27.339844 30.109375 27.578125 C 29.976562 27.683594 29.871094 27.761719 29.738281 27.867188 C 29.261719 28.261719 28.789062 28.660156 28.339844 29.054688 C 28.207031 29.1875 28.050781 29.292969 27.917969 29.425781 C 27.125 30.164062 26.359375 30.902344 25.671875 31.695312 C 25.566406 31.800781 25.488281 31.90625 25.410156 32.011719 C 24.90625 32.59375 24.433594 33.175781 23.984375 33.753906 C 23.929688 33.835938 23.851562 33.941406 23.796875 34.019531 C 23.324219 34.679688 22.875 35.367188 22.503906 36.027344 C 22.453125 36.132812 22.398438 36.238281 22.347656 36.316406 C 22.214844 36.527344 22.109375 36.765625 22.003906 36.976562 C 21.921875 37.109375 21.871094 37.242188 21.816406 37.371094 C 21.765625 37.453125 21.738281 37.53125 21.710938 37.609375 C 21.6875 37.664062 21.660156 37.742188 21.632812 37.820312 L 17.699219 37.820312 C 19.863281 33.042969 24.667969 28 31.21875 24.304688 C 31.453125 24.171875 31.691406 24.039062 31.957031 23.90625 C 32.007812 23.878906 32.0625 23.855469 32.113281 23.828125 C 32.351562 23.695312 32.589844 23.589844 32.828125 23.457031 L 32.855469 23.457031 C 33.117188 23.324219 33.382812 23.195312 33.671875 23.0625 C 33.9375 22.929688 34.199219 22.796875 34.464844 22.691406 C 34.753906 22.558594 35.019531 22.453125 35.308594 22.324219 L 35.335938 22.324219 C 35.625 22.21875 35.890625 22.085938 36.179688 21.980469 C 36.445312 21.875 36.683594 21.769531 36.945312 21.6875 C 37 21.664062 37.050781 21.636719 37.105469 21.636719 C 37.34375 21.558594 37.582031 21.476562 37.792969 21.398438 C 37.898438 21.371094 37.976562 21.320312 38.082031 21.292969 C 38.292969 21.214844 38.503906 21.160156 38.714844 21.082031 C 39.03125 20.976562 39.347656 20.898438 39.640625 20.792969 C 39.851562 20.738281 40.089844 20.660156 40.300781 20.605469 C 40.351562 20.582031 40.40625 20.582031 40.457031 20.554688 C 40.695312 20.5 40.933594 20.421875 41.171875 20.367188 L 41.199219 20.367188 C 41.460938 20.316406 41.726562 20.238281 41.988281 20.183594 L 42.015625 20.183594 C 42.28125 20.132812 42.542969 20.078125 42.808594 20.027344 C 43.074219 19.972656 43.335938 19.921875 43.601562 19.894531 C 43.625 19.894531 43.625 19.894531 43.652344 19.894531 C 43.890625 19.867188 44.15625 19.816406 44.390625 19.789062 C 44.628906 19.761719 44.867188 19.734375 45.105469 19.707031 C 45.132812 19.707031 45.15625 19.707031 45.210938 19.707031 C 45.421875 19.683594 45.660156 19.683594 45.871094 19.65625 C 45.921875 19.65625 46.003906 19.65625 46.054688 19.65625 C 46.265625 19.65625 46.476562 19.628906 46.691406 19.628906 L 46.714844 19.628906 C 46.953125 19.628906 47.191406 19.628906 47.457031 19.628906 C 47.902344 19.550781 48.351562 19.550781 48.828125 19.601562 Z M 48.828125 19.601562 " fill-opacity="1" fill-rule="nonzero"/><path fill="#ffffff" d="M 20.417969 42.496094 L 16.457031 42.496094 C 16.457031 42.679688 16.457031 42.835938 16.457031 43.023438 C 16.457031 43.128906 16.457031 43.261719 16.457031 43.367188 C 16.457031 43.417969 16.457031 43.496094 16.457031 43.550781 C 16.457031 43.65625 16.457031 43.734375 16.484375 43.839844 C 16.484375 43.894531 16.484375 43.945312 16.511719 44.027344 C 16.511719 44.15625 16.539062 44.289062 16.5625 44.421875 C 16.589844 44.527344 16.589844 44.632812 16.617188 44.738281 C 16.617188 44.765625 16.617188 44.792969 16.644531 44.816406 C 16.667969 44.949219 16.695312 45.082031 16.75 45.242188 C 16.773438 45.347656 16.800781 45.453125 16.855469 45.558594 C 16.878906 45.636719 16.90625 45.6875 16.933594 45.769531 C 16.960938 45.875 17.011719 45.953125 17.039062 46.058594 C 17.066406 46.136719 17.09375 46.191406 17.117188 46.269531 C 17.144531 46.347656 17.199219 46.429688 17.222656 46.507812 C 17.304688 46.667969 17.382812 46.824219 17.460938 46.957031 C 19.519531 50.574219 24.378906 52.078125 30.320312 51.445312 C 26.226562 51.15625 23.007812 49.648438 21.421875 46.851562 C 20.761719 45.664062 20.445312 44.34375 20.445312 42.917969 C 20.417969 42.785156 20.417969 42.652344 20.417969 42.496094 Z M 20.417969 42.496094 " fill-opacity="1" fill-rule="nonzero"/><path fill="#04b1dc" d="M 16.539062 41.808594 L 24.722656 41.808594 L 25.117188 41.386719 C 26.570312 39.878906 29.632812 36.792969 31.902344 34.519531 L 37.371094 40.75 L 39.457031 40.75 L 44.234375 33.886719 L 52.789062 42.152344 C 53.027344 41.914062 53.238281 41.703125 53.449219 41.464844 L 44.472656 32.804688 L 37.816406 34.941406 L 31.585938 33.464844 L 31.402344 33.648438 C 26.359375 38.691406 24.511719 40.59375 23.824219 41.359375 L 14.082031 41.359375 C 13.871094 41.359375 13.710938 41.464844 13.738281 41.570312 C 13.738281 41.597656 13.738281 41.625 13.765625 41.625 C 13.84375 41.703125 14.003906 41.78125 14.1875 41.78125 L 15.269531 41.78125 Z M 16.539062 41.808594 " fill-opacity="1" fill-rule="nonzero"/><g clip-path="url(#abf7e350ea)"><path fill="#04b1dc" d="M 70.03125 41.964844 L 60.628906 41.964844 C 60.367188 42.28125 60.074219 42.601562 59.757812 42.917969 L 70.03125 42.917969 L 71.402344 43.367188 C 71.535156 42.757812 71.5625 42.152344 71.457031 41.542969 C 70.875 41.730469 70.347656 41.886719 70.03125 41.964844 Z M 70.03125 41.964844 " fill-opacity="1" fill-rule="nonzero"/></g><path fill="#ffffff" d="M 31.878906 35.074219 L 29.582031 37.425781 L 31.851562 35.789062 L 35.046875 38.796875 Z M 31.878906 35.074219 " fill-opacity="1" fill-rule="nonzero"/><path fill="#ffffff" d="M 44.339844 34.46875 L 42.332031 37.082031 L 44.390625 35.179688 L 47.929688 37.792969 Z M 44.339844 34.46875 " fill-opacity="1" fill-rule="nonzero"/><path fill="#ffffff" d="M 29.949219 37.769531 L 31.21875 37.769531 L 31.21875 39.378906 L 29.949219 39.378906 Z M 29.949219 37.769531 " fill-opacity="1" fill-rule="nonzero"/><path fill="#ffffff" d="M 31.613281 37.769531 L 32.878906 37.769531 L 32.878906 39.378906 L 31.613281 39.378906 Z M 31.613281 37.769531 " fill-opacity="1" fill-rule="nonzero"/><path fill="#ffffff" d="M 29.949219 39.722656 L 31.21875 39.722656 L 31.21875 41.332031 L 29.949219 41.332031 Z M 29.949219 39.722656 " fill-opacity="1" fill-rule="nonzero"/><path fill="#ffffff" d="M 31.613281 39.722656 L 32.878906 39.722656 L 32.878906 41.332031 L 31.613281 41.332031 Z M 31.613281 39.722656 " fill-opacity="1" fill-rule="nonzero"/><path fill="#ffffff" d="M 43.601562 38.03125 L 44.734375 38.03125 L 44.734375 39.484375 L 43.601562 39.484375 Z M 43.601562 38.03125 " fill-opacity="1" fill-rule="nonzero"/><path fill="#ffffff" d="M 45.078125 38.03125 L 46.214844 38.03125 L 46.214844 39.484375 L 45.078125 39.484375 Z M 45.078125 38.03125 " fill-opacity="1" fill-rule="nonzero"/><path fill="#ffffff" d="M 43.601562 39.773438 L 44.734375 39.773438 L 44.734375 41.226562 L 43.601562 41.226562 Z M 43.601562 39.773438 " fill-opacity="1" fill-rule="nonzero"/><path fill="#ffffff" d="M 45.078125 39.773438 L 46.214844 39.773438 L 46.214844 41.226562 L 45.078125 41.226562 Z M 45.078125 39.773438 " fill-opacity="1" fill-rule="nonzero"/><g clip-path="url(#61c936acad)"><path fill="#ff0000" d="M 49.554688 27.210938 C 49.507812 27.289062 49.429688 27.332031 49.355469 27.375 C 49.386719 27.421875 49.386719 27.484375 49.371094 27.539062 C 49.359375 27.59375 49.332031 27.644531 49.316406 27.699219 C 49.300781 27.753906 49.304688 27.828125 49.335938 27.875 C 49.292969 27.875 49.257812 27.910156 49.238281 27.949219 C 49.222656 27.992188 49.21875 28.035156 49.214844 28.078125 C 49.210938 28.125 49.207031 28.167969 49.183594 28.207031 C 49.246094 28.230469 49.3125 28.257812 49.355469 28.308594 C 49.371094 28.324219 49.378906 28.339844 49.386719 28.359375 C 49.402344 28.402344 49.398438 28.449219 49.378906 28.492188 C 49.363281 28.53125 49.335938 28.570312 49.308594 28.605469 C 49.34375 28.640625 49.398438 28.679688 49.417969 28.726562 C 49.425781 28.757812 49.425781 28.789062 49.433594 28.820312 C 49.449219 28.933594 49.507812 29.039062 49.503906 29.148438 L 49.503906 29.152344 C 49.503906 29.164062 49.496094 29.171875 49.484375 29.175781 C 49.472656 29.183594 49.464844 29.1875 49.453125 29.191406 C 49.417969 29.210938 49.398438 29.25 49.390625 29.289062 C 49.386719 29.328125 49.386719 29.367188 49.378906 29.40625 C 49.359375 29.484375 49.300781 29.546875 49.25 29.609375 C 49.277344 29.644531 49.304688 29.683594 49.324219 29.722656 C 49.339844 29.765625 49.339844 29.816406 49.316406 29.855469 C 49.285156 29.902344 49.214844 29.925781 49.160156 29.941406 C 49.199219 29.980469 49.242188 30.023438 49.25 30.078125 C 49.257812 30.113281 49.246094 30.152344 49.25 30.191406 C 49.253906 30.222656 49.269531 30.253906 49.292969 30.28125 C 49.3125 30.304688 49.339844 30.328125 49.367188 30.347656 C 49.320312 30.417969 49.324219 30.515625 49.34375 30.597656 C 49.367188 30.679688 49.40625 30.753906 49.425781 30.835938 C 49.457031 30.941406 49.453125 31.050781 49.421875 31.15625 C 49.28125 31.1875 49.121094 31.1875 48.984375 31.140625 C 48.921875 31.121094 48.863281 31.089844 48.796875 31.078125 C 48.734375 31.0625 48.65625 31.066406 48.605469 31.105469 C 48.578125 31.066406 48.542969 31.035156 48.5 31.015625 C 48.449219 30.996094 48.394531 30.996094 48.34375 30.988281 C 48.289062 30.980469 48.230469 30.957031 48.199219 30.914062 C 48.1875 30.96875 48.160156 31.019531 48.125 31.066406 C 48.113281 31.082031 48.097656 31.09375 48.074219 31.097656 C 48.058594 31.101562 48.046875 31.09375 48.03125 31.089844 C 47.976562 31.070312 47.921875 31.035156 47.875 31.003906 C 47.847656 31 47.820312 31.019531 47.800781 31.039062 C 47.78125 31.058594 47.765625 31.082031 47.742188 31.097656 C 47.679688 31.136719 47.597656 31.105469 47.53125 31.132812 C 47.476562 31.15625 47.429688 31.207031 47.398438 31.257812 C 47.378906 31.242188 47.355469 31.234375 47.328125 31.234375 C 47.304688 31.230469 47.277344 31.230469 47.253906 31.226562 C 47.214844 31.21875 47.183594 31.195312 47.148438 31.183594 C 47.097656 31.167969 47.042969 31.171875 46.988281 31.15625 C 46.933594 31.136719 46.886719 31.09375 46.84375 31.050781 C 46.792969 31.089844 46.765625 31.097656 46.703125 31.125 C 46.679688 31.132812 46.652344 31.140625 46.625 31.136719 C 46.605469 31.128906 46.585938 31.117188 46.570312 31.101562 C 46.523438 31.054688 46.488281 30.996094 46.460938 30.933594 C 46.394531 30.96875 46.308594 30.941406 46.234375 30.964844 C 46.183594 30.984375 46.140625 31.027344 46.121094 31.074219 C 46.085938 31.042969 46.027344 31.039062 45.976562 31.054688 C 45.929688 31.070312 45.886719 31.097656 45.835938 31.113281 C 45.773438 31.132812 45.699219 31.128906 45.636719 31.101562 L 45.636719 31.089844 C 45.613281 31.179688 45.546875 31.257812 45.464844 31.296875 C 45.441406 31.308594 45.414062 31.316406 45.386719 31.3125 C 45.367188 31.3125 45.347656 31.296875 45.328125 31.285156 C 45.261719 31.238281 45.207031 31.179688 45.164062 31.109375 C 45.089844 31.121094 45.015625 31.132812 44.945312 31.105469 C 44.910156 31.089844 44.878906 31.0625 44.84375 31.050781 C 44.785156 31.027344 44.714844 31.042969 44.671875 31.082031 C 44.664062 31.039062 44.625 31.003906 44.585938 30.984375 C 44.542969 30.96875 44.5 30.960938 44.453125 30.957031 C 44.410156 30.953125 44.367188 30.949219 44.324219 30.929688 C 44.316406 30.996094 44.292969 31.042969 44.25 31.09375 C 44.230469 31.113281 44.210938 31.128906 44.183594 31.132812 C 44.167969 31.136719 44.148438 31.132812 44.132812 31.128906 C 44.074219 31.113281 44.019531 31.085938 43.96875 31.050781 C 43.886719 31.078125 43.839844 31.160156 43.753906 31.179688 C 43.714844 31.1875 43.675781 31.179688 43.636719 31.191406 C 43.605469 31.195312 43.578125 31.214844 43.546875 31.222656 C 43.492188 31.238281 43.433594 31.230469 43.382812 31.257812 C 43.359375 31.203125 43.296875 31.15625 43.238281 31.136719 C 43.203125 31.128906 43.164062 31.128906 43.128906 31.121094 C 43.058594 31.105469 42.984375 31.050781 42.941406 30.996094 C 42.914062 31.023438 42.90625 31.03125 42.871094 31.050781 C 42.832031 31.070312 42.789062 31.085938 42.75 31.078125 C 42.710938 31.074219 42.675781 31.050781 42.652344 31.019531 C 42.628906 30.992188 42.609375 30.941406 42.605469 30.90625 C 42.570312 30.957031 42.511719 30.988281 42.453125 30.992188 C 42.414062 30.996094 42.371094 30.992188 42.332031 31 C 42.273438 31.007812 42.214844 31.058594 42.191406 31.109375 C 42.140625 31.074219 42.074219 31.066406 42.015625 31.078125 C 41.914062 31.089844 41.824219 31.132812 41.726562 31.160156 C 41.617188 31.1875 41.460938 31.1875 41.375 31.15625 C 41.34375 31.050781 41.339844 30.941406 41.371094 30.835938 C 41.390625 30.757812 41.429688 30.679688 41.453125 30.597656 C 41.472656 30.519531 41.476562 30.417969 41.429688 30.347656 C 41.457031 30.328125 41.484375 30.304688 41.503906 30.28125 C 41.527344 30.253906 41.542969 30.226562 41.546875 30.191406 C 41.550781 30.152344 41.539062 30.113281 41.546875 30.078125 C 41.554688 30.023438 41.597656 29.980469 41.636719 29.941406 C 41.582031 29.925781 41.511719 29.902344 41.480469 29.855469 C 41.457031 29.816406 41.457031 29.765625 41.472656 29.722656 C 41.492188 29.683594 41.519531 29.644531 41.546875 29.609375 C 41.496094 29.546875 41.4375 29.484375 41.417969 29.40625 C 41.410156 29.367188 41.410156 29.328125 41.40625 29.289062 C 41.398438 29.25 41.378906 29.210938 41.34375 29.191406 C 41.332031 29.1875 41.320312 29.183594 41.3125 29.179688 C 41.300781 29.171875 41.292969 29.164062 41.292969 29.152344 C 41.289062 29.039062 41.347656 28.933594 41.363281 28.820312 C 41.371094 28.789062 41.371094 28.757812 41.378906 28.726562 C 41.398438 28.679688 41.453125 28.640625 41.488281 28.605469 C 41.460938 28.570312 41.433594 28.53125 41.417969 28.492188 C 41.398438 28.449219 41.394531 28.402344 41.410156 28.359375 C 41.417969 28.339844 41.425781 28.324219 41.441406 28.308594 C 41.484375 28.257812 41.550781 28.230469 41.613281 28.207031 C 41.589844 28.167969 41.585938 28.125 41.582031 28.078125 C 41.578125 28.035156 41.574219 27.992188 41.558594 27.949219 C 41.539062 27.910156 41.503906 27.875 41.457031 27.875 C 41.492188 27.828125 41.496094 27.753906 41.480469 27.699219 C 41.464844 27.644531 41.4375 27.59375 41.425781 27.539062 C 41.410156 27.484375 41.410156 27.421875 41.441406 27.375 C 41.363281 27.332031 41.289062 27.289062 41.242188 27.210938 C 41.226562 27.183594 41.214844 27.152344 41.21875 27.121094 C 41.222656 27.09375 41.238281 27.074219 41.253906 27.054688 C 41.277344 27.019531 41.308594 26.992188 41.339844 26.964844 C 41.359375 26.949219 41.382812 26.933594 41.402344 26.914062 C 41.417969 26.890625 41.425781 26.863281 41.417969 26.835938 C 41.414062 26.792969 41.414062 26.742188 41.429688 26.699219 C 41.445312 26.652344 41.476562 26.613281 41.492188 26.566406 C 41.507812 26.515625 41.496094 26.449219 41.457031 26.410156 C 41.484375 26.398438 41.511719 26.386719 41.53125 26.367188 C 41.546875 26.347656 41.554688 26.324219 41.5625 26.296875 C 41.578125 26.230469 41.585938 26.160156 41.589844 26.089844 C 41.589844 26.082031 41.59375 26.074219 41.589844 26.070312 C 41.585938 26.0625 41.5625 26.058594 41.558594 26.0625 C 41.480469 26.046875 41.417969 25.976562 41.402344 25.898438 C 41.390625 25.820312 41.425781 25.738281 41.492188 25.691406 C 41.433594 25.65625 41.394531 25.59375 41.371094 25.527344 C 41.351562 25.460938 41.34375 25.394531 41.335938 25.328125 C 41.324219 25.257812 41.308594 25.191406 41.273438 25.132812 C 41.328125 25.089844 41.386719 25.050781 41.40625 24.988281 C 41.417969 24.941406 41.417969 24.890625 41.429688 24.84375 C 41.441406 24.78125 41.484375 24.722656 41.542969 24.691406 C 41.515625 24.652344 41.488281 24.609375 41.472656 24.5625 C 41.457031 24.519531 41.457031 24.472656 41.480469 24.433594 C 41.511719 24.382812 41.578125 24.355469 41.632812 24.34375 L 41.636719 24.34375 C 41.609375 24.324219 41.609375 24.324219 41.589844 24.296875 C 41.566406 24.261719 41.554688 24.21875 41.546875 24.175781 C 41.542969 24.136719 41.539062 24.09375 41.527344 24.050781 C 41.527344 24.023438 41.511719 23.988281 41.488281 23.972656 C 41.472656 23.960938 41.449219 23.957031 41.445312 23.9375 C 41.4375 23.925781 41.441406 23.914062 41.445312 23.902344 C 41.453125 23.894531 41.464844 23.882812 41.476562 23.878906 C 41.472656 23.761719 41.425781 23.652344 41.394531 23.539062 C 41.359375 23.402344 41.347656 23.257812 41.363281 23.117188 C 41.449219 23.082031 41.617188 23.089844 41.726562 23.121094 C 41.824219 23.144531 41.917969 23.1875 42.015625 23.203125 C 42.074219 23.210938 42.144531 23.207031 42.191406 23.167969 C 42.214844 23.222656 42.277344 23.269531 42.332031 23.28125 C 42.371094 23.289062 42.414062 23.28125 42.453125 23.285156 C 42.515625 23.292969 42.574219 23.324219 42.605469 23.375 C 42.609375 23.335938 42.628906 23.289062 42.652344 23.257812 C 42.679688 23.226562 42.710938 23.207031 42.75 23.199219 C 42.792969 23.195312 42.835938 23.207031 42.871094 23.226562 C 42.90625 23.25 42.914062 23.253906 42.945312 23.285156 C 42.984375 23.226562 43.0625 23.171875 43.128906 23.160156 C 43.164062 23.152344 43.203125 23.152344 43.238281 23.140625 C 43.296875 23.125 43.359375 23.078125 43.386719 23.019531 C 43.433594 23.046875 43.492188 23.039062 43.546875 23.054688 C 43.578125 23.066406 43.605469 23.082031 43.636719 23.089844 C 43.675781 23.097656 43.71875 23.089844 43.757812 23.097656 C 43.839844 23.117188 43.886719 23.203125 43.96875 23.230469 C 44.019531 23.195312 44.074219 23.167969 44.132812 23.152344 C 44.152344 23.144531 44.167969 23.140625 44.183594 23.144531 C 44.210938 23.148438 44.230469 23.167969 44.25 23.1875 C 44.292969 23.234375 44.320312 23.285156 44.324219 23.347656 C 44.367188 23.332031 44.410156 23.324219 44.457031 23.320312 C 44.5 23.316406 44.542969 23.3125 44.585938 23.292969 C 44.625 23.273438 44.664062 23.238281 44.671875 23.195312 C 44.71875 23.234375 44.785156 23.25 44.84375 23.230469 C 44.878906 23.214844 44.910156 23.191406 44.945312 23.175781 C 45.015625 23.144531 45.089844 23.15625 45.164062 23.167969 C 45.207031 23.101562 45.261719 23.039062 45.328125 22.992188 C 45.347656 22.980469 45.367188 22.96875 45.386719 22.964844 C 45.414062 22.960938 45.441406 22.96875 45.464844 22.980469 C 45.546875 23.023438 45.613281 23.101562 45.636719 23.191406 L 45.636719 23.175781 C 45.699219 23.148438 45.773438 23.144531 45.839844 23.164062 C 45.886719 23.179688 45.929688 23.207031 45.980469 23.222656 C 46.027344 23.238281 46.085938 23.238281 46.121094 23.203125 C 46.140625 23.253906 46.1875 23.296875 46.238281 23.3125 C 46.308594 23.335938 46.394531 23.308594 46.460938 23.34375 C 46.488281 23.285156 46.523438 23.226562 46.570312 23.179688 C 46.585938 23.164062 46.605469 23.148438 46.625 23.144531 C 46.652344 23.136719 46.679688 23.144531 46.703125 23.15625 C 46.765625 23.179688 46.792969 23.1875 46.84375 23.230469 C 46.886719 23.183594 46.933594 23.140625 46.992188 23.121094 C 47.042969 23.105469 47.097656 23.109375 47.148438 23.09375 C 47.183594 23.082031 47.21875 23.058594 47.253906 23.050781 C 47.277344 23.046875 47.304688 23.046875 47.328125 23.046875 C 47.355469 23.042969 47.378906 23.039062 47.398438 23.019531 C 47.429688 23.070312 47.476562 23.125 47.53125 23.144531 C 47.597656 23.171875 47.683594 23.140625 47.742188 23.179688 C 47.765625 23.195312 47.785156 23.21875 47.804688 23.238281 C 47.824219 23.257812 47.847656 23.277344 47.875 23.277344 C 47.921875 23.242188 47.976562 23.210938 48.03125 23.1875 C 48.046875 23.183594 48.0625 23.179688 48.078125 23.179688 C 48.097656 23.183594 48.113281 23.199219 48.125 23.214844 C 48.164062 23.257812 48.1875 23.3125 48.203125 23.367188 C 48.230469 23.320312 48.289062 23.300781 48.34375 23.289062 C 48.394531 23.28125 48.449219 23.28125 48.5 23.261719 C 48.542969 23.246094 48.582031 23.210938 48.605469 23.171875 C 48.65625 23.214844 48.734375 23.214844 48.800781 23.203125 C 48.863281 23.1875 48.921875 23.15625 48.984375 23.136719 C 49.121094 23.089844 49.296875 23.082031 49.4375 23.117188 C 49.453125 23.257812 49.441406 23.402344 49.402344 23.539062 C 49.371094 23.652344 49.324219 23.761719 49.324219 23.878906 C 49.332031 23.882812 49.34375 23.894531 49.351562 23.902344 C 49.359375 23.914062 49.359375 23.925781 49.355469 23.9375 C 49.347656 23.957031 49.324219 23.960938 49.308594 23.972656 C 49.285156 23.988281 49.269531 24.023438 49.269531 24.050781 C 49.257812 24.09375 49.257812 24.136719 49.25 24.175781 C 49.242188 24.21875 49.234375 24.261719 49.207031 24.296875 C 49.1875 24.324219 49.191406 24.324219 49.160156 24.34375 L 49.164062 24.34375 C 49.21875 24.355469 49.285156 24.382812 49.316406 24.433594 C 49.339844 24.472656 49.339844 24.519531 49.324219 24.5625 C 49.3125 24.609375 49.285156 24.652344 49.253906 24.691406 C 49.3125 24.722656 49.355469 24.78125 49.371094 24.84375 C 49.382812 24.890625 49.378906 24.941406 49.390625 24.988281 C 49.410156 25.050781 49.46875 25.089844 49.523438 25.132812 C 49.488281 25.191406 49.472656 25.257812 49.464844 25.328125 C 49.453125 25.394531 49.445312 25.460938 49.425781 25.527344 C 49.40625 25.59375 49.363281 25.65625 49.308594 25.691406 C 49.371094 25.738281 49.410156 25.820312 49.394531 25.898438 C 49.382812 25.976562 49.316406 26.046875 49.242188 26.0625 C 49.234375 26.058594 49.214844 26.0625 49.210938 26.070312 C 49.207031 26.074219 49.207031 26.082031 49.207031 26.089844 C 49.214844 26.160156 49.21875 26.230469 49.238281 26.296875 C 49.242188 26.324219 49.253906 26.347656 49.269531 26.367188 C 49.285156 26.386719 49.3125 26.398438 49.339844 26.410156 C 49.300781 26.449219 49.289062 26.515625 49.304688 26.566406 C 49.320312 26.613281 49.355469 26.652344 49.371094 26.699219 C 49.382812 26.742188 49.382812 26.792969 49.378906 26.835938 C 49.371094 26.859375 49.378906 26.890625 49.398438 26.910156 C 49.414062 26.933594 49.4375 26.949219 49.460938 26.964844 C 49.492188 26.992188 49.519531 27.019531 49.542969 27.054688 C 49.558594 27.074219 49.574219 27.09375 49.578125 27.117188 C 49.582031 27.152344 49.570312 27.183594 49.554688 27.210938 Z M 49.554688 27.210938 " fill-opacity="1" fill-rule="nonzero"/><path fill="#0c2340" d="M 41.136719 22.878906 L 49.65625 22.878906 L 49.65625 31.398438 L 41.136719 31.398438 Z M 41.136719 22.878906 " fill-opacity="1" fill-rule="nonzero"/></g><g clip-path="url(#e8ae9fef1a)"><path fill="#ff0000" d="M 58.082031 25.527344 C 58.039062 25.601562 57.960938 25.648438 57.882812 25.691406 C 57.917969 25.738281 57.914062 25.800781 57.902344 25.855469 C 57.886719 25.910156 57.859375 25.960938 57.847656 26.015625 C 57.832031 26.070312 57.835938 26.140625 57.867188 26.1875 C 57.824219 26.191406 57.785156 26.226562 57.769531 26.265625 C 57.75 26.304688 57.746094 26.351562 57.742188 26.394531 C 57.742188 26.4375 57.734375 26.484375 57.710938 26.519531 L 57.710938 26.523438 C 57.777344 26.546875 57.839844 26.574219 57.886719 26.625 C 57.898438 26.640625 57.910156 26.65625 57.917969 26.675781 C 57.933594 26.71875 57.925781 26.765625 57.90625 26.804688 C 57.890625 26.847656 57.863281 26.882812 57.835938 26.921875 C 57.871094 26.957031 57.929688 26.996094 57.945312 27.042969 C 57.957031 27.074219 57.957031 27.105469 57.960938 27.136719 C 57.976562 27.25 58.035156 27.351562 58.03125 27.464844 C 58.03125 27.476562 58.023438 27.488281 58.011719 27.492188 C 58.003906 27.5 57.992188 27.503906 57.980469 27.507812 C 57.945312 27.527344 57.929688 27.566406 57.921875 27.605469 C 57.914062 27.644531 57.914062 27.683594 57.90625 27.722656 C 57.890625 27.800781 57.828125 27.863281 57.777344 27.925781 C 57.804688 27.960938 57.835938 27.996094 57.851562 28.039062 C 57.867188 28.082031 57.871094 28.132812 57.84375 28.171875 C 57.816406 28.21875 57.746094 28.242188 57.691406 28.257812 C 57.730469 28.292969 57.773438 28.335938 57.78125 28.390625 C 57.785156 28.429688 57.773438 28.46875 57.777344 28.507812 C 57.78125 28.539062 57.800781 28.570312 57.820312 28.597656 C 57.84375 28.621094 57.867188 28.640625 57.894531 28.664062 C 57.847656 28.734375 57.851562 28.832031 57.875 28.914062 C 57.894531 28.996094 57.933594 29.070312 57.957031 29.152344 C 57.984375 29.257812 57.980469 29.367188 57.953125 29.472656 C 57.8125 29.503906 57.648438 29.503906 57.515625 29.457031 C 57.453125 29.4375 57.390625 29.40625 57.328125 29.394531 C 57.261719 29.378906 57.183594 29.382812 57.132812 29.421875 C 57.109375 29.382812 57.070312 29.351562 57.027344 29.332031 C 56.980469 29.3125 56.925781 29.3125 56.871094 29.304688 C 56.820312 29.296875 56.757812 29.273438 56.730469 29.226562 C 56.71875 29.285156 56.691406 29.335938 56.652344 29.378906 C 56.640625 29.394531 56.625 29.410156 56.605469 29.414062 C 56.589844 29.417969 56.574219 29.410156 56.558594 29.40625 C 56.503906 29.382812 56.453125 29.351562 56.40625 29.320312 C 56.375 29.316406 56.351562 29.335938 56.332031 29.355469 C 56.3125 29.375 56.292969 29.398438 56.269531 29.414062 C 56.210938 29.453125 56.128906 29.421875 56.058594 29.449219 C 56.003906 29.472656 55.957031 29.523438 55.929688 29.574219 C 55.910156 29.558594 55.882812 29.550781 55.859375 29.550781 C 55.832031 29.546875 55.808594 29.546875 55.78125 29.542969 C 55.746094 29.535156 55.714844 29.511719 55.675781 29.5 C 55.625 29.484375 55.570312 29.488281 55.519531 29.472656 C 55.460938 29.453125 55.417969 29.410156 55.375 29.367188 C 55.320312 29.40625 55.296875 29.414062 55.234375 29.441406 C 55.207031 29.449219 55.179688 29.457031 55.15625 29.453125 C 55.132812 29.445312 55.117188 29.429688 55.101562 29.414062 C 55.054688 29.371094 55.015625 29.308594 54.988281 29.25 C 54.921875 29.285156 54.835938 29.257812 54.765625 29.28125 C 54.714844 29.296875 54.667969 29.339844 54.652344 29.390625 C 54.613281 29.355469 54.554688 29.355469 54.507812 29.371094 C 54.457031 29.386719 54.414062 29.414062 54.367188 29.429688 C 54.300781 29.449219 54.226562 29.445312 54.164062 29.417969 L 54.164062 29.402344 C 54.140625 29.496094 54.078125 29.574219 53.992188 29.613281 C 53.96875 29.625 53.941406 29.632812 53.917969 29.628906 C 53.894531 29.625 53.875 29.613281 53.855469 29.601562 C 53.792969 29.554688 53.734375 29.496094 53.695312 29.425781 C 53.617188 29.4375 53.542969 29.449219 53.472656 29.421875 C 53.4375 29.40625 53.40625 29.378906 53.371094 29.367188 C 53.3125 29.34375 53.246094 29.359375 53.199219 29.398438 C 53.191406 29.355469 53.15625 29.320312 53.113281 29.300781 C 53.074219 29.285156 53.027344 29.277344 52.984375 29.273438 C 52.941406 29.269531 52.894531 29.265625 52.855469 29.246094 C 52.847656 29.308594 52.820312 29.359375 52.777344 29.40625 C 52.761719 29.425781 52.738281 29.445312 52.710938 29.449219 C 52.695312 29.453125 52.679688 29.449219 52.664062 29.445312 C 52.601562 29.429688 52.546875 29.402344 52.496094 29.363281 C 52.417969 29.394531 52.367188 29.476562 52.285156 29.496094 C 52.246094 29.503906 52.203125 29.496094 52.164062 29.507812 C 52.132812 29.511719 52.105469 29.527344 52.074219 29.539062 C 52.023438 29.554688 51.960938 29.546875 51.914062 29.574219 C 51.886719 29.519531 51.828125 29.472656 51.765625 29.453125 C 51.730469 29.445312 51.695312 29.441406 51.65625 29.433594 C 51.589844 29.421875 51.515625 29.367188 51.472656 29.3125 C 51.441406 29.339844 51.4375 29.34375 51.398438 29.367188 C 51.363281 29.386719 51.320312 29.398438 51.277344 29.394531 C 51.242188 29.386719 51.207031 29.367188 51.183594 29.335938 C 51.15625 29.308594 51.136719 29.257812 51.132812 29.222656 C 51.101562 29.273438 51.042969 29.304688 50.984375 29.308594 C 50.941406 29.3125 50.902344 29.308594 50.859375 29.3125 C 50.804688 29.324219 50.746094 29.371094 50.722656 29.425781 C 50.671875 29.386719 50.605469 29.382812 50.542969 29.390625 C 50.445312 29.40625 50.351562 29.449219 50.257812 29.472656 C 50.144531 29.503906 49.992188 29.503906 49.902344 29.472656 C 49.871094 29.367188 49.871094 29.257812 49.898438 29.152344 C 49.917969 29.070312 49.957031 28.996094 49.980469 28.914062 C 50.003906 28.832031 50.007812 28.734375 49.960938 28.664062 C 49.984375 28.640625 50.011719 28.621094 50.035156 28.597656 C 50.054688 28.570312 50.070312 28.539062 50.074219 28.507812 C 50.082031 28.46875 50.070312 28.429688 50.074219 28.390625 C 50.082031 28.335938 50.125 28.292969 50.164062 28.257812 C 50.109375 28.242188 50.039062 28.21875 50.007812 28.171875 C 49.984375 28.132812 49.988281 28.082031 50.003906 28.039062 C 50.019531 27.996094 50.046875 27.960938 50.078125 27.925781 C 50.023438 27.863281 49.964844 27.800781 49.949219 27.722656 C 49.941406 27.683594 49.941406 27.644531 49.933594 27.605469 C 49.925781 27.566406 49.90625 27.527344 49.871094 27.507812 C 49.863281 27.503906 49.851562 27.5 49.839844 27.492188 C 49.832031 27.488281 49.824219 27.476562 49.824219 27.464844 C 49.820312 27.355469 49.878906 27.25 49.894531 27.136719 C 49.898438 27.105469 49.898438 27.074219 49.910156 27.042969 C 49.925781 26.996094 49.984375 26.957031 50.019531 26.921875 C 49.992188 26.886719 49.964844 26.847656 49.945312 26.808594 C 49.929688 26.765625 49.921875 26.71875 49.9375 26.675781 C 49.945312 26.65625 49.957031 26.640625 49.96875 26.625 C 50.011719 26.574219 50.078125 26.546875 50.140625 26.523438 L 50.144531 26.523438 C 50.121094 26.484375 50.113281 26.4375 50.109375 26.394531 C 50.105469 26.351562 50.105469 26.304688 50.085938 26.265625 C 50.070312 26.226562 50.03125 26.191406 49.988281 26.1875 C 50.019531 26.140625 50.023438 26.070312 50.007812 26.015625 C 49.996094 25.960938 49.96875 25.910156 49.953125 25.855469 C 49.9375 25.800781 49.9375 25.738281 49.96875 25.691406 C 49.894531 25.648438 49.816406 25.601562 49.773438 25.527344 C 49.753906 25.5 49.742188 25.46875 49.75 25.433594 C 49.753906 25.410156 49.765625 25.390625 49.78125 25.367188 C 49.808594 25.335938 49.835938 25.308594 49.867188 25.28125 C 49.890625 25.265625 49.914062 25.25 49.929688 25.226562 C 49.945312 25.207031 49.957031 25.175781 49.949219 25.152344 C 49.941406 25.109375 49.945312 25.054688 49.957031 25.015625 C 49.972656 24.96875 50.007812 24.929688 50.019531 24.882812 C 50.035156 24.828125 50.023438 24.765625 49.988281 24.726562 C 50.011719 24.714844 50.039062 24.703125 50.058594 24.679688 C 50.074219 24.664062 50.082031 24.636719 50.089844 24.613281 C 50.109375 24.546875 50.113281 24.476562 50.121094 24.40625 C 50.121094 24.398438 50.121094 24.390625 50.117188 24.386719 C 50.113281 24.378906 50.089844 24.375 50.085938 24.378906 C 50.007812 24.359375 49.945312 24.292969 49.933594 24.214844 C 49.917969 24.136719 49.953125 24.050781 50.019531 24.007812 C 49.960938 23.972656 49.921875 23.90625 49.902344 23.84375 C 49.878906 23.777344 49.875 23.710938 49.863281 23.640625 C 49.855469 23.574219 49.839844 23.507812 49.804688 23.449219 C 49.859375 23.40625 49.917969 23.367188 49.933594 23.304688 C 49.949219 23.257812 49.945312 23.207031 49.957031 23.160156 C 49.972656 23.097656 50.015625 23.039062 50.070312 23.003906 C 50.042969 22.96875 50.015625 22.921875 50 22.878906 C 49.988281 22.835938 49.988281 22.785156 50.011719 22.746094 C 50.039062 22.699219 50.105469 22.671875 50.164062 22.660156 C 50.136719 22.640625 50.136719 22.640625 50.117188 22.613281 C 50.09375 22.578125 50.082031 22.535156 50.078125 22.492188 C 50.070312 22.453125 50.066406 22.410156 50.054688 22.367188 C 50.058594 22.339844 50.042969 22.304688 50.015625 22.289062 C 50 22.277344 49.980469 22.273438 49.972656 22.253906 C 49.96875 22.242188 49.96875 22.230469 49.976562 22.21875 C 49.984375 22.210938 49.992188 22.199219 50.003906 22.195312 C 50 22.078125 49.953125 21.96875 49.925781 21.855469 C 49.886719 21.71875 49.875 21.574219 49.890625 21.433594 C 49.980469 21.398438 50.144531 21.40625 50.257812 21.4375 C 50.351562 21.460938 50.445312 21.503906 50.542969 21.519531 C 50.605469 21.527344 50.671875 21.523438 50.722656 21.484375 C 50.746094 21.539062 50.804688 21.585938 50.859375 21.597656 C 50.902344 21.605469 50.941406 21.597656 50.984375 21.601562 C 51.042969 21.605469 51.101562 21.640625 51.132812 21.691406 C 51.136719 21.652344 51.15625 21.601562 51.183594 21.574219 C 51.207031 21.542969 51.242188 21.523438 51.277344 21.515625 C 51.320312 21.511719 51.363281 21.523438 51.398438 21.542969 C 51.4375 21.566406 51.441406 21.570312 51.472656 21.597656 C 51.515625 21.542969 51.589844 21.488281 51.660156 21.476562 C 51.695312 21.46875 51.730469 21.464844 51.765625 21.457031 C 51.828125 21.4375 51.890625 21.394531 51.914062 21.335938 C 51.960938 21.363281 52.023438 21.355469 52.074219 21.371094 C 52.105469 21.382812 52.132812 21.398438 52.164062 21.40625 C 52.203125 21.414062 52.246094 21.40625 52.285156 21.414062 C 52.367188 21.433594 52.417969 21.519531 52.496094 21.546875 C 52.546875 21.507812 52.605469 21.480469 52.664062 21.464844 C 52.679688 21.460938 52.695312 21.457031 52.714844 21.460938 C 52.738281 21.464844 52.761719 21.484375 52.777344 21.503906 C 52.820312 21.550781 52.847656 21.601562 52.855469 21.664062 C 52.894531 21.648438 52.941406 21.640625 52.984375 21.636719 C 53.027344 21.632812 53.074219 21.625 53.113281 21.609375 C 53.15625 21.589844 53.191406 21.554688 53.203125 21.511719 C 53.246094 21.550781 53.316406 21.566406 53.371094 21.542969 C 53.40625 21.53125 53.4375 21.503906 53.472656 21.488281 C 53.542969 21.460938 53.621094 21.472656 53.695312 21.484375 C 53.734375 21.417969 53.792969 21.355469 53.859375 21.308594 C 53.875 21.296875 53.894531 21.285156 53.917969 21.28125 C 53.941406 21.277344 53.96875 21.285156 53.992188 21.296875 C 54.078125 21.335938 54.140625 21.417969 54.164062 21.507812 L 54.164062 21.492188 C 54.226562 21.464844 54.300781 21.460938 54.367188 21.480469 C 54.414062 21.496094 54.460938 21.523438 54.507812 21.539062 C 54.554688 21.554688 54.613281 21.554688 54.652344 21.519531 C 54.667969 21.570312 54.714844 21.613281 54.765625 21.628906 C 54.839844 21.652344 54.921875 21.625 54.992188 21.660156 C 55.015625 21.601562 55.054688 21.542969 55.101562 21.496094 C 55.117188 21.480469 55.132812 21.464844 55.15625 21.457031 C 55.183594 21.453125 55.207031 21.460938 55.234375 21.472656 C 55.296875 21.496094 55.320312 21.503906 55.375 21.542969 C 55.417969 21.5 55.460938 21.457031 55.519531 21.4375 C 55.570312 21.421875 55.628906 21.425781 55.679688 21.410156 C 55.714844 21.398438 55.746094 21.375 55.785156 21.367188 C 55.808594 21.363281 55.832031 21.363281 55.859375 21.359375 C 55.882812 21.359375 55.910156 21.351562 55.929688 21.335938 C 55.960938 21.386719 56.003906 21.441406 56.0625 21.460938 C 56.128906 21.488281 56.210938 21.457031 56.273438 21.496094 C 56.296875 21.511719 56.3125 21.535156 56.332031 21.554688 C 56.351562 21.574219 56.378906 21.59375 56.40625 21.59375 C 56.453125 21.558594 56.507812 21.527344 56.558594 21.503906 C 56.574219 21.5 56.589844 21.492188 56.605469 21.496094 C 56.625 21.5 56.640625 21.515625 56.65625 21.53125 C 56.691406 21.574219 56.71875 21.625 56.730469 21.683594 C 56.761719 21.636719 56.820312 21.613281 56.871094 21.605469 C 56.925781 21.597656 56.980469 21.597656 57.03125 21.578125 C 57.074219 21.558594 57.109375 21.527344 57.132812 21.488281 C 57.1875 21.527344 57.265625 21.53125 57.328125 21.515625 C 57.394531 21.503906 57.453125 21.472656 57.515625 21.453125 C 57.652344 21.40625 57.824219 21.398438 57.964844 21.429688 C 57.980469 21.574219 57.96875 21.71875 57.933594 21.855469 C 57.902344 21.96875 57.855469 22.078125 57.851562 22.195312 C 57.863281 22.199219 57.875 22.207031 57.878906 22.21875 C 57.886719 22.230469 57.890625 22.242188 57.882812 22.253906 C 57.875 22.273438 57.855469 22.277344 57.839844 22.289062 C 57.816406 22.304688 57.800781 22.339844 57.800781 22.367188 C 57.789062 22.410156 57.785156 22.453125 57.777344 22.492188 C 57.773438 22.535156 57.761719 22.578125 57.738281 22.613281 C 57.71875 22.640625 57.71875 22.640625 57.691406 22.660156 C 57.75 22.671875 57.816406 22.699219 57.84375 22.746094 C 57.867188 22.785156 57.867188 22.835938 57.855469 22.878906 C 57.839844 22.921875 57.8125 22.96875 57.785156 23.003906 C 57.839844 23.039062 57.882812 23.097656 57.898438 23.160156 C 57.910156 23.207031 57.90625 23.257812 57.921875 23.304688 C 57.9375 23.367188 57.996094 23.40625 58.050781 23.449219 C 58.015625 23.507812 58.003906 23.574219 57.992188 23.640625 C 57.980469 23.710938 57.976562 23.777344 57.953125 23.84375 C 57.933594 23.90625 57.894531 23.972656 57.835938 24.007812 C 57.902344 24.050781 57.9375 24.136719 57.925781 24.214844 C 57.910156 24.292969 57.847656 24.359375 57.769531 24.378906 C 57.765625 24.375 57.742188 24.378906 57.738281 24.386719 C 57.734375 24.390625 57.734375 24.398438 57.734375 24.40625 C 57.742188 24.476562 57.75 24.546875 57.765625 24.613281 C 57.773438 24.636719 57.78125 24.664062 57.796875 24.679688 C 57.816406 24.703125 57.84375 24.714844 57.867188 24.726562 C 57.832031 24.765625 57.820312 24.828125 57.835938 24.882812 C 57.847656 24.929688 57.882812 24.96875 57.898438 25.015625 C 57.914062 25.054688 57.914062 25.109375 57.910156 25.152344 C 57.898438 25.175781 57.910156 25.207031 57.925781 25.226562 C 57.945312 25.25 57.964844 25.265625 57.988281 25.28125 C 58.019531 25.308594 58.046875 25.335938 58.074219 25.367188 C 58.089844 25.386719 58.101562 25.410156 58.109375 25.433594 C 58.113281 25.46875 58.101562 25.5 58.082031 25.527344 Z M 58.082031 25.527344 " fill-opacity="1" fill-rule="nonzero"/><path fill="#0c2340" d="M 49.667969 21.195312 L 58.1875 21.195312 L 58.1875 29.714844 L 49.667969 29.714844 Z M 49.667969 21.195312 " fill-opacity="1" fill-rule="nonzero"/></g><g clip-path="url(#9e3180aba5)"><path fill="#ff0000" d="M 55.363281 29.792969 C 55.316406 29.867188 55.238281 29.910156 55.164062 29.953125 C 55.195312 30 55.195312 30.0625 55.179688 30.117188 C 55.164062 30.171875 55.140625 30.222656 55.125 30.28125 C 55.109375 30.335938 55.113281 30.40625 55.144531 30.453125 C 55.101562 30.457031 55.066406 30.492188 55.046875 30.53125 C 55.03125 30.570312 55.027344 30.617188 55.023438 30.660156 C 55.019531 30.703125 55.011719 30.75 54.992188 30.785156 C 55.054688 30.8125 55.121094 30.835938 55.164062 30.890625 C 55.175781 30.902344 55.1875 30.921875 55.195312 30.9375 C 55.210938 30.980469 55.203125 31.03125 55.1875 31.070312 C 55.167969 31.113281 55.140625 31.148438 55.113281 31.183594 C 55.148438 31.21875 55.207031 31.261719 55.222656 31.308594 C 55.234375 31.335938 55.234375 31.371094 55.238281 31.402344 C 55.253906 31.511719 55.316406 31.617188 55.3125 31.730469 C 55.3125 31.742188 55.300781 31.753906 55.292969 31.757812 C 55.28125 31.765625 55.269531 31.765625 55.261719 31.773438 C 55.226562 31.789062 55.207031 31.828125 55.199219 31.867188 C 55.191406 31.90625 55.195312 31.949219 55.1875 31.988281 C 55.167969 32.066406 55.109375 32.128906 55.054688 32.191406 C 55.085938 32.226562 55.113281 32.261719 55.128906 32.304688 C 55.148438 32.347656 55.148438 32.398438 55.125 32.4375 C 55.09375 32.484375 55.023438 32.507812 54.96875 32.519531 C 55.007812 32.558594 55.050781 32.601562 55.058594 32.65625 C 55.066406 32.695312 55.054688 32.734375 55.058594 32.773438 C 55.0625 32.804688 55.078125 32.835938 55.101562 32.859375 C 55.121094 32.886719 55.148438 32.90625 55.171875 32.925781 C 55.125 32.996094 55.132812 33.097656 55.152344 33.179688 C 55.175781 33.261719 55.214844 33.335938 55.234375 33.417969 C 55.261719 33.519531 55.261719 33.632812 55.230469 33.734375 C 55.089844 33.769531 54.929688 33.769531 54.792969 33.722656 C 54.730469 33.699219 54.671875 33.671875 54.605469 33.65625 C 54.542969 33.644531 54.464844 33.644531 54.410156 33.6875 C 54.386719 33.644531 54.351562 33.613281 54.308594 33.597656 C 54.257812 33.578125 54.203125 33.578125 54.148438 33.566406 C 54.097656 33.558594 54.039062 33.535156 54.007812 33.492188 C 53.996094 33.546875 53.96875 33.601562 53.933594 33.644531 C 53.917969 33.660156 53.902344 33.675781 53.882812 33.679688 C 53.867188 33.679688 53.851562 33.675781 53.839844 33.671875 C 53.785156 33.648438 53.730469 33.617188 53.683594 33.582031 C 53.65625 33.582031 53.628906 33.601562 53.609375 33.621094 C 53.589844 33.640625 53.574219 33.664062 53.550781 33.679688 C 53.488281 33.71875 53.40625 33.6875 53.339844 33.714844 C 53.285156 33.734375 53.238281 33.789062 53.207031 33.839844 C 53.1875 33.820312 53.160156 33.816406 53.136719 33.8125 C 53.113281 33.8125 53.085938 33.8125 53.0625 33.808594 C 53.023438 33.796875 52.992188 33.777344 52.957031 33.765625 C 52.90625 33.75 52.847656 33.753906 52.796875 33.738281 C 52.742188 33.71875 52.695312 33.671875 52.652344 33.628906 C 52.597656 33.671875 52.574219 33.679688 52.511719 33.703125 C 52.488281 33.714844 52.460938 33.722656 52.433594 33.714844 C 52.414062 33.710938 52.394531 33.695312 52.378906 33.679688 C 52.332031 33.632812 52.292969 33.574219 52.269531 33.515625 C 52.199219 33.550781 52.117188 33.523438 52.042969 33.546875 C 51.992188 33.5625 51.949219 33.605469 51.929688 33.65625 C 51.894531 33.621094 51.835938 33.621094 51.785156 33.636719 C 51.738281 33.652344 51.695312 33.679688 51.644531 33.695312 C 51.578125 33.714844 51.507812 33.710938 51.445312 33.683594 L 51.445312 33.667969 C 51.421875 33.757812 51.355469 33.835938 51.273438 33.878906 C 51.246094 33.890625 51.222656 33.898438 51.195312 33.894531 C 51.171875 33.890625 51.152344 33.878906 51.136719 33.867188 C 51.070312 33.820312 51.015625 33.757812 50.972656 33.691406 C 50.898438 33.703125 50.820312 33.714844 50.753906 33.683594 C 50.71875 33.667969 50.6875 33.644531 50.648438 33.628906 C 50.59375 33.609375 50.523438 33.621094 50.480469 33.664062 C 50.472656 33.621094 50.433594 33.585938 50.394531 33.566406 C 50.351562 33.546875 50.308594 33.542969 50.261719 33.539062 C 50.21875 33.535156 50.171875 33.527344 50.132812 33.511719 C 50.125 33.574219 50.101562 33.625 50.054688 33.671875 C 50.039062 33.691406 50.015625 33.710938 49.992188 33.714844 C 49.976562 33.714844 49.957031 33.714844 49.941406 33.707031 C 49.882812 33.691406 49.824219 33.664062 49.777344 33.628906 C 49.695312 33.65625 49.648438 33.742188 49.5625 33.761719 C 49.523438 33.769531 49.480469 33.761719 49.441406 33.769531 C 49.410156 33.777344 49.382812 33.792969 49.355469 33.800781 C 49.300781 33.816406 49.238281 33.8125 49.191406 33.839844 C 49.167969 33.78125 49.105469 33.734375 49.046875 33.71875 C 49.011719 33.707031 48.972656 33.707031 48.9375 33.699219 C 48.867188 33.683594 48.792969 33.632812 48.75 33.574219 C 48.71875 33.605469 48.714844 33.609375 48.679688 33.632812 C 48.640625 33.652344 48.597656 33.664062 48.558594 33.660156 C 48.519531 33.652344 48.484375 33.632812 48.460938 33.601562 C 48.4375 33.574219 48.417969 33.523438 48.410156 33.484375 C 48.378906 33.535156 48.320312 33.566406 48.261719 33.574219 C 48.222656 33.578125 48.179688 33.570312 48.140625 33.578125 C 48.082031 33.589844 48.023438 33.636719 48 33.691406 C 47.949219 33.652344 47.882812 33.648438 47.820312 33.65625 C 47.722656 33.671875 47.632812 33.714844 47.535156 33.738281 C 47.425781 33.769531 47.269531 33.769531 47.183594 33.734375 C 47.152344 33.632812 47.148438 33.519531 47.175781 33.417969 C 47.199219 33.335938 47.238281 33.261719 47.257812 33.179688 C 47.28125 33.097656 47.285156 32.996094 47.238281 32.929688 C 47.265625 32.90625 47.292969 32.886719 47.3125 32.859375 C 47.332031 32.835938 47.351562 32.804688 47.355469 32.773438 C 47.359375 32.734375 47.347656 32.695312 47.355469 32.65625 C 47.363281 32.601562 47.402344 32.558594 47.445312 32.519531 C 47.390625 32.507812 47.316406 32.484375 47.289062 32.4375 C 47.265625 32.398438 47.265625 32.347656 47.28125 32.304688 C 47.296875 32.261719 47.328125 32.226562 47.355469 32.191406 C 47.304688 32.128906 47.242188 32.066406 47.226562 31.988281 C 47.21875 31.949219 47.21875 31.90625 47.210938 31.867188 C 47.203125 31.832031 47.1875 31.789062 47.152344 31.773438 C 47.140625 31.765625 47.128906 31.765625 47.121094 31.757812 C 47.109375 31.753906 47.101562 31.742188 47.101562 31.730469 C 47.097656 31.617188 47.15625 31.511719 47.171875 31.402344 C 47.175781 31.371094 47.179688 31.335938 47.1875 31.308594 C 47.203125 31.261719 47.261719 31.21875 47.296875 31.183594 C 47.269531 31.148438 47.242188 31.113281 47.226562 31.070312 C 47.207031 31.03125 47.203125 30.980469 47.21875 30.9375 C 47.222656 30.921875 47.234375 30.902344 47.25 30.890625 C 47.292969 30.835938 47.359375 30.8125 47.421875 30.785156 C 47.398438 30.75 47.394531 30.703125 47.390625 30.660156 C 47.386719 30.617188 47.382812 30.570312 47.367188 30.53125 C 47.347656 30.492188 47.3125 30.457031 47.265625 30.453125 C 47.296875 30.40625 47.300781 30.335938 47.289062 30.28125 C 47.273438 30.226562 47.246094 30.171875 47.234375 30.117188 C 47.21875 30.0625 47.21875 30 47.25 29.953125 C 47.171875 29.910156 47.097656 29.867188 47.050781 29.792969 C 47.035156 29.765625 47.023438 29.730469 47.027344 29.699219 C 47.03125 29.675781 47.046875 29.652344 47.0625 29.632812 C 47.085938 29.601562 47.113281 29.570312 47.148438 29.546875 C 47.167969 29.53125 47.191406 29.515625 47.207031 29.492188 C 47.226562 29.472656 47.234375 29.441406 47.226562 29.414062 C 47.222656 29.371094 47.222656 29.320312 47.238281 29.28125 C 47.25 29.234375 47.285156 29.195312 47.300781 29.148438 C 47.316406 29.09375 47.304688 29.03125 47.265625 28.988281 C 47.292969 28.976562 47.320312 28.96875 47.335938 28.945312 C 47.355469 28.925781 47.363281 28.902344 47.367188 28.878906 C 47.386719 28.8125 47.394531 28.742188 47.398438 28.671875 C 47.398438 28.664062 47.398438 28.65625 47.394531 28.648438 C 47.394531 28.644531 47.371094 28.636719 47.367188 28.644531 C 47.289062 28.625 47.226562 28.558594 47.210938 28.480469 C 47.195312 28.402344 47.234375 28.316406 47.300781 28.273438 C 47.242188 28.234375 47.199219 28.171875 47.179688 28.109375 C 47.160156 28.042969 47.152344 27.972656 47.144531 27.90625 C 47.132812 27.839844 47.117188 27.769531 47.082031 27.710938 C 47.136719 27.671875 47.195312 27.632812 47.214844 27.570312 C 47.226562 27.523438 47.226562 27.472656 47.234375 27.425781 C 47.25 27.359375 47.292969 27.304688 47.351562 27.269531 C 47.324219 27.234375 47.292969 27.1875 47.28125 27.144531 C 47.265625 27.101562 47.265625 27.050781 47.289062 27.011719 C 47.320312 26.960938 47.386719 26.9375 47.441406 26.925781 L 47.445312 26.925781 C 47.417969 26.902344 47.417969 26.90625 47.398438 26.875 C 47.371094 26.84375 47.363281 26.800781 47.355469 26.757812 C 47.347656 26.714844 47.347656 26.671875 47.335938 26.632812 C 47.335938 26.605469 47.320312 26.570312 47.296875 26.554688 C 47.28125 26.542969 47.257812 26.535156 47.25 26.519531 C 47.246094 26.507812 47.25 26.496094 47.253906 26.484375 C 47.261719 26.472656 47.273438 26.464844 47.285156 26.457031 C 47.28125 26.34375 47.234375 26.230469 47.203125 26.121094 C 47.167969 25.980469 47.15625 25.839844 47.167969 25.695312 C 47.257812 25.664062 47.425781 25.671875 47.535156 25.699219 C 47.632812 25.726562 47.722656 25.769531 47.824219 25.78125 C 47.882812 25.792969 47.949219 25.785156 48 25.75 C 48.023438 25.800781 48.082031 25.851562 48.140625 25.859375 C 48.179688 25.867188 48.222656 25.863281 48.261719 25.867188 C 48.324219 25.871094 48.378906 25.902344 48.414062 25.953125 C 48.417969 25.917969 48.4375 25.867188 48.460938 25.835938 C 48.484375 25.808594 48.519531 25.785156 48.558594 25.78125 C 48.601562 25.773438 48.640625 25.789062 48.679688 25.808594 C 48.714844 25.828125 48.722656 25.835938 48.75 25.863281 C 48.792969 25.808594 48.867188 25.753906 48.9375 25.738281 C 48.972656 25.730469 49.011719 25.730469 49.046875 25.722656 C 49.105469 25.703125 49.167969 25.65625 49.191406 25.601562 C 49.242188 25.628906 49.300781 25.621094 49.355469 25.636719 C 49.386719 25.644531 49.414062 25.660156 49.445312 25.667969 C 49.484375 25.675781 49.523438 25.667969 49.5625 25.679688 C 49.648438 25.695312 49.695312 25.78125 49.777344 25.808594 C 49.828125 25.773438 49.882812 25.746094 49.941406 25.730469 C 49.957031 25.726562 49.976562 25.722656 49.992188 25.726562 C 50.019531 25.730469 50.039062 25.746094 50.058594 25.765625 C 50.101562 25.816406 50.125 25.863281 50.132812 25.929688 C 50.175781 25.910156 50.21875 25.90625 50.261719 25.902344 C 50.308594 25.894531 50.351562 25.890625 50.394531 25.875 C 50.433594 25.855469 50.472656 25.820312 50.480469 25.773438 C 50.523438 25.816406 50.59375 25.828125 50.652344 25.808594 C 50.6875 25.796875 50.71875 25.769531 50.753906 25.753906 C 50.824219 25.726562 50.898438 25.738281 50.972656 25.75 C 51.015625 25.679688 51.070312 25.621094 51.136719 25.574219 C 51.15625 25.558594 51.175781 25.546875 51.195312 25.542969 C 51.222656 25.539062 51.25 25.550781 51.273438 25.5625 C 51.355469 25.601562 51.421875 25.679688 51.445312 25.769531 L 51.445312 25.757812 C 51.507812 25.730469 51.582031 25.726562 51.644531 25.746094 C 51.695312 25.761719 51.738281 25.789062 51.785156 25.804688 C 51.835938 25.816406 51.894531 25.816406 51.929688 25.78125 C 51.949219 25.832031 51.992188 25.875 52.042969 25.894531 C 52.117188 25.914062 52.203125 25.890625 52.269531 25.925781 C 52.296875 25.863281 52.332031 25.804688 52.378906 25.757812 C 52.394531 25.742188 52.414062 25.726562 52.433594 25.722656 C 52.460938 25.714844 52.488281 25.726562 52.511719 25.734375 C 52.574219 25.761719 52.601562 25.769531 52.652344 25.808594 C 52.695312 25.765625 52.742188 25.722656 52.796875 25.703125 C 52.851562 25.683594 52.90625 25.691406 52.957031 25.675781 C 52.992188 25.664062 53.023438 25.640625 53.0625 25.632812 C 53.085938 25.625 53.113281 25.628906 53.136719 25.625 C 53.164062 25.625 53.1875 25.617188 53.207031 25.601562 C 53.238281 25.652344 53.285156 25.703125 53.339844 25.726562 C 53.40625 25.75 53.488281 25.722656 53.550781 25.761719 C 53.574219 25.773438 53.589844 25.800781 53.609375 25.820312 C 53.628906 25.839844 53.65625 25.859375 53.683594 25.855469 C 53.730469 25.824219 53.785156 25.789062 53.839844 25.769531 C 53.855469 25.765625 53.867188 25.757812 53.882812 25.761719 C 53.90625 25.761719 53.921875 25.777344 53.933594 25.792969 C 53.96875 25.839844 53.996094 25.890625 54.007812 25.945312 C 54.039062 25.902344 54.097656 25.878906 54.152344 25.871094 C 54.203125 25.863281 54.257812 25.863281 54.308594 25.84375 C 54.351562 25.824219 54.386719 25.792969 54.414062 25.753906 C 54.464844 25.792969 54.542969 25.796875 54.605469 25.78125 C 54.671875 25.769531 54.730469 25.738281 54.792969 25.71875 C 54.929688 25.671875 55.105469 25.664062 55.246094 25.695312 C 55.257812 25.835938 55.246094 25.980469 55.210938 26.121094 C 55.179688 26.230469 55.132812 26.339844 55.128906 26.457031 C 55.140625 26.464844 55.152344 26.472656 55.160156 26.484375 C 55.164062 26.496094 55.167969 26.507812 55.164062 26.519531 C 55.15625 26.535156 55.132812 26.542969 55.117188 26.554688 C 55.09375 26.570312 55.078125 26.601562 55.078125 26.632812 C 55.066406 26.671875 55.066406 26.714844 55.058594 26.757812 C 55.050781 26.800781 55.042969 26.84375 55.015625 26.875 C 54.996094 26.90625 54.996094 26.902344 54.96875 26.925781 L 54.972656 26.925781 C 55.027344 26.9375 55.09375 26.960938 55.125 27.011719 C 55.148438 27.050781 55.148438 27.101562 55.132812 27.144531 C 55.121094 27.1875 55.089844 27.234375 55.0625 27.269531 C 55.121094 27.304688 55.164062 27.359375 55.179688 27.425781 C 55.1875 27.472656 55.1875 27.523438 55.199219 27.566406 C 55.21875 27.632812 55.277344 27.671875 55.332031 27.710938 C 55.296875 27.769531 55.28125 27.839844 55.269531 27.90625 C 55.261719 27.972656 55.253906 28.042969 55.234375 28.109375 C 55.210938 28.171875 55.171875 28.234375 55.113281 28.273438 C 55.179688 28.316406 55.21875 28.402344 55.203125 28.480469 C 55.1875 28.558594 55.125 28.625 55.046875 28.644531 C 55.042969 28.636719 55.019531 28.644531 55.019531 28.648438 C 55.015625 28.65625 55.015625 28.664062 55.015625 28.671875 C 55.019531 28.742188 55.027344 28.808594 55.046875 28.878906 C 55.050781 28.902344 55.058594 28.925781 55.078125 28.945312 C 55.09375 28.96875 55.121094 28.976562 55.148438 28.988281 C 55.109375 29.03125 55.097656 29.09375 55.113281 29.148438 C 55.128906 29.195312 55.164062 29.234375 55.175781 29.28125 C 55.191406 29.320312 55.191406 29.371094 55.1875 29.414062 C 55.179688 29.441406 55.1875 29.472656 55.207031 29.492188 C 55.222656 29.515625 55.246094 29.53125 55.265625 29.546875 C 55.296875 29.570312 55.328125 29.601562 55.351562 29.632812 C 55.367188 29.652344 55.382812 29.675781 55.386719 29.699219 C 55.390625 29.730469 55.378906 29.765625 55.363281 29.792969 Z M 55.363281 29.792969 " fill-opacity="1" fill-rule="nonzero"/></g><g clip-path="url(#5fbf22e08a)"><path fill="#0c2340" d="M 46.945312 25.460938 L 55.464844 25.460938 L 55.464844 33.980469 L 46.945312 33.980469 Z M 46.945312 25.460938 " fill-opacity="1" fill-rule="nonzero"/></g><g clip-path="url(#c949d60fe1)"><path fill="#ff0000" d="M 57.109375 34.042969 C 57.074219 34.101562 57.015625 34.132812 56.957031 34.167969 C 56.980469 34.203125 56.980469 34.25 56.96875 34.292969 C 56.957031 34.335938 56.9375 34.375 56.925781 34.414062 C 56.917969 34.457031 56.917969 34.511719 56.945312 34.550781 C 56.910156 34.550781 56.882812 34.578125 56.867188 34.609375 C 56.855469 34.640625 56.851562 34.671875 56.851562 34.707031 C 56.847656 34.738281 56.84375 34.773438 56.824219 34.804688 C 56.875 34.824219 56.921875 34.84375 56.957031 34.882812 C 56.96875 34.894531 56.976562 34.90625 56.980469 34.921875 C 56.992188 34.953125 56.988281 34.988281 56.976562 35.019531 C 56.960938 35.054688 56.941406 35.082031 56.921875 35.109375 C 56.945312 35.136719 56.992188 35.164062 57.003906 35.203125 C 57.011719 35.226562 57.011719 35.25 57.015625 35.273438 C 57.027344 35.359375 57.074219 35.4375 57.070312 35.527344 C 57.070312 35.535156 57.0625 35.542969 57.054688 35.546875 C 57.046875 35.550781 57.039062 35.554688 57.03125 35.558594 C 57.003906 35.570312 56.992188 35.601562 56.984375 35.632812 C 56.980469 35.660156 56.980469 35.691406 56.972656 35.722656 C 56.960938 35.78125 56.914062 35.832031 56.875 35.875 C 56.898438 35.90625 56.917969 35.933594 56.929688 35.964844 C 56.945312 35.996094 56.945312 36.035156 56.925781 36.066406 C 56.902344 36.101562 56.851562 36.117188 56.808594 36.128906 C 56.839844 36.160156 56.871094 36.191406 56.878906 36.234375 C 56.882812 36.261719 56.871094 36.292969 56.875 36.320312 C 56.878906 36.347656 56.890625 36.371094 56.910156 36.390625 C 56.925781 36.410156 56.945312 36.425781 56.964844 36.441406 C 56.929688 36.496094 56.933594 36.570312 56.949219 36.632812 C 56.964844 36.695312 56.996094 36.753906 57.011719 36.816406 C 57.03125 36.894531 57.03125 36.980469 57.007812 37.058594 C 56.902344 37.085938 56.777344 37.085938 56.675781 37.050781 C 56.625 37.03125 56.582031 37.011719 56.53125 37 C 56.480469 36.988281 56.421875 36.992188 56.382812 37.019531 C 56.363281 36.992188 56.335938 36.964844 56.304688 36.953125 C 56.265625 36.9375 56.222656 36.9375 56.183594 36.929688 C 56.140625 36.925781 56.097656 36.90625 56.074219 36.875 C 56.0625 36.914062 56.042969 36.957031 56.015625 36.988281 C 56.003906 37 55.992188 37.011719 55.976562 37.015625 C 55.964844 37.015625 55.953125 37.011719 55.945312 37.007812 C 55.902344 36.992188 55.863281 36.96875 55.824219 36.941406 C 55.804688 36.941406 55.785156 36.957031 55.769531 36.96875 C 55.753906 36.984375 55.742188 37.003906 55.722656 37.015625 C 55.675781 37.046875 55.613281 37.023438 55.5625 37.042969 C 55.519531 37.058594 55.484375 37.097656 55.460938 37.136719 C 55.445312 37.125 55.425781 37.121094 55.40625 37.117188 C 55.386719 37.117188 55.367188 37.117188 55.347656 37.113281 C 55.320312 37.105469 55.296875 37.089844 55.269531 37.082031 C 55.230469 37.070312 55.1875 37.074219 55.148438 37.058594 C 55.105469 37.046875 55.070312 37.011719 55.035156 36.980469 C 54.996094 37.007812 54.976562 37.015625 54.929688 37.035156 C 54.910156 37.042969 54.890625 37.050781 54.871094 37.042969 C 54.851562 37.039062 54.839844 37.027344 54.828125 37.015625 C 54.792969 36.980469 54.761719 36.9375 54.742188 36.890625 C 54.691406 36.917969 54.625 36.898438 54.570312 36.914062 C 54.53125 36.925781 54.496094 36.960938 54.484375 37 C 54.457031 36.972656 54.410156 36.972656 54.375 36.984375 C 54.335938 36.996094 54.304688 37.015625 54.265625 37.027344 C 54.214844 37.042969 54.160156 37.039062 54.113281 37.019531 L 54.113281 37.007812 C 54.09375 37.078125 54.042969 37.136719 53.980469 37.167969 C 53.960938 37.175781 53.941406 37.183594 53.921875 37.179688 C 53.90625 37.179688 53.890625 37.167969 53.875 37.160156 C 53.828125 37.121094 53.785156 37.078125 53.75 37.023438 C 53.695312 37.035156 53.636719 37.042969 53.582031 37.019531 C 53.554688 37.007812 53.53125 36.988281 53.503906 36.976562 C 53.460938 36.960938 53.410156 36.972656 53.375 37.003906 C 53.367188 36.972656 53.339844 36.941406 53.308594 36.929688 C 53.277344 36.914062 53.242188 36.910156 53.210938 36.90625 C 53.175781 36.90625 53.140625 36.902344 53.109375 36.886719 C 53.105469 36.9375 53.085938 36.972656 53.050781 37.011719 C 53.039062 37.027344 53.019531 37.039062 53 37.042969 C 52.988281 37.042969 52.976562 37.042969 52.964844 37.039062 C 52.917969 37.027344 52.875 37.003906 52.835938 36.976562 C 52.773438 37 52.738281 37.0625 52.675781 37.078125 C 52.644531 37.085938 52.613281 37.078125 52.582031 37.085938 C 52.558594 37.089844 52.539062 37.101562 52.515625 37.109375 C 52.472656 37.121094 52.425781 37.117188 52.390625 37.136719 C 52.371094 37.09375 52.324219 37.058594 52.277344 37.046875 C 52.25 37.039062 52.222656 37.039062 52.195312 37.03125 C 52.140625 37.019531 52.085938 36.980469 52.054688 36.9375 C 52.03125 36.957031 52.023438 36.960938 51.996094 36.980469 C 51.96875 36.996094 51.9375 37.003906 51.90625 37 C 51.875 36.996094 51.847656 36.980469 51.832031 36.957031 C 51.8125 36.933594 51.796875 36.898438 51.792969 36.867188 C 51.769531 36.90625 51.722656 36.929688 51.679688 36.933594 C 51.648438 36.9375 51.617188 36.933594 51.585938 36.9375 C 51.542969 36.945312 51.496094 36.984375 51.476562 37.023438 C 51.441406 36.996094 51.390625 36.992188 51.34375 37 C 51.265625 37.007812 51.195312 37.042969 51.125 37.0625 C 51.039062 37.085938 50.921875 37.085938 50.851562 37.058594 C 50.828125 36.980469 50.828125 36.894531 50.847656 36.816406 C 50.867188 36.753906 50.894531 36.695312 50.910156 36.632812 C 50.929688 36.570312 50.933594 36.496094 50.898438 36.441406 C 50.917969 36.425781 50.9375 36.410156 50.953125 36.390625 C 50.96875 36.371094 50.980469 36.347656 50.984375 36.320312 C 50.988281 36.292969 50.980469 36.261719 50.984375 36.234375 C 50.988281 36.191406 51.023438 36.160156 51.054688 36.128906 C 51.011719 36.121094 50.957031 36.101562 50.933594 36.066406 C 50.914062 36.035156 50.917969 35.996094 50.929688 35.964844 C 50.941406 35.933594 50.964844 35.902344 50.984375 35.878906 C 50.945312 35.832031 50.898438 35.78125 50.886719 35.722656 C 50.878906 35.691406 50.882812 35.660156 50.875 35.632812 C 50.871094 35.601562 50.855469 35.570312 50.828125 35.558594 C 50.820312 35.554688 50.8125 35.550781 50.804688 35.546875 C 50.796875 35.542969 50.792969 35.535156 50.792969 35.527344 C 50.789062 35.441406 50.832031 35.359375 50.847656 35.273438 C 50.847656 35.25 50.851562 35.226562 50.859375 35.203125 C 50.871094 35.164062 50.914062 35.136719 50.941406 35.109375 C 50.921875 35.082031 50.898438 35.054688 50.886719 35.019531 C 50.871094 34.988281 50.867188 34.953125 50.878906 34.921875 C 50.886719 34.90625 50.894531 34.894531 50.902344 34.882812 C 50.9375 34.84375 50.988281 34.824219 51.035156 34.804688 C 51.019531 34.773438 51.015625 34.738281 51.011719 34.707031 C 51.007812 34.671875 51.007812 34.640625 50.992188 34.609375 C 50.980469 34.578125 50.953125 34.550781 50.917969 34.550781 C 50.941406 34.511719 50.945312 34.457031 50.933594 34.414062 C 50.921875 34.375 50.902344 34.335938 50.890625 34.292969 C 50.878906 34.25 50.878906 34.203125 50.90625 34.167969 C 50.847656 34.132812 50.785156 34.101562 50.753906 34.042969 C 50.738281 34.023438 50.730469 33.996094 50.734375 33.972656 C 50.738281 33.953125 50.75 33.9375 50.761719 33.921875 C 50.78125 33.898438 50.800781 33.875 50.824219 33.855469 C 50.84375 33.84375 50.859375 33.832031 50.875 33.8125 C 50.886719 33.796875 50.894531 33.773438 50.886719 33.753906 C 50.882812 33.722656 50.882812 33.683594 50.894531 33.652344 C 50.90625 33.617188 50.933594 33.585938 50.941406 33.550781 C 50.957031 33.507812 50.945312 33.460938 50.917969 33.429688 C 50.9375 33.421875 50.957031 33.410156 50.972656 33.394531 C 50.984375 33.382812 50.992188 33.363281 50.996094 33.34375 C 51.007812 33.292969 51.015625 33.238281 51.019531 33.183594 C 51.019531 33.179688 51.019531 33.175781 51.015625 33.167969 C 51.015625 33.164062 50.996094 33.160156 50.992188 33.164062 C 50.933594 33.152344 50.886719 33.097656 50.875 33.039062 C 50.863281 32.980469 50.890625 32.914062 50.941406 32.878906 C 50.898438 32.851562 50.867188 32.804688 50.851562 32.753906 C 50.835938 32.707031 50.832031 32.652344 50.824219 32.601562 C 50.816406 32.550781 50.804688 32.496094 50.777344 32.453125 C 50.820312 32.421875 50.863281 32.390625 50.878906 32.34375 C 50.886719 32.308594 50.886719 32.269531 50.894531 32.234375 C 50.90625 32.183594 50.9375 32.140625 50.980469 32.113281 C 50.960938 32.085938 50.9375 32.050781 50.929688 32.019531 C 50.917969 31.984375 50.917969 31.945312 50.933594 31.917969 C 50.957031 31.878906 51.007812 31.859375 51.050781 31.851562 L 51.054688 31.851562 C 51.03125 31.832031 51.03125 31.835938 51.015625 31.8125 C 51 31.785156 50.992188 31.753906 50.984375 31.722656 C 50.980469 31.691406 50.980469 31.65625 50.96875 31.625 C 50.96875 31.605469 50.957031 31.578125 50.941406 31.566406 C 50.929688 31.558594 50.910156 31.554688 50.90625 31.539062 C 50.902344 31.53125 50.902344 31.519531 50.910156 31.511719 C 50.914062 31.503906 50.921875 31.496094 50.929688 31.492188 C 50.929688 31.40625 50.890625 31.320312 50.867188 31.234375 C 50.839844 31.128906 50.832031 31.019531 50.84375 30.910156 C 50.910156 30.886719 51.039062 30.890625 51.125 30.914062 C 51.195312 30.933594 51.265625 30.964844 51.34375 30.976562 C 51.390625 30.984375 51.441406 30.980469 51.480469 30.953125 C 51.496094 30.992188 51.542969 31.027344 51.585938 31.035156 C 51.617188 31.042969 51.648438 31.035156 51.679688 31.039062 C 51.726562 31.042969 51.769531 31.070312 51.792969 31.109375 C 51.796875 31.078125 51.8125 31.042969 51.832031 31.019531 C 51.851562 30.996094 51.875 30.980469 51.90625 30.976562 C 51.9375 30.96875 51.96875 30.980469 51.996094 30.996094 C 52.027344 31.011719 52.03125 31.015625 52.054688 31.039062 C 52.085938 30.996094 52.144531 30.953125 52.195312 30.945312 C 52.222656 30.9375 52.25 30.9375 52.277344 30.929688 C 52.324219 30.917969 52.371094 30.878906 52.390625 30.835938 C 52.425781 30.859375 52.472656 30.851562 52.515625 30.863281 C 52.539062 30.871094 52.558594 30.882812 52.582031 30.890625 C 52.613281 30.894531 52.644531 30.890625 52.675781 30.898438 C 52.738281 30.910156 52.773438 30.976562 52.835938 30.996094 C 52.875 30.96875 52.917969 30.949219 52.964844 30.9375 C 52.976562 30.933594 52.988281 30.929688 53.003906 30.933594 C 53.023438 30.9375 53.039062 30.949219 53.050781 30.964844 C 53.085938 31 53.105469 31.039062 53.109375 31.089844 C 53.140625 31.074219 53.175781 31.070312 53.210938 31.066406 C 53.242188 31.0625 53.277344 31.058594 53.308594 31.046875 C 53.339844 31.03125 53.367188 31.003906 53.375 30.972656 C 53.410156 31.003906 53.460938 31.011719 53.503906 30.996094 C 53.535156 30.988281 53.558594 30.96875 53.582031 30.957031 C 53.636719 30.933594 53.695312 30.941406 53.753906 30.953125 C 53.785156 30.898438 53.828125 30.851562 53.878906 30.816406 C 53.890625 30.808594 53.90625 30.796875 53.921875 30.792969 C 53.941406 30.792969 53.964844 30.796875 53.980469 30.808594 C 54.046875 30.839844 54.09375 30.898438 54.113281 30.96875 L 54.113281 30.957031 C 54.160156 30.9375 54.214844 30.933594 54.265625 30.949219 C 54.304688 30.960938 54.335938 30.980469 54.375 30.992188 C 54.410156 31.003906 54.457031 31.003906 54.484375 30.976562 C 54.496094 31.015625 54.53125 31.046875 54.570312 31.0625 C 54.628906 31.078125 54.691406 31.058594 54.742188 31.085938 C 54.761719 31.039062 54.792969 30.996094 54.828125 30.957031 C 54.839844 30.945312 54.851562 30.933594 54.871094 30.929688 C 54.890625 30.925781 54.910156 30.933594 54.929688 30.941406 C 54.976562 30.960938 54.996094 30.964844 55.035156 30.996094 C 55.070312 30.964844 55.105469 30.929688 55.148438 30.914062 C 55.1875 30.902344 55.230469 30.90625 55.269531 30.894531 C 55.296875 30.882812 55.320312 30.867188 55.351562 30.863281 C 55.367188 30.859375 55.386719 30.859375 55.40625 30.855469 C 55.425781 30.855469 55.445312 30.851562 55.460938 30.839844 C 55.484375 30.875 55.519531 30.917969 55.5625 30.933594 C 55.613281 30.953125 55.675781 30.929688 55.722656 30.960938 C 55.742188 30.972656 55.753906 30.988281 55.769531 31.003906 C 55.785156 31.019531 55.804688 31.035156 55.824219 31.03125 C 55.863281 31.007812 55.902344 30.984375 55.945312 30.964844 C 55.957031 30.960938 55.96875 30.957031 55.980469 30.960938 C 55.992188 30.960938 56.007812 30.972656 56.015625 30.984375 C 56.042969 31.019531 56.066406 31.058594 56.074219 31.101562 C 56.097656 31.066406 56.140625 31.050781 56.183594 31.042969 C 56.222656 31.039062 56.265625 31.039062 56.304688 31.023438 C 56.335938 31.007812 56.363281 30.984375 56.382812 30.953125 C 56.421875 30.984375 56.480469 30.988281 56.53125 30.976562 C 56.582031 30.964844 56.625 30.941406 56.675781 30.925781 C 56.777344 30.890625 56.910156 30.886719 57.019531 30.910156 C 57.03125 31.019531 57.023438 31.128906 56.992188 31.234375 C 56.96875 31.320312 56.933594 31.402344 56.929688 31.492188 C 56.941406 31.496094 56.949219 31.503906 56.953125 31.511719 C 56.957031 31.519531 56.960938 31.53125 56.957031 31.539062 C 56.949219 31.554688 56.933594 31.558594 56.921875 31.566406 C 56.902344 31.578125 56.890625 31.605469 56.890625 31.625 C 56.882812 31.65625 56.882812 31.691406 56.875 31.722656 C 56.871094 31.753906 56.863281 31.785156 56.84375 31.8125 C 56.828125 31.835938 56.832031 31.832031 56.808594 31.847656 C 56.855469 31.859375 56.902344 31.878906 56.925781 31.917969 C 56.945312 31.945312 56.945312 31.984375 56.933594 32.019531 C 56.921875 32.050781 56.902344 32.085938 56.878906 32.113281 C 56.925781 32.140625 56.957031 32.183594 56.96875 32.234375 C 56.976562 32.269531 56.972656 32.308594 56.984375 32.34375 C 57 32.390625 57.042969 32.421875 57.085938 32.453125 C 57.058594 32.496094 57.046875 32.550781 57.039062 32.601562 C 57.03125 32.652344 57.027344 32.703125 57.011719 32.753906 C 56.996094 32.804688 56.964844 32.851562 56.917969 32.878906 C 56.96875 32.914062 56.996094 32.980469 56.988281 33.039062 C 56.976562 33.097656 56.929688 33.152344 56.867188 33.164062 C 56.867188 33.160156 56.847656 33.164062 56.84375 33.167969 C 56.84375 33.175781 56.84375 33.179688 56.84375 33.183594 C 56.847656 33.238281 56.851562 33.292969 56.867188 33.34375 C 56.871094 33.363281 56.878906 33.382812 56.890625 33.394531 C 56.90625 33.410156 56.925781 33.421875 56.945312 33.429688 C 56.917969 33.460938 56.90625 33.507812 56.917969 33.550781 C 56.929688 33.585938 56.957031 33.617188 56.96875 33.652344 C 56.976562 33.683594 56.980469 33.722656 56.976562 33.753906 C 56.96875 33.773438 56.976562 33.796875 56.988281 33.8125 C 57.003906 33.832031 57.019531 33.84375 57.035156 33.855469 C 57.058594 33.875 57.082031 33.898438 57.101562 33.921875 C 57.113281 33.9375 57.125 33.953125 57.128906 33.972656 C 57.132812 33.996094 57.121094 34.023438 57.109375 34.042969 Z M 57.109375 34.042969 " fill-opacity="1" fill-rule="nonzero"/><path fill="#0c2340" d="M 50.671875 30.730469 L 57.1875 30.730469 L 57.1875 37.246094 L 50.671875 37.246094 Z M 50.671875 30.730469 " fill-opacity="1" fill-rule="nonzero"/></g><g clip-path="url(#f7778f171c)"><path fill="#ffffff" d="M 53.003906 23.4375 C 52.976562 23.4375 52.953125 23.433594 52.929688 23.421875 L 48.765625 21.921875 C 48.667969 21.886719 48.617188 21.816406 48.617188 21.710938 C 48.617188 21.609375 48.667969 21.539062 48.765625 21.503906 L 52.929688 20 C 52.976562 19.984375 53.027344 19.984375 53.078125 20 L 57.242188 21.503906 C 57.339844 21.539062 57.386719 21.609375 57.386719 21.710938 C 57.386719 21.816406 57.339844 21.886719 57.242188 21.921875 L 53.078125 23.421875 C 53.054688 23.433594 53.03125 23.4375 53.003906 23.4375 Z M 49.496094 21.710938 L 53.003906 22.976562 L 56.507812 21.710938 L 53.003906 20.449219 Z M 49.496094 21.710938 " fill-opacity="1" fill-rule="nonzero"/></g><path fill="#ffffff" d="M 55.972656 24.890625 L 50.035156 24.890625 C 49.882812 24.890625 49.808594 24.816406 49.808594 24.667969 L 49.808594 22.140625 C 49.808594 21.992188 49.882812 21.917969 50.035156 21.917969 C 50.183594 21.917969 50.257812 21.992188 50.257812 22.140625 L 50.257812 24.445312 L 55.75 24.445312 L 55.75 22.140625 C 55.75 21.992188 55.824219 21.917969 55.972656 21.917969 C 56.121094 21.917969 56.195312 21.992188 56.195312 22.140625 L 56.195312 24.667969 C 56.195312 24.816406 56.121094 24.890625 55.972656 24.890625 Z M 55.972656 24.890625 " fill-opacity="1" fill-rule="nonzero"/><path fill="#ffffff" d="M 57.164062 23.554688 C 57.015625 23.554688 56.941406 23.480469 56.941406 23.332031 L 56.941406 21.710938 C 56.941406 21.5625 57.015625 21.488281 57.164062 21.488281 C 57.3125 21.488281 57.386719 21.5625 57.386719 21.710938 L 57.386719 23.332031 C 57.386719 23.480469 57.3125 23.554688 57.164062 23.554688 Z M 57.164062 23.554688 " fill-opacity="1" fill-rule="nonzero"/><path fill="#ffffff" d="M 53.003906 27.839844 C 51.398438 27.839844 50.09375 26.539062 50.09375 24.941406 C 50.09375 24.84375 50.101562 24.746094 50.109375 24.648438 C 50.125 24.5 50.207031 24.433594 50.355469 24.449219 C 50.503906 24.460938 50.570312 24.542969 50.554688 24.691406 C 50.546875 24.773438 50.542969 24.859375 50.542969 24.941406 C 50.542969 26.292969 51.644531 27.394531 53.003906 27.394531 C 54.363281 27.394531 55.46875 26.292969 55.46875 24.941406 C 55.46875 24.859375 55.460938 24.773438 55.453125 24.691406 C 55.4375 24.542969 55.503906 24.464844 55.652344 24.449219 C 55.800781 24.433594 55.882812 24.5 55.898438 24.648438 C 55.90625 24.742188 55.914062 24.84375 55.914062 24.941406 C 55.910156 26.539062 54.605469 27.839844 53.003906 27.839844 Z M 53.003906 27.839844 " fill-opacity="1" fill-rule="nonzero"/><g clip-path="url(#6cbc98aa82)"><path fill="#ffffff" d="M 56.503906 34.304688 L 56.484375 34.304688 L 49.488281 34.226562 C 49.265625 34.226562 49.050781 34.183594 48.84375 34.09375 C 48.640625 34.007812 48.460938 33.886719 48.304688 33.730469 C 48.144531 33.570312 48.027344 33.390625 47.941406 33.183594 C 47.855469 32.976562 47.8125 32.761719 47.8125 32.539062 L 47.8125 31.152344 C 47.8125 30.652344 47.910156 30.171875 48.101562 29.710938 C 48.292969 29.253906 48.566406 28.84375 48.917969 28.492188 C 49.273438 28.140625 49.679688 27.871094 50.140625 27.679688 C 50.601562 27.488281 51.082031 27.394531 51.582031 27.394531 L 54.425781 27.394531 C 54.925781 27.394531 55.40625 27.488281 55.867188 27.679688 C 56.328125 27.871094 56.734375 28.140625 57.089844 28.492188 C 57.441406 28.847656 57.714844 29.253906 57.90625 29.710938 C 58.097656 30.171875 58.191406 30.652344 58.195312 31.152344 L 58.195312 32.617188 C 58.195312 32.839844 58.152344 33.054688 58.066406 33.261719 C 57.980469 33.46875 57.855469 33.652344 57.699219 33.808594 C 57.539062 33.96875 57.355469 34.089844 57.148438 34.175781 C 56.941406 34.261719 56.726562 34.304688 56.503906 34.304688 Z M 51.582031 27.839844 C 49.75 27.839844 48.257812 29.324219 48.257812 31.152344 L 48.257812 32.539062 C 48.257812 33.21875 48.8125 33.773438 49.492188 33.78125 L 56.488281 33.859375 C 56.65625 33.859375 56.816406 33.832031 56.96875 33.769531 C 57.125 33.707031 57.257812 33.617188 57.378906 33.5 C 57.496094 33.382812 57.585938 33.25 57.652344 33.09375 C 57.714844 32.941406 57.75 32.78125 57.75 32.617188 L 57.75 31.152344 C 57.75 29.324219 56.257812 27.839844 54.425781 27.839844 Z M 51.582031 27.839844 " fill-opacity="1" fill-rule="nonzero"/></g><g clip-path="url(#f66391f53d)"><path fill="#ffffff" d="M 52.851562 34.265625 C 52.773438 34.265625 52.710938 34.234375 52.667969 34.167969 L 50.816406 31.398438 C 50.75 31.304688 50.757812 31.214844 50.832031 31.128906 L 51.722656 30.117188 L 50.675781 29.007812 C 50.605469 28.933594 50.589844 28.847656 50.636719 28.757812 L 51.226562 27.523438 C 51.292969 27.386719 51.390625 27.351562 51.527344 27.417969 C 51.660156 27.480469 51.695312 27.582031 51.628906 27.714844 L 51.105469 28.8125 L 52.1875 29.957031 C 52.28125 30.054688 52.28125 30.15625 52.191406 30.257812 L 51.28125 31.292969 L 53.039062 33.917969 C 53.085938 33.992188 53.089844 34.070312 53.050781 34.148438 C 53.007812 34.226562 52.941406 34.265625 52.851562 34.265625 Z M 52.851562 34.265625 " fill-opacity="1" fill-rule="nonzero"/></g><g clip-path="url(#49d67972d6)"><path fill="#ffffff" d="M 53.15625 34.265625 C 53.066406 34.265625 53 34.226562 52.957031 34.148438 C 52.914062 34.070312 52.917969 33.992188 52.96875 33.917969 L 54.726562 31.292969 L 53.816406 30.257812 C 53.726562 30.15625 53.726562 30.054688 53.820312 29.957031 L 54.902344 28.8125 L 54.375 27.714844 C 54.3125 27.582031 54.347656 27.484375 54.480469 27.417969 C 54.613281 27.355469 54.714844 27.390625 54.777344 27.523438 L 55.371094 28.757812 C 55.414062 28.847656 55.402344 28.933594 55.332031 29.007812 L 54.28125 30.117188 L 55.175781 31.128906 C 55.25 31.210938 55.253906 31.304688 55.191406 31.398438 L 53.339844 34.167969 C 53.296875 34.234375 53.234375 34.265625 53.15625 34.265625 Z M 53.15625 34.265625 " fill-opacity="1" fill-rule="nonzero"/></g><path fill="#ffffff" d="M 53.015625 28.976562 L 53.003906 28.976562 C 52.804688 28.976562 52.644531 28.890625 52.53125 28.726562 L 51.835938 27.746094 C 51.75 27.625 51.769531 27.523438 51.890625 27.4375 C 52.011719 27.351562 52.113281 27.367188 52.199219 27.488281 L 52.894531 28.46875 C 52.921875 28.511719 52.960938 28.53125 53.011719 28.53125 C 53.058594 28.53125 53.101562 28.511719 53.128906 28.472656 L 53.878906 27.484375 C 53.964844 27.367188 54.070312 27.351562 54.1875 27.441406 C 54.308594 27.53125 54.320312 27.632812 54.234375 27.753906 L 53.484375 28.742188 C 53.367188 28.898438 53.210938 28.976562 53.015625 28.976562 Z M 53.015625 28.976562 " fill-opacity="1" fill-rule="nonzero"/></svg>