<svg xmlns="http://www.w3.org/2000/svg" xmlns:xlink="http://www.w3.org/1999/xlink" width="1900" zoomAndPan="magnify" viewBox="0 0 1425 139.500001" height="186" preserveAspectRatio="xMidYMid meet" version="1.0"><defs><g/><clipPath id="f27776a27c"><path d="M 2.542969 0 L 1422.453125 0 L 1422.453125 139 L 2.542969 139 Z M 2.542969 0 " clip-rule="nonzero"/></clipPath><clipPath id="89f4670e8b"><path d="M 30.53125 73 L 110 73 L 110 112 L 30.53125 112 Z M 30.53125 73 " clip-rule="nonzero"/></clipPath><clipPath id="ae4fbbdd29"><path d="M 214 84 L 250.992188 84 L 250.992188 91 L 214 91 Z M 214 84 " clip-rule="nonzero"/></clipPath><clipPath id="c8fb69277d"><rect x="0" width="1148" y="0" height="118"/></clipPath><clipPath id="a337324457"><path d="M 168.714844 21.964844 L 198.261719 21.964844 L 198.261719 51.507812 L 168.714844 51.507812 Z M 168.714844 21.964844 " clip-rule="nonzero"/></clipPath><clipPath id="76640b1b26"><path d="M 183.488281 21.964844 C 175.332031 21.964844 168.714844 28.578125 168.714844 36.734375 C 168.714844 44.894531 175.332031 51.507812 183.488281 51.507812 C 191.648438 51.507812 198.261719 44.894531 198.261719 36.734375 C 198.261719 28.578125 191.648438 21.964844 183.488281 21.964844 Z M 183.488281 21.964844 " clip-rule="nonzero"/></clipPath><clipPath id="c6ee20d8f6"><path d="M 0.714844 0.964844 L 30.261719 0.964844 L 30.261719 30.507812 L 0.714844 30.507812 Z M 0.714844 0.964844 " clip-rule="nonzero"/></clipPath><clipPath id="fceb3e0492"><path d="M 15.488281 0.964844 C 7.332031 0.964844 0.714844 7.578125 0.714844 15.734375 C 0.714844 23.894531 7.332031 30.507812 15.488281 30.507812 C 23.648438 30.507812 30.261719 23.894531 30.261719 15.734375 C 30.261719 7.578125 23.648438 0.964844 15.488281 0.964844 Z M 15.488281 0.964844 " clip-rule="nonzero"/></clipPath><clipPath id="a4090bf949"><rect x="0" width="31" y="0" height="31"/></clipPath><clipPath id="a92019573d"><path d="M 180.074219 21.964844 L 209.621094 21.964844 L 209.621094 51.507812 L 180.074219 51.507812 Z M 180.074219 21.964844 " clip-rule="nonzero"/></clipPath><clipPath id="5d18db6bd4"><path d="M 194.847656 21.964844 C 186.691406 21.964844 180.074219 28.578125 180.074219 36.734375 C 180.074219 44.894531 186.691406 51.507812 194.847656 51.507812 C 203.007812 51.507812 209.621094 44.894531 209.621094 36.734375 C 209.621094 28.578125 203.007812 21.964844 194.847656 21.964844 Z M 194.847656 21.964844 " clip-rule="nonzero"/></clipPath><clipPath id="dfa347dd77"><path d="M 0.0742188 0.964844 L 29.621094 0.964844 L 29.621094 30.507812 L 0.0742188 30.507812 Z M 0.0742188 0.964844 " clip-rule="nonzero"/></clipPath><clipPath id="4e804a40e4"><path d="M 14.847656 0.964844 C 6.691406 0.964844 0.0742188 7.578125 0.0742188 15.734375 C 0.0742188 23.894531 6.691406 30.507812 14.847656 30.507812 C 23.007812 30.507812 29.621094 23.894531 29.621094 15.734375 C 29.621094 7.578125 23.007812 0.964844 14.847656 0.964844 Z M 14.847656 0.964844 " clip-rule="nonzero"/></clipPath><clipPath id="858cb5b36e"><rect x="0" width="30" y="0" height="31"/></clipPath><clipPath id="bac142718a"><path d="M 183.144531 39.804688 L 206.554688 39.804688 L 206.554688 63.210938 L 183.144531 63.210938 Z M 183.144531 39.804688 " clip-rule="nonzero"/></clipPath><clipPath id="e7c523e53e"><path d="M 194.847656 39.804688 C 188.382812 39.804688 183.144531 45.042969 183.144531 51.507812 C 183.144531 57.972656 188.382812 63.210938 194.847656 63.210938 C 201.3125 63.210938 206.554688 57.972656 206.554688 51.507812 C 206.554688 45.042969 201.3125 39.804688 194.847656 39.804688 Z M 194.847656 39.804688 " clip-rule="nonzero"/></clipPath><clipPath id="004b205131"><path d="M 0.144531 0.804688 L 23.554688 0.804688 L 23.554688 24.210938 L 0.144531 24.210938 Z M 0.144531 0.804688 " clip-rule="nonzero"/></clipPath><clipPath id="a0f5d943c8"><path d="M 11.847656 0.804688 C 5.382812 0.804688 0.144531 6.042969 0.144531 12.507812 C 0.144531 18.972656 5.382812 24.210938 11.847656 24.210938 C 18.3125 24.210938 23.554688 18.972656 23.554688 12.507812 C 23.554688 6.042969 18.3125 0.804688 11.847656 0.804688 Z M 11.847656 0.804688 " clip-rule="nonzero"/></clipPath><clipPath id="60735f3e4a"><rect x="0" width="24" y="0" height="25"/></clipPath><clipPath id="72b06f298b"><path d="M 157.355469 26.195312 L 186.902344 26.195312 L 186.902344 55.742188 L 157.355469 55.742188 Z M 157.355469 26.195312 " clip-rule="nonzero"/></clipPath><clipPath id="9eb41560b7"><path d="M 172.128906 26.195312 C 163.96875 26.195312 157.355469 32.8125 157.355469 40.96875 C 157.355469 49.128906 163.96875 55.742188 172.128906 55.742188 C 180.289062 55.742188 186.902344 49.128906 186.902344 40.96875 C 186.902344 32.8125 180.289062 26.195312 172.128906 26.195312 Z M 172.128906 26.195312 " clip-rule="nonzero"/></clipPath><clipPath id="2ee5380082"><path d="M 0.355469 0.195312 L 29.902344 0.195312 L 29.902344 29.742188 L 0.355469 29.742188 Z M 0.355469 0.195312 " clip-rule="nonzero"/></clipPath><clipPath id="3ab6ed604a"><path d="M 15.128906 0.195312 C 6.96875 0.195312 0.355469 6.8125 0.355469 14.96875 C 0.355469 23.128906 6.96875 29.742188 15.128906 29.742188 C 23.289062 29.742188 29.902344 23.128906 29.902344 14.96875 C 29.902344 6.8125 23.289062 0.195312 15.128906 0.195312 Z M 15.128906 0.195312 " clip-rule="nonzero"/></clipPath><clipPath id="5c91554fa9"><rect x="0" width="30" y="0" height="30"/></clipPath><clipPath id="52d6f12152"><path d="M 168.714844 26.195312 L 198.261719 26.195312 L 198.261719 55.742188 L 168.714844 55.742188 Z M 168.714844 26.195312 " clip-rule="nonzero"/></clipPath><clipPath id="2098dbcc14"><path d="M 183.488281 26.195312 C 175.332031 26.195312 168.714844 32.8125 168.714844 40.96875 C 168.714844 49.128906 175.332031 55.742188 183.488281 55.742188 C 191.648438 55.742188 198.261719 49.128906 198.261719 40.96875 C 198.261719 32.8125 191.648438 26.195312 183.488281 26.195312 Z M 183.488281 26.195312 " clip-rule="nonzero"/></clipPath><clipPath id="11709183db"><path d="M 0.714844 0.195312 L 30.261719 0.195312 L 30.261719 29.742188 L 0.714844 29.742188 Z M 0.714844 0.195312 " clip-rule="nonzero"/></clipPath><clipPath id="b98c357387"><path d="M 15.488281 0.195312 C 7.332031 0.195312 0.714844 6.8125 0.714844 14.96875 C 0.714844 23.128906 7.332031 29.742188 15.488281 29.742188 C 23.648438 29.742188 30.261719 23.128906 30.261719 14.96875 C 30.261719 6.8125 23.648438 0.195312 15.488281 0.195312 Z M 15.488281 0.195312 " clip-rule="nonzero"/></clipPath><clipPath id="556a493d64"><rect x="0" width="31" y="0" height="30"/></clipPath><clipPath id="9f1ca3fb4f"><path d="M 183.488281 55.742188 L 201.675781 55.742188 L 201.675781 73.925781 L 183.488281 73.925781 Z M 183.488281 55.742188 " clip-rule="nonzero"/></clipPath><clipPath id="d3caff3d87"><path d="M 192.582031 55.742188 C 187.558594 55.742188 183.488281 59.8125 183.488281 64.835938 C 183.488281 69.855469 187.558594 73.925781 192.582031 73.925781 C 197.601562 73.925781 201.675781 69.855469 201.675781 64.835938 C 201.675781 59.8125 197.601562 55.742188 192.582031 55.742188 Z M 192.582031 55.742188 " clip-rule="nonzero"/></clipPath><clipPath id="365b0895b2"><path d="M 0.488281 0.742188 L 18.675781 0.742188 L 18.675781 18.925781 L 0.488281 18.925781 Z M 0.488281 0.742188 " clip-rule="nonzero"/></clipPath><clipPath id="737f3d78a7"><path d="M 9.582031 0.742188 C 4.558594 0.742188 0.488281 4.8125 0.488281 9.835938 C 0.488281 14.855469 4.558594 18.925781 9.582031 18.925781 C 14.601562 18.925781 18.675781 14.855469 18.675781 9.835938 C 18.675781 4.8125 14.601562 0.742188 9.582031 0.742188 Z M 9.582031 0.742188 " clip-rule="nonzero"/></clipPath><clipPath id="f0c24ec2d4"><rect x="0" width="19" y="0" height="19"/></clipPath><clipPath id="35adf6a525"><path d="M 174.394531 45.027344 L 192.582031 45.027344 L 192.582031 63.210938 L 174.394531 63.210938 Z M 174.394531 45.027344 " clip-rule="nonzero"/></clipPath><clipPath id="fc08046e0c"><path d="M 183.488281 45.027344 C 178.46875 45.027344 174.394531 49.097656 174.394531 54.121094 C 174.394531 59.140625 178.46875 63.210938 183.488281 63.210938 C 188.511719 63.210938 192.582031 59.140625 192.582031 54.121094 C 192.582031 49.097656 188.511719 45.027344 183.488281 45.027344 Z M 183.488281 45.027344 " clip-rule="nonzero"/></clipPath><clipPath id="ee85ab1601"><path d="M 0.394531 0.0273438 L 18.582031 0.0273438 L 18.582031 18.210938 L 0.394531 18.210938 Z M 0.394531 0.0273438 " clip-rule="nonzero"/></clipPath><clipPath id="d1ba2e565c"><path d="M 9.488281 0.0273438 C 4.46875 0.0273438 0.394531 4.097656 0.394531 9.121094 C 0.394531 14.140625 4.46875 18.210938 9.488281 18.210938 C 14.511719 18.210938 18.582031 14.140625 18.582031 9.121094 C 18.582031 4.097656 14.511719 0.0273438 9.488281 0.0273438 Z M 9.488281 0.0273438 " clip-rule="nonzero"/></clipPath><clipPath id="38f6b96a68"><rect x="0" width="19" y="0" height="19"/></clipPath><clipPath id="89999f2196"><path d="M 176 15.625 L 204 15.625 L 204 27 L 176 27 Z M 176 15.625 " clip-rule="nonzero"/></clipPath><clipPath id="bf29b35633"><path d="M 174.394531 38 L 206.53125 38 L 206.53125 59.71875 L 174.394531 59.71875 Z M 174.394531 38 " clip-rule="nonzero"/></clipPath><clipPath id="bf3f5296e3"><path d="M 183 38 L 191 38 L 191 59.71875 L 183 59.71875 Z M 183 38 " clip-rule="nonzero"/></clipPath><clipPath id="3e6edfca16"><path d="M 190 38 L 198 38 L 198 59.71875 L 190 59.71875 Z M 190 38 " clip-rule="nonzero"/></clipPath></defs><g clip-path="url(#f27776a27c)"><path fill="#ffffff" d="M 2.542969 0 L 1422.457031 0 L 1422.457031 139 L 2.542969 139 Z M 2.542969 0 " fill-opacity="1" fill-rule="nonzero"/><path fill="#0c2340" d="M 2.542969 0 L 1422.457031 0 L 1422.457031 139 L 2.542969 139 Z M 2.542969 0 " fill-opacity="1" fill-rule="nonzero"/></g><g clip-path="url(#89f4670e8b)"><path fill="#04b1dc" d="M 109.117188 74.484375 L 74.410156 74.484375 C 73.671875 74.484375 72.855469 74.8125 72.445312 75.46875 L 72.117188 75.875 L 71.21875 75.875 C 71.136719 75.792969 70.972656 75.632812 70.890625 75.550781 L 69.171875 74.15625 C 68.761719 73.832031 68.1875 73.585938 67.617188 73.585938 L 47.070312 73.585938 C 46.007812 73.585938 45.027344 74.320312 44.699219 75.304688 L 43.386719 79.3125 C 43.0625 80.378906 43.46875 81.523438 44.371094 82.097656 L 45.351562 82.753906 C 45.597656 82.914062 45.761719 83.160156 45.84375 83.40625 C 45.925781 83.734375 45.84375 83.980469 45.679688 84.226562 L 31.191406 105.507812 C 30.785156 106.078125 30.621094 106.816406 30.863281 107.472656 C 31.027344 108.125 31.4375 108.699219 32.09375 109.109375 L 33.566406 109.925781 C 33.976562 110.089844 34.382812 110.253906 34.792969 110.253906 C 35.613281 110.253906 36.347656 109.84375 36.839844 109.191406 L 37.824219 107.796875 L 44.535156 111.644531 C 44.945312 111.890625 45.351562 111.972656 45.761719 111.972656 C 45.925781 111.972656 46.171875 111.972656 46.335938 111.890625 L 50.425781 110.910156 C 51 110.746094 51.492188 110.417969 51.820312 109.925781 L 66.46875 89.382812 C 66.960938 88.726562 67.042969 87.746094 66.714844 86.925781 L 65.488281 84.144531 L 67.78125 84.144531 C 68.433594 84.144531 69.089844 83.898438 69.5 83.40625 L 71.054688 81.851562 C 71.136719 81.769531 71.136719 81.6875 71.21875 81.605469 L 73.917969 82.261719 C 74.082031 82.261719 74.328125 82.34375 74.492188 82.34375 L 101.996094 82.34375 L 109.359375 74.648438 C 109.277344 74.484375 109.195312 74.484375 109.117188 74.484375 Z M 46.007812 110.5 C 45.761719 110.582031 45.433594 110.5 45.1875 110.417969 L 38.558594 106.652344 L 54.027344 84.796875 C 54.191406 84.554688 54.519531 84.390625 54.847656 84.390625 L 61.558594 84.308594 C 60.90625 84.796875 60.25 85.207031 59.511719 85.699219 L 59.1875 85.945312 C 59.105469 86.027344 58.941406 86.109375 58.941406 86.109375 C 58.859375 86.109375 58.777344 86.191406 58.695312 86.191406 C 58.203125 86.191406 57.628906 86.191406 57.058594 86.109375 C 56.730469 86.109375 56.484375 86.109375 56.15625 86.109375 L 55.828125 86.109375 C 55.667969 86.109375 55.503906 86.109375 55.421875 86.191406 C 55.175781 86.273438 54.929688 86.351562 54.683594 86.433594 C 54.191406 86.679688 53.785156 87.089844 53.457031 87.5 C 53.292969 87.746094 53.210938 87.910156 53.210938 87.992188 L 52.964844 88.398438 C 52.390625 89.464844 51.820312 90.609375 51.246094 91.753906 C 50.101562 94.046875 49.035156 96.339844 47.972656 98.46875 C 47.480469 99.53125 46.988281 100.59375 46.582031 101.578125 C 46.5 101.824219 46.335938 102.070312 46.253906 102.316406 C 46.171875 102.558594 46.007812 102.804688 45.925781 103.296875 C 45.761719 104.117188 45.925781 104.933594 46.417969 105.507812 C 47.070312 106.324219 47.644531 106.898438 48.136719 107.554688 C 48.625 108.125 49.117188 108.617188 49.445312 109.109375 C 49.609375 109.355469 49.855469 109.515625 50.019531 109.679688 Z M 65.40625 88.480469 L 50.753906 109.027344 C 50.589844 108.78125 50.507812 108.617188 50.347656 108.289062 C 49.773438 107.308594 48.953125 105.996094 47.890625 104.359375 C 47.808594 104.195312 47.726562 103.871094 47.890625 103.707031 C 47.890625 103.625 47.972656 103.460938 48.136719 103.214844 C 48.300781 102.96875 48.382812 102.722656 48.546875 102.476562 C 49.117188 101.496094 49.609375 100.515625 50.265625 99.449219 C 51.410156 97.402344 52.636719 95.113281 53.785156 92.902344 C 54.355469 91.753906 54.929688 90.609375 55.503906 89.546875 L 55.828125 88.808594 C 55.828125 88.726562 55.910156 88.726562 55.992188 88.644531 L 56.238281 88.644531 C 56.566406 88.644531 56.8125 88.644531 57.140625 88.644531 C 57.792969 88.644531 58.367188 88.5625 59.023438 88.5625 C 59.511719 88.480469 60.003906 88.316406 60.414062 88.074219 C 60.660156 87.910156 60.742188 87.828125 60.824219 87.746094 L 61.148438 87.5 C 61.96875 86.761719 62.789062 86.109375 63.441406 85.453125 C 63.769531 85.207031 64.015625 84.960938 64.261719 84.714844 L 65.488281 87.5 C 65.652344 87.828125 65.652344 88.152344 65.40625 88.480469 Z M 65.40625 88.480469 " fill-opacity="1" fill-rule="nonzero"/></g><path fill="#ffffff" d="M 201.609375 55.90625 L 193.832031 56.722656 C 191.210938 56.722656 189.167969 59.507812 189.167969 62.945312 L 188.511719 71.703125 L 187.855469 62.945312 C 187.855469 59.507812 185.726562 56.722656 183.191406 56.722656 L 175.414062 55.90625 L 183.191406 55.085938 C 185.808594 55.085938 187.855469 52.304688 187.855469 48.867188 L 188.511719 40.105469 L 189.167969 48.867188 C 189.167969 52.304688 191.292969 55.085938 193.832031 55.085938 Z M 201.609375 55.90625 " fill-opacity="1" fill-rule="nonzero"/><path fill="#ffffff" d="M 176.480469 41.253906 L 171.566406 41.746094 C 169.929688 41.746094 168.539062 43.546875 168.539062 45.753906 L 168.128906 51.320312 L 167.722656 45.753906 C 167.722656 43.546875 166.410156 41.746094 164.691406 41.746094 L 159.78125 41.253906 L 164.691406 40.761719 C 166.328125 40.761719 167.722656 38.960938 167.722656 36.75 L 168.128906 31.183594 L 168.539062 36.75 C 168.539062 38.960938 169.847656 40.761719 171.566406 40.761719 Z M 176.480469 41.253906 " fill-opacity="1" fill-rule="nonzero"/><path fill="#ffffff" d="M 207.171875 33.066406 L 202.261719 33.558594 C 200.625 33.558594 199.234375 35.359375 199.234375 37.570312 L 198.824219 43.136719 L 198.414062 37.570312 C 198.414062 35.359375 197.105469 33.558594 195.386719 33.558594 L 190.476562 33.066406 L 195.386719 32.578125 C 197.023438 32.578125 198.414062 30.777344 198.414062 28.566406 L 198.824219 23 L 199.234375 28.566406 C 199.234375 30.777344 200.542969 32.578125 202.261719 32.578125 Z M 207.171875 33.066406 " fill-opacity="1" fill-rule="nonzero"/><path fill="#04b1dc" d="M 141.527344 117.539062 L 169.113281 117.539062 C 130.886719 134.890625 92.664062 132.355469 80.140625 110.253906 C 78.339844 107.0625 77.109375 103.625 76.539062 99.941406 C 77.109375 101.496094 77.765625 102.96875 78.585938 104.441406 C 87.996094 121.058594 113.371094 125.480469 141.527344 117.539062 Z M 141.527344 117.539062 " fill-opacity="1" fill-rule="nonzero"/><path fill="#04b1dc" d="M 218.878906 80.214844 C 217.242188 82.261719 215.441406 84.308594 213.558594 86.273438 C 212.574219 87.253906 211.675781 88.234375 210.691406 89.21875 C 209.546875 90.363281 208.320312 91.511719 207.089844 92.65625 L 188.675781 92.65625 C 190.640625 91.019531 192.523438 89.382812 194.324219 87.664062 C 195.058594 87.007812 195.796875 86.273438 196.449219 85.617188 C 199.96875 82.179688 203.082031 78.578125 205.863281 74.976562 C 218.714844 58.113281 223.054688 40.269531 215.605469 27.011719 C 214.457031 24.964844 212.984375 23 211.347656 21.363281 C 198.332031 8.019531 171.40625 6.546875 143.246094 17.105469 C 181.308594 0 219.207031 2.621094 231.648438 24.636719 C 240.242188 39.945312 234.511719 60.898438 218.878906 80.214844 Z M 218.878906 80.214844 " fill-opacity="1" fill-rule="nonzero"/><path fill="#ffffff" d="M 180.652344 16.617188 C 167.476562 18.007812 152.742188 22.753906 138.335938 30.941406 C 137.191406 31.59375 136.125 32.25 134.980469 32.90625 C 134.40625 33.230469 133.917969 33.558594 133.34375 33.886719 C 133.261719 33.886719 133.261719 33.96875 133.179688 33.96875 C 132.6875 34.296875 132.199219 34.625 131.707031 34.867188 C 131.214844 35.195312 130.640625 35.523438 130.152344 35.933594 C 129.496094 36.34375 128.921875 36.75 128.351562 37.160156 C 127.449219 37.816406 126.46875 38.46875 125.566406 39.125 C 124.585938 39.863281 123.601562 40.597656 122.621094 41.335938 C 122.210938 41.664062 121.882812 41.90625 121.476562 42.234375 C 120 43.464844 118.527344 44.691406 117.136719 45.917969 C 116.726562 46.328125 116.238281 46.65625 115.828125 47.066406 C 113.371094 49.355469 110.996094 51.648438 108.871094 54.105469 C 108.542969 54.429688 108.296875 54.757812 108.050781 55.085938 C 106.496094 56.886719 105.023438 58.6875 103.632812 60.488281 C 103.46875 60.734375 103.222656 61.0625 103.058594 61.308594 C 101.585938 63.351562 100.195312 65.480469 99.046875 67.527344 C 98.882812 67.855469 98.71875 68.183594 98.554688 68.429688 C 98.148438 69.082031 97.820312 69.820312 97.492188 70.472656 C 97.246094 70.882812 97.082031 71.292969 96.917969 71.703125 C 96.753906 71.949219 96.671875 72.191406 96.59375 72.4375 C 96.511719 72.601562 96.429688 72.847656 96.347656 73.09375 L 84.152344 73.09375 C 90.863281 58.277344 105.757812 42.644531 126.058594 31.183594 C 126.796875 30.777344 127.53125 30.367188 128.351562 29.957031 C 128.515625 29.875 128.679688 29.792969 128.839844 29.710938 C 129.578125 29.304688 130.316406 28.976562 131.050781 28.566406 L 131.132812 28.566406 C 131.953125 28.15625 132.769531 27.746094 133.671875 27.339844 C 134.488281 26.929688 135.308594 26.519531 136.125 26.191406 C 137.027344 25.785156 137.84375 25.457031 138.746094 25.046875 L 138.828125 25.046875 C 139.726562 24.71875 140.546875 24.308594 141.445312 23.984375 C 142.265625 23.65625 143 23.328125 143.820312 23.082031 C 143.984375 23 144.148438 22.917969 144.3125 22.917969 C 145.046875 22.671875 145.785156 22.425781 146.441406 22.183594 C 146.765625 22.101562 147.011719 21.9375 147.339844 21.855469 C 147.996094 21.609375 148.648438 21.445312 149.304688 21.199219 C 150.285156 20.871094 151.269531 20.625 152.167969 20.300781 C 152.824219 20.136719 153.5625 19.890625 154.214844 19.726562 C 154.378906 19.644531 154.542969 19.644531 154.707031 19.5625 C 155.441406 19.398438 156.179688 19.152344 156.917969 18.988281 L 157 18.988281 C 157.816406 18.824219 158.636719 18.582031 159.453125 18.417969 L 159.535156 18.417969 C 160.355469 18.253906 161.171875 18.089844 161.992188 17.925781 C 162.808594 17.761719 163.628906 17.597656 164.445312 17.515625 C 164.527344 17.515625 164.527344 17.515625 164.609375 17.515625 C 165.347656 17.433594 166.164062 17.269531 166.902344 17.1875 C 167.640625 17.105469 168.375 17.023438 169.113281 16.941406 C 169.195312 16.941406 169.277344 16.941406 169.441406 16.941406 C 170.09375 16.863281 170.832031 16.863281 171.484375 16.78125 C 171.648438 16.78125 171.894531 16.78125 172.058594 16.78125 C 172.714844 16.78125 173.367188 16.699219 174.023438 16.699219 L 174.105469 16.699219 C 174.84375 16.699219 175.578125 16.699219 176.398438 16.699219 C 177.789062 16.453125 179.179688 16.453125 180.652344 16.617188 Z M 180.652344 16.617188 " fill-opacity="1" fill-rule="nonzero"/><path fill="#ffffff" d="M 92.582031 87.582031 L 80.304688 87.582031 C 80.304688 88.152344 80.304688 88.644531 80.304688 89.21875 C 80.304688 89.546875 80.304688 89.953125 80.304688 90.28125 C 80.304688 90.445312 80.304688 90.691406 80.304688 90.855469 C 80.304688 91.183594 80.304688 91.429688 80.386719 91.753906 C 80.386719 91.917969 80.386719 92.082031 80.46875 92.328125 C 80.46875 92.738281 80.550781 93.148438 80.632812 93.554688 C 80.710938 93.882812 80.710938 94.210938 80.792969 94.539062 C 80.792969 94.621094 80.792969 94.703125 80.875 94.785156 C 80.957031 95.195312 81.039062 95.601562 81.203125 96.09375 C 81.285156 96.421875 81.367188 96.75 81.53125 97.074219 C 81.613281 97.320312 81.695312 97.484375 81.777344 97.730469 C 81.859375 98.058594 82.023438 98.304688 82.105469 98.632812 C 82.1875 98.875 82.269531 99.039062 82.351562 99.285156 C 82.429688 99.53125 82.59375 99.777344 82.675781 100.023438 C 82.921875 100.515625 83.167969 101.003906 83.414062 101.414062 C 89.796875 112.628906 104.859375 117.292969 123.277344 115.328125 C 110.589844 114.429688 100.601562 109.761719 95.691406 101.085938 C 93.644531 97.402344 92.664062 93.3125 92.664062 88.890625 C 92.582031 88.480469 92.582031 88.074219 92.582031 87.582031 Z M 92.582031 87.582031 " fill-opacity="1" fill-rule="nonzero"/><path fill="#04b1dc" d="M 80.550781 85.453125 L 105.921875 85.453125 L 107.152344 84.144531 C 111.652344 79.476562 121.148438 69.902344 128.1875 62.863281 L 145.128906 82.179688 L 151.597656 82.179688 L 166.410156 60.898438 L 192.929688 86.515625 C 193.667969 85.78125 194.324219 85.125 194.976562 84.390625 L 167.148438 57.542969 L 146.519531 64.171875 L 127.203125 59.589844 L 126.632812 60.160156 C 110.996094 75.792969 105.269531 81.6875 103.140625 84.0625 L 72.9375 84.0625 C 72.28125 84.0625 71.789062 84.390625 71.871094 84.714844 C 71.871094 84.796875 71.871094 84.878906 71.953125 84.878906 C 72.199219 85.125 72.691406 85.371094 73.265625 85.371094 L 76.621094 85.371094 Z M 80.550781 85.453125 " fill-opacity="1" fill-rule="nonzero"/><g clip-path="url(#ae4fbbdd29)"><path fill="#04b1dc" d="M 246.378906 85.945312 L 217.242188 85.945312 C 216.421875 86.925781 215.523438 87.910156 214.539062 88.890625 L 246.378906 88.890625 L 250.636719 90.28125 C 251.046875 88.398438 251.128906 86.515625 250.800781 84.632812 C 249 85.207031 247.363281 85.699219 246.378906 85.945312 Z M 246.378906 85.945312 " fill-opacity="1" fill-rule="nonzero"/></g><path fill="#ffffff" d="M 128.105469 64.582031 L 120.984375 71.867188 L 128.023438 66.789062 L 137.925781 76.121094 Z M 128.105469 64.582031 " fill-opacity="1" fill-rule="nonzero"/><path fill="#ffffff" d="M 166.738281 62.699219 L 160.519531 70.800781 L 166.902344 64.910156 L 177.871094 73.011719 Z M 166.738281 62.699219 " fill-opacity="1" fill-rule="nonzero"/><path fill="#ffffff" d="M 122.128906 72.929688 L 126.058594 72.929688 L 126.058594 77.921875 L 122.128906 77.921875 Z M 122.128906 72.929688 " fill-opacity="1" fill-rule="nonzero"/><path fill="#ffffff" d="M 127.285156 72.929688 L 131.214844 72.929688 L 131.214844 77.921875 L 127.285156 77.921875 Z M 127.285156 72.929688 " fill-opacity="1" fill-rule="nonzero"/><path fill="#ffffff" d="M 122.128906 78.988281 L 126.058594 78.988281 L 126.058594 83.980469 L 122.128906 83.980469 Z M 122.128906 78.988281 " fill-opacity="1" fill-rule="nonzero"/><path fill="#ffffff" d="M 127.285156 78.988281 L 131.214844 78.988281 L 131.214844 83.980469 L 127.285156 83.980469 Z M 127.285156 78.988281 " fill-opacity="1" fill-rule="nonzero"/><path fill="#ffffff" d="M 164.445312 73.75 L 167.964844 73.75 L 167.964844 78.25 L 164.445312 78.25 Z M 164.445312 73.75 " fill-opacity="1" fill-rule="nonzero"/><path fill="#ffffff" d="M 169.03125 73.75 L 172.550781 73.75 L 172.550781 78.25 L 169.03125 78.25 Z M 169.03125 73.75 " fill-opacity="1" fill-rule="nonzero"/><path fill="#ffffff" d="M 164.445312 79.152344 L 167.964844 79.152344 L 167.964844 83.652344 L 164.445312 83.652344 Z M 164.445312 79.152344 " fill-opacity="1" fill-rule="nonzero"/><path fill="#ffffff" d="M 169.03125 79.152344 L 172.550781 79.152344 L 172.550781 83.652344 L 169.03125 83.652344 Z M 169.03125 79.152344 " fill-opacity="1" fill-rule="nonzero"/><g transform="matrix(1, 0, 0, 1, 273, 5)"><g clip-path="url(#c8fb69277d)"><g fill="#ffffff" fill-opacity="1"><g transform="translate(0.868899, 91.561194)"><g><path d="M 31.375 -60.765625 C 35.726562 -60.765625 39.445312 -59.96875 42.53125 -58.375 C 45.625 -56.78125 47.960938 -54.550781 49.546875 -51.6875 C 51.128906 -48.820312 51.921875 -45.488281 51.921875 -41.6875 C 51.921875 -37.894531 51.128906 -34.570312 49.546875 -31.71875 C 47.960938 -28.863281 45.625 -26.640625 42.53125 -25.046875 C 39.445312 -23.453125 35.726562 -22.65625 31.375 -22.65625 L 19.90625 -22.65625 L 19.90625 0 L 7.890625 0 L 7.890625 -60.765625 Z M 29.796875 -32.171875 C 36.472656 -32.171875 39.8125 -35.34375 39.8125 -41.6875 C 39.8125 -48.0625 36.472656 -51.25 29.796875 -51.25 L 19.90625 -51.25 L 19.90625 -32.171875 Z M 29.796875 -32.171875 "/></g></g></g><g fill="#ffffff" fill-opacity="1"><g transform="translate(56.384151, 91.561194)"><g><path d="M 7.890625 0 L 7.890625 -60.765625 L 32.296875 -60.765625 C 38.585938 -60.765625 43.332031 -59.316406 46.53125 -56.421875 C 49.726562 -53.523438 51.328125 -49.53125 51.328125 -44.4375 C 51.328125 -40.75 50.390625 -37.726562 48.515625 -35.375 C 46.648438 -33.019531 43.863281 -31.21875 40.15625 -29.96875 L 40.15625 -29.09375 C 42.0625 -28.257812 43.601562 -27.023438 44.78125 -25.390625 C 45.957031 -23.753906 47.070312 -21.332031 48.125 -18.125 L 54.203125 0 L 41.859375 0 L 35.90625 -18.15625 C 35.300781 -19.988281 34.617188 -21.410156 33.859375 -22.421875 C 33.097656 -23.429688 32.125 -24.164062 30.9375 -24.625 C 29.757812 -25.082031 28.234375 -25.3125 26.359375 -25.3125 L 19.90625 -25.3125 L 19.90625 0 Z M 30.84375 -34.828125 C 36.65625 -34.828125 39.5625 -37.546875 39.5625 -42.984375 C 39.5625 -48.492188 36.65625 -51.25 30.84375 -51.25 L 19.90625 -51.25 L 19.90625 -34.828125 Z M 30.84375 -34.828125 "/></g></g></g><g fill="#ffffff" fill-opacity="1"><g transform="translate(113.187556, 91.561194)"><g><path d="M 33.125 0.875 C 27.550781 0.875 22.640625 -0.257812 18.390625 -2.53125 C 14.140625 -4.800781 10.804688 -8.269531 8.390625 -12.9375 C 5.984375 -17.613281 4.78125 -23.429688 4.78125 -30.390625 C 4.78125 -37.335938 5.984375 -43.144531 8.390625 -47.8125 C 10.804688 -52.488281 14.140625 -55.960938 18.390625 -58.234375 C 22.640625 -60.503906 27.550781 -61.640625 33.125 -61.640625 C 38.695312 -61.640625 43.601562 -60.507812 47.84375 -58.25 C 52.082031 -55.988281 55.398438 -52.515625 57.796875 -47.828125 C 60.191406 -43.148438 61.390625 -37.335938 61.390625 -30.390625 C 61.390625 -23.429688 60.191406 -17.609375 57.796875 -12.921875 C 55.398438 -8.242188 52.082031 -4.773438 47.84375 -2.515625 C 43.601562 -0.253906 38.695312 0.875 33.125 0.875 Z M 33.125 -9.5625 C 38.28125 -9.5625 42.210938 -11.21875 44.921875 -14.53125 C 47.640625 -17.84375 49 -23.128906 49 -30.390625 C 49 -37.648438 47.640625 -42.941406 44.921875 -46.265625 C 42.210938 -49.585938 38.28125 -51.25 33.125 -51.25 C 27.945312 -51.25 23.992188 -49.585938 21.265625 -46.265625 C 18.535156 -42.941406 17.171875 -37.648438 17.171875 -30.390625 C 17.171875 -23.128906 18.535156 -17.84375 21.265625 -14.53125 C 23.992188 -11.21875 27.945312 -9.5625 33.125 -9.5625 Z M 33.125 -9.5625 "/></g></g></g><g fill="#ffffff" fill-opacity="1"><g transform="translate(179.382013, 91.561194)"><g><path d="M 46.421875 -60.765625 L 46.421875 -50.703125 L 19.90625 -50.703125 L 19.90625 -34.625 L 43.96875 -34.625 L 43.96875 -24.6875 L 19.90625 -24.6875 L 19.90625 0 L 7.890625 0 L 7.890625 -60.765625 Z M 46.421875 -60.765625 "/></g></g></g><g fill="#ffffff" fill-opacity="1"><g transform="translate(228.498052, 91.561194)"><g><path d="M 46.421875 -60.765625 L 46.421875 -50.703125 L 19.90625 -50.703125 L 19.90625 -34.625 L 43.96875 -34.625 L 43.96875 -24.6875 L 19.90625 -24.6875 L 19.90625 0 L 7.890625 0 L 7.890625 -60.765625 Z M 46.421875 -60.765625 "/></g></g></g><g fill="#ffffff" fill-opacity="1"><g transform="translate(277.61409, 91.561194)"><g><path d="M 19.90625 -26.6875 L 19.90625 -10.0625 L 48.921875 -10.0625 L 48.921875 0 L 7.890625 0 L 7.890625 -60.765625 L 48.25 -60.765625 L 48.25 -50.703125 L 19.90625 -50.703125 L 19.90625 -36.5 L 44.6875 -36.5 L 44.6875 -26.6875 Z M 19.90625 -26.6875 "/></g></g></g><g fill="#ffffff" fill-opacity="1"><g transform="translate(329.84663, 91.561194)"><g><path d="M 26.9375 0.875 C 22.71875 0.875 18.96875 0.351562 15.6875 -0.6875 C 12.40625 -1.726562 9.671875 -3.09375 7.484375 -4.78125 C 5.296875 -6.46875 3.617188 -8.320312 2.453125 -10.34375 L 9.0625 -18.40625 L 10.09375 -18.40625 C 11.925781 -15.695312 14.25 -13.535156 17.0625 -11.921875 C 19.875 -10.316406 23.164062 -9.515625 26.9375 -9.515625 C 30.144531 -9.515625 32.566406 -10.191406 34.203125 -11.546875 C 35.835938 -12.910156 36.65625 -14.785156 36.65625 -17.171875 C 36.65625 -18.609375 36.390625 -19.8125 35.859375 -20.78125 C 35.335938 -21.75 34.46875 -22.578125 33.25 -23.265625 C 32.03125 -23.960938 30.382812 -24.5625 28.3125 -25.0625 L 20.484375 -26.84375 C 15.023438 -28.09375 10.957031 -30.164062 8.28125 -33.0625 C 5.613281 -35.957031 4.28125 -39.71875 4.28125 -44.34375 C 4.28125 -47.78125 5.140625 -50.800781 6.859375 -53.40625 C 8.578125 -56.007812 11.078125 -58.03125 14.359375 -59.46875 C 17.640625 -60.914062 21.566406 -61.640625 26.140625 -61.640625 C 30.828125 -61.640625 34.835938 -61.019531 38.171875 -59.78125 C 41.515625 -58.550781 44.335938 -56.664062 46.640625 -54.125 L 40.6875 -45.96875 L 39.65625 -45.96875 C 37.9375 -47.769531 35.96875 -49.117188 33.75 -50.015625 C 31.53125 -50.921875 28.992188 -51.375 26.140625 -51.375 C 22.847656 -51.375 20.34375 -50.789062 18.625 -49.625 C 16.90625 -48.46875 16.046875 -46.863281 16.046875 -44.8125 C 16.046875 -42.894531 16.644531 -41.367188 17.84375 -40.234375 C 19.050781 -39.097656 21.140625 -38.210938 24.109375 -37.578125 L 32.09375 -35.90625 C 37.988281 -34.664062 42.265625 -32.554688 44.921875 -29.578125 C 47.585938 -26.597656 48.921875 -22.710938 48.921875 -17.921875 C 48.921875 -14.117188 48.101562 -10.8125 46.46875 -8 C 44.832031 -5.1875 42.363281 -3.003906 39.0625 -1.453125 C 35.769531 0.0976562 31.726562 0.875 26.9375 0.875 Z M 26.9375 0.875 "/></g></g></g><g fill="#ffffff" fill-opacity="1"><g transform="translate(382.037615, 91.561194)"><g><path d="M 26.9375 0.875 C 22.71875 0.875 18.96875 0.351562 15.6875 -0.6875 C 12.40625 -1.726562 9.671875 -3.09375 7.484375 -4.78125 C 5.296875 -6.46875 3.617188 -8.320312 2.453125 -10.34375 L 9.0625 -18.40625 L 10.09375 -18.40625 C 11.925781 -15.695312 14.25 -13.535156 17.0625 -11.921875 C 19.875 -10.316406 23.164062 -9.515625 26.9375 -9.515625 C 30.144531 -9.515625 32.566406 -10.191406 34.203125 -11.546875 C 35.835938 -12.910156 36.65625 -14.785156 36.65625 -17.171875 C 36.65625 -18.609375 36.390625 -19.8125 35.859375 -20.78125 C 35.335938 -21.75 34.46875 -22.578125 33.25 -23.265625 C 32.03125 -23.960938 30.382812 -24.5625 28.3125 -25.0625 L 20.484375 -26.84375 C 15.023438 -28.09375 10.957031 -30.164062 8.28125 -33.0625 C 5.613281 -35.957031 4.28125 -39.71875 4.28125 -44.34375 C 4.28125 -47.78125 5.140625 -50.800781 6.859375 -53.40625 C 8.578125 -56.007812 11.078125 -58.03125 14.359375 -59.46875 C 17.640625 -60.914062 21.566406 -61.640625 26.140625 -61.640625 C 30.828125 -61.640625 34.835938 -61.019531 38.171875 -59.78125 C 41.515625 -58.550781 44.335938 -56.664062 46.640625 -54.125 L 40.6875 -45.96875 L 39.65625 -45.96875 C 37.9375 -47.769531 35.96875 -49.117188 33.75 -50.015625 C 31.53125 -50.921875 28.992188 -51.375 26.140625 -51.375 C 22.847656 -51.375 20.34375 -50.789062 18.625 -49.625 C 16.90625 -48.46875 16.046875 -46.863281 16.046875 -44.8125 C 16.046875 -42.894531 16.644531 -41.367188 17.84375 -40.234375 C 19.050781 -39.097656 21.140625 -38.210938 24.109375 -37.578125 L 32.09375 -35.90625 C 37.988281 -34.664062 42.265625 -32.554688 44.921875 -29.578125 C 47.585938 -26.597656 48.921875 -22.710938 48.921875 -17.921875 C 48.921875 -14.117188 48.101562 -10.8125 46.46875 -8 C 44.832031 -5.1875 42.363281 -3.003906 39.0625 -1.453125 C 35.769531 0.0976562 31.726562 0.875 26.9375 0.875 Z M 26.9375 0.875 "/></g></g></g><g fill="#ffffff" fill-opacity="1"><g transform="translate(434.2286, 91.561194)"><g><path d="M 33.125 0.875 C 27.550781 0.875 22.640625 -0.257812 18.390625 -2.53125 C 14.140625 -4.800781 10.804688 -8.269531 8.390625 -12.9375 C 5.984375 -17.613281 4.78125 -23.429688 4.78125 -30.390625 C 4.78125 -37.335938 5.984375 -43.144531 8.390625 -47.8125 C 10.804688 -52.488281 14.140625 -55.960938 18.390625 -58.234375 C 22.640625 -60.503906 27.550781 -61.640625 33.125 -61.640625 C 38.695312 -61.640625 43.601562 -60.507812 47.84375 -58.25 C 52.082031 -55.988281 55.398438 -52.515625 57.796875 -47.828125 C 60.191406 -43.148438 61.390625 -37.335938 61.390625 -30.390625 C 61.390625 -23.429688 60.191406 -17.609375 57.796875 -12.921875 C 55.398438 -8.242188 52.082031 -4.773438 47.84375 -2.515625 C 43.601562 -0.253906 38.695312 0.875 33.125 0.875 Z M 33.125 -9.5625 C 38.28125 -9.5625 42.210938 -11.21875 44.921875 -14.53125 C 47.640625 -17.84375 49 -23.128906 49 -30.390625 C 49 -37.648438 47.640625 -42.941406 44.921875 -46.265625 C 42.210938 -49.585938 38.28125 -51.25 33.125 -51.25 C 27.945312 -51.25 23.992188 -49.585938 21.265625 -46.265625 C 18.535156 -42.941406 17.171875 -37.648438 17.171875 -30.390625 C 17.171875 -23.128906 18.535156 -17.84375 21.265625 -14.53125 C 23.992188 -11.21875 27.945312 -9.5625 33.125 -9.5625 Z M 33.125 -9.5625 "/></g></g></g><g fill="#ffffff" fill-opacity="1"><g transform="translate(500.423058, 91.561194)"><g><path d="M 7.890625 0 L 7.890625 -60.765625 L 32.296875 -60.765625 C 38.585938 -60.765625 43.332031 -59.316406 46.53125 -56.421875 C 49.726562 -53.523438 51.328125 -49.53125 51.328125 -44.4375 C 51.328125 -40.75 50.390625 -37.726562 48.515625 -35.375 C 46.648438 -33.019531 43.863281 -31.21875 40.15625 -29.96875 L 40.15625 -29.09375 C 42.0625 -28.257812 43.601562 -27.023438 44.78125 -25.390625 C 45.957031 -23.753906 47.070312 -21.332031 48.125 -18.125 L 54.203125 0 L 41.859375 0 L 35.90625 -18.15625 C 35.300781 -19.988281 34.617188 -21.410156 33.859375 -22.421875 C 33.097656 -23.429688 32.125 -24.164062 30.9375 -24.625 C 29.757812 -25.082031 28.234375 -25.3125 26.359375 -25.3125 L 19.90625 -25.3125 L 19.90625 0 Z M 30.84375 -34.828125 C 36.65625 -34.828125 39.5625 -37.546875 39.5625 -42.984375 C 39.5625 -48.492188 36.65625 -51.25 30.84375 -51.25 L 19.90625 -51.25 L 19.90625 -34.828125 Z M 30.84375 -34.828125 "/></g></g></g><g fill="#ffffff" fill-opacity="1"><g transform="translate(557.226463, 91.561194)"><g/></g></g><g fill="#ffffff" fill-opacity="1"><g transform="translate(577.310598, 91.561194)"><g><path d="M 31.375 -60.765625 C 35.726562 -60.765625 39.445312 -59.96875 42.53125 -58.375 C 45.625 -56.78125 47.960938 -54.550781 49.546875 -51.6875 C 51.128906 -48.820312 51.921875 -45.488281 51.921875 -41.6875 C 51.921875 -37.894531 51.128906 -34.570312 49.546875 -31.71875 C 47.960938 -28.863281 45.625 -26.640625 42.53125 -25.046875 C 39.445312 -23.453125 35.726562 -22.65625 31.375 -22.65625 L 19.90625 -22.65625 L 19.90625 0 L 7.890625 0 L 7.890625 -60.765625 Z M 29.796875 -32.171875 C 36.472656 -32.171875 39.8125 -35.34375 39.8125 -41.6875 C 39.8125 -48.0625 36.472656 -51.25 29.796875 -51.25 L 19.90625 -51.25 L 19.90625 -32.171875 Z M 29.796875 -32.171875 "/></g></g></g><g fill="#ffffff" fill-opacity="1"><g transform="translate(632.82585, 91.561194)"><g><path d="M 33.125 0.875 C 27.550781 0.875 22.640625 -0.257812 18.390625 -2.53125 C 14.140625 -4.800781 10.804688 -8.269531 8.390625 -12.9375 C 5.984375 -17.613281 4.78125 -23.429688 4.78125 -30.390625 C 4.78125 -37.335938 5.984375 -43.144531 8.390625 -47.8125 C 10.804688 -52.488281 14.140625 -55.960938 18.390625 -58.234375 C 22.640625 -60.503906 27.550781 -61.640625 33.125 -61.640625 C 38.695312 -61.640625 43.601562 -60.507812 47.84375 -58.25 C 52.082031 -55.988281 55.398438 -52.515625 57.796875 -47.828125 C 60.191406 -43.148438 61.390625 -37.335938 61.390625 -30.390625 C 61.390625 -23.429688 60.191406 -17.609375 57.796875 -12.921875 C 55.398438 -8.242188 52.082031 -4.773438 47.84375 -2.515625 C 43.601562 -0.253906 38.695312 0.875 33.125 0.875 Z M 33.125 -9.5625 C 38.28125 -9.5625 42.210938 -11.21875 44.921875 -14.53125 C 47.640625 -17.84375 49 -23.128906 49 -30.390625 C 49 -37.648438 47.640625 -42.941406 44.921875 -46.265625 C 42.210938 -49.585938 38.28125 -51.25 33.125 -51.25 C 27.945312 -51.25 23.992188 -49.585938 21.265625 -46.265625 C 18.535156 -42.941406 17.171875 -37.648438 17.171875 -30.390625 C 17.171875 -23.128906 18.535156 -17.84375 21.265625 -14.53125 C 23.992188 -11.21875 27.945312 -9.5625 33.125 -9.5625 Z M 33.125 -9.5625 "/></g></g></g><g fill="#ffffff" fill-opacity="1"><g transform="translate(699.020308, 91.561194)"><g><path d="M 29.015625 0 L 15.59375 0 L 1.65625 -60.765625 L 13.640625 -60.765625 L 22.8125 -18.046875 L 23.859375 -18.046875 L 34.75 -60.765625 L 45.015625 -60.765625 L 56.109375 -18.046875 L 57.15625 -18.046875 L 66.375 -60.765625 L 77.9375 -60.765625 L 64.046875 0 L 50.578125 0 L 39.9375 -39.203125 L 39.078125 -39.203125 Z M 29.015625 0 "/></g></g></g><g fill="#ffffff" fill-opacity="1"><g transform="translate(778.553385, 91.561194)"><g><path d="M 19.90625 -26.6875 L 19.90625 -10.0625 L 48.921875 -10.0625 L 48.921875 0 L 7.890625 0 L 7.890625 -60.765625 L 48.25 -60.765625 L 48.25 -50.703125 L 19.90625 -50.703125 L 19.90625 -36.5 L 44.6875 -36.5 L 44.6875 -26.6875 Z M 19.90625 -26.6875 "/></g></g></g><g fill="#ffffff" fill-opacity="1"><g transform="translate(830.785925, 91.561194)"><g><path d="M 7.890625 0 L 7.890625 -60.765625 L 32.296875 -60.765625 C 38.585938 -60.765625 43.332031 -59.316406 46.53125 -56.421875 C 49.726562 -53.523438 51.328125 -49.53125 51.328125 -44.4375 C 51.328125 -40.75 50.390625 -37.726562 48.515625 -35.375 C 46.648438 -33.019531 43.863281 -31.21875 40.15625 -29.96875 L 40.15625 -29.09375 C 42.0625 -28.257812 43.601562 -27.023438 44.78125 -25.390625 C 45.957031 -23.753906 47.070312 -21.332031 48.125 -18.125 L 54.203125 0 L 41.859375 0 L 35.90625 -18.15625 C 35.300781 -19.988281 34.617188 -21.410156 33.859375 -22.421875 C 33.097656 -23.429688 32.125 -24.164062 30.9375 -24.625 C 29.757812 -25.082031 28.234375 -25.3125 26.359375 -25.3125 L 19.90625 -25.3125 L 19.90625 0 Z M 30.84375 -34.828125 C 36.65625 -34.828125 39.5625 -37.546875 39.5625 -42.984375 C 39.5625 -48.492188 36.65625 -51.25 30.84375 -51.25 L 19.90625 -51.25 L 19.90625 -34.828125 Z M 30.84375 -34.828125 "/></g></g></g><g fill="#ffffff" fill-opacity="1"><g transform="translate(887.589329, 91.561194)"><g><path d="M 29.015625 0 L 15.59375 0 L 1.65625 -60.765625 L 13.640625 -60.765625 L 22.8125 -18.046875 L 23.859375 -18.046875 L 34.75 -60.765625 L 45.015625 -60.765625 L 56.109375 -18.046875 L 57.15625 -18.046875 L 66.375 -60.765625 L 77.9375 -60.765625 L 64.046875 0 L 50.578125 0 L 39.9375 -39.203125 L 39.078125 -39.203125 Z M 29.015625 0 "/></g></g></g><g fill="#ffffff" fill-opacity="1"><g transform="translate(967.122407, 91.561194)"><g><path d="M 58.3125 0 L 45.6875 0 L 41.109375 -14 L 17.828125 -14 L 13.265625 0 L 0.921875 0 L 21.90625 -60.765625 L 37.328125 -60.765625 Z M 28.890625 -48.09375 L 21.078125 -24.109375 L 37.78125 -24.109375 L 29.921875 -48.09375 Z M 28.890625 -48.09375 "/></g></g></g><g fill="#ffffff" fill-opacity="1"><g transform="translate(1026.335906, 91.561194)"><g><path d="M 26.9375 0.875 C 22.71875 0.875 18.96875 0.351562 15.6875 -0.6875 C 12.40625 -1.726562 9.671875 -3.09375 7.484375 -4.78125 C 5.296875 -6.46875 3.617188 -8.320312 2.453125 -10.34375 L 9.0625 -18.40625 L 10.09375 -18.40625 C 11.925781 -15.695312 14.25 -13.535156 17.0625 -11.921875 C 19.875 -10.316406 23.164062 -9.515625 26.9375 -9.515625 C 30.144531 -9.515625 32.566406 -10.191406 34.203125 -11.546875 C 35.835938 -12.910156 36.65625 -14.785156 36.65625 -17.171875 C 36.65625 -18.609375 36.390625 -19.8125 35.859375 -20.78125 C 35.335938 -21.75 34.46875 -22.578125 33.25 -23.265625 C 32.03125 -23.960938 30.382812 -24.5625 28.3125 -25.0625 L 20.484375 -26.84375 C 15.023438 -28.09375 10.957031 -30.164062 8.28125 -33.0625 C 5.613281 -35.957031 4.28125 -39.71875 4.28125 -44.34375 C 4.28125 -47.78125 5.140625 -50.800781 6.859375 -53.40625 C 8.578125 -56.007812 11.078125 -58.03125 14.359375 -59.46875 C 17.640625 -60.914062 21.566406 -61.640625 26.140625 -61.640625 C 30.828125 -61.640625 34.835938 -61.019531 38.171875 -59.78125 C 41.515625 -58.550781 44.335938 -56.664062 46.640625 -54.125 L 40.6875 -45.96875 L 39.65625 -45.96875 C 37.9375 -47.769531 35.96875 -49.117188 33.75 -50.015625 C 31.53125 -50.921875 28.992188 -51.375 26.140625 -51.375 C 22.847656 -51.375 20.34375 -50.789062 18.625 -49.625 C 16.90625 -48.46875 16.046875 -46.863281 16.046875 -44.8125 C 16.046875 -42.894531 16.644531 -41.367188 17.84375 -40.234375 C 19.050781 -39.097656 21.140625 -38.210938 24.109375 -37.578125 L 32.09375 -35.90625 C 37.988281 -34.664062 42.265625 -32.554688 44.921875 -29.578125 C 47.585938 -26.597656 48.921875 -22.710938 48.921875 -17.921875 C 48.921875 -14.117188 48.101562 -10.8125 46.46875 -8 C 44.832031 -5.1875 42.363281 -3.003906 39.0625 -1.453125 C 35.769531 0.0976562 31.726562 0.875 26.9375 0.875 Z M 26.9375 0.875 "/></g></g></g><g fill="#ffffff" fill-opacity="1"><g transform="translate(1078.526891, 91.561194)"><g><path d="M 47.140625 -37.90625 L 47.140625 -60.765625 L 59.109375 -60.765625 L 59.109375 0 L 47.140625 0 L 47.140625 -27.6875 L 19.90625 -27.6875 L 19.90625 0 L 7.890625 0 L 7.890625 -60.765625 L 19.90625 -60.765625 L 19.90625 -37.90625 Z M 47.140625 -37.90625 "/></g></g></g></g></g><g clip-path="url(#a337324457)"><g clip-path="url(#76640b1b26)"><g transform="matrix(1, 0, 0, 1, 168, 21)"><g clip-path="url(#a4090bf949)"><g clip-path="url(#c6ee20d8f6)"><g clip-path="url(#fceb3e0492)"><path fill="#0c2340" d="M 0.714844 0.964844 L 30.261719 0.964844 L 30.261719 30.507812 L 0.714844 30.507812 Z M 0.714844 0.964844 " fill-opacity="1" fill-rule="nonzero"/></g></g></g></g></g></g><g clip-path="url(#a92019573d)"><g clip-path="url(#5d18db6bd4)"><g transform="matrix(1, 0, 0, 1, 180, 21)"><g clip-path="url(#858cb5b36e)"><g clip-path="url(#dfa347dd77)"><g clip-path="url(#4e804a40e4)"><path fill="#0c2340" d="M 0.0742188 0.964844 L 29.621094 0.964844 L 29.621094 30.507812 L 0.0742188 30.507812 Z M 0.0742188 0.964844 " fill-opacity="1" fill-rule="nonzero"/></g></g></g></g></g></g><g clip-path="url(#bac142718a)"><g clip-path="url(#e7c523e53e)"><g transform="matrix(1, 0, 0, 1, 183, 39)"><g clip-path="url(#60735f3e4a)"><g clip-path="url(#004b205131)"><g clip-path="url(#a0f5d943c8)"><path fill="#0c2340" d="M 0.144531 0.804688 L 23.554688 0.804688 L 23.554688 24.210938 L 0.144531 24.210938 Z M 0.144531 0.804688 " fill-opacity="1" fill-rule="nonzero"/></g></g></g></g></g></g><g clip-path="url(#72b06f298b)"><g clip-path="url(#9eb41560b7)"><g transform="matrix(1, 0, 0, 1, 157, 26)"><g clip-path="url(#5c91554fa9)"><g clip-path="url(#2ee5380082)"><g clip-path="url(#3ab6ed604a)"><path fill="#0c2340" d="M 0.355469 0.195312 L 29.902344 0.195312 L 29.902344 29.742188 L 0.355469 29.742188 Z M 0.355469 0.195312 " fill-opacity="1" fill-rule="nonzero"/></g></g></g></g></g></g><g clip-path="url(#52d6f12152)"><g clip-path="url(#2098dbcc14)"><g transform="matrix(1, 0, 0, 1, 168, 26)"><g clip-path="url(#556a493d64)"><g clip-path="url(#11709183db)"><g clip-path="url(#b98c357387)"><path fill="#0c2340" d="M 0.714844 0.195312 L 30.261719 0.195312 L 30.261719 29.742188 L 0.714844 29.742188 Z M 0.714844 0.195312 " fill-opacity="1" fill-rule="nonzero"/></g></g></g></g></g></g><g clip-path="url(#9f1ca3fb4f)"><g clip-path="url(#d3caff3d87)"><g transform="matrix(1, 0, 0, 1, 183, 55)"><g clip-path="url(#f0c24ec2d4)"><g clip-path="url(#365b0895b2)"><g clip-path="url(#737f3d78a7)"><path fill="#0c2340" d="M 0.488281 0.742188 L 18.675781 0.742188 L 18.675781 18.925781 L 0.488281 18.925781 Z M 0.488281 0.742188 " fill-opacity="1" fill-rule="nonzero"/></g></g></g></g></g></g><g clip-path="url(#35adf6a525)"><g clip-path="url(#fc08046e0c)"><g transform="matrix(1, 0, 0, 1, 174, 45)"><g clip-path="url(#38f6b96a68)"><g clip-path="url(#ee85ab1601)"><g clip-path="url(#d1ba2e565c)"><path fill="#0c2340" d="M 0.394531 0.0273438 L 18.582031 0.0273438 L 18.582031 18.210938 L 0.394531 18.210938 Z M 0.394531 0.0273438 " fill-opacity="1" fill-rule="nonzero"/></g></g></g></g></g></g><g clip-path="url(#89999f2196)"><path fill="#ffffff" d="M 190.371094 26.253906 C 190.289062 26.253906 190.210938 26.238281 190.136719 26.210938 L 177.328125 21.589844 C 177.027344 21.480469 176.875 21.265625 176.875 20.945312 C 176.875 20.625 177.027344 20.410156 177.328125 20.300781 L 190.136719 15.679688 C 190.292969 15.625 190.449219 15.625 190.601562 15.679688 L 203.410156 20.300781 C 203.710938 20.410156 203.863281 20.625 203.863281 20.945312 C 203.863281 21.265625 203.710938 21.480469 203.410156 21.589844 L 190.601562 26.214844 C 190.527344 26.238281 190.449219 26.253906 190.371094 26.253906 Z M 179.582031 20.945312 L 190.371094 24.839844 L 201.160156 20.945312 L 190.371094 17.054688 Z M 179.582031 20.945312 " fill-opacity="1" fill-rule="nonzero"/></g><path fill="#ffffff" d="M 199.511719 30.730469 L 181.230469 30.730469 C 181.039062 30.730469 180.878906 30.664062 180.746094 30.53125 C 180.609375 30.398438 180.542969 30.234375 180.542969 30.046875 L 180.542969 22.269531 C 180.542969 22.082031 180.609375 21.917969 180.746094 21.785156 C 180.878906 21.652344 181.039062 21.585938 181.230469 21.585938 C 181.417969 21.585938 181.582031 21.652344 181.714844 21.785156 C 181.847656 21.917969 181.914062 22.082031 181.914062 22.269531 L 181.914062 29.359375 L 198.824219 29.359375 L 198.824219 22.269531 C 198.824219 22.082031 198.890625 21.917969 199.027344 21.785156 C 199.160156 21.652344 199.320312 21.585938 199.511719 21.585938 C 199.699219 21.585938 199.863281 21.652344 199.996094 21.785156 C 200.128906 21.917969 200.195312 22.082031 200.195312 22.269531 L 200.195312 30.046875 C 200.195312 30.234375 200.128906 30.398438 199.996094 30.53125 C 199.863281 30.664062 199.699219 30.730469 199.511719 30.730469 Z M 199.511719 30.730469 " fill-opacity="1" fill-rule="nonzero"/><path fill="#ffffff" d="M 203.179688 26.621094 C 202.988281 26.621094 202.828125 26.554688 202.695312 26.417969 C 202.558594 26.285156 202.492188 26.125 202.492188 25.933594 L 202.492188 20.945312 C 202.492188 20.757812 202.558594 20.59375 202.695312 20.460938 C 202.828125 20.328125 202.988281 20.261719 203.179688 20.261719 C 203.367188 20.261719 203.527344 20.328125 203.664062 20.460938 C 203.796875 20.59375 203.863281 20.757812 203.863281 20.945312 L 203.863281 25.933594 C 203.863281 26.125 203.796875 26.285156 203.664062 26.417969 C 203.527344 26.554688 203.367188 26.621094 203.179688 26.621094 Z M 203.179688 26.621094 " fill-opacity="1" fill-rule="nonzero"/><path fill="#ffffff" d="M 190.371094 39.804688 C 185.4375 39.804688 181.421875 35.800781 181.421875 30.882812 C 181.421875 30.578125 181.4375 30.277344 181.46875 29.976562 C 181.488281 29.789062 181.570312 29.632812 181.714844 29.515625 C 181.863281 29.394531 182.03125 29.34375 182.21875 29.363281 C 182.40625 29.382812 182.5625 29.464844 182.679688 29.613281 C 182.800781 29.761719 182.851562 29.929688 182.832031 30.117188 C 182.804688 30.371094 182.792969 30.625 182.792969 30.882812 C 182.792969 35.046875 186.195312 38.433594 190.371094 38.433594 C 194.550781 38.433594 197.949219 35.046875 197.949219 30.882812 C 197.949219 30.625 197.9375 30.371094 197.914062 30.117188 C 197.894531 29.929688 197.941406 29.761719 198.0625 29.613281 C 198.183594 29.46875 198.335938 29.382812 198.523438 29.363281 C 198.710938 29.34375 198.878906 29.394531 199.027344 29.515625 C 199.171875 29.632812 199.257812 29.789062 199.277344 29.976562 C 199.304688 30.273438 199.320312 30.578125 199.320312 30.882812 C 199.320312 35.800781 195.304688 39.804688 190.371094 39.804688 Z M 190.371094 39.804688 " fill-opacity="1" fill-rule="nonzero"/><g clip-path="url(#bf29b35633)"><path fill="#ffffff" d="M 201.140625 59.695312 L 201.082031 59.695312 L 179.546875 59.460938 C 179.207031 59.460938 178.871094 59.421875 178.539062 59.355469 C 178.207031 59.285156 177.886719 59.183594 177.574219 59.054688 C 177.261719 58.921875 176.964844 58.761719 176.683594 58.570312 C 176.402344 58.378906 176.144531 58.164062 175.90625 57.925781 C 175.664062 57.683594 175.453125 57.421875 175.265625 57.140625 C 175.078125 56.859375 174.917969 56.558594 174.789062 56.246094 C 174.660156 55.933594 174.5625 55.609375 174.496094 55.277344 C 174.429688 54.945312 174.398438 54.609375 174.398438 54.269531 L 174.398438 49.996094 C 174.398438 49.234375 174.472656 48.480469 174.621094 47.738281 C 174.773438 46.992188 174.992188 46.269531 175.285156 45.566406 C 175.578125 44.863281 175.933594 44.199219 176.355469 43.566406 C 176.78125 42.933594 177.261719 42.351562 177.800781 41.8125 C 178.335938 41.277344 178.921875 40.796875 179.554688 40.375 C 180.1875 39.957031 180.855469 39.597656 181.558594 39.308594 C 182.261719 39.019531 182.984375 38.800781 183.730469 38.652344 C 184.476562 38.507812 185.230469 38.433594 185.992188 38.433594 L 194.753906 38.433594 C 195.511719 38.433594 196.265625 38.507812 197.011719 38.65625 C 197.757812 38.800781 198.480469 39.019531 199.183594 39.308594 C 199.886719 39.601562 200.554688 39.957031 201.1875 40.378906 C 201.816406 40.796875 202.402344 41.277344 202.941406 41.816406 C 203.480469 42.351562 203.960938 42.933594 204.382812 43.566406 C 204.808594 44.199219 205.164062 44.863281 205.457031 45.566406 C 205.746094 46.269531 205.96875 46.992188 206.117188 47.738281 C 206.265625 48.480469 206.34375 49.234375 206.34375 49.996094 L 206.34375 54.5 C 206.34375 54.84375 206.308594 55.179688 206.242188 55.515625 C 206.175781 55.851562 206.074219 56.175781 205.945312 56.492188 C 205.8125 56.804688 205.652344 57.105469 205.464844 57.390625 C 205.273438 57.671875 205.058594 57.933594 204.816406 58.175781 C 204.574219 58.417969 204.3125 58.632812 204.027344 58.820312 C 203.742188 59.011719 203.445312 59.171875 203.128906 59.300781 C 202.8125 59.429688 202.488281 59.527344 202.152344 59.59375 C 201.816406 59.660156 201.480469 59.695312 201.140625 59.695312 Z M 185.992188 39.804688 C 180.355469 39.804688 175.769531 44.375 175.769531 49.996094 L 175.769531 54.269531 C 175.769531 56.355469 177.46875 58.070312 179.5625 58.089844 L 201.097656 58.324219 C 201.347656 58.328125 201.601562 58.304688 201.847656 58.257812 C 202.097656 58.210938 202.339844 58.140625 202.574219 58.046875 C 202.808594 57.953125 203.03125 57.835938 203.242188 57.695312 C 203.457031 57.558594 203.652344 57.398438 203.832031 57.222656 C 204.011719 57.042969 204.171875 56.851562 204.316406 56.640625 C 204.457031 56.429688 204.578125 56.210938 204.675781 55.976562 C 204.773438 55.742188 204.847656 55.5 204.898438 55.253906 C 204.945312 55.003906 204.972656 54.753906 204.972656 54.5 L 204.972656 49.996094 C 204.972656 44.375 200.386719 39.804688 194.75 39.804688 Z M 185.992188 39.804688 " fill-opacity="1" fill-rule="nonzero"/></g><g clip-path="url(#bf3f5296e3)"><path fill="#ffffff" d="M 189.90625 59.578125 C 189.660156 59.578125 189.472656 59.476562 189.335938 59.273438 L 183.632812 50.753906 C 183.546875 50.625 183.511719 50.480469 183.519531 50.328125 C 183.53125 50.171875 183.585938 50.035156 183.691406 49.921875 L 186.429688 46.808594 L 183.203125 43.390625 C 182.988281 43.164062 182.949219 42.910156 183.082031 42.625 L 184.90625 38.824219 C 184.988281 38.652344 185.117188 38.535156 185.296875 38.472656 C 185.476562 38.40625 185.652344 38.417969 185.824219 38.5 C 185.996094 38.582031 186.113281 38.710938 186.175781 38.890625 C 186.238281 39.070312 186.226562 39.246094 186.144531 39.417969 L 184.523438 42.796875 L 187.855469 46.320312 C 187.976562 46.449219 188.039062 46.601562 188.042969 46.777344 C 188.046875 46.957031 187.988281 47.109375 187.871094 47.242188 L 185.066406 50.429688 L 190.476562 58.511719 C 190.628906 58.742188 190.640625 58.976562 190.511719 59.21875 C 190.382812 59.457031 190.179688 59.578125 189.90625 59.578125 Z M 189.90625 59.578125 " fill-opacity="1" fill-rule="nonzero"/></g><g clip-path="url(#3e6edfca16)"><path fill="#ffffff" d="M 190.835938 59.578125 C 190.558594 59.578125 190.359375 59.457031 190.230469 59.214844 C 190.101562 58.972656 190.113281 58.738281 190.265625 58.511719 L 195.671875 50.429688 L 192.867188 47.242188 C 192.75 47.109375 192.691406 46.953125 192.695312 46.777344 C 192.699219 46.601562 192.761719 46.449219 192.882812 46.320312 L 196.214844 42.792969 L 194.597656 39.417969 C 194.515625 39.246094 194.507812 39.074219 194.570312 38.894531 C 194.632812 38.71875 194.75 38.589844 194.917969 38.507812 C 195.089844 38.425781 195.261719 38.417969 195.441406 38.476562 C 195.617188 38.539062 195.75 38.65625 195.832031 38.824219 L 197.65625 42.625 C 197.792969 42.90625 197.75 43.164062 197.535156 43.390625 L 194.308594 46.804688 L 197.050781 49.917969 C 197.152344 50.035156 197.207031 50.171875 197.21875 50.328125 C 197.226562 50.480469 197.191406 50.621094 197.105469 50.75 L 191.40625 59.273438 C 191.269531 59.476562 191.078125 59.578125 190.835938 59.578125 Z M 190.835938 59.578125 " fill-opacity="1" fill-rule="nonzero"/></g><path fill="#ffffff" d="M 190.402344 43.300781 L 190.371094 43.300781 C 189.753906 43.296875 189.265625 43.039062 188.914062 42.535156 L 186.777344 39.515625 C 186.667969 39.363281 186.628906 39.191406 186.664062 39.003906 C 186.695312 38.816406 186.789062 38.671875 186.941406 38.5625 C 187.097656 38.453125 187.265625 38.414062 187.453125 38.445312 C 187.640625 38.476562 187.789062 38.570312 187.898438 38.722656 L 190.03125 41.742188 C 190.074219 41.800781 190.125 41.847656 190.1875 41.878906 C 190.253906 41.914062 190.320312 41.929688 190.390625 41.929688 C 190.464844 41.933594 190.53125 41.917969 190.597656 41.886719 C 190.660156 41.855469 190.714844 41.808594 190.757812 41.753906 L 193.058594 38.707031 C 193.171875 38.554688 193.324219 38.46875 193.511719 38.441406 C 193.699219 38.414062 193.867188 38.460938 194.019531 38.574219 C 194.167969 38.6875 194.257812 38.839844 194.285156 39.027344 C 194.308594 39.214844 194.265625 39.382812 194.152344 39.535156 L 191.851562 42.578125 C 191.488281 43.0625 191.007812 43.304688 190.402344 43.300781 Z M 190.402344 43.300781 " fill-opacity="1" fill-rule="nonzero"/></svg>