<svg xmlns="http://www.w3.org/2000/svg" xmlns:xlink="http://www.w3.org/1999/xlink" width="5700" zoomAndPan="magnify" viewBox="0 0 4275 418.499988" height="558" preserveAspectRatio="xMidYMid meet" version="1.0"><defs><g/><clipPath id="2ffd89dbf0"><path d="M 2.550781 0 L 4272.449219 0 L 4272.449219 418 L 2.550781 418 Z M 2.550781 0 " clip-rule="nonzero"/></clipPath><clipPath id="8f816ff4b2"><rect x="0" width="3449" y="0" height="351"/></clipPath><clipPath id="94858fd45d"><path d="M 502.253906 66.046875 L 591.101562 66.046875 L 591.101562 154.894531 L 502.253906 154.894531 Z M 502.253906 66.046875 " clip-rule="nonzero"/></clipPath><clipPath id="2564732681"><path d="M 546.679688 66.046875 C 522.144531 66.046875 502.253906 85.9375 502.253906 110.46875 C 502.253906 135.003906 522.144531 154.894531 546.679688 154.894531 C 571.214844 154.894531 591.101562 135.003906 591.101562 110.46875 C 591.101562 85.9375 571.214844 66.046875 546.679688 66.046875 Z M 546.679688 66.046875 " clip-rule="nonzero"/></clipPath><clipPath id="c88c998e36"><path d="M 0.253906 0.046875 L 89.101562 0.046875 L 89.101562 88.894531 L 0.253906 88.894531 Z M 0.253906 0.046875 " clip-rule="nonzero"/></clipPath><clipPath id="d7d463e3a9"><path d="M 44.679688 0.046875 C 20.144531 0.046875 0.253906 19.9375 0.253906 44.46875 C 0.253906 69.003906 20.144531 88.894531 44.679688 88.894531 C 69.214844 88.894531 89.101562 69.003906 89.101562 44.46875 C 89.101562 19.9375 69.214844 0.046875 44.679688 0.046875 Z M 44.679688 0.046875 " clip-rule="nonzero"/></clipPath><clipPath id="a9eac78014"><rect x="0" width="90" y="0" height="89"/></clipPath><clipPath id="8f38f8ce5b"><path d="M 536.417969 66.046875 L 625.265625 66.046875 L 625.265625 154.894531 L 536.417969 154.894531 Z M 536.417969 66.046875 " clip-rule="nonzero"/></clipPath><clipPath id="f1bb2ab620"><path d="M 580.839844 66.046875 C 556.304688 66.046875 536.417969 85.9375 536.417969 110.46875 C 536.417969 135.003906 556.304688 154.894531 580.839844 154.894531 C 605.375 154.894531 625.265625 135.003906 625.265625 110.46875 C 625.265625 85.9375 605.375 66.046875 580.839844 66.046875 Z M 580.839844 66.046875 " clip-rule="nonzero"/></clipPath><clipPath id="d12eff48e4"><path d="M 0.417969 0.046875 L 89.265625 0.046875 L 89.265625 88.894531 L 0.417969 88.894531 Z M 0.417969 0.046875 " clip-rule="nonzero"/></clipPath><clipPath id="c4af1a0177"><path d="M 44.839844 0.046875 C 20.304688 0.046875 0.417969 19.9375 0.417969 44.46875 C 0.417969 69.003906 20.304688 88.894531 44.839844 88.894531 C 69.375 88.894531 89.265625 69.003906 89.265625 44.46875 C 89.265625 19.9375 69.375 0.046875 44.839844 0.046875 Z M 44.839844 0.046875 " clip-rule="nonzero"/></clipPath><clipPath id="7a4ee8d7eb"><rect x="0" width="90" y="0" height="89"/></clipPath><clipPath id="f8c6171485"><path d="M 545.644531 119.699219 L 616.035156 119.699219 L 616.035156 190.089844 L 545.644531 190.089844 Z M 545.644531 119.699219 " clip-rule="nonzero"/></clipPath><clipPath id="89f371e3bc"><path d="M 580.839844 119.699219 C 561.402344 119.699219 545.644531 135.457031 545.644531 154.894531 C 545.644531 174.332031 561.402344 190.089844 580.839844 190.089844 C 600.277344 190.089844 616.035156 174.332031 616.035156 154.894531 C 616.035156 135.457031 600.277344 119.699219 580.839844 119.699219 Z M 580.839844 119.699219 " clip-rule="nonzero"/></clipPath><clipPath id="084da5accd"><path d="M 0.644531 0.699219 L 71.035156 0.699219 L 71.035156 71.089844 L 0.644531 71.089844 Z M 0.644531 0.699219 " clip-rule="nonzero"/></clipPath><clipPath id="922275e11e"><path d="M 35.839844 0.699219 C 16.402344 0.699219 0.644531 16.457031 0.644531 35.894531 C 0.644531 55.332031 16.402344 71.089844 35.839844 71.089844 C 55.277344 71.089844 71.035156 55.332031 71.035156 35.894531 C 71.035156 16.457031 55.277344 0.699219 35.839844 0.699219 Z M 35.839844 0.699219 " clip-rule="nonzero"/></clipPath><clipPath id="8efa3e5ad9"><rect x="0" width="72" y="0" height="72"/></clipPath><clipPath id="00b3b92cb5"><path d="M 468.09375 78.777344 L 556.941406 78.777344 L 556.941406 167.625 L 468.09375 167.625 Z M 468.09375 78.777344 " clip-rule="nonzero"/></clipPath><clipPath id="f15ff6144e"><path d="M 512.519531 78.777344 C 487.984375 78.777344 468.09375 98.667969 468.09375 123.203125 C 468.09375 147.734375 487.984375 167.625 512.519531 167.625 C 537.050781 167.625 556.941406 147.734375 556.941406 123.203125 C 556.941406 98.667969 537.050781 78.777344 512.519531 78.777344 Z M 512.519531 78.777344 " clip-rule="nonzero"/></clipPath><clipPath id="1e4c091a01"><path d="M 0.09375 0.777344 L 88.941406 0.777344 L 88.941406 89.625 L 0.09375 89.625 Z M 0.09375 0.777344 " clip-rule="nonzero"/></clipPath><clipPath id="83c22b850e"><path d="M 44.519531 0.777344 C 19.984375 0.777344 0.09375 20.667969 0.09375 45.203125 C 0.09375 69.734375 19.984375 89.625 44.519531 89.625 C 69.050781 89.625 88.941406 69.734375 88.941406 45.203125 C 88.941406 20.667969 69.050781 0.777344 44.519531 0.777344 Z M 44.519531 0.777344 " clip-rule="nonzero"/></clipPath><clipPath id="652cb3dd8d"><rect x="0" width="89" y="0" height="90"/></clipPath><clipPath id="4a3c6f3550"><path d="M 502.253906 78.777344 L 591.101562 78.777344 L 591.101562 167.625 L 502.253906 167.625 Z M 502.253906 78.777344 " clip-rule="nonzero"/></clipPath><clipPath id="8c113081ac"><path d="M 546.679688 78.777344 C 522.144531 78.777344 502.253906 98.667969 502.253906 123.203125 C 502.253906 147.734375 522.144531 167.625 546.679688 167.625 C 571.214844 167.625 591.101562 147.734375 591.101562 123.203125 C 591.101562 98.667969 571.214844 78.777344 546.679688 78.777344 Z M 546.679688 78.777344 " clip-rule="nonzero"/></clipPath><clipPath id="0a86f11d07"><path d="M 0.253906 0.777344 L 89.101562 0.777344 L 89.101562 89.625 L 0.253906 89.625 Z M 0.253906 0.777344 " clip-rule="nonzero"/></clipPath><clipPath id="2beec12c5c"><path d="M 44.679688 0.777344 C 20.144531 0.777344 0.253906 20.667969 0.253906 45.203125 C 0.253906 69.734375 20.144531 89.625 44.679688 89.625 C 69.214844 89.625 89.101562 69.734375 89.101562 45.203125 C 89.101562 20.667969 69.214844 0.777344 44.679688 0.777344 Z M 44.679688 0.777344 " clip-rule="nonzero"/></clipPath><clipPath id="120e1ea712"><rect x="0" width="90" y="0" height="90"/></clipPath><clipPath id="1250828e48"><path d="M 546.679688 167.625 L 601.367188 167.625 L 601.367188 222.3125 L 546.679688 222.3125 Z M 546.679688 167.625 " clip-rule="nonzero"/></clipPath><clipPath id="e296270fb7"><path d="M 574.023438 167.625 C 558.921875 167.625 546.679688 179.867188 546.679688 194.96875 C 546.679688 210.070312 558.921875 222.3125 574.023438 222.3125 C 589.125 222.3125 601.367188 210.070312 601.367188 194.96875 C 601.367188 179.867188 589.125 167.625 574.023438 167.625 Z M 574.023438 167.625 " clip-rule="nonzero"/></clipPath><clipPath id="f6fe7b9a36"><path d="M 0.679688 0.625 L 55.367188 0.625 L 55.367188 55.3125 L 0.679688 55.3125 Z M 0.679688 0.625 " clip-rule="nonzero"/></clipPath><clipPath id="c2e0f8871d"><path d="M 28.023438 0.625 C 12.921875 0.625 0.679688 12.867188 0.679688 27.96875 C 0.679688 43.070312 12.921875 55.3125 28.023438 55.3125 C 43.125 55.3125 55.367188 43.070312 55.367188 27.96875 C 55.367188 12.867188 43.125 0.625 28.023438 0.625 Z M 28.023438 0.625 " clip-rule="nonzero"/></clipPath><clipPath id="df931ecf4c"><rect x="0" width="56" y="0" height="56"/></clipPath><clipPath id="0c93cfff46"><path d="M 519.335938 135.40625 L 574.023438 135.40625 L 574.023438 190.089844 L 519.335938 190.089844 Z M 519.335938 135.40625 " clip-rule="nonzero"/></clipPath><clipPath id="08bd30b7b4"><path d="M 546.679688 135.40625 C 531.578125 135.40625 519.335938 147.644531 519.335938 162.746094 C 519.335938 177.847656 531.578125 190.089844 546.679688 190.089844 C 561.78125 190.089844 574.023438 177.847656 574.023438 162.746094 C 574.023438 147.644531 561.78125 135.40625 546.679688 135.40625 Z M 546.679688 135.40625 " clip-rule="nonzero"/></clipPath><clipPath id="a83986c578"><path d="M 0.335938 0.40625 L 55.023438 0.40625 L 55.023438 55.089844 L 0.335938 55.089844 Z M 0.335938 0.40625 " clip-rule="nonzero"/></clipPath><clipPath id="eb81c2b1b8"><path d="M 27.679688 0.40625 C 12.578125 0.40625 0.335938 12.644531 0.335938 27.746094 C 0.335938 42.847656 12.578125 55.089844 27.679688 55.089844 C 42.78125 55.089844 55.023438 42.847656 55.023438 27.746094 C 55.023438 12.644531 42.78125 0.40625 27.679688 0.40625 Z M 27.679688 0.40625 " clip-rule="nonzero"/></clipPath><clipPath id="8c78045331"><rect x="0" width="56" y="0" height="56"/></clipPath><clipPath id="b9067a9f08"><path d="M 519.335938 115 L 615.222656 115 L 615.222656 179.582031 L 519.335938 179.582031 Z M 519.335938 115 " clip-rule="nonzero"/></clipPath><clipPath id="cb1b12ded0"><path d="M 545 115 L 569 115 L 569 179.582031 L 545 179.582031 Z M 545 115 " clip-rule="nonzero"/></clipPath><clipPath id="2f54974778"><path d="M 566 115 L 590 115 L 590 179.582031 L 566 179.582031 Z M 566 115 " clip-rule="nonzero"/></clipPath></defs><g clip-path="url(#2ffd89dbf0)"><path fill="#ffffff" d="M 2.550781 0 L 4272.449219 0 L 4272.449219 418 L 2.550781 418 Z M 2.550781 0 " fill-opacity="1" fill-rule="nonzero"/><path fill="#0c2340" d="M 2.550781 0 L 4272.449219 0 L 4272.449219 418 L 2.550781 418 Z M 2.550781 0 " fill-opacity="1" fill-rule="nonzero"/></g><path fill="#04b1dc" d="M 323.027344 223.988281 L 218.660156 223.988281 C 216.445312 223.988281 213.984375 224.972656 212.753906 226.941406 L 211.769531 228.171875 L 209.0625 228.171875 C 208.816406 227.925781 208.324219 227.433594 208.078125 227.1875 L 202.910156 223.003906 C 201.679688 222.019531 199.957031 221.28125 198.230469 221.28125 L 136.449219 221.28125 C 133.25 221.28125 130.296875 223.496094 129.3125 226.449219 L 125.375 238.511719 C 124.390625 241.710938 125.621094 245.15625 128.328125 246.878906 L 131.28125 248.847656 C 132.019531 249.339844 132.511719 250.078125 132.757812 250.816406 C 133.003906 251.800781 132.757812 252.539062 132.265625 253.277344 L 88.699219 317.277344 C 87.46875 319 86.976562 321.214844 87.714844 323.183594 C 88.207031 325.152344 89.4375 326.875 91.40625 328.105469 L 95.835938 330.566406 C 97.066406 331.058594 98.300781 331.550781 99.53125 331.550781 C 101.992188 331.550781 104.207031 330.320312 105.683594 328.351562 L 108.636719 324.167969 L 128.820312 335.734375 C 130.050781 336.476562 131.28125 336.722656 132.511719 336.722656 C 133.003906 336.722656 133.742188 336.722656 134.234375 336.476562 L 146.542969 333.519531 C 148.265625 333.027344 149.742188 332.042969 150.726562 330.566406 L 194.785156 268.785156 C 196.261719 266.816406 196.507812 263.863281 195.523438 261.402344 L 191.832031 253.03125 L 198.722656 253.03125 C 200.695312 253.03125 202.664062 252.292969 203.894531 250.816406 L 208.570312 246.140625 C 208.816406 245.894531 208.816406 245.648438 209.0625 245.402344 L 217.183594 247.371094 C 217.675781 247.371094 218.414062 247.617188 218.90625 247.617188 L 301.613281 247.617188 L 323.765625 224.480469 C 323.519531 223.988281 323.273438 223.988281 323.027344 223.988281 Z M 133.25 332.289062 C 132.511719 332.535156 131.527344 332.289062 130.789062 332.042969 L 110.851562 320.722656 L 157.371094 255.003906 C 157.863281 254.261719 158.851562 253.769531 159.835938 253.769531 L 180.019531 253.523438 C 178.046875 255.003906 176.078125 256.234375 173.863281 257.710938 L 172.878906 258.449219 C 172.632812 258.695312 172.140625 258.941406 172.140625 258.941406 C 171.894531 258.941406 171.648438 259.1875 171.402344 259.1875 C 169.925781 259.1875 168.203125 259.1875 166.480469 258.941406 C 165.496094 258.941406 164.757812 258.941406 163.773438 258.941406 L 162.789062 258.941406 C 162.296875 258.941406 161.804688 258.941406 161.558594 259.1875 C 160.820312 259.433594 160.082031 259.679688 159.34375 259.925781 C 157.863281 260.664062 156.632812 261.894531 155.648438 263.125 C 155.15625 263.863281 154.910156 264.355469 154.910156 264.601562 L 154.171875 265.832031 C 152.449219 269.03125 150.726562 272.476562 149.003906 275.925781 C 145.558594 282.816406 142.359375 289.707031 139.160156 296.109375 C 137.679688 299.308594 136.203125 302.507812 134.972656 305.460938 C 134.726562 306.199219 134.234375 306.9375 133.988281 307.675781 C 133.742188 308.414062 133.25 309.152344 133.003906 310.628906 C 132.511719 313.089844 133.003906 315.550781 134.480469 317.277344 C 136.449219 319.738281 138.171875 321.460938 139.652344 323.429688 C 141.128906 325.152344 142.605469 326.628906 143.589844 328.105469 C 144.082031 328.84375 144.820312 329.335938 145.3125 329.828125 Z M 191.585938 266.078125 L 147.527344 327.859375 C 147.035156 327.121094 146.789062 326.628906 146.296875 325.644531 C 144.574219 322.691406 142.113281 318.753906 138.914062 313.828125 C 138.667969 313.335938 138.421875 312.351562 138.914062 311.859375 C 138.914062 311.613281 139.160156 311.121094 139.652344 310.382812 C 140.144531 309.644531 140.390625 308.90625 140.882812 308.167969 C 142.605469 305.214844 144.082031 302.261719 146.050781 299.0625 C 149.496094 292.90625 153.1875 286.015625 156.632812 279.371094 C 158.355469 275.925781 160.082031 272.476562 161.804688 269.277344 L 162.789062 267.0625 C 162.789062 266.816406 163.035156 266.816406 163.28125 266.570312 L 164.019531 266.570312 C 165.003906 266.570312 165.742188 266.570312 166.726562 266.570312 C 168.695312 266.570312 170.417969 266.324219 172.386719 266.324219 C 173.863281 266.078125 175.339844 265.585938 176.570312 264.847656 C 177.308594 264.355469 177.554688 264.109375 177.800781 263.863281 L 178.785156 263.125 C 181.25 260.910156 183.710938 258.941406 185.679688 256.972656 C 186.664062 256.234375 187.402344 255.496094 188.140625 254.757812 L 191.832031 263.125 C 192.324219 264.109375 192.324219 265.09375 191.585938 266.078125 Z M 191.585938 266.078125 " fill-opacity="1" fill-rule="nonzero"/><path fill="#ffffff" d="M 601.164062 168.113281 L 577.78125 170.574219 C 569.90625 170.574219 563.75 178.945312 563.75 189.28125 L 561.78125 215.621094 L 559.8125 189.28125 C 559.8125 178.945312 553.414062 170.574219 545.785156 170.574219 L 522.398438 168.113281 L 545.785156 165.652344 C 553.660156 165.652344 559.8125 157.285156 559.8125 146.945312 L 561.78125 120.609375 L 563.75 146.945312 C 563.75 157.285156 570.152344 165.652344 577.78125 165.652344 Z M 601.164062 168.113281 " fill-opacity="1" fill-rule="nonzero"/><path fill="#ffffff" d="M 525.601562 124.054688 L 510.832031 125.53125 C 505.910156 125.53125 501.722656 130.945312 501.722656 137.59375 L 500.492188 154.332031 L 499.261719 137.59375 C 499.261719 130.945312 495.324219 125.53125 490.15625 125.53125 L 475.386719 124.054688 L 490.15625 122.578125 C 495.078125 122.578125 499.261719 117.164062 499.261719 110.515625 L 500.492188 93.78125 L 501.722656 110.515625 C 501.722656 117.164062 505.664062 122.578125 510.832031 122.578125 Z M 525.601562 124.054688 " fill-opacity="1" fill-rule="nonzero"/><path fill="#ffffff" d="M 617.902344 99.441406 L 603.132812 100.917969 C 598.210938 100.917969 594.027344 106.332031 594.027344 112.980469 L 592.796875 129.714844 L 591.566406 112.980469 C 591.566406 106.332031 587.628906 100.917969 582.457031 100.917969 L 567.691406 99.441406 L 582.457031 97.964844 C 587.382812 97.964844 591.566406 92.550781 591.566406 85.902344 L 592.796875 69.164062 L 594.027344 85.902344 C 594.027344 92.550781 597.964844 97.964844 603.132812 97.964844 Z M 617.902344 99.441406 " fill-opacity="1" fill-rule="nonzero"/><path fill="#04b1dc" d="M 420.496094 353.457031 L 503.445312 353.457031 C 388.5 405.640625 273.550781 398.011719 235.890625 331.550781 C 230.476562 321.953125 226.785156 311.613281 225.0625 300.539062 C 226.785156 305.214844 228.753906 309.644531 231.214844 314.074219 C 259.519531 364.042969 335.824219 377.335938 420.496094 353.457031 Z M 420.496094 353.457031 " fill-opacity="1" fill-rule="nonzero"/><path fill="#04b1dc" d="M 653.101562 241.21875 C 648.179688 247.371094 642.761719 253.523438 637.101562 259.433594 C 634.148438 262.386719 631.441406 265.339844 628.488281 268.292969 C 625.039062 271.738281 621.347656 275.1875 617.65625 278.632812 L 562.273438 278.632812 C 568.183594 273.707031 573.84375 268.785156 579.257812 263.617188 C 581.472656 261.648438 583.6875 259.433594 585.65625 257.464844 C 596.242188 247.125 605.59375 236.296875 613.964844 225.464844 C 652.609375 174.761719 665.652344 121.101562 643.253906 81.226562 C 639.808594 75.074219 635.378906 69.164062 630.457031 64.242188 C 591.320312 24.121094 510.339844 19.691406 425.667969 51.445312 C 540.121094 0 654.085938 7.875 691.5 74.089844 C 717.34375 120.117188 700.113281 183.128906 653.101562 241.21875 Z M 653.101562 241.21875 " fill-opacity="1" fill-rule="nonzero"/><path fill="#ffffff" d="M 538.152344 49.964844 C 498.523438 54.152344 454.21875 68.425781 410.898438 93.042969 C 407.453125 95.011719 404.253906 96.980469 400.804688 98.949219 C 399.082031 99.933594 397.605469 100.917969 395.882812 101.902344 C 395.636719 101.902344 395.636719 102.148438 395.390625 102.148438 C 393.914062 103.132812 392.4375 104.117188 390.960938 104.855469 C 389.484375 105.839844 387.761719 106.824219 386.285156 108.054688 C 384.316406 109.285156 382.59375 110.515625 380.867188 111.746094 C 378.160156 113.71875 375.207031 115.6875 372.5 117.65625 C 369.546875 119.871094 366.59375 122.085938 363.640625 124.300781 C 362.410156 125.285156 361.421875 126.023438 360.191406 127.007812 C 355.761719 130.699219 351.332031 134.394531 347.148438 138.085938 C 345.917969 139.316406 344.441406 140.300781 343.210938 141.53125 C 335.824219 148.421875 328.6875 155.316406 322.289062 162.699219 C 321.300781 163.683594 320.5625 164.667969 319.824219 165.652344 C 315.148438 171.066406 310.71875 176.484375 306.535156 181.898438 C 306.042969 182.636719 305.304688 183.621094 304.8125 184.359375 C 300.378906 190.511719 296.195312 196.914062 292.75 203.066406 C 292.257812 204.050781 291.765625 205.035156 291.273438 205.773438 C 290.042969 207.742188 289.058594 209.957031 288.074219 211.925781 C 287.335938 213.15625 286.84375 214.390625 286.351562 215.621094 C 285.859375 216.359375 285.613281 217.097656 285.367188 217.835938 C 285.121094 218.328125 284.875 219.066406 284.628906 219.804688 L 247.953125 219.804688 C 268.136719 175.253906 312.933594 128.238281 373.976562 93.78125 C 376.191406 92.550781 378.40625 91.316406 380.867188 90.085938 C 381.359375 89.839844 381.851562 89.59375 382.34375 89.347656 C 384.5625 88.117188 386.777344 87.132812 388.992188 85.902344 L 389.238281 85.902344 C 391.699219 84.671875 394.160156 83.441406 396.867188 82.210938 C 399.328125 80.980469 401.789062 79.75 404.253906 78.765625 C 406.960938 77.535156 409.421875 76.550781 412.128906 75.320312 L 412.375 75.320312 C 415.082031 74.335938 417.542969 73.105469 420.25 72.121094 C 422.710938 71.132812 424.929688 70.148438 427.390625 69.410156 C 427.882812 69.164062 428.375 68.917969 428.867188 68.917969 C 431.082031 68.179688 433.296875 67.441406 435.265625 66.703125 C 436.25 66.457031 436.988281 65.964844 437.972656 65.71875 C 439.941406 64.980469 441.910156 64.488281 443.882812 63.75 C 446.835938 62.765625 449.789062 62.027344 452.496094 61.042969 C 454.464844 60.550781 456.679688 59.8125 458.648438 59.320312 C 459.140625 59.074219 459.632812 59.074219 460.125 58.828125 C 462.339844 58.335938 464.558594 57.597656 466.773438 57.105469 L 467.019531 57.105469 C 469.480469 56.613281 471.941406 55.875 474.402344 55.382812 L 474.648438 55.382812 C 477.109375 54.890625 479.570312 54.398438 482.03125 53.90625 C 484.496094 53.414062 486.957031 52.921875 489.417969 52.675781 C 489.664062 52.675781 489.664062 52.675781 489.910156 52.675781 C 492.125 52.429688 494.585938 51.9375 496.800781 51.691406 C 499.015625 51.445312 501.230469 51.199219 503.445312 50.953125 C 503.691406 50.953125 503.9375 50.953125 504.429688 50.953125 C 506.402344 50.703125 508.617188 50.703125 510.585938 50.457031 C 511.078125 50.457031 511.816406 50.457031 512.308594 50.457031 C 514.277344 50.457031 516.246094 50.210938 518.214844 50.210938 L 518.460938 50.210938 C 520.675781 50.210938 522.890625 50.210938 525.355469 50.210938 C 529.539062 49.472656 533.722656 49.472656 538.152344 49.964844 Z M 538.152344 49.964844 " fill-opacity="1" fill-rule="nonzero"/><path fill="#ffffff" d="M 273.304688 263.371094 L 236.382812 263.371094 C 236.382812 265.09375 236.382812 266.570312 236.382812 268.292969 C 236.382812 269.277344 236.382812 270.507812 236.382812 271.492188 C 236.382812 271.984375 236.382812 272.722656 236.382812 273.214844 C 236.382812 274.199219 236.382812 274.941406 236.628906 275.925781 C 236.628906 276.417969 236.628906 276.910156 236.875 277.648438 C 236.875 278.878906 237.121094 280.109375 237.367188 281.339844 C 237.613281 282.324219 237.613281 283.308594 237.859375 284.292969 C 237.859375 284.539062 237.859375 284.785156 238.105469 285.03125 C 238.351562 286.261719 238.597656 287.492188 239.089844 288.96875 C 239.335938 289.953125 239.582031 290.9375 240.074219 291.921875 C 240.324219 292.660156 240.570312 293.152344 240.816406 293.890625 C 241.0625 294.875 241.554688 295.617188 241.800781 296.601562 C 242.046875 297.339844 242.292969 297.832031 242.539062 298.570312 C 242.785156 299.308594 243.277344 300.046875 243.523438 300.785156 C 244.261719 302.261719 245 303.738281 245.738281 304.96875 C 264.9375 338.691406 310.226562 352.71875 365.609375 346.8125 C 327.457031 344.105469 297.425781 330.074219 282.660156 303.984375 C 276.503906 292.90625 273.550781 280.601562 273.550781 267.308594 C 273.304688 266.078125 273.304688 264.847656 273.304688 263.371094 Z M 273.304688 263.371094 " fill-opacity="1" fill-rule="nonzero"/><path fill="#04b1dc" d="M 237.121094 256.972656 L 313.425781 256.972656 L 317.117188 253.03125 C 330.65625 239.003906 359.207031 210.203125 380.375 189.035156 L 431.328125 247.125 L 450.773438 247.125 L 495.324219 183.128906 L 575.074219 260.171875 C 577.289062 257.957031 579.257812 255.988281 581.226562 253.769531 L 497.539062 173.035156 L 435.511719 192.972656 L 377.421875 179.191406 L 375.699219 180.914062 C 328.6875 227.925781 311.457031 245.648438 305.058594 252.785156 L 214.230469 252.785156 C 212.261719 252.785156 210.785156 253.769531 211.03125 254.757812 C 211.03125 255.003906 211.03125 255.25 211.277344 255.25 C 212.015625 255.988281 213.492188 256.726562 215.214844 256.726562 L 225.308594 256.726562 Z M 237.121094 256.972656 " fill-opacity="1" fill-rule="nonzero"/><path fill="#04b1dc" d="M 735.804688 258.449219 L 648.179688 258.449219 C 645.714844 261.402344 643.007812 264.355469 640.054688 267.308594 L 735.804688 267.308594 L 748.601562 271.492188 C 749.835938 265.832031 750.082031 260.171875 749.097656 254.511719 C 743.679688 256.234375 738.757812 257.710938 735.804688 258.449219 Z M 735.804688 258.449219 " fill-opacity="1" fill-rule="nonzero"/><path fill="#ffffff" d="M 380.128906 194.207031 L 358.714844 216.113281 L 379.882812 200.851562 L 409.667969 228.910156 Z M 380.128906 194.207031 " fill-opacity="1" fill-rule="nonzero"/><path fill="#ffffff" d="M 496.308594 188.542969 L 477.601562 212.910156 L 496.800781 195.191406 L 529.785156 219.558594 Z M 496.308594 188.542969 " fill-opacity="1" fill-rule="nonzero"/><path fill="#ffffff" d="M 362.160156 219.3125 L 373.976562 219.3125 L 373.976562 234.328125 L 362.160156 234.328125 Z M 362.160156 219.3125 " fill-opacity="1" fill-rule="nonzero"/><path fill="#ffffff" d="M 377.667969 219.3125 L 389.484375 219.3125 L 389.484375 234.328125 L 377.667969 234.328125 Z M 377.667969 219.3125 " fill-opacity="1" fill-rule="nonzero"/><path fill="#ffffff" d="M 362.160156 237.527344 L 373.976562 237.527344 L 373.976562 252.539062 L 362.160156 252.539062 Z M 362.160156 237.527344 " fill-opacity="1" fill-rule="nonzero"/><path fill="#ffffff" d="M 377.667969 237.527344 L 389.484375 237.527344 L 389.484375 252.539062 L 377.667969 252.539062 Z M 377.667969 237.527344 " fill-opacity="1" fill-rule="nonzero"/><path fill="#ffffff" d="M 489.417969 221.773438 L 500 221.773438 L 500 235.3125 L 489.417969 235.3125 Z M 489.417969 221.773438 " fill-opacity="1" fill-rule="nonzero"/><path fill="#ffffff" d="M 503.199219 221.773438 L 513.785156 221.773438 L 513.785156 235.3125 L 503.199219 235.3125 Z M 503.199219 221.773438 " fill-opacity="1" fill-rule="nonzero"/><path fill="#ffffff" d="M 489.417969 238.019531 L 500 238.019531 L 500 251.554688 L 489.417969 251.554688 Z M 489.417969 238.019531 " fill-opacity="1" fill-rule="nonzero"/><path fill="#ffffff" d="M 503.199219 238.019531 L 513.785156 238.019531 L 513.785156 251.554688 L 503.199219 251.554688 Z M 503.199219 238.019531 " fill-opacity="1" fill-rule="nonzero"/><g transform="matrix(1, 0, 0, 1, 817, 16)"><g clip-path="url(#8f816ff4b2)"><g fill="#ffffff" fill-opacity="1"><g transform="translate(1.466244, 274.374926)"><g><path d="M 94.359375 -182.734375 C 107.441406 -182.734375 118.628906 -180.335938 127.921875 -175.546875 C 137.210938 -170.753906 144.234375 -164.046875 148.984375 -155.421875 C 153.734375 -146.796875 156.109375 -136.773438 156.109375 -125.359375 C 156.109375 -113.941406 153.734375 -103.941406 148.984375 -95.359375 C 144.234375 -86.773438 137.210938 -80.085938 127.921875 -75.296875 C 118.628906 -70.503906 107.441406 -68.109375 94.359375 -68.109375 L 59.875 -68.109375 L 59.875 0 L 23.75 0 L 23.75 -182.734375 Z M 89.609375 -96.734375 C 109.691406 -96.734375 119.734375 -106.273438 119.734375 -125.359375 C 119.734375 -144.523438 109.691406 -154.109375 89.609375 -154.109375 L 59.875 -154.109375 L 59.875 -96.734375 Z M 89.609375 -96.734375 "/></g></g></g><g fill="#ffffff" fill-opacity="1"><g transform="translate(168.409477, 274.374926)"><g><path d="M 23.75 0 L 23.75 -182.734375 L 97.109375 -182.734375 C 116.023438 -182.734375 130.296875 -178.378906 139.921875 -169.671875 C 149.546875 -160.960938 154.359375 -148.941406 154.359375 -133.609375 C 154.359375 -122.523438 151.546875 -113.441406 145.921875 -106.359375 C 140.296875 -99.273438 131.898438 -93.859375 120.734375 -90.109375 L 120.734375 -87.484375 C 126.484375 -84.984375 131.128906 -81.273438 134.671875 -76.359375 C 138.210938 -71.441406 141.566406 -64.15625 144.734375 -54.5 L 162.984375 0 L 125.859375 0 L 107.984375 -54.625 C 106.148438 -60.125 104.085938 -64.390625 101.796875 -67.421875 C 99.503906 -70.460938 96.585938 -72.671875 93.046875 -74.046875 C 89.503906 -75.421875 84.898438 -76.109375 79.234375 -76.109375 L 59.875 -76.109375 L 59.875 0 Z M 92.734375 -104.734375 C 110.234375 -104.734375 118.984375 -112.898438 118.984375 -129.234375 C 118.984375 -145.816406 110.234375 -154.109375 92.734375 -154.109375 L 59.875 -154.109375 L 59.875 -104.734375 Z M 92.734375 -104.734375 "/></g></g></g><g fill="#ffffff" fill-opacity="1"><g transform="translate(339.226393, 274.374926)"><g><path d="M 99.609375 2.625 C 82.859375 2.625 68.085938 -0.789062 55.296875 -7.625 C 42.515625 -14.457031 32.5 -24.894531 25.25 -38.9375 C 18 -52.976562 14.375 -70.453125 14.375 -91.359375 C 14.375 -112.273438 18 -129.753906 25.25 -143.796875 C 32.5 -157.835938 42.515625 -168.273438 55.296875 -175.109375 C 68.085938 -181.941406 82.859375 -185.359375 99.609375 -185.359375 C 116.359375 -185.359375 131.109375 -181.960938 143.859375 -175.171875 C 156.609375 -168.378906 166.585938 -157.941406 173.796875 -143.859375 C 181.003906 -129.773438 184.609375 -112.273438 184.609375 -91.359375 C 184.609375 -70.453125 181.003906 -52.957031 173.796875 -38.875 C 166.585938 -24.789062 156.609375 -14.351562 143.859375 -7.5625 C 131.109375 -0.769531 116.359375 2.625 99.609375 2.625 Z M 99.609375 -28.75 C 115.109375 -28.75 126.941406 -33.726562 135.109375 -43.6875 C 143.273438 -53.644531 147.359375 -69.535156 147.359375 -91.359375 C 147.359375 -113.191406 143.273438 -129.109375 135.109375 -139.109375 C 126.941406 -149.109375 115.109375 -154.109375 99.609375 -154.109375 C 84.023438 -154.109375 72.128906 -149.109375 63.921875 -139.109375 C 55.722656 -129.109375 51.625 -113.191406 51.625 -91.359375 C 51.625 -69.535156 55.722656 -53.644531 63.921875 -43.6875 C 72.128906 -33.726562 84.023438 -28.75 99.609375 -28.75 Z M 99.609375 -28.75 "/></g></g></g><g fill="#ffffff" fill-opacity="1"><g transform="translate(538.283706, 274.374926)"><g><path d="M 139.609375 -182.734375 L 139.609375 -152.484375 L 59.875 -152.484375 L 59.875 -104.109375 L 132.234375 -104.109375 L 132.234375 -74.234375 L 59.875 -74.234375 L 59.875 0 L 23.75 0 L 23.75 -182.734375 Z M 139.609375 -182.734375 "/></g></g></g><g fill="#ffffff" fill-opacity="1"><g transform="translate(685.983482, 274.374926)"><g><path d="M 139.609375 -182.734375 L 139.609375 -152.484375 L 59.875 -152.484375 L 59.875 -104.109375 L 132.234375 -104.109375 L 132.234375 -74.234375 L 59.875 -74.234375 L 59.875 0 L 23.75 0 L 23.75 -182.734375 Z M 139.609375 -182.734375 "/></g></g></g><g fill="#ffffff" fill-opacity="1"><g transform="translate(833.683259, 274.374926)"><g><path d="M 59.875 -80.234375 L 59.875 -30.25 L 147.109375 -30.25 L 147.109375 0 L 23.75 0 L 23.75 -182.734375 L 145.109375 -182.734375 L 145.109375 -152.484375 L 59.875 -152.484375 L 59.875 -109.734375 L 134.359375 -109.734375 L 134.359375 -80.234375 Z M 59.875 -80.234375 "/></g></g></g><g fill="#ffffff" fill-opacity="1"><g transform="translate(990.754851, 274.374926)"><g><path d="M 80.984375 2.625 C 68.328125 2.625 57.0625 1.058594 47.1875 -2.0625 C 37.3125 -5.1875 29.082031 -9.289062 22.5 -14.375 C 15.914062 -19.457031 10.875 -25.039062 7.375 -31.125 L 27.25 -55.375 L 30.375 -55.375 C 35.875 -47.207031 42.851562 -40.707031 51.3125 -35.875 C 59.769531 -31.039062 69.660156 -28.625 80.984375 -28.625 C 90.648438 -28.625 97.941406 -30.664062 102.859375 -34.75 C 107.773438 -38.832031 110.234375 -44.457031 110.234375 -51.625 C 110.234375 -55.957031 109.441406 -59.578125 107.859375 -62.484375 C 106.273438 -65.398438 103.648438 -67.898438 99.984375 -69.984375 C 96.316406 -72.066406 91.359375 -73.859375 85.109375 -75.359375 L 61.625 -80.734375 C 45.207031 -84.484375 32.976562 -90.710938 24.9375 -99.421875 C 16.894531 -108.128906 12.875 -119.441406 12.875 -133.359375 C 12.875 -143.691406 15.457031 -152.773438 20.625 -160.609375 C 25.789062 -168.441406 33.3125 -174.523438 43.1875 -178.859375 C 53.0625 -183.191406 64.867188 -185.359375 78.609375 -185.359375 C 92.691406 -185.359375 104.753906 -183.503906 114.796875 -179.796875 C 124.835938 -176.085938 133.316406 -170.398438 140.234375 -162.734375 L 122.359375 -138.234375 L 119.234375 -138.234375 C 114.066406 -143.648438 108.148438 -147.710938 101.484375 -150.421875 C 94.816406 -153.128906 87.191406 -154.484375 78.609375 -154.484375 C 68.703125 -154.484375 61.164062 -152.734375 56 -149.234375 C 50.832031 -145.734375 48.25 -140.898438 48.25 -134.734375 C 48.25 -128.984375 50.0625 -124.398438 53.6875 -120.984375 C 57.3125 -117.566406 63.578125 -114.898438 72.484375 -112.984375 L 96.484375 -107.984375 C 114.234375 -104.234375 127.109375 -97.878906 135.109375 -88.921875 C 143.109375 -79.960938 147.109375 -68.28125 147.109375 -53.875 C 147.109375 -42.457031 144.648438 -32.519531 139.734375 -24.0625 C 134.816406 -15.601562 127.398438 -9.039062 117.484375 -4.375 C 107.566406 0.289062 95.398438 2.625 80.984375 2.625 Z M 80.984375 2.625 "/></g></g></g><g fill="#ffffff" fill-opacity="1"><g transform="translate(1147.701483, 274.374926)"><g><path d="M 80.984375 2.625 C 68.328125 2.625 57.0625 1.058594 47.1875 -2.0625 C 37.3125 -5.1875 29.082031 -9.289062 22.5 -14.375 C 15.914062 -19.457031 10.875 -25.039062 7.375 -31.125 L 27.25 -55.375 L 30.375 -55.375 C 35.875 -47.207031 42.851562 -40.707031 51.3125 -35.875 C 59.769531 -31.039062 69.660156 -28.625 80.984375 -28.625 C 90.648438 -28.625 97.941406 -30.664062 102.859375 -34.75 C 107.773438 -38.832031 110.234375 -44.457031 110.234375 -51.625 C 110.234375 -55.957031 109.441406 -59.578125 107.859375 -62.484375 C 106.273438 -65.398438 103.648438 -67.898438 99.984375 -69.984375 C 96.316406 -72.066406 91.359375 -73.859375 85.109375 -75.359375 L 61.625 -80.734375 C 45.207031 -84.484375 32.976562 -90.710938 24.9375 -99.421875 C 16.894531 -108.128906 12.875 -119.441406 12.875 -133.359375 C 12.875 -143.691406 15.457031 -152.773438 20.625 -160.609375 C 25.789062 -168.441406 33.3125 -174.523438 43.1875 -178.859375 C 53.0625 -183.191406 64.867188 -185.359375 78.609375 -185.359375 C 92.691406 -185.359375 104.753906 -183.503906 114.796875 -179.796875 C 124.835938 -176.085938 133.316406 -170.398438 140.234375 -162.734375 L 122.359375 -138.234375 L 119.234375 -138.234375 C 114.066406 -143.648438 108.148438 -147.710938 101.484375 -150.421875 C 94.816406 -153.128906 87.191406 -154.484375 78.609375 -154.484375 C 68.703125 -154.484375 61.164062 -152.734375 56 -149.234375 C 50.832031 -145.734375 48.25 -140.898438 48.25 -134.734375 C 48.25 -128.984375 50.0625 -124.398438 53.6875 -120.984375 C 57.3125 -117.566406 63.578125 -114.898438 72.484375 -112.984375 L 96.484375 -107.984375 C 114.234375 -104.234375 127.109375 -97.878906 135.109375 -88.921875 C 143.109375 -79.960938 147.109375 -68.28125 147.109375 -53.875 C 147.109375 -42.457031 144.648438 -32.519531 139.734375 -24.0625 C 134.816406 -15.601562 127.398438 -9.039062 117.484375 -4.375 C 107.566406 0.289062 95.398438 2.625 80.984375 2.625 Z M 80.984375 2.625 "/></g></g></g><g fill="#ffffff" fill-opacity="1"><g transform="translate(1304.648116, 274.374926)"><g><path d="M 99.609375 2.625 C 82.859375 2.625 68.085938 -0.789062 55.296875 -7.625 C 42.515625 -14.457031 32.5 -24.894531 25.25 -38.9375 C 18 -52.976562 14.375 -70.453125 14.375 -91.359375 C 14.375 -112.273438 18 -129.753906 25.25 -143.796875 C 32.5 -157.835938 42.515625 -168.273438 55.296875 -175.109375 C 68.085938 -181.941406 82.859375 -185.359375 99.609375 -185.359375 C 116.359375 -185.359375 131.109375 -181.960938 143.859375 -175.171875 C 156.609375 -168.378906 166.585938 -157.941406 173.796875 -143.859375 C 181.003906 -129.773438 184.609375 -112.273438 184.609375 -91.359375 C 184.609375 -70.453125 181.003906 -52.957031 173.796875 -38.875 C 166.585938 -24.789062 156.609375 -14.351562 143.859375 -7.5625 C 131.109375 -0.769531 116.359375 2.625 99.609375 2.625 Z M 99.609375 -28.75 C 115.109375 -28.75 126.941406 -33.726562 135.109375 -43.6875 C 143.273438 -53.644531 147.359375 -69.535156 147.359375 -91.359375 C 147.359375 -113.191406 143.273438 -129.109375 135.109375 -139.109375 C 126.941406 -149.109375 115.109375 -154.109375 99.609375 -154.109375 C 84.023438 -154.109375 72.128906 -149.109375 63.921875 -139.109375 C 55.722656 -129.109375 51.625 -113.191406 51.625 -91.359375 C 51.625 -69.535156 55.722656 -53.644531 63.921875 -43.6875 C 72.128906 -33.726562 84.023438 -28.75 99.609375 -28.75 Z M 99.609375 -28.75 "/></g></g></g><g fill="#ffffff" fill-opacity="1"><g transform="translate(1503.705429, 274.374926)"><g><path d="M 23.75 0 L 23.75 -182.734375 L 97.109375 -182.734375 C 116.023438 -182.734375 130.296875 -178.378906 139.921875 -169.671875 C 149.546875 -160.960938 154.359375 -148.941406 154.359375 -133.609375 C 154.359375 -122.523438 151.546875 -113.441406 145.921875 -106.359375 C 140.296875 -99.273438 131.898438 -93.859375 120.734375 -90.109375 L 120.734375 -87.484375 C 126.484375 -84.984375 131.128906 -81.273438 134.671875 -76.359375 C 138.210938 -71.441406 141.566406 -64.15625 144.734375 -54.5 L 162.984375 0 L 125.859375 0 L 107.984375 -54.625 C 106.148438 -60.125 104.085938 -64.390625 101.796875 -67.421875 C 99.503906 -70.460938 96.585938 -72.671875 93.046875 -74.046875 C 89.503906 -75.421875 84.898438 -76.109375 79.234375 -76.109375 L 59.875 -76.109375 L 59.875 0 Z M 92.734375 -104.734375 C 110.234375 -104.734375 118.984375 -112.898438 118.984375 -129.234375 C 118.984375 -145.816406 110.234375 -154.109375 92.734375 -154.109375 L 59.875 -154.109375 L 59.875 -104.734375 Z M 92.734375 -104.734375 "/></g></g></g><g fill="#ffffff" fill-opacity="1"><g transform="translate(1674.522345, 274.374926)"><g/></g></g><g fill="#ffffff" fill-opacity="1"><g transform="translate(1734.91855, 274.374926)"><g><path d="M 94.359375 -182.734375 C 107.441406 -182.734375 118.628906 -180.335938 127.921875 -175.546875 C 137.210938 -170.753906 144.234375 -164.046875 148.984375 -155.421875 C 153.734375 -146.796875 156.109375 -136.773438 156.109375 -125.359375 C 156.109375 -113.941406 153.734375 -103.941406 148.984375 -95.359375 C 144.234375 -86.773438 137.210938 -80.085938 127.921875 -75.296875 C 118.628906 -70.503906 107.441406 -68.109375 94.359375 -68.109375 L 59.875 -68.109375 L 59.875 0 L 23.75 0 L 23.75 -182.734375 Z M 89.609375 -96.734375 C 109.691406 -96.734375 119.734375 -106.273438 119.734375 -125.359375 C 119.734375 -144.523438 109.691406 -154.109375 89.609375 -154.109375 L 59.875 -154.109375 L 59.875 -96.734375 Z M 89.609375 -96.734375 "/></g></g></g><g fill="#ffffff" fill-opacity="1"><g transform="translate(1901.861783, 274.374926)"><g><path d="M 99.609375 2.625 C 82.859375 2.625 68.085938 -0.789062 55.296875 -7.625 C 42.515625 -14.457031 32.5 -24.894531 25.25 -38.9375 C 18 -52.976562 14.375 -70.453125 14.375 -91.359375 C 14.375 -112.273438 18 -129.753906 25.25 -143.796875 C 32.5 -157.835938 42.515625 -168.273438 55.296875 -175.109375 C 68.085938 -181.941406 82.859375 -185.359375 99.609375 -185.359375 C 116.359375 -185.359375 131.109375 -181.960938 143.859375 -175.171875 C 156.609375 -168.378906 166.585938 -157.941406 173.796875 -143.859375 C 181.003906 -129.773438 184.609375 -112.273438 184.609375 -91.359375 C 184.609375 -70.453125 181.003906 -52.957031 173.796875 -38.875 C 166.585938 -24.789062 156.609375 -14.351562 143.859375 -7.5625 C 131.109375 -0.769531 116.359375 2.625 99.609375 2.625 Z M 99.609375 -28.75 C 115.109375 -28.75 126.941406 -33.726562 135.109375 -43.6875 C 143.273438 -53.644531 147.359375 -69.535156 147.359375 -91.359375 C 147.359375 -113.191406 143.273438 -129.109375 135.109375 -139.109375 C 126.941406 -149.109375 115.109375 -154.109375 99.609375 -154.109375 C 84.023438 -154.109375 72.128906 -149.109375 63.921875 -139.109375 C 55.722656 -129.109375 51.625 -113.191406 51.625 -91.359375 C 51.625 -69.535156 55.722656 -53.644531 63.921875 -43.6875 C 72.128906 -33.726562 84.023438 -28.75 99.609375 -28.75 Z M 99.609375 -28.75 "/></g></g></g><g fill="#ffffff" fill-opacity="1"><g transform="translate(2100.919096, 274.374926)"><g><path d="M 87.234375 0 L 46.875 0 L 5 -182.734375 L 41 -182.734375 L 68.609375 -54.25 L 71.734375 -54.25 L 104.484375 -182.734375 L 135.359375 -182.734375 L 168.734375 -54.25 L 171.859375 -54.25 L 199.59375 -182.734375 L 234.34375 -182.734375 L 192.59375 0 L 152.109375 0 L 120.109375 -117.859375 L 117.484375 -117.859375 Z M 87.234375 0 "/></g></g></g><g fill="#ffffff" fill-opacity="1"><g transform="translate(2340.08777, 274.374926)"><g><path d="M 59.875 -80.234375 L 59.875 -30.25 L 147.109375 -30.25 L 147.109375 0 L 23.75 0 L 23.75 -182.734375 L 145.109375 -182.734375 L 145.109375 -152.484375 L 59.875 -152.484375 L 59.875 -109.734375 L 134.359375 -109.734375 L 134.359375 -80.234375 Z M 59.875 -80.234375 "/></g></g></g><g fill="#ffffff" fill-opacity="1"><g transform="translate(2497.159362, 274.374926)"><g><path d="M 23.75 0 L 23.75 -182.734375 L 97.109375 -182.734375 C 116.023438 -182.734375 130.296875 -178.378906 139.921875 -169.671875 C 149.546875 -160.960938 154.359375 -148.941406 154.359375 -133.609375 C 154.359375 -122.523438 151.546875 -113.441406 145.921875 -106.359375 C 140.296875 -99.273438 131.898438 -93.859375 120.734375 -90.109375 L 120.734375 -87.484375 C 126.484375 -84.984375 131.128906 -81.273438 134.671875 -76.359375 C 138.210938 -71.441406 141.566406 -64.15625 144.734375 -54.5 L 162.984375 0 L 125.859375 0 L 107.984375 -54.625 C 106.148438 -60.125 104.085938 -64.390625 101.796875 -67.421875 C 99.503906 -70.460938 96.585938 -72.671875 93.046875 -74.046875 C 89.503906 -75.421875 84.898438 -76.109375 79.234375 -76.109375 L 59.875 -76.109375 L 59.875 0 Z M 92.734375 -104.734375 C 110.234375 -104.734375 118.984375 -112.898438 118.984375 -129.234375 C 118.984375 -145.816406 110.234375 -154.109375 92.734375 -154.109375 L 59.875 -154.109375 L 59.875 -104.734375 Z M 92.734375 -104.734375 "/></g></g></g><g fill="#ffffff" fill-opacity="1"><g transform="translate(2667.976278, 274.374926)"><g><path d="M 87.234375 0 L 46.875 0 L 5 -182.734375 L 41 -182.734375 L 68.609375 -54.25 L 71.734375 -54.25 L 104.484375 -182.734375 L 135.359375 -182.734375 L 168.734375 -54.25 L 171.859375 -54.25 L 199.59375 -182.734375 L 234.34375 -182.734375 L 192.59375 0 L 152.109375 0 L 120.109375 -117.859375 L 117.484375 -117.859375 Z M 87.234375 0 "/></g></g></g><g fill="#ffffff" fill-opacity="1"><g transform="translate(2907.144952, 274.374926)"><g><path d="M 175.359375 0 L 137.359375 0 L 123.609375 -42.125 L 53.625 -42.125 L 39.875 0 L 2.75 0 L 65.859375 -182.734375 L 112.234375 -182.734375 Z M 86.859375 -144.609375 L 63.375 -72.484375 L 113.609375 -72.484375 L 89.984375 -144.609375 Z M 86.859375 -144.609375 "/></g></g></g><g fill="#ffffff" fill-opacity="1"><g transform="translate(3085.209405, 274.374926)"><g><path d="M 80.984375 2.625 C 68.328125 2.625 57.0625 1.058594 47.1875 -2.0625 C 37.3125 -5.1875 29.082031 -9.289062 22.5 -14.375 C 15.914062 -19.457031 10.875 -25.039062 7.375 -31.125 L 27.25 -55.375 L 30.375 -55.375 C 35.875 -47.207031 42.851562 -40.707031 51.3125 -35.875 C 59.769531 -31.039062 69.660156 -28.625 80.984375 -28.625 C 90.648438 -28.625 97.941406 -30.664062 102.859375 -34.75 C 107.773438 -38.832031 110.234375 -44.457031 110.234375 -51.625 C 110.234375 -55.957031 109.441406 -59.578125 107.859375 -62.484375 C 106.273438 -65.398438 103.648438 -67.898438 99.984375 -69.984375 C 96.316406 -72.066406 91.359375 -73.859375 85.109375 -75.359375 L 61.625 -80.734375 C 45.207031 -84.484375 32.976562 -90.710938 24.9375 -99.421875 C 16.894531 -108.128906 12.875 -119.441406 12.875 -133.359375 C 12.875 -143.691406 15.457031 -152.773438 20.625 -160.609375 C 25.789062 -168.441406 33.3125 -174.523438 43.1875 -178.859375 C 53.0625 -183.191406 64.867188 -185.359375 78.609375 -185.359375 C 92.691406 -185.359375 104.753906 -183.503906 114.796875 -179.796875 C 124.835938 -176.085938 133.316406 -170.398438 140.234375 -162.734375 L 122.359375 -138.234375 L 119.234375 -138.234375 C 114.066406 -143.648438 108.148438 -147.710938 101.484375 -150.421875 C 94.816406 -153.128906 87.191406 -154.484375 78.609375 -154.484375 C 68.703125 -154.484375 61.164062 -152.734375 56 -149.234375 C 50.832031 -145.734375 48.25 -140.898438 48.25 -134.734375 C 48.25 -128.984375 50.0625 -124.398438 53.6875 -120.984375 C 57.3125 -117.566406 63.578125 -114.898438 72.484375 -112.984375 L 96.484375 -107.984375 C 114.234375 -104.234375 127.109375 -97.878906 135.109375 -88.921875 C 143.109375 -79.960938 147.109375 -68.28125 147.109375 -53.875 C 147.109375 -42.457031 144.648438 -32.519531 139.734375 -24.0625 C 134.816406 -15.601562 127.398438 -9.039062 117.484375 -4.375 C 107.566406 0.289062 95.398438 2.625 80.984375 2.625 Z M 80.984375 2.625 "/></g></g></g><g fill="#ffffff" fill-opacity="1"><g transform="translate(3242.156037, 274.374926)"><g><path d="M 141.734375 -113.984375 L 141.734375 -182.734375 L 177.734375 -182.734375 L 177.734375 0 L 141.734375 0 L 141.734375 -83.234375 L 59.875 -83.234375 L 59.875 0 L 23.75 0 L 23.75 -182.734375 L 59.875 -182.734375 L 59.875 -113.984375 Z M 141.734375 -113.984375 "/></g></g></g></g></g><g clip-path="url(#94858fd45d)"><g clip-path="url(#2564732681)"><g transform="matrix(1, 0, 0, 1, 502, 66)"><g clip-path="url(#a9eac78014)"><g clip-path="url(#c88c998e36)"><g clip-path="url(#d7d463e3a9)"><path fill="#0c2340" d="M 0.253906 0.046875 L 89.101562 0.046875 L 89.101562 88.894531 L 0.253906 88.894531 Z M 0.253906 0.046875 " fill-opacity="1" fill-rule="nonzero"/></g></g></g></g></g></g><g clip-path="url(#8f38f8ce5b)"><g clip-path="url(#f1bb2ab620)"><g transform="matrix(1, 0, 0, 1, 536, 66)"><g clip-path="url(#7a4ee8d7eb)"><g clip-path="url(#d12eff48e4)"><g clip-path="url(#c4af1a0177)"><path fill="#0c2340" d="M 0.417969 0.046875 L 89.265625 0.046875 L 89.265625 88.894531 L 0.417969 88.894531 Z M 0.417969 0.046875 " fill-opacity="1" fill-rule="nonzero"/></g></g></g></g></g></g><g clip-path="url(#f8c6171485)"><g clip-path="url(#89f371e3bc)"><g transform="matrix(1, 0, 0, 1, 545, 119)"><g clip-path="url(#8efa3e5ad9)"><g clip-path="url(#084da5accd)"><g clip-path="url(#922275e11e)"><path fill="#0c2340" d="M 0.644531 0.699219 L 71.035156 0.699219 L 71.035156 71.089844 L 0.644531 71.089844 Z M 0.644531 0.699219 " fill-opacity="1" fill-rule="nonzero"/></g></g></g></g></g></g><g clip-path="url(#00b3b92cb5)"><g clip-path="url(#f15ff6144e)"><g transform="matrix(1, 0, 0, 1, 468, 78)"><g clip-path="url(#652cb3dd8d)"><g clip-path="url(#1e4c091a01)"><g clip-path="url(#83c22b850e)"><path fill="#0c2340" d="M 0.09375 0.777344 L 88.941406 0.777344 L 88.941406 89.625 L 0.09375 89.625 Z M 0.09375 0.777344 " fill-opacity="1" fill-rule="nonzero"/></g></g></g></g></g></g><g clip-path="url(#4a3c6f3550)"><g clip-path="url(#8c113081ac)"><g transform="matrix(1, 0, 0, 1, 502, 78)"><g clip-path="url(#120e1ea712)"><g clip-path="url(#0a86f11d07)"><g clip-path="url(#2beec12c5c)"><path fill="#0c2340" d="M 0.253906 0.777344 L 89.101562 0.777344 L 89.101562 89.625 L 0.253906 89.625 Z M 0.253906 0.777344 " fill-opacity="1" fill-rule="nonzero"/></g></g></g></g></g></g><g clip-path="url(#1250828e48)"><g clip-path="url(#e296270fb7)"><g transform="matrix(1, 0, 0, 1, 546, 167)"><g clip-path="url(#df931ecf4c)"><g clip-path="url(#f6fe7b9a36)"><g clip-path="url(#c2e0f8871d)"><path fill="#0c2340" d="M 0.679688 0.625 L 55.367188 0.625 L 55.367188 55.3125 L 0.679688 55.3125 Z M 0.679688 0.625 " fill-opacity="1" fill-rule="nonzero"/></g></g></g></g></g></g><g clip-path="url(#0c93cfff46)"><g clip-path="url(#08bd30b7b4)"><g transform="matrix(1, 0, 0, 1, 519, 135)"><g clip-path="url(#8c78045331)"><g clip-path="url(#a83986c578)"><g clip-path="url(#eb81c2b1b8)"><path fill="#0c2340" d="M 0.335938 0.40625 L 55.023438 0.40625 L 55.023438 55.089844 L 0.335938 55.089844 Z M 0.335938 0.40625 " fill-opacity="1" fill-rule="nonzero"/></g></g></g></g></g></g><path fill="#ffffff" d="M 567.382812 78.953125 C 567.144531 78.953125 566.910156 78.910156 566.683594 78.828125 L 528.164062 64.929688 C 527.753906 64.785156 527.425781 64.53125 527.175781 64.175781 C 526.925781 63.820312 526.800781 63.425781 526.800781 62.992188 C 526.800781 62.558594 526.925781 62.164062 527.175781 61.808594 C 527.425781 61.453125 527.753906 61.199219 528.164062 61.054688 L 566.683594 47.15625 C 567.152344 46.988281 567.617188 46.988281 568.082031 47.15625 L 606.605469 61.054688 C 607.015625 61.199219 607.34375 61.453125 607.59375 61.808594 C 607.84375 62.164062 607.96875 62.558594 607.96875 62.992188 C 607.96875 63.425781 607.84375 63.820312 607.59375 64.175781 C 607.34375 64.53125 607.015625 64.785156 606.605469 64.929688 L 568.082031 78.832031 C 567.855469 78.914062 567.625 78.953125 567.382812 78.953125 Z M 534.933594 62.992188 L 567.382812 74.699219 L 599.832031 62.992188 L 567.382812 51.285156 Z M 534.933594 62.992188 " fill-opacity="1" fill-rule="nonzero"/><path fill="#ffffff" d="M 594.875 92.421875 L 539.890625 92.421875 C 539.617188 92.421875 539.355469 92.371094 539.101562 92.265625 C 538.851562 92.160156 538.628906 92.011719 538.433594 91.820312 C 538.242188 91.625 538.09375 91.402344 537.988281 91.152344 C 537.882812 90.898438 537.832031 90.636719 537.832031 90.363281 L 537.832031 66.972656 C 537.832031 66.699219 537.882812 66.433594 537.988281 66.183594 C 538.09375 65.929688 538.242188 65.707031 538.433594 65.515625 C 538.628906 65.320312 538.851562 65.171875 539.101562 65.066406 C 539.355469 64.960938 539.617188 64.910156 539.890625 64.910156 C 540.164062 64.910156 540.429688 64.960938 540.679688 65.066406 C 540.933594 65.171875 541.15625 65.320312 541.347656 65.515625 C 541.542969 65.707031 541.691406 65.929688 541.796875 66.183594 C 541.898438 66.433594 541.953125 66.699219 541.953125 66.972656 L 541.953125 88.300781 L 592.816406 88.300781 L 592.816406 66.972656 C 592.816406 66.699219 592.867188 66.433594 592.972656 66.183594 C 593.078125 65.929688 593.226562 65.707031 593.417969 65.515625 C 593.613281 65.320312 593.835938 65.171875 594.085938 65.066406 C 594.339844 64.960938 594.601562 64.910156 594.875 64.910156 C 595.148438 64.910156 595.414062 64.960938 595.664062 65.066406 C 595.917969 65.171875 596.140625 65.320312 596.332031 65.515625 C 596.527344 65.707031 596.675781 65.929688 596.78125 66.183594 C 596.886719 66.433594 596.9375 66.699219 596.9375 66.972656 L 596.9375 90.363281 C 596.9375 90.636719 596.886719 90.898438 596.78125 91.152344 C 596.675781 91.402344 596.527344 91.625 596.332031 91.820312 C 596.140625 92.011719 595.917969 92.160156 595.664062 92.265625 C 595.414062 92.371094 595.148438 92.421875 594.875 92.421875 Z M 594.875 92.421875 " fill-opacity="1" fill-rule="nonzero"/><path fill="#ffffff" d="M 605.90625 80.058594 C 605.632812 80.058594 605.371094 80.003906 605.117188 79.902344 C 604.863281 79.796875 604.640625 79.648438 604.449219 79.453125 C 604.253906 79.261719 604.105469 79.039062 604.003906 78.785156 C 603.898438 78.53125 603.84375 78.269531 603.84375 77.996094 L 603.84375 62.992188 C 603.84375 62.71875 603.898438 62.457031 604.003906 62.203125 C 604.105469 61.949219 604.253906 61.726562 604.449219 61.535156 C 604.640625 61.339844 604.863281 61.191406 605.117188 61.085938 C 605.371094 60.984375 605.632812 60.929688 605.90625 60.929688 C 606.179688 60.929688 606.441406 60.984375 606.695312 61.085938 C 606.949219 61.191406 607.171875 61.339844 607.363281 61.535156 C 607.558594 61.726562 607.707031 61.949219 607.808594 62.203125 C 607.914062 62.457031 607.96875 62.71875 607.96875 62.992188 L 607.96875 77.996094 C 607.96875 78.269531 607.914062 78.53125 607.808594 78.785156 C 607.707031 79.039062 607.558594 79.261719 607.363281 79.453125 C 607.171875 79.648438 606.949219 79.796875 606.695312 79.902344 C 606.441406 80.003906 606.179688 80.058594 605.90625 80.058594 Z M 605.90625 80.058594 " fill-opacity="1" fill-rule="nonzero"/><path fill="#ffffff" d="M 567.382812 119.710938 C 552.542969 119.710938 540.46875 107.671875 540.46875 92.875 C 540.46875 91.964844 540.515625 91.058594 540.605469 90.152344 C 540.636719 89.878906 540.714844 89.625 540.84375 89.382812 C 540.972656 89.144531 541.144531 88.9375 541.355469 88.761719 C 541.570312 88.589844 541.804688 88.464844 542.066406 88.386719 C 542.328125 88.308594 542.597656 88.28125 542.867188 88.308594 C 543.140625 88.339844 543.398438 88.417969 543.636719 88.546875 C 543.878906 88.675781 544.085938 88.847656 544.257812 89.058594 C 544.429688 89.273438 544.558594 89.507812 544.636719 89.769531 C 544.714844 90.035156 544.738281 90.300781 544.710938 90.574219 C 544.632812 91.335938 544.59375 92.105469 544.59375 92.875 C 544.59375 105.398438 554.820312 115.589844 567.386719 115.589844 C 579.957031 115.589844 590.183594 105.398438 590.183594 92.875 C 590.183594 92.105469 590.144531 91.335938 590.066406 90.574219 C 590.039062 90.300781 590.066406 90.035156 590.144531 89.773438 C 590.222656 89.507812 590.347656 89.273438 590.519531 89.058594 C 590.691406 88.847656 590.898438 88.675781 591.140625 88.546875 C 591.378906 88.417969 591.636719 88.339844 591.910156 88.3125 C 592.179688 88.28125 592.449219 88.308594 592.710938 88.386719 C 592.972656 88.464844 593.207031 88.589844 593.421875 88.761719 C 593.632812 88.9375 593.804688 89.144531 593.933594 89.382812 C 594.0625 89.625 594.140625 89.882812 594.167969 90.152344 C 594.257812 91.046875 594.304688 91.960938 594.304688 92.875 C 594.300781 107.671875 582.226562 119.710938 567.382812 119.710938 Z M 567.382812 119.710938 " fill-opacity="1" fill-rule="nonzero"/><g clip-path="url(#b9067a9f08)"><path fill="#ffffff" d="M 599.773438 179.535156 L 599.597656 179.535156 L 534.832031 178.835938 C 533.8125 178.824219 532.800781 178.71875 531.804688 178.511719 C 530.804688 178.304688 529.835938 178.003906 528.898438 177.605469 C 527.957031 177.210938 527.066406 176.726562 526.21875 176.152344 C 525.375 175.582031 524.59375 174.933594 523.875 174.210938 C 523.15625 173.488281 522.515625 172.699219 521.953125 171.851562 C 521.386719 171 520.910156 170.105469 520.523438 169.164062 C 520.132812 168.21875 519.839844 167.25 519.640625 166.25 C 519.441406 165.246094 519.34375 164.238281 519.34375 163.21875 L 519.34375 150.359375 C 519.34375 149.222656 519.402344 148.082031 519.515625 146.949219 C 519.628906 145.8125 519.796875 144.6875 520.019531 143.570312 C 520.246094 142.449219 520.523438 141.347656 520.855469 140.257812 C 521.1875 139.164062 521.574219 138.09375 522.011719 137.039062 C 522.449219 135.988281 522.9375 134.957031 523.476562 133.953125 C 524.015625 132.949219 524.601562 131.972656 525.238281 131.023438 C 525.871094 130.078125 526.550781 129.164062 527.277344 128.285156 C 528 127.402344 528.765625 126.558594 529.574219 125.753906 C 530.382812 124.949219 531.226562 124.1875 532.109375 123.464844 C 532.992188 122.742188 533.910156 122.0625 534.859375 121.433594 C 535.804688 120.800781 536.785156 120.214844 537.789062 119.679688 C 538.796875 119.144531 539.828125 118.65625 540.882812 118.222656 C 541.9375 117.789062 543.007812 117.40625 544.101562 117.078125 C 545.191406 116.746094 546.296875 116.472656 547.417969 116.25 C 548.535156 116.03125 549.664062 115.863281 550.796875 115.753906 C 551.933594 115.644531 553.070312 115.589844 554.210938 115.589844 L 580.5625 115.589844 C 581.703125 115.589844 582.839844 115.644531 583.976562 115.753906 C 585.109375 115.863281 586.238281 116.03125 587.355469 116.25 C 588.476562 116.472656 589.578125 116.75 590.671875 117.078125 C 591.761719 117.40625 592.835938 117.789062 593.890625 118.226562 C 594.945312 118.660156 595.972656 119.144531 596.980469 119.679688 C 597.988281 120.21875 598.964844 120.800781 599.914062 121.433594 C 600.863281 122.066406 601.777344 122.742188 602.660156 123.464844 C 603.542969 124.1875 604.386719 124.953125 605.195312 125.757812 C 606.003906 126.5625 606.769531 127.40625 607.492188 128.285156 C 608.21875 129.164062 608.898438 130.078125 609.53125 131.027344 C 610.167969 131.972656 610.753906 132.949219 611.292969 133.953125 C 611.832031 134.960938 612.320312 135.988281 612.757812 137.042969 C 613.195312 138.09375 613.582031 139.167969 613.914062 140.257812 C 614.246094 141.347656 614.523438 142.453125 614.746094 143.570312 C 614.972656 144.6875 615.140625 145.8125 615.253906 146.949219 C 615.367188 148.082031 615.425781 149.222656 615.425781 150.359375 L 615.425781 163.917969 C 615.425781 164.941406 615.324219 165.960938 615.121094 166.964844 C 614.921875 167.972656 614.621094 168.949219 614.226562 169.898438 C 613.835938 170.847656 613.351562 171.746094 612.78125 172.597656 C 612.210938 173.453125 611.558594 174.242188 610.832031 174.964844 C 610.105469 175.691406 609.316406 176.339844 608.460938 176.90625 C 607.609375 177.476562 606.707031 177.957031 605.757812 178.351562 C 604.808594 178.742188 603.832031 179.035156 602.824219 179.234375 C 601.816406 179.433594 600.800781 179.535156 599.773438 179.535156 Z M 554.210938 119.714844 C 537.257812 119.714844 523.464844 133.464844 523.464844 150.359375 L 523.464844 163.21875 C 523.464844 169.488281 528.582031 174.644531 534.875 174.710938 L 599.644531 175.410156 C 600.40625 175.421875 601.160156 175.355469 601.90625 175.214844 C 602.65625 175.074219 603.382812 174.863281 604.089844 174.578125 C 604.796875 174.292969 605.46875 173.941406 606.105469 173.523438 C 606.742188 173.105469 607.328125 172.632812 607.871094 172.097656 C 608.414062 171.5625 608.898438 170.980469 609.324219 170.347656 C 609.75 169.71875 610.113281 169.050781 610.40625 168.351562 C 610.703125 167.648438 610.925781 166.921875 611.074219 166.175781 C 611.226562 165.429688 611.300781 164.675781 611.304688 163.917969 L 611.304688 150.359375 C 611.304688 133.464844 597.511719 119.714844 580.558594 119.714844 Z M 554.210938 119.714844 " fill-opacity="1" fill-rule="nonzero"/></g><g clip-path="url(#cb1b12ded0)"><path fill="#ffffff" d="M 565.988281 179.1875 C 565.644531 179.1875 565.320312 179.105469 565.015625 178.941406 C 564.710938 178.78125 564.464844 178.554688 564.273438 178.269531 L 547.125 152.640625 C 546.867188 152.253906 546.753906 151.824219 546.785156 151.359375 C 546.8125 150.894531 546.984375 150.488281 547.289062 150.136719 L 555.535156 140.773438 L 545.828125 130.503906 C 545.535156 130.191406 545.355469 129.828125 545.289062 129.40625 C 545.222656 128.984375 545.285156 128.578125 545.46875 128.195312 L 550.953125 116.765625 C 551.070312 116.515625 551.230469 116.300781 551.433594 116.117188 C 551.636719 115.929688 551.871094 115.792969 552.128906 115.699219 C 552.386719 115.609375 552.652344 115.570312 552.929688 115.585938 C 553.203125 115.597656 553.464844 115.664062 553.710938 115.785156 C 553.957031 115.902344 554.175781 116.066406 554.355469 116.269531 C 554.539062 116.476562 554.675781 116.707031 554.765625 116.96875 C 554.855469 117.226562 554.894531 117.492188 554.875 117.769531 C 554.859375 118.042969 554.789062 118.300781 554.667969 118.550781 L 549.796875 128.707031 L 559.824219 139.308594 C 560 139.496094 560.136719 139.707031 560.234375 139.945312 C 560.328125 140.183594 560.378906 140.429688 560.382812 140.6875 C 560.390625 140.945312 560.347656 141.191406 560.257812 141.433594 C 560.171875 141.675781 560.039062 141.890625 559.871094 142.085938 L 551.429688 151.671875 L 567.699219 175.980469 C 567.910156 176.296875 568.027344 176.644531 568.046875 177.023438 C 568.0625 177.40625 567.984375 177.761719 567.804688 178.097656 C 567.625 178.433594 567.371094 178.699219 567.046875 178.894531 C 566.71875 179.089844 566.367188 179.1875 565.988281 179.1875 Z M 565.988281 179.1875 " fill-opacity="1" fill-rule="nonzero"/></g><g clip-path="url(#2f54974778)"><path fill="#ffffff" d="M 568.78125 179.1875 C 568.398438 179.1875 568.046875 179.089844 567.71875 178.890625 C 567.394531 178.695312 567.140625 178.429688 566.960938 178.09375 C 566.78125 177.761719 566.703125 177.402344 566.722656 177.023438 C 566.742188 176.640625 566.855469 176.292969 567.066406 175.976562 L 583.335938 151.667969 L 574.890625 142.082031 C 574.722656 141.886719 574.59375 141.671875 574.503906 141.429688 C 574.417969 141.191406 574.375 140.941406 574.378906 140.683594 C 574.382812 140.425781 574.433594 140.179688 574.53125 139.941406 C 574.628906 139.703125 574.765625 139.492188 574.941406 139.304688 L 584.964844 128.703125 L 580.09375 118.546875 C 579.976562 118.300781 579.914062 118.042969 579.898438 117.769531 C 579.886719 117.5 579.925781 117.234375 580.015625 116.976562 C 580.109375 116.722656 580.246094 116.492188 580.425781 116.289062 C 580.609375 116.089844 580.820312 115.929688 581.066406 115.8125 C 581.3125 115.691406 581.570312 115.625 581.839844 115.609375 C 582.113281 115.59375 582.378906 115.632812 582.632812 115.722656 C 582.890625 115.808594 583.121094 115.945312 583.324219 116.125 C 583.527344 116.304688 583.691406 116.519531 583.808594 116.761719 L 589.296875 128.191406 C 589.480469 128.578125 589.539062 128.980469 589.472656 129.402344 C 589.40625 129.824219 589.230469 130.1875 588.9375 130.5 L 579.226562 140.769531 L 587.472656 150.132812 C 587.78125 150.484375 587.949219 150.890625 587.980469 151.359375 C 588.011719 151.824219 587.898438 152.25 587.640625 152.636719 L 570.496094 178.269531 C 570.304688 178.554688 570.054688 178.78125 569.75 178.941406 C 569.449219 179.105469 569.125 179.1875 568.78125 179.1875 Z M 568.78125 179.1875 " fill-opacity="1" fill-rule="nonzero"/></g><path fill="#ffffff" d="M 567.476562 130.230469 L 567.382812 130.230469 C 566.511719 130.21875 565.6875 130.011719 564.914062 129.605469 C 564.140625 129.195312 563.503906 128.632812 563 127.917969 L 556.582031 118.84375 C 556.421875 118.621094 556.3125 118.375 556.253906 118.109375 C 556.191406 117.84375 556.1875 117.574219 556.230469 117.304688 C 556.277344 117.035156 556.375 116.785156 556.519531 116.554688 C 556.664062 116.324219 556.851562 116.128906 557.074219 115.972656 C 557.296875 115.8125 557.542969 115.703125 557.808594 115.644531 C 558.074219 115.582031 558.34375 115.574219 558.613281 115.621094 C 558.882812 115.667969 559.132812 115.765625 559.363281 115.910156 C 559.59375 116.054688 559.789062 116.238281 559.945312 116.464844 L 566.367188 125.539062 C 566.492188 125.714844 566.648438 125.851562 566.839844 125.953125 C 567.03125 126.054688 567.234375 126.105469 567.449219 126.109375 C 567.664062 126.113281 567.871094 126.066406 568.0625 125.972656 C 568.257812 125.878906 568.417969 125.742188 568.550781 125.570312 L 575.46875 116.410156 C 575.632812 116.195312 575.835938 116.015625 576.070312 115.875 C 576.304688 115.738281 576.558594 115.652344 576.828125 115.613281 C 577.101562 115.574219 577.367188 115.589844 577.632812 115.660156 C 577.898438 115.726562 578.136719 115.84375 578.355469 116.007812 C 578.574219 116.175781 578.753906 116.375 578.890625 116.609375 C 579.03125 116.847656 579.117188 117.097656 579.15625 117.371094 C 579.191406 117.640625 579.175781 117.910156 579.109375 118.171875 C 579.039062 118.4375 578.921875 118.679688 578.757812 118.898438 L 571.839844 128.058594 C 571.324219 128.742188 570.683594 129.277344 569.917969 129.660156 C 569.148438 130.042969 568.335938 130.234375 567.476562 130.230469 Z M 567.476562 130.230469 " fill-opacity="1" fill-rule="nonzero"/></svg>