<svg xmlns="http://www.w3.org/2000/svg" xmlns:xlink="http://www.w3.org/1999/xlink" width="470" zoomAndPan="magnify" viewBox="0 0 352.5 74.999997" height="100" preserveAspectRatio="xMidYMid meet" version="1.0"><defs><filter x="0%" y="0%" width="100%" height="100%" id="0054266b29"><feColorMatrix values="0 0 0 0 1 0 0 0 0 1 0 0 0 0 1 0 0 0 1 0" color-interpolation-filters="sRGB"/></filter><g/><clipPath id="28cd08ecc5"><path d="M 0 0.0546875 L 352 0.0546875 L 352 74.945312 L 0 74.945312 Z M 0 0.0546875 " clip-rule="nonzero"/></clipPath><clipPath id="4e01eaddc6"><path d="M 52 41 L 61.609375 41 L 61.609375 43 L 52 43 Z M 52 41 " clip-rule="nonzero"/></clipPath><clipPath id="6ff14f2d46"><path d="M 19 0.0546875 L 352 0.0546875 L 352 74.945312 L 19 74.945312 Z M 19 0.0546875 " clip-rule="nonzero"/></clipPath><clipPath id="9074c9c585"><path d="M 0.492188 0.0546875 L 333 0.0546875 L 333 74.945312 L 0.492188 74.945312 Z M 0.492188 0.0546875 " clip-rule="nonzero"/></clipPath><clipPath id="a436668df5"><path d="M 0.492188 0.0546875 L 333 0.0546875 L 333 74.945312 L 0.492188 74.945312 Z M 0.492188 0.0546875 " clip-rule="nonzero"/></clipPath><clipPath id="35bb21634a"><path d="M 5.980469 0.0546875 L 333 0.0546875 L 333 74.945312 L 5.980469 74.945312 Z M 5.980469 0.0546875 " clip-rule="nonzero"/></clipPath><linearGradient x1="-253.534" gradientTransform="matrix(0.144386, 0, 0, 0.14442, 42.585524, 21.672607)" y1="101.5" x2="2011.386184" gradientUnits="userSpaceOnUse" y2="101.5" id="061ed5acad"><stop stop-opacity="1" stop-color="rgb(100%, 100%, 100%)" offset="0"/><stop stop-opacity="1" stop-color="rgb(100%, 100%, 100%)" offset="0.125"/><stop stop-opacity="1" stop-color="rgb(99.787903%, 99.932861%, 99.969482%)" offset="0.128906"/><stop stop-opacity="1" stop-color="rgb(99.575806%, 99.867249%, 99.940491%)" offset="0.132812"/><stop stop-opacity="1" stop-color="rgb(99.131775%, 99.729919%, 99.87793%)" offset="0.136719"/><stop stop-opacity="1" stop-color="rgb(98.68927%, 99.59259%, 99.816895%)" offset="0.140625"/><stop stop-opacity="1" stop-color="rgb(98.246765%, 99.453735%, 99.754333%)" offset="0.144531"/><stop stop-opacity="1" stop-color="rgb(97.80426%, 99.316406%, 99.693298%)" offset="0.148438"/><stop stop-opacity="1" stop-color="rgb(97.360229%, 99.179077%, 99.630737%)" offset="0.152344"/><stop stop-opacity="1" stop-color="rgb(96.917725%, 99.041748%, 99.569702%)" offset="0.15625"/><stop stop-opacity="1" stop-color="rgb(96.473694%, 98.902893%, 99.507141%)" offset="0.160156"/><stop stop-opacity="1" stop-color="rgb(96.031189%, 98.765564%, 99.446106%)" offset="0.164062"/><stop stop-opacity="1" stop-color="rgb(95.588684%, 98.628235%, 99.383545%)" offset="0.167969"/><stop stop-opacity="1" stop-color="rgb(95.146179%, 98.490906%, 99.32251%)" offset="0.171875"/><stop stop-opacity="1" stop-color="rgb(94.702148%, 98.353577%, 99.259949%)" offset="0.175781"/><stop stop-opacity="1" stop-color="rgb(94.259644%, 98.216248%, 99.198914%)" offset="0.179688"/><stop stop-opacity="1" stop-color="rgb(93.817139%, 98.077393%, 99.136353%)" offset="0.183594"/><stop stop-opacity="1" stop-color="rgb(93.374634%, 97.940063%, 99.075317%)" offset="0.1875"/><stop stop-opacity="1" stop-color="rgb(92.930603%, 97.802734%, 99.012756%)" offset="0.191406"/><stop stop-opacity="1" stop-color="rgb(92.488098%, 97.665405%, 98.951721%)" offset="0.195312"/><stop stop-opacity="1" stop-color="rgb(92.044067%, 97.52655%, 98.88916%)" offset="0.199219"/><stop stop-opacity="1" stop-color="rgb(91.601562%, 97.389221%, 98.828125%)" offset="0.203125"/><stop stop-opacity="1" stop-color="rgb(91.159058%, 97.251892%, 98.765564%)" offset="0.207031"/><stop stop-opacity="1" stop-color="rgb(90.716553%, 97.114563%, 98.704529%)" offset="0.210938"/><stop stop-opacity="1" stop-color="rgb(90.272522%, 96.975708%, 98.641968%)" offset="0.214844"/><stop stop-opacity="1" stop-color="rgb(89.830017%, 96.838379%, 98.580933%)" offset="0.21875"/><stop stop-opacity="1" stop-color="rgb(89.385986%, 96.70105%, 98.518372%)" offset="0.222656"/><stop stop-opacity="1" stop-color="rgb(88.943481%, 96.563721%, 98.457336%)" offset="0.226563"/><stop stop-opacity="1" stop-color="rgb(88.500977%, 96.424866%, 98.394775%)" offset="0.230469"/><stop stop-opacity="1" stop-color="rgb(88.058472%, 96.287537%, 98.33374%)" offset="0.234375"/><stop stop-opacity="1" stop-color="rgb(87.614441%, 96.150208%, 98.271179%)" offset="0.238281"/><stop stop-opacity="1" stop-color="rgb(87.171936%, 96.012878%, 98.210144%)" offset="0.242188"/><stop stop-opacity="1" stop-color="rgb(86.729431%, 95.875549%, 98.147583%)" offset="0.246094"/><stop stop-opacity="1" stop-color="rgb(86.286926%, 95.73822%, 98.086548%)" offset="0.25"/><stop stop-opacity="1" stop-color="rgb(85.842896%, 95.599365%, 98.023987%)" offset="0.253906"/><stop stop-opacity="1" stop-color="rgb(85.400391%, 95.462036%, 97.962952%)" offset="0.257813"/><stop stop-opacity="1" stop-color="rgb(84.95636%, 95.324707%, 97.900391%)" offset="0.261719"/><stop stop-opacity="1" stop-color="rgb(84.513855%, 95.187378%, 97.839355%)" offset="0.265625"/><stop stop-opacity="1" stop-color="rgb(84.07135%, 95.048523%, 97.776794%)" offset="0.269531"/><stop stop-opacity="1" stop-color="rgb(83.628845%, 94.911194%, 97.715759%)" offset="0.273438"/><stop stop-opacity="1" stop-color="rgb(83.184814%, 94.773865%, 97.653198%)" offset="0.277344"/><stop stop-opacity="1" stop-color="rgb(82.74231%, 94.636536%, 97.592163%)" offset="0.28125"/><stop stop-opacity="1" stop-color="rgb(82.299805%, 94.497681%, 97.529602%)" offset="0.285156"/><stop stop-opacity="1" stop-color="rgb(81.8573%, 94.360352%, 97.468567%)" offset="0.289063"/><stop stop-opacity="1" stop-color="rgb(81.413269%, 94.223022%, 97.406006%)" offset="0.292969"/><stop stop-opacity="1" stop-color="rgb(80.970764%, 94.085693%, 97.344971%)" offset="0.296875"/><stop stop-opacity="1" stop-color="rgb(80.526733%, 93.946838%, 97.28241%)" offset="0.300781"/><stop stop-opacity="1" stop-color="rgb(80.084229%, 93.809509%, 97.221375%)" offset="0.304688"/><stop stop-opacity="1" stop-color="rgb(79.641724%, 93.67218%, 97.158813%)" offset="0.308594"/><stop stop-opacity="1" stop-color="rgb(79.199219%, 93.534851%, 97.097778%)" offset="0.3125"/><stop stop-opacity="1" stop-color="rgb(78.755188%, 93.397522%, 97.035217%)" offset="0.316406"/><stop stop-opacity="1" stop-color="rgb(78.312683%, 93.260193%, 96.974182%)" offset="0.320313"/><stop stop-opacity="1" stop-color="rgb(77.868652%, 93.121338%, 96.911621%)" offset="0.324219"/><stop stop-opacity="1" stop-color="rgb(77.426147%, 92.984009%, 96.850586%)" offset="0.328125"/><stop stop-opacity="1" stop-color="rgb(76.983643%, 92.84668%, 96.788025%)" offset="0.332031"/><stop stop-opacity="1" stop-color="rgb(76.541138%, 92.709351%, 96.72699%)" offset="0.335938"/><stop stop-opacity="1" stop-color="rgb(76.097107%, 92.570496%, 96.664429%)" offset="0.339844"/><stop stop-opacity="1" stop-color="rgb(75.654602%, 92.433167%, 96.603394%)" offset="0.34375"/><stop stop-opacity="1" stop-color="rgb(75.212097%, 92.295837%, 96.540833%)" offset="0.347656"/><stop stop-opacity="1" stop-color="rgb(74.769592%, 92.158508%, 96.479797%)" offset="0.351563"/><stop stop-opacity="1" stop-color="rgb(74.325562%, 92.019653%, 96.417236%)" offset="0.355469"/><stop stop-opacity="1" stop-color="rgb(73.883057%, 91.882324%, 96.356201%)" offset="0.359375"/><stop stop-opacity="1" stop-color="rgb(73.439026%, 91.744995%, 96.29364%)" offset="0.363281"/><stop stop-opacity="1" stop-color="rgb(72.996521%, 91.607666%, 96.232605%)" offset="0.367188"/><stop stop-opacity="1" stop-color="rgb(72.554016%, 91.468811%, 96.170044%)" offset="0.371094"/><stop stop-opacity="1" stop-color="rgb(72.111511%, 91.331482%, 96.109009%)" offset="0.375"/><stop stop-opacity="1" stop-color="rgb(71.66748%, 91.194153%, 96.046448%)" offset="0.378906"/><stop stop-opacity="1" stop-color="rgb(71.224976%, 91.056824%, 95.985413%)" offset="0.382813"/><stop stop-opacity="1" stop-color="rgb(70.782471%, 90.919495%, 95.922852%)" offset="0.386719"/><stop stop-opacity="1" stop-color="rgb(70.339966%, 90.782166%, 95.861816%)" offset="0.390625"/><stop stop-opacity="1" stop-color="rgb(69.895935%, 90.643311%, 95.799255%)" offset="0.394531"/><stop stop-opacity="1" stop-color="rgb(69.45343%, 90.505981%, 95.73822%)" offset="0.398438"/><stop stop-opacity="1" stop-color="rgb(69.009399%, 90.368652%, 95.675659%)" offset="0.402344"/><stop stop-opacity="1" stop-color="rgb(68.566895%, 90.231323%, 95.614624%)" offset="0.40625"/><stop stop-opacity="1" stop-color="rgb(68.12439%, 90.092468%, 95.552063%)" offset="0.410156"/><stop stop-opacity="1" stop-color="rgb(67.681885%, 89.955139%, 95.491028%)" offset="0.414063"/><stop stop-opacity="1" stop-color="rgb(67.237854%, 89.81781%, 95.428467%)" offset="0.417969"/><stop stop-opacity="1" stop-color="rgb(66.795349%, 89.680481%, 95.367432%)" offset="0.421875"/><stop stop-opacity="1" stop-color="rgb(66.351318%, 89.541626%, 95.304871%)" offset="0.425781"/><stop stop-opacity="1" stop-color="rgb(65.908813%, 89.404297%, 95.243835%)" offset="0.429688"/><stop stop-opacity="1" stop-color="rgb(65.466309%, 89.266968%, 95.181274%)" offset="0.433594"/><stop stop-opacity="1" stop-color="rgb(65.023804%, 89.129639%, 95.120239%)" offset="0.4375"/><stop stop-opacity="1" stop-color="rgb(64.579773%, 88.990784%, 95.057678%)" offset="0.441406"/><stop stop-opacity="1" stop-color="rgb(64.137268%, 88.853455%, 94.996643%)" offset="0.445313"/><stop stop-opacity="1" stop-color="rgb(63.694763%, 88.716125%, 94.934082%)" offset="0.449219"/><stop stop-opacity="1" stop-color="rgb(63.252258%, 88.578796%, 94.873047%)" offset="0.453125"/><stop stop-opacity="1" stop-color="rgb(62.808228%, 88.441467%, 94.810486%)" offset="0.457031"/><stop stop-opacity="1" stop-color="rgb(62.365723%, 88.304138%, 94.749451%)" offset="0.460938"/><stop stop-opacity="1" stop-color="rgb(61.921692%, 88.165283%, 94.68689%)" offset="0.464844"/><stop stop-opacity="1" stop-color="rgb(61.479187%, 88.027954%, 94.625854%)" offset="0.46875"/><stop stop-opacity="1" stop-color="rgb(61.036682%, 87.890625%, 94.563293%)" offset="0.472656"/><stop stop-opacity="1" stop-color="rgb(60.594177%, 87.753296%, 94.502258%)" offset="0.476563"/><stop stop-opacity="1" stop-color="rgb(60.150146%, 87.614441%, 94.439697%)" offset="0.480469"/><stop stop-opacity="1" stop-color="rgb(59.707642%, 87.477112%, 94.378662%)" offset="0.484375"/><stop stop-opacity="1" stop-color="rgb(59.265137%, 87.339783%, 94.316101%)" offset="0.488281"/><stop stop-opacity="1" stop-color="rgb(58.822632%, 87.202454%, 94.255066%)" offset="0.492188"/><stop stop-opacity="1" stop-color="rgb(58.378601%, 87.063599%, 94.192505%)" offset="0.496094"/><stop stop-opacity="1" stop-color="rgb(57.936096%, 86.92627%, 94.13147%)" offset="0.5"/><stop stop-opacity="1" stop-color="rgb(57.492065%, 86.78894%, 94.068909%)" offset="0.503906"/><stop stop-opacity="1" stop-color="rgb(57.049561%, 86.651611%, 94.007874%)" offset="0.507812"/><stop stop-opacity="1" stop-color="rgb(56.607056%, 86.514282%, 93.945312%)" offset="0.511719"/><stop stop-opacity="1" stop-color="rgb(56.164551%, 86.376953%, 93.884277%)" offset="0.515625"/><stop stop-opacity="1" stop-color="rgb(55.72052%, 86.238098%, 93.821716%)" offset="0.519531"/><stop stop-opacity="1" stop-color="rgb(55.278015%, 86.100769%, 93.760681%)" offset="0.523438"/><stop stop-opacity="1" stop-color="rgb(54.833984%, 85.96344%, 93.69812%)" offset="0.527344"/><stop stop-opacity="1" stop-color="rgb(54.391479%, 85.826111%, 93.637085%)" offset="0.53125"/><stop stop-opacity="1" stop-color="rgb(53.948975%, 85.687256%, 93.574524%)" offset="0.535156"/><stop stop-opacity="1" stop-color="rgb(53.50647%, 85.549927%, 93.513489%)" offset="0.539062"/><stop stop-opacity="1" stop-color="rgb(53.062439%, 85.412598%, 93.450928%)" offset="0.542969"/><stop stop-opacity="1" stop-color="rgb(52.619934%, 85.275269%, 93.389893%)" offset="0.546875"/><stop stop-opacity="1" stop-color="rgb(52.177429%, 85.136414%, 93.327332%)" offset="0.550781"/><stop stop-opacity="1" stop-color="rgb(51.734924%, 84.999084%, 93.266296%)" offset="0.554688"/><stop stop-opacity="1" stop-color="rgb(51.290894%, 84.861755%, 93.203735%)" offset="0.558594"/><stop stop-opacity="1" stop-color="rgb(50.848389%, 84.724426%, 93.1427%)" offset="0.5625"/><stop stop-opacity="1" stop-color="rgb(50.404358%, 84.585571%, 93.080139%)" offset="0.566406"/><stop stop-opacity="1" stop-color="rgb(49.961853%, 84.448242%, 93.019104%)" offset="0.570312"/><stop stop-opacity="1" stop-color="rgb(49.519348%, 84.310913%, 92.956543%)" offset="0.574219"/><stop stop-opacity="1" stop-color="rgb(49.076843%, 84.173584%, 92.895508%)" offset="0.578125"/><stop stop-opacity="1" stop-color="rgb(48.632812%, 84.036255%, 92.832947%)" offset="0.582031"/><stop stop-opacity="1" stop-color="rgb(48.190308%, 83.898926%, 92.771912%)" offset="0.585938"/><stop stop-opacity="1" stop-color="rgb(47.747803%, 83.760071%, 92.709351%)" offset="0.589844"/><stop stop-opacity="1" stop-color="rgb(47.305298%, 83.622742%, 92.648315%)" offset="0.59375"/><stop stop-opacity="1" stop-color="rgb(46.861267%, 83.485413%, 92.585754%)" offset="0.597656"/><stop stop-opacity="1" stop-color="rgb(46.418762%, 83.348083%, 92.524719%)" offset="0.601562"/><stop stop-opacity="1" stop-color="rgb(45.974731%, 83.209229%, 92.462158%)" offset="0.605469"/><stop stop-opacity="1" stop-color="rgb(45.532227%, 83.071899%, 92.401123%)" offset="0.609375"/><stop stop-opacity="1" stop-color="rgb(45.089722%, 82.93457%, 92.338562%)" offset="0.613281"/><stop stop-opacity="1" stop-color="rgb(44.647217%, 82.797241%, 92.277527%)" offset="0.617188"/><stop stop-opacity="1" stop-color="rgb(44.203186%, 82.658386%, 92.214966%)" offset="0.621094"/><stop stop-opacity="1" stop-color="rgb(43.760681%, 82.521057%, 92.153931%)" offset="0.625"/><stop stop-opacity="1" stop-color="rgb(43.318176%, 82.383728%, 92.09137%)" offset="0.628906"/><stop stop-opacity="1" stop-color="rgb(42.875671%, 82.246399%, 92.030334%)" offset="0.632812"/><stop stop-opacity="1" stop-color="rgb(42.431641%, 82.107544%, 91.967773%)" offset="0.636719"/><stop stop-opacity="1" stop-color="rgb(41.989136%, 81.970215%, 91.906738%)" offset="0.640625"/><stop stop-opacity="1" stop-color="rgb(41.545105%, 81.832886%, 91.844177%)" offset="0.644531"/><stop stop-opacity="1" stop-color="rgb(41.1026%, 81.695557%, 91.783142%)" offset="0.648438"/><stop stop-opacity="1" stop-color="rgb(40.660095%, 81.558228%, 91.720581%)" offset="0.652344"/><stop stop-opacity="1" stop-color="rgb(40.21759%, 81.420898%, 91.659546%)" offset="0.65625"/><stop stop-opacity="1" stop-color="rgb(39.77356%, 81.282043%, 91.596985%)" offset="0.660156"/><stop stop-opacity="1" stop-color="rgb(39.331055%, 81.144714%, 91.53595%)" offset="0.664062"/><stop stop-opacity="1" stop-color="rgb(38.887024%, 81.007385%, 91.473389%)" offset="0.667969"/><stop stop-opacity="1" stop-color="rgb(38.444519%, 80.870056%, 91.412354%)" offset="0.671875"/><stop stop-opacity="1" stop-color="rgb(38.002014%, 80.731201%, 91.349792%)" offset="0.675781"/><stop stop-opacity="1" stop-color="rgb(37.559509%, 80.593872%, 91.288757%)" offset="0.679688"/><stop stop-opacity="1" stop-color="rgb(37.115479%, 80.456543%, 91.226196%)" offset="0.683594"/><stop stop-opacity="1" stop-color="rgb(36.672974%, 80.319214%, 91.165161%)" offset="0.6875"/><stop stop-opacity="1" stop-color="rgb(36.230469%, 80.180359%, 91.1026%)" offset="0.691406"/><stop stop-opacity="1" stop-color="rgb(35.787964%, 80.04303%, 91.041565%)" offset="0.695312"/><stop stop-opacity="1" stop-color="rgb(35.343933%, 79.905701%, 90.98053%)" offset="0.699219"/><stop stop-opacity="1" stop-color="rgb(34.901428%, 79.768372%, 90.919495%)" offset="0.703125"/><stop stop-opacity="1" stop-color="rgb(34.457397%, 79.629517%, 90.856934%)" offset="0.707031"/><stop stop-opacity="1" stop-color="rgb(34.014893%, 79.492188%, 90.795898%)" offset="0.710938"/><stop stop-opacity="1" stop-color="rgb(33.572388%, 79.354858%, 90.733337%)" offset="0.714844"/><stop stop-opacity="1" stop-color="rgb(33.129883%, 79.217529%, 90.672302%)" offset="0.71875"/><stop stop-opacity="1" stop-color="rgb(32.685852%, 79.0802%, 90.609741%)" offset="0.722656"/><stop stop-opacity="1" stop-color="rgb(32.243347%, 78.942871%, 90.548706%)" offset="0.726562"/><stop stop-opacity="1" stop-color="rgb(31.800842%, 78.804016%, 90.486145%)" offset="0.730469"/><stop stop-opacity="1" stop-color="rgb(31.358337%, 78.666687%, 90.42511%)" offset="0.734375"/><stop stop-opacity="1" stop-color="rgb(30.914307%, 78.529358%, 90.362549%)" offset="0.738281"/><stop stop-opacity="1" stop-color="rgb(30.471802%, 78.392029%, 90.301514%)" offset="0.742188"/><stop stop-opacity="1" stop-color="rgb(30.027771%, 78.253174%, 90.238953%)" offset="0.746094"/><stop stop-opacity="1" stop-color="rgb(29.585266%, 78.115845%, 90.177917%)" offset="0.75"/><stop stop-opacity="1" stop-color="rgb(29.142761%, 77.978516%, 90.115356%)" offset="0.753906"/><stop stop-opacity="1" stop-color="rgb(28.700256%, 77.841187%, 90.054321%)" offset="0.757812"/><stop stop-opacity="1" stop-color="rgb(28.256226%, 77.702332%, 89.99176%)" offset="0.761719"/><stop stop-opacity="1" stop-color="rgb(27.813721%, 77.565002%, 89.930725%)" offset="0.765625"/><stop stop-opacity="1" stop-color="rgb(27.36969%, 77.427673%, 89.868164%)" offset="0.769531"/><stop stop-opacity="1" stop-color="rgb(26.927185%, 77.290344%, 89.807129%)" offset="0.773438"/><stop stop-opacity="1" stop-color="rgb(26.48468%, 77.151489%, 89.744568%)" offset="0.777344"/><stop stop-opacity="1" stop-color="rgb(26.042175%, 77.01416%, 89.683533%)" offset="0.78125"/><stop stop-opacity="1" stop-color="rgb(25.598145%, 76.876831%, 89.620972%)" offset="0.785156"/><stop stop-opacity="1" stop-color="rgb(25.15564%, 76.739502%, 89.559937%)" offset="0.789063"/><stop stop-opacity="1" stop-color="rgb(24.713135%, 76.602173%, 89.497375%)" offset="0.792969"/><stop stop-opacity="1" stop-color="rgb(24.27063%, 76.464844%, 89.43634%)" offset="0.796875"/><stop stop-opacity="1" stop-color="rgb(23.826599%, 76.325989%, 89.373779%)" offset="0.800781"/><stop stop-opacity="1" stop-color="rgb(23.384094%, 76.18866%, 89.312744%)" offset="0.804688"/><stop stop-opacity="1" stop-color="rgb(22.940063%, 76.051331%, 89.250183%)" offset="0.808594"/><stop stop-opacity="1" stop-color="rgb(22.497559%, 75.914001%, 89.189148%)" offset="0.8125"/><stop stop-opacity="1" stop-color="rgb(22.055054%, 75.775146%, 89.126587%)" offset="0.816406"/><stop stop-opacity="1" stop-color="rgb(21.612549%, 75.637817%, 89.065552%)" offset="0.820313"/><stop stop-opacity="1" stop-color="rgb(21.168518%, 75.500488%, 89.002991%)" offset="0.824219"/><stop stop-opacity="1" stop-color="rgb(20.726013%, 75.363159%, 88.941956%)" offset="0.828125"/><stop stop-opacity="1" stop-color="rgb(20.283508%, 75.224304%, 88.879395%)" offset="0.832031"/><stop stop-opacity="1" stop-color="rgb(19.841003%, 75.086975%, 88.818359%)" offset="0.835938"/><stop stop-opacity="1" stop-color="rgb(19.396973%, 74.949646%, 88.755798%)" offset="0.839844"/><stop stop-opacity="1" stop-color="rgb(18.954468%, 74.812317%, 88.694763%)" offset="0.84375"/><stop stop-opacity="1" stop-color="rgb(18.510437%, 74.673462%, 88.632202%)" offset="0.847656"/><stop stop-opacity="1" stop-color="rgb(18.067932%, 74.536133%, 88.571167%)" offset="0.851563"/><stop stop-opacity="1" stop-color="rgb(17.625427%, 74.398804%, 88.508606%)" offset="0.855469"/><stop stop-opacity="1" stop-color="rgb(17.182922%, 74.261475%, 88.447571%)" offset="0.859375"/><stop stop-opacity="1" stop-color="rgb(16.738892%, 74.124146%, 88.38501%)" offset="0.863281"/><stop stop-opacity="1" stop-color="rgb(16.296387%, 73.986816%, 88.323975%)" offset="0.867188"/><stop stop-opacity="1" stop-color="rgb(15.852356%, 73.847961%, 88.261414%)" offset="0.871094"/><stop stop-opacity="1" stop-color="rgb(15.409851%, 73.710632%, 88.200378%)" offset="0.875"/><stop stop-opacity="1" stop-color="rgb(14.967346%, 73.573303%, 88.137817%)" offset="0.878906"/><stop stop-opacity="1" stop-color="rgb(14.524841%, 73.435974%, 88.076782%)" offset="0.882812"/><stop stop-opacity="1" stop-color="rgb(14.080811%, 73.297119%, 88.014221%)" offset="0.886719"/><stop stop-opacity="1" stop-color="rgb(13.638306%, 73.15979%, 87.953186%)" offset="0.890625"/><stop stop-opacity="1" stop-color="rgb(13.195801%, 73.022461%, 87.890625%)" offset="0.894531"/><stop stop-opacity="1" stop-color="rgb(12.753296%, 72.885132%, 87.82959%)" offset="0.898438"/><stop stop-opacity="1" stop-color="rgb(12.309265%, 72.746277%, 87.767029%)" offset="0.902344"/><stop stop-opacity="1" stop-color="rgb(11.86676%, 72.608948%, 87.705994%)" offset="0.90625"/><stop stop-opacity="1" stop-color="rgb(11.422729%, 72.471619%, 87.643433%)" offset="0.910156"/><stop stop-opacity="1" stop-color="rgb(10.980225%, 72.33429%, 87.582397%)" offset="0.914062"/><stop stop-opacity="1" stop-color="rgb(10.53772%, 72.195435%, 87.519836%)" offset="0.917969"/><stop stop-opacity="1" stop-color="rgb(10.095215%, 72.058105%, 87.458801%)" offset="0.921875"/><stop stop-opacity="1" stop-color="rgb(9.651184%, 71.920776%, 87.39624%)" offset="0.925781"/><stop stop-opacity="1" stop-color="rgb(9.208679%, 71.783447%, 87.335205%)" offset="0.929688"/><stop stop-opacity="1" stop-color="rgb(8.766174%, 71.646118%, 87.272644%)" offset="0.933594"/><stop stop-opacity="1" stop-color="rgb(8.323669%, 71.508789%, 87.211609%)" offset="0.9375"/><stop stop-opacity="1" stop-color="rgb(7.879639%, 71.369934%, 87.149048%)" offset="0.941406"/><stop stop-opacity="1" stop-color="rgb(7.437134%, 71.232605%, 87.088013%)" offset="0.945312"/><stop stop-opacity="1" stop-color="rgb(6.993103%, 71.095276%, 87.025452%)" offset="0.949219"/><stop stop-opacity="1" stop-color="rgb(6.550598%, 70.957947%, 86.964417%)" offset="0.953125"/><stop stop-opacity="1" stop-color="rgb(6.108093%, 70.819092%, 86.901855%)" offset="0.957031"/><stop stop-opacity="1" stop-color="rgb(5.665588%, 70.681763%, 86.84082%)" offset="0.960938"/><stop stop-opacity="1" stop-color="rgb(5.221558%, 70.544434%, 86.778259%)" offset="0.964844"/><stop stop-opacity="1" stop-color="rgb(4.779053%, 70.407104%, 86.717224%)" offset="0.96875"/><stop stop-opacity="1" stop-color="rgb(4.335022%, 70.26825%, 86.654663%)" offset="0.972656"/><stop stop-opacity="1" stop-color="rgb(3.892517%, 70.13092%, 86.593628%)" offset="0.976562"/><stop stop-opacity="1" stop-color="rgb(3.450012%, 69.993591%, 86.531067%)" offset="0.980469"/><stop stop-opacity="1" stop-color="rgb(3.007507%, 69.856262%, 86.470032%)" offset="0.984375"/><stop stop-opacity="1" stop-color="rgb(2.563477%, 69.717407%, 86.407471%)" offset="0.988281"/><stop stop-opacity="1" stop-color="rgb(2.120972%, 69.580078%, 86.346436%)" offset="0.992188"/><stop stop-opacity="1" stop-color="rgb(1.844788%, 69.494629%, 86.306763%)" offset="0.996094"/><stop stop-opacity="1" stop-color="rgb(1.568604%, 69.40918%, 86.268616%)" offset="1"/></linearGradient><clipPath id="3f57f18101"><rect x="0" width="333" y="0" height="75"/></clipPath><clipPath id="d089d3cb7b"><path d="M 0.492188 0.0546875 L 333 0.0546875 L 333 74.945312 L 0.492188 74.945312 Z M 0.492188 0.0546875 " clip-rule="nonzero"/></clipPath><clipPath id="7f154f1420"><rect x="0" width="333" y="0" height="75"/></clipPath><clipPath id="c1a88d088e"><rect x="0" width="333" y="0" height="75"/></clipPath><mask id="6614c4d799"><g filter="url(#0054266b29)"><g transform="matrix(1, 0, 0, 1, 0, 0.00000000000000059)"><g clip-path="url(#c1a88d088e)"><g clip-path="url(#d089d3cb7b)"><g transform="matrix(1, 0, 0, 1, 0, 0.00000000000000059)"><g clip-path="url(#7f154f1420)"><g fill="#000000" fill-opacity="1"><g transform="translate(48.249517, 44.415605)"><g><path d="M 7.78125 -15.0625 C 8.863281 -15.0625 9.785156 -14.863281 10.546875 -14.46875 C 11.316406 -14.082031 11.894531 -13.53125 12.28125 -12.8125 C 12.675781 -12.101562 12.875 -11.28125 12.875 -10.34375 C 12.875 -9.394531 12.675781 -8.566406 12.28125 -7.859375 C 11.894531 -7.148438 11.316406 -6.597656 10.546875 -6.203125 C 9.785156 -5.816406 8.863281 -5.625 7.78125 -5.625 L 4.9375 -5.625 L 4.9375 0 L 1.953125 0 L 1.953125 -15.0625 Z M 7.390625 -7.984375 C 9.046875 -7.984375 9.875 -8.769531 9.875 -10.34375 C 9.875 -11.914062 9.046875 -12.703125 7.390625 -12.703125 L 4.9375 -12.703125 L 4.9375 -7.984375 Z M 7.390625 -7.984375 "/></g></g></g><g fill="#000000" fill-opacity="1"><g transform="translate(62.013719, 44.415605)"><g><path d="M 1.953125 0 L 1.953125 -15.0625 L 8.015625 -15.0625 C 9.566406 -15.0625 10.738281 -14.703125 11.53125 -13.984375 C 12.332031 -13.273438 12.734375 -12.285156 12.734375 -11.015625 C 12.734375 -10.097656 12.5 -9.347656 12.03125 -8.765625 C 11.570312 -8.179688 10.878906 -7.738281 9.953125 -7.4375 L 9.953125 -7.21875 C 10.429688 -7.007812 10.816406 -6.703125 11.109375 -6.296875 C 11.398438 -5.890625 11.675781 -5.289062 11.9375 -4.5 L 13.4375 0 L 10.375 0 L 8.90625 -4.5 C 8.75 -4.957031 8.578125 -5.3125 8.390625 -5.5625 C 8.203125 -5.8125 7.960938 -5.992188 7.671875 -6.109375 C 7.378906 -6.222656 7 -6.28125 6.53125 -6.28125 L 4.9375 -6.28125 L 4.9375 0 Z M 7.640625 -8.640625 C 9.085938 -8.640625 9.8125 -9.3125 9.8125 -10.65625 C 9.8125 -12.019531 9.085938 -12.703125 7.640625 -12.703125 L 4.9375 -12.703125 L 4.9375 -8.640625 Z M 7.640625 -8.640625 "/></g></g></g><g fill="#000000" fill-opacity="1"><g transform="translate(76.0973, 44.415605)"><g><path d="M 8.21875 0.21875 C 6.832031 0.21875 5.613281 -0.0625 4.5625 -0.625 C 3.507812 -1.1875 2.679688 -2.046875 2.078125 -3.203125 C 1.484375 -4.367188 1.1875 -5.8125 1.1875 -7.53125 C 1.1875 -9.257812 1.484375 -10.703125 2.078125 -11.859375 C 2.679688 -13.015625 3.507812 -13.875 4.5625 -14.4375 C 5.613281 -15 6.832031 -15.28125 8.21875 -15.28125 C 9.59375 -15.28125 10.804688 -15 11.859375 -14.4375 C 12.910156 -13.882812 13.734375 -13.023438 14.328125 -11.859375 C 14.921875 -10.703125 15.21875 -9.257812 15.21875 -7.53125 C 15.21875 -5.8125 14.921875 -4.367188 14.328125 -3.203125 C 13.734375 -2.046875 12.910156 -1.1875 11.859375 -0.625 C 10.804688 -0.0625 9.59375 0.21875 8.21875 0.21875 Z M 8.21875 -2.375 C 9.488281 -2.375 10.460938 -2.78125 11.140625 -3.59375 C 11.816406 -4.414062 12.15625 -5.726562 12.15625 -7.53125 C 12.15625 -9.332031 11.816406 -10.644531 11.140625 -11.46875 C 10.460938 -12.289062 9.488281 -12.703125 8.21875 -12.703125 C 6.925781 -12.703125 5.941406 -12.289062 5.265625 -11.46875 C 4.585938 -10.644531 4.25 -9.332031 4.25 -7.53125 C 4.25 -5.726562 4.585938 -4.414062 5.265625 -3.59375 C 5.941406 -2.78125 6.925781 -2.375 8.21875 -2.375 Z M 8.21875 -2.375 "/></g></g></g><g fill="#000000" fill-opacity="1"><g transform="translate(92.509256, 44.415605)"><g><path d="M 11.515625 -15.0625 L 11.515625 -12.578125 L 4.9375 -12.578125 L 4.9375 -8.59375 L 10.90625 -8.59375 L 10.90625 -6.125 L 4.9375 -6.125 L 4.9375 0 L 1.953125 0 L 1.953125 -15.0625 Z M 11.515625 -15.0625 "/></g></g></g><g fill="#000000" fill-opacity="1"><g transform="translate(104.686866, 44.415605)"><g><path d="M 11.515625 -15.0625 L 11.515625 -12.578125 L 4.9375 -12.578125 L 4.9375 -8.59375 L 10.90625 -8.59375 L 10.90625 -6.125 L 4.9375 -6.125 L 4.9375 0 L 1.953125 0 L 1.953125 -15.0625 Z M 11.515625 -15.0625 "/></g></g></g><g fill="#000000" fill-opacity="1"><g transform="translate(116.864476, 44.415605)"><g><path d="M 4.9375 -6.625 L 4.9375 -2.5 L 12.125 -2.5 L 12.125 0 L 1.953125 0 L 1.953125 -15.0625 L 11.96875 -15.0625 L 11.96875 -12.578125 L 4.9375 -12.578125 L 4.9375 -9.046875 L 11.078125 -9.046875 L 11.078125 -6.625 Z M 4.9375 -6.625 "/></g></g></g><g fill="#000000" fill-opacity="1"><g transform="translate(129.814775, 44.415605)"><g><path d="M 6.671875 0.21875 C 5.628906 0.21875 4.703125 0.0859375 3.890625 -0.171875 C 3.078125 -0.429688 2.398438 -0.769531 1.859375 -1.1875 C 1.316406 -1.601562 0.898438 -2.0625 0.609375 -2.5625 L 2.25 -4.5625 L 2.5 -4.5625 C 2.957031 -3.894531 3.535156 -3.359375 4.234375 -2.953125 C 4.929688 -2.554688 5.742188 -2.359375 6.671875 -2.359375 C 7.472656 -2.359375 8.078125 -2.523438 8.484375 -2.859375 C 8.890625 -3.203125 9.09375 -3.664062 9.09375 -4.25 C 9.09375 -4.613281 9.023438 -4.914062 8.890625 -5.15625 C 8.765625 -5.394531 8.550781 -5.597656 8.25 -5.765625 C 7.945312 -5.941406 7.535156 -6.09375 7.015625 -6.21875 L 5.078125 -6.65625 C 3.722656 -6.96875 2.710938 -7.484375 2.046875 -8.203125 C 1.390625 -8.921875 1.0625 -9.851562 1.0625 -11 C 1.0625 -11.851562 1.273438 -12.601562 1.703125 -13.25 C 2.128906 -13.894531 2.75 -14.394531 3.5625 -14.75 C 4.375 -15.101562 5.347656 -15.28125 6.484375 -15.28125 C 7.640625 -15.28125 8.628906 -15.128906 9.453125 -14.828125 C 10.285156 -14.523438 10.988281 -14.054688 11.5625 -13.421875 L 10.09375 -11.40625 L 9.828125 -11.40625 C 9.398438 -11.84375 8.910156 -12.171875 8.359375 -12.390625 C 7.816406 -12.617188 7.191406 -12.734375 6.484375 -12.734375 C 5.660156 -12.734375 5.035156 -12.585938 4.609375 -12.296875 C 4.191406 -12.015625 3.984375 -11.617188 3.984375 -11.109375 C 3.984375 -10.640625 4.128906 -10.265625 4.421875 -9.984375 C 4.722656 -9.703125 5.242188 -9.476562 5.984375 -9.3125 L 7.953125 -8.90625 C 9.421875 -8.59375 10.484375 -8.066406 11.140625 -7.328125 C 11.796875 -6.585938 12.125 -5.625 12.125 -4.4375 C 12.125 -3.5 11.921875 -2.679688 11.515625 -1.984375 C 11.117188 -1.285156 10.507812 -0.742188 9.6875 -0.359375 C 8.875 0.0234375 7.867188 0.21875 6.671875 0.21875 Z M 6.671875 0.21875 "/></g></g></g><g fill="#000000" fill-opacity="1"><g transform="translate(142.754773, 44.415605)"><g><path d="M 6.671875 0.21875 C 5.628906 0.21875 4.703125 0.0859375 3.890625 -0.171875 C 3.078125 -0.429688 2.398438 -0.769531 1.859375 -1.1875 C 1.316406 -1.601562 0.898438 -2.0625 0.609375 -2.5625 L 2.25 -4.5625 L 2.5 -4.5625 C 2.957031 -3.894531 3.535156 -3.359375 4.234375 -2.953125 C 4.929688 -2.554688 5.742188 -2.359375 6.671875 -2.359375 C 7.472656 -2.359375 8.078125 -2.523438 8.484375 -2.859375 C 8.890625 -3.203125 9.09375 -3.664062 9.09375 -4.25 C 9.09375 -4.613281 9.023438 -4.914062 8.890625 -5.15625 C 8.765625 -5.394531 8.550781 -5.597656 8.25 -5.765625 C 7.945312 -5.941406 7.535156 -6.09375 7.015625 -6.21875 L 5.078125 -6.65625 C 3.722656 -6.96875 2.710938 -7.484375 2.046875 -8.203125 C 1.390625 -8.921875 1.0625 -9.851562 1.0625 -11 C 1.0625 -11.851562 1.273438 -12.601562 1.703125 -13.25 C 2.128906 -13.894531 2.75 -14.394531 3.5625 -14.75 C 4.375 -15.101562 5.347656 -15.28125 6.484375 -15.28125 C 7.640625 -15.28125 8.628906 -15.128906 9.453125 -14.828125 C 10.285156 -14.523438 10.988281 -14.054688 11.5625 -13.421875 L 10.09375 -11.40625 L 9.828125 -11.40625 C 9.398438 -11.84375 8.910156 -12.171875 8.359375 -12.390625 C 7.816406 -12.617188 7.191406 -12.734375 6.484375 -12.734375 C 5.660156 -12.734375 5.035156 -12.585938 4.609375 -12.296875 C 4.191406 -12.015625 3.984375 -11.617188 3.984375 -11.109375 C 3.984375 -10.640625 4.128906 -10.265625 4.421875 -9.984375 C 4.722656 -9.703125 5.242188 -9.476562 5.984375 -9.3125 L 7.953125 -8.90625 C 9.421875 -8.59375 10.484375 -8.066406 11.140625 -7.328125 C 11.796875 -6.585938 12.125 -5.625 12.125 -4.4375 C 12.125 -3.5 11.921875 -2.679688 11.515625 -1.984375 C 11.117188 -1.285156 10.507812 -0.742188 9.6875 -0.359375 C 8.875 0.0234375 7.867188 0.21875 6.671875 0.21875 Z M 6.671875 0.21875 "/></g></g></g><g fill="#000000" fill-opacity="1"><g transform="translate(155.694772, 44.415605)"><g><path d="M 8.21875 0.21875 C 6.832031 0.21875 5.613281 -0.0625 4.5625 -0.625 C 3.507812 -1.1875 2.679688 -2.046875 2.078125 -3.203125 C 1.484375 -4.367188 1.1875 -5.8125 1.1875 -7.53125 C 1.1875 -9.257812 1.484375 -10.703125 2.078125 -11.859375 C 2.679688 -13.015625 3.507812 -13.875 4.5625 -14.4375 C 5.613281 -15 6.832031 -15.28125 8.21875 -15.28125 C 9.59375 -15.28125 10.804688 -15 11.859375 -14.4375 C 12.910156 -13.882812 13.734375 -13.023438 14.328125 -11.859375 C 14.921875 -10.703125 15.21875 -9.257812 15.21875 -7.53125 C 15.21875 -5.8125 14.921875 -4.367188 14.328125 -3.203125 C 13.734375 -2.046875 12.910156 -1.1875 11.859375 -0.625 C 10.804688 -0.0625 9.59375 0.21875 8.21875 0.21875 Z M 8.21875 -2.375 C 9.488281 -2.375 10.460938 -2.78125 11.140625 -3.59375 C 11.816406 -4.414062 12.15625 -5.726562 12.15625 -7.53125 C 12.15625 -9.332031 11.816406 -10.644531 11.140625 -11.46875 C 10.460938 -12.289062 9.488281 -12.703125 8.21875 -12.703125 C 6.925781 -12.703125 5.941406 -12.289062 5.265625 -11.46875 C 4.585938 -10.644531 4.25 -9.332031 4.25 -7.53125 C 4.25 -5.726562 4.585938 -4.414062 5.265625 -3.59375 C 5.941406 -2.78125 6.925781 -2.375 8.21875 -2.375 Z M 8.21875 -2.375 "/></g></g></g><g fill="#000000" fill-opacity="1"><g transform="translate(172.106735, 44.415605)"><g><path d="M 1.953125 0 L 1.953125 -15.0625 L 8.015625 -15.0625 C 9.566406 -15.0625 10.738281 -14.703125 11.53125 -13.984375 C 12.332031 -13.273438 12.734375 -12.285156 12.734375 -11.015625 C 12.734375 -10.097656 12.5 -9.347656 12.03125 -8.765625 C 11.570312 -8.179688 10.878906 -7.738281 9.953125 -7.4375 L 9.953125 -7.21875 C 10.429688 -7.007812 10.816406 -6.703125 11.109375 -6.296875 C 11.398438 -5.890625 11.675781 -5.289062 11.9375 -4.5 L 13.4375 0 L 10.375 0 L 8.90625 -4.5 C 8.75 -4.957031 8.578125 -5.3125 8.390625 -5.5625 C 8.203125 -5.8125 7.960938 -5.992188 7.671875 -6.109375 C 7.378906 -6.222656 7 -6.28125 6.53125 -6.28125 L 4.9375 -6.28125 L 4.9375 0 Z M 7.640625 -8.640625 C 9.085938 -8.640625 9.8125 -9.3125 9.8125 -10.65625 C 9.8125 -12.019531 9.085938 -12.703125 7.640625 -12.703125 L 4.9375 -12.703125 L 4.9375 -8.640625 Z M 7.640625 -8.640625 "/></g></g></g><g fill="#000000" fill-opacity="1"><g transform="translate(186.190309, 44.415605)"><g/></g></g><g fill="#000000" fill-opacity="1"><g transform="translate(191.167041, 44.415605)"><g><path d="M 7.78125 -15.0625 C 8.863281 -15.0625 9.785156 -14.863281 10.546875 -14.46875 C 11.316406 -14.082031 11.894531 -13.53125 12.28125 -12.8125 C 12.675781 -12.101562 12.875 -11.28125 12.875 -10.34375 C 12.875 -9.394531 12.675781 -8.566406 12.28125 -7.859375 C 11.894531 -7.148438 11.316406 -6.597656 10.546875 -6.203125 C 9.785156 -5.816406 8.863281 -5.625 7.78125 -5.625 L 4.9375 -5.625 L 4.9375 0 L 1.953125 0 L 1.953125 -15.0625 Z M 7.390625 -7.984375 C 9.046875 -7.984375 9.875 -8.769531 9.875 -10.34375 C 9.875 -11.914062 9.046875 -12.703125 7.390625 -12.703125 L 4.9375 -12.703125 L 4.9375 -7.984375 Z M 7.390625 -7.984375 "/></g></g></g><g fill="#000000" fill-opacity="1"><g transform="translate(204.931243, 44.415605)"><g><path d="M 8.21875 0.21875 C 6.832031 0.21875 5.613281 -0.0625 4.5625 -0.625 C 3.507812 -1.1875 2.679688 -2.046875 2.078125 -3.203125 C 1.484375 -4.367188 1.1875 -5.8125 1.1875 -7.53125 C 1.1875 -9.257812 1.484375 -10.703125 2.078125 -11.859375 C 2.679688 -13.015625 3.507812 -13.875 4.5625 -14.4375 C 5.613281 -15 6.832031 -15.28125 8.21875 -15.28125 C 9.59375 -15.28125 10.804688 -15 11.859375 -14.4375 C 12.910156 -13.882812 13.734375 -13.023438 14.328125 -11.859375 C 14.921875 -10.703125 15.21875 -9.257812 15.21875 -7.53125 C 15.21875 -5.8125 14.921875 -4.367188 14.328125 -3.203125 C 13.734375 -2.046875 12.910156 -1.1875 11.859375 -0.625 C 10.804688 -0.0625 9.59375 0.21875 8.21875 0.21875 Z M 8.21875 -2.375 C 9.488281 -2.375 10.460938 -2.78125 11.140625 -3.59375 C 11.816406 -4.414062 12.15625 -5.726562 12.15625 -7.53125 C 12.15625 -9.332031 11.816406 -10.644531 11.140625 -11.46875 C 10.460938 -12.289062 9.488281 -12.703125 8.21875 -12.703125 C 6.925781 -12.703125 5.941406 -12.289062 5.265625 -11.46875 C 4.585938 -10.644531 4.25 -9.332031 4.25 -7.53125 C 4.25 -5.726562 4.585938 -4.414062 5.265625 -3.59375 C 5.941406 -2.78125 6.925781 -2.375 8.21875 -2.375 Z M 8.21875 -2.375 "/></g></g></g><g fill="#000000" fill-opacity="1"><g transform="translate(221.3432, 44.415605)"><g><path d="M 7.1875 0 L 3.859375 0 L 0.40625 -15.0625 L 3.375 -15.0625 L 5.65625 -4.46875 L 5.921875 -4.46875 L 8.609375 -15.0625 L 11.15625 -15.0625 L 13.921875 -4.46875 L 14.171875 -4.46875 L 16.453125 -15.0625 L 19.328125 -15.0625 L 15.890625 0 L 12.546875 0 L 9.90625 -9.71875 L 9.6875 -9.71875 Z M 7.1875 0 "/></g></g></g><g fill="#000000" fill-opacity="1"><g transform="translate(241.062276, 44.415605)"><g><path d="M 4.9375 -6.625 L 4.9375 -2.5 L 12.125 -2.5 L 12.125 0 L 1.953125 0 L 1.953125 -15.0625 L 11.96875 -15.0625 L 11.96875 -12.578125 L 4.9375 -12.578125 L 4.9375 -9.046875 L 11.078125 -9.046875 L 11.078125 -6.625 Z M 4.9375 -6.625 "/></g></g></g><g fill="#000000" fill-opacity="1"><g transform="translate(254.012575, 44.415605)"><g><path d="M 1.953125 0 L 1.953125 -15.0625 L 8.015625 -15.0625 C 9.566406 -15.0625 10.738281 -14.703125 11.53125 -13.984375 C 12.332031 -13.273438 12.734375 -12.285156 12.734375 -11.015625 C 12.734375 -10.097656 12.5 -9.347656 12.03125 -8.765625 C 11.570312 -8.179688 10.878906 -7.738281 9.953125 -7.4375 L 9.953125 -7.21875 C 10.429688 -7.007812 10.816406 -6.703125 11.109375 -6.296875 C 11.398438 -5.890625 11.675781 -5.289062 11.9375 -4.5 L 13.4375 0 L 10.375 0 L 8.90625 -4.5 C 8.75 -4.957031 8.578125 -5.3125 8.390625 -5.5625 C 8.203125 -5.8125 7.960938 -5.992188 7.671875 -6.109375 C 7.378906 -6.222656 7 -6.28125 6.53125 -6.28125 L 4.9375 -6.28125 L 4.9375 0 Z M 7.640625 -8.640625 C 9.085938 -8.640625 9.8125 -9.3125 9.8125 -10.65625 C 9.8125 -12.019531 9.085938 -12.703125 7.640625 -12.703125 L 4.9375 -12.703125 L 4.9375 -8.640625 Z M 7.640625 -8.640625 "/></g></g></g><g fill="#000000" fill-opacity="1"><g transform="translate(268.096158, 44.415605)"><g><path d="M 7.1875 0 L 3.859375 0 L 0.40625 -15.0625 L 3.375 -15.0625 L 5.65625 -4.46875 L 5.921875 -4.46875 L 8.609375 -15.0625 L 11.15625 -15.0625 L 13.921875 -4.46875 L 14.171875 -4.46875 L 16.453125 -15.0625 L 19.328125 -15.0625 L 15.890625 0 L 12.546875 0 L 9.90625 -9.71875 L 9.6875 -9.71875 Z M 7.1875 0 "/></g></g></g><g fill="#000000" fill-opacity="1"><g transform="translate(287.815227, 44.415605)"><g><path d="M 14.46875 0 L 11.328125 0 L 10.1875 -3.46875 L 4.421875 -3.46875 L 3.28125 0 L 0.234375 0 L 5.4375 -15.0625 L 9.25 -15.0625 Z M 7.15625 -11.921875 L 5.21875 -5.984375 L 9.375 -5.984375 L 7.421875 -11.921875 Z M 7.15625 -11.921875 "/></g></g></g><g fill="#000000" fill-opacity="1"><g transform="translate(302.496363, 44.415605)"><g><path d="M 6.671875 0.21875 C 5.628906 0.21875 4.703125 0.0859375 3.890625 -0.171875 C 3.078125 -0.429688 2.398438 -0.769531 1.859375 -1.1875 C 1.316406 -1.601562 0.898438 -2.0625 0.609375 -2.5625 L 2.25 -4.5625 L 2.5 -4.5625 C 2.957031 -3.894531 3.535156 -3.359375 4.234375 -2.953125 C 4.929688 -2.554688 5.742188 -2.359375 6.671875 -2.359375 C 7.472656 -2.359375 8.078125 -2.523438 8.484375 -2.859375 C 8.890625 -3.203125 9.09375 -3.664062 9.09375 -4.25 C 9.09375 -4.613281 9.023438 -4.914062 8.890625 -5.15625 C 8.765625 -5.394531 8.550781 -5.597656 8.25 -5.765625 C 7.945312 -5.941406 7.535156 -6.09375 7.015625 -6.21875 L 5.078125 -6.65625 C 3.722656 -6.96875 2.710938 -7.484375 2.046875 -8.203125 C 1.390625 -8.921875 1.0625 -9.851562 1.0625 -11 C 1.0625 -11.851562 1.273438 -12.601562 1.703125 -13.25 C 2.128906 -13.894531 2.75 -14.394531 3.5625 -14.75 C 4.375 -15.101562 5.347656 -15.28125 6.484375 -15.28125 C 7.640625 -15.28125 8.628906 -15.128906 9.453125 -14.828125 C 10.285156 -14.523438 10.988281 -14.054688 11.5625 -13.421875 L 10.09375 -11.40625 L 9.828125 -11.40625 C 9.398438 -11.84375 8.910156 -12.171875 8.359375 -12.390625 C 7.816406 -12.617188 7.191406 -12.734375 6.484375 -12.734375 C 5.660156 -12.734375 5.035156 -12.585938 4.609375 -12.296875 C 4.191406 -12.015625 3.984375 -11.617188 3.984375 -11.109375 C 3.984375 -10.640625 4.128906 -10.265625 4.421875 -9.984375 C 4.722656 -9.703125 5.242188 -9.476562 5.984375 -9.3125 L 7.953125 -8.90625 C 9.421875 -8.59375 10.484375 -8.066406 11.140625 -7.328125 C 11.796875 -6.585938 12.125 -5.625 12.125 -4.4375 C 12.125 -3.5 11.921875 -2.679688 11.515625 -1.984375 C 11.117188 -1.285156 10.507812 -0.742188 9.6875 -0.359375 C 8.875 0.0234375 7.867188 0.21875 6.671875 0.21875 Z M 6.671875 0.21875 "/></g></g></g><g fill="#000000" fill-opacity="1"><g transform="translate(315.436361, 44.415605)"><g><path d="M 11.6875 -9.40625 L 11.6875 -15.0625 L 14.65625 -15.0625 L 14.65625 0 L 11.6875 0 L 11.6875 -6.859375 L 4.9375 -6.859375 L 4.9375 0 L 1.953125 0 L 1.953125 -15.0625 L 4.9375 -15.0625 L 4.9375 -9.40625 Z M 11.6875 -9.40625 "/></g></g></g></g></g></g></g></g></g></mask><clipPath id="ce47e4db4a"><path d="M 5.980469 0.0546875 L 333 0.0546875 L 333 74.945312 L 5.980469 74.945312 Z M 5.980469 0.0546875 " clip-rule="nonzero"/></clipPath><clipPath id="add0d55f14"><rect x="0" width="333" y="0" height="75"/></clipPath><clipPath id="9b2ae84a28"><rect x="0" width="333" y="0" height="75"/></clipPath><clipPath id="35dc0e3fea"><rect x="0" width="333" y="0" height="75"/></clipPath><clipPath id="d151965ee5"><path d="M 41.195312 25.714844 L 48.519531 25.714844 L 48.519531 33.039062 L 41.195312 33.039062 Z M 41.195312 25.714844 " clip-rule="nonzero"/></clipPath><clipPath id="718efc8a98"><path d="M 44.855469 25.714844 C 42.835938 25.714844 41.195312 27.355469 41.195312 29.378906 C 41.195312 31.398438 42.835938 33.039062 44.855469 33.039062 C 46.878906 33.039062 48.519531 31.398438 48.519531 29.378906 C 48.519531 27.355469 46.878906 25.714844 44.855469 25.714844 Z M 44.855469 25.714844 " clip-rule="nonzero"/></clipPath><clipPath id="760d6aabc8"><path d="M 0.195312 0.714844 L 7.519531 0.714844 L 7.519531 8.039062 L 0.195312 8.039062 Z M 0.195312 0.714844 " clip-rule="nonzero"/></clipPath><clipPath id="3e0536e960"><path d="M 3.855469 0.714844 C 1.835938 0.714844 0.195312 2.355469 0.195312 4.378906 C 0.195312 6.398438 1.835938 8.039062 3.855469 8.039062 C 5.878906 8.039062 7.519531 6.398438 7.519531 4.378906 C 7.519531 2.355469 5.878906 0.714844 3.855469 0.714844 Z M 3.855469 0.714844 " clip-rule="nonzero"/></clipPath><clipPath id="839ad72b12"><rect x="0" width="8" y="0" height="9"/></clipPath><clipPath id="3a6c756c85"><path d="M 44.011719 25.714844 L 51.335938 25.714844 L 51.335938 33.039062 L 44.011719 33.039062 Z M 44.011719 25.714844 " clip-rule="nonzero"/></clipPath><clipPath id="3e00a5b3b1"><path d="M 47.671875 25.714844 C 45.648438 25.714844 44.011719 27.355469 44.011719 29.378906 C 44.011719 31.398438 45.648438 33.039062 47.671875 33.039062 C 49.695312 33.039062 51.335938 31.398438 51.335938 29.378906 C 51.335938 27.355469 49.695312 25.714844 47.671875 25.714844 Z M 47.671875 25.714844 " clip-rule="nonzero"/></clipPath><clipPath id="d58d7b0f54"><path d="M 0.0117188 0.714844 L 7.335938 0.714844 L 7.335938 8.039062 L 0.0117188 8.039062 Z M 0.0117188 0.714844 " clip-rule="nonzero"/></clipPath><clipPath id="04d357c0bd"><path d="M 3.671875 0.714844 C 1.648438 0.714844 0.0117188 2.355469 0.0117188 4.378906 C 0.0117188 6.398438 1.648438 8.039062 3.671875 8.039062 C 5.695312 8.039062 7.335938 6.398438 7.335938 4.378906 C 7.335938 2.355469 5.695312 0.714844 3.671875 0.714844 Z M 3.671875 0.714844 " clip-rule="nonzero"/></clipPath><clipPath id="582a35953a"><rect x="0" width="8" y="0" height="9"/></clipPath><clipPath id="db0811ff2f"><path d="M 44.769531 30.136719 L 50.574219 30.136719 L 50.574219 35.941406 L 44.769531 35.941406 Z M 44.769531 30.136719 " clip-rule="nonzero"/></clipPath><clipPath id="88487f9662"><path d="M 47.671875 30.136719 C 46.070312 30.136719 44.769531 31.4375 44.769531 33.039062 C 44.769531 34.640625 46.070312 35.941406 47.671875 35.941406 C 49.273438 35.941406 50.574219 34.640625 50.574219 33.039062 C 50.574219 31.4375 49.273438 30.136719 47.671875 30.136719 Z M 47.671875 30.136719 " clip-rule="nonzero"/></clipPath><clipPath id="2169b9b892"><path d="M 0.769531 0.136719 L 6.574219 0.136719 L 6.574219 5.941406 L 0.769531 5.941406 Z M 0.769531 0.136719 " clip-rule="nonzero"/></clipPath><clipPath id="2fa342ca38"><path d="M 3.671875 0.136719 C 2.070312 0.136719 0.769531 1.4375 0.769531 3.039062 C 0.769531 4.640625 2.070312 5.941406 3.671875 5.941406 C 5.273438 5.941406 6.574219 4.640625 6.574219 3.039062 C 6.574219 1.4375 5.273438 0.136719 3.671875 0.136719 Z M 3.671875 0.136719 " clip-rule="nonzero"/></clipPath><clipPath id="e4aa039197"><rect x="0" width="7" y="0" height="6"/></clipPath><clipPath id="1276e93a90"><path d="M 38.378906 26.765625 L 45.703125 26.765625 L 45.703125 34.089844 L 38.378906 34.089844 Z M 38.378906 26.765625 " clip-rule="nonzero"/></clipPath><clipPath id="ba3d11caac"><path d="M 42.039062 26.765625 C 40.019531 26.765625 38.378906 28.40625 38.378906 30.425781 C 38.378906 32.449219 40.019531 34.089844 42.039062 34.089844 C 44.0625 34.089844 45.703125 32.449219 45.703125 30.425781 C 45.703125 28.40625 44.0625 26.765625 42.039062 26.765625 Z M 42.039062 26.765625 " clip-rule="nonzero"/></clipPath><clipPath id="b4cee022e8"><path d="M 0.378906 0.765625 L 7.703125 0.765625 L 7.703125 8.089844 L 0.378906 8.089844 Z M 0.378906 0.765625 " clip-rule="nonzero"/></clipPath><clipPath id="2325a386c3"><path d="M 4.039062 0.765625 C 2.019531 0.765625 0.378906 2.40625 0.378906 4.425781 C 0.378906 6.449219 2.019531 8.089844 4.039062 8.089844 C 6.0625 8.089844 7.703125 6.449219 7.703125 4.425781 C 7.703125 2.40625 6.0625 0.765625 4.039062 0.765625 Z M 4.039062 0.765625 " clip-rule="nonzero"/></clipPath><clipPath id="8a974b5ef3"><rect x="0" width="8" y="0" height="9"/></clipPath><clipPath id="5a2d2b0df7"><path d="M 41.195312 26.765625 L 48.519531 26.765625 L 48.519531 34.089844 L 41.195312 34.089844 Z M 41.195312 26.765625 " clip-rule="nonzero"/></clipPath><clipPath id="4b27d01844"><path d="M 44.855469 26.765625 C 42.835938 26.765625 41.195312 28.40625 41.195312 30.425781 C 41.195312 32.449219 42.835938 34.089844 44.855469 34.089844 C 46.878906 34.089844 48.519531 32.449219 48.519531 30.425781 C 48.519531 28.40625 46.878906 26.765625 44.855469 26.765625 Z M 44.855469 26.765625 " clip-rule="nonzero"/></clipPath><clipPath id="53218a6bb7"><path d="M 0.195312 0.765625 L 7.519531 0.765625 L 7.519531 8.089844 L 0.195312 8.089844 Z M 0.195312 0.765625 " clip-rule="nonzero"/></clipPath><clipPath id="14ecfc6b18"><path d="M 3.855469 0.765625 C 1.835938 0.765625 0.195312 2.40625 0.195312 4.425781 C 0.195312 6.449219 1.835938 8.089844 3.855469 8.089844 C 5.878906 8.089844 7.519531 6.449219 7.519531 4.425781 C 7.519531 2.40625 5.878906 0.765625 3.855469 0.765625 Z M 3.855469 0.765625 " clip-rule="nonzero"/></clipPath><clipPath id="b78dfc406e"><rect x="0" width="8" y="0" height="9"/></clipPath><clipPath id="683ed813a4"><path d="M 44.855469 34.089844 L 49.363281 34.089844 L 49.363281 38.597656 L 44.855469 38.597656 Z M 44.855469 34.089844 " clip-rule="nonzero"/></clipPath><clipPath id="eed652f3c7"><path d="M 47.109375 34.089844 C 45.867188 34.089844 44.855469 35.097656 44.855469 36.34375 C 44.855469 37.589844 45.867188 38.597656 47.109375 38.597656 C 48.355469 38.597656 49.363281 37.589844 49.363281 36.34375 C 49.363281 35.097656 48.355469 34.089844 47.109375 34.089844 Z M 47.109375 34.089844 " clip-rule="nonzero"/></clipPath><clipPath id="56aa12c414"><path d="M 0.855469 0.0898438 L 5.363281 0.0898438 L 5.363281 4.597656 L 0.855469 4.597656 Z M 0.855469 0.0898438 " clip-rule="nonzero"/></clipPath><clipPath id="392bda8056"><path d="M 3.109375 0.0898438 C 1.867188 0.0898438 0.855469 1.097656 0.855469 2.34375 C 0.855469 3.589844 1.867188 4.597656 3.109375 4.597656 C 4.355469 4.597656 5.363281 3.589844 5.363281 2.34375 C 5.363281 1.097656 4.355469 0.0898438 3.109375 0.0898438 Z M 3.109375 0.0898438 " clip-rule="nonzero"/></clipPath><clipPath id="bd277e0bf9"><rect x="0" width="6" y="0" height="5"/></clipPath><clipPath id="d99a0719db"><path d="M 42.601562 31.433594 L 47.109375 31.433594 L 47.109375 35.941406 L 42.601562 35.941406 Z M 42.601562 31.433594 " clip-rule="nonzero"/></clipPath><clipPath id="ea8a31c086"><path d="M 44.855469 31.433594 C 43.613281 31.433594 42.601562 32.441406 42.601562 33.6875 C 42.601562 34.933594 43.613281 35.941406 44.855469 35.941406 C 46.101562 35.941406 47.109375 34.933594 47.109375 33.6875 C 47.109375 32.441406 46.101562 31.433594 44.855469 31.433594 Z M 44.855469 31.433594 " clip-rule="nonzero"/></clipPath><clipPath id="451441bff3"><path d="M 0.601562 0.433594 L 5.109375 0.433594 L 5.109375 4.941406 L 0.601562 4.941406 Z M 0.601562 0.433594 " clip-rule="nonzero"/></clipPath><clipPath id="874cdfe068"><path d="M 2.855469 0.433594 C 1.613281 0.433594 0.601562 1.441406 0.601562 2.6875 C 0.601562 3.933594 1.613281 4.941406 2.855469 4.941406 C 4.101562 4.941406 5.109375 3.933594 5.109375 2.6875 C 5.109375 1.441406 4.101562 0.433594 2.855469 0.433594 Z M 2.855469 0.433594 " clip-rule="nonzero"/></clipPath><clipPath id="c574bda816"><rect x="0" width="6" y="0" height="5"/></clipPath><clipPath id="a55680c576"><path d="M 43 24.144531 L 50 24.144531 L 50 27 L 43 27 Z M 43 24.144531 " clip-rule="nonzero"/></clipPath><clipPath id="01954dca08"><path d="M 42.601562 29 L 50.839844 29 L 50.839844 35.378906 L 42.601562 35.378906 Z M 42.601562 29 " clip-rule="nonzero"/></clipPath><clipPath id="13b8267d37"><path d="M 44 29 L 47 29 L 47 35.378906 L 44 35.378906 Z M 44 29 " clip-rule="nonzero"/></clipPath><clipPath id="0acb5c7249"><path d="M 46 29 L 49 29 L 49 35.378906 L 46 35.378906 Z M 46 29 " clip-rule="nonzero"/></clipPath></defs><g clip-path="url(#28cd08ecc5)"><path fill="#ffffff" d="M 0 0.0546875 L 352 0.0546875 L 352 74.945312 L 0 74.945312 Z M 0 0.0546875 " fill-opacity="1" fill-rule="nonzero"/><path fill="#0c2340" d="M 0 0.0546875 L 352 0.0546875 L 352 74.945312 L 0 74.945312 Z M 0 0.0546875 " fill-opacity="1" fill-rule="nonzero"/></g><path fill="#04b1dc" d="M 26.421875 38.730469 L 17.820312 38.730469 C 17.636719 38.730469 17.433594 38.8125 17.332031 38.976562 L 17.25 39.078125 L 17.027344 39.078125 C 17.007812 39.054688 16.96875 39.015625 16.945312 38.996094 L 16.519531 38.652344 C 16.417969 38.570312 16.277344 38.507812 16.136719 38.507812 L 11.042969 38.507812 C 10.78125 38.507812 10.535156 38.691406 10.453125 38.933594 L 10.128906 39.929688 C 10.050781 40.191406 10.152344 40.476562 10.375 40.617188 L 10.617188 40.78125 C 10.679688 40.820312 10.71875 40.882812 10.738281 40.941406 C 10.757812 41.023438 10.738281 41.085938 10.699219 41.144531 L 7.109375 46.421875 C 7.007812 46.5625 6.964844 46.746094 7.027344 46.90625 C 7.066406 47.070312 7.167969 47.210938 7.332031 47.3125 L 7.695312 47.515625 C 7.796875 47.554688 7.898438 47.597656 8 47.597656 C 8.203125 47.597656 8.386719 47.496094 8.507812 47.332031 L 8.75 46.988281 L 10.414062 47.941406 C 10.515625 48.003906 10.617188 48.023438 10.71875 48.023438 C 10.757812 48.023438 10.820312 48.023438 10.859375 48.003906 L 11.875 47.757812 C 12.015625 47.71875 12.140625 47.636719 12.21875 47.515625 L 15.851562 42.425781 C 15.972656 42.261719 15.992188 42.019531 15.910156 41.816406 L 15.609375 41.125 L 16.175781 41.125 C 16.339844 41.125 16.5 41.066406 16.601562 40.941406 L 16.988281 40.558594 C 17.007812 40.539062 17.007812 40.515625 17.027344 40.496094 L 17.699219 40.660156 C 17.738281 40.660156 17.796875 40.679688 17.839844 40.679688 L 24.65625 40.679688 L 26.480469 38.773438 C 26.460938 38.730469 26.441406 38.730469 26.421875 38.730469 Z M 10.78125 47.65625 C 10.71875 47.679688 10.636719 47.65625 10.578125 47.636719 L 8.933594 46.703125 L 12.769531 41.289062 C 12.808594 41.226562 12.890625 41.1875 12.96875 41.1875 L 14.632812 41.167969 C 14.472656 41.289062 14.308594 41.390625 14.125 41.511719 L 14.046875 41.570312 C 14.027344 41.59375 13.984375 41.613281 13.984375 41.613281 C 13.964844 41.613281 13.945312 41.632812 13.925781 41.632812 C 13.800781 41.632812 13.660156 41.632812 13.519531 41.613281 C 13.4375 41.613281 13.375 41.613281 13.296875 41.613281 L 13.214844 41.613281 C 13.171875 41.613281 13.132812 41.613281 13.113281 41.632812 C 13.050781 41.652344 12.992188 41.671875 12.929688 41.695312 C 12.808594 41.753906 12.707031 41.855469 12.625 41.957031 C 12.585938 42.019531 12.566406 42.058594 12.566406 42.078125 L 12.503906 42.179688 C 12.363281 42.445312 12.21875 42.726562 12.078125 43.011719 C 11.792969 43.582031 11.53125 44.148438 11.265625 44.675781 C 11.144531 44.941406 11.023438 45.203125 10.921875 45.445312 C 10.902344 45.507812 10.859375 45.570312 10.839844 45.628906 C 10.820312 45.691406 10.78125 45.75 10.757812 45.871094 C 10.71875 46.074219 10.757812 46.277344 10.882812 46.421875 C 11.042969 46.625 11.183594 46.765625 11.308594 46.925781 C 11.429688 47.070312 11.550781 47.191406 11.632812 47.3125 C 11.671875 47.375 11.734375 47.414062 11.773438 47.457031 Z M 15.585938 42.199219 L 11.957031 47.292969 C 11.914062 47.230469 11.894531 47.191406 11.855469 47.109375 C 11.710938 46.867188 11.511719 46.542969 11.246094 46.136719 C 11.226562 46.097656 11.207031 46.015625 11.246094 45.972656 C 11.246094 45.953125 11.265625 45.914062 11.308594 45.851562 C 11.347656 45.792969 11.367188 45.730469 11.410156 45.667969 C 11.550781 45.425781 11.671875 45.183594 11.835938 44.917969 C 12.117188 44.410156 12.421875 43.84375 12.707031 43.296875 C 12.847656 43.011719 12.992188 42.726562 13.132812 42.464844 L 13.214844 42.28125 C 13.214844 42.261719 13.234375 42.261719 13.253906 42.242188 L 13.316406 42.242188 C 13.398438 42.242188 13.457031 42.242188 13.539062 42.242188 C 13.699219 42.242188 13.84375 42.222656 14.003906 42.222656 C 14.125 42.199219 14.25 42.160156 14.351562 42.097656 C 14.410156 42.058594 14.429688 42.039062 14.453125 42.019531 L 14.53125 41.957031 C 14.734375 41.773438 14.9375 41.613281 15.101562 41.449219 C 15.183594 41.390625 15.242188 41.328125 15.304688 41.269531 L 15.609375 41.957031 C 15.648438 42.039062 15.648438 42.121094 15.585938 42.199219 Z M 15.585938 42.199219 " fill-opacity="1" fill-rule="nonzero"/><path fill="#ffffff" d="M 49.34375 34.125 L 47.417969 34.328125 C 46.769531 34.328125 46.261719 35.019531 46.261719 35.871094 L 46.097656 38.042969 L 45.9375 35.871094 C 45.9375 35.019531 45.410156 34.328125 44.78125 34.328125 L 42.851562 34.125 L 44.78125 33.921875 C 45.429688 33.921875 45.9375 33.234375 45.9375 32.382812 L 46.097656 30.210938 L 46.261719 32.382812 C 46.261719 33.234375 46.789062 33.921875 47.417969 33.921875 Z M 49.34375 34.125 " fill-opacity="1" fill-rule="nonzero"/><path fill="#ffffff" d="M 43.117188 30.496094 L 41.898438 30.617188 C 41.492188 30.617188 41.148438 31.0625 41.148438 31.609375 L 41.046875 32.992188 L 40.945312 31.609375 C 40.945312 31.0625 40.621094 30.617188 40.195312 30.617188 L 38.976562 30.496094 L 40.195312 30.375 C 40.601562 30.375 40.945312 29.925781 40.945312 29.378906 L 41.046875 28 L 41.148438 29.378906 C 41.148438 29.925781 41.472656 30.375 41.898438 30.375 Z M 43.117188 30.496094 " fill-opacity="1" fill-rule="nonzero"/><path fill="#ffffff" d="M 50.726562 28.464844 L 49.507812 28.589844 C 49.101562 28.589844 48.757812 29.035156 48.757812 29.582031 L 48.65625 30.960938 L 48.554688 29.582031 C 48.554688 29.035156 48.230469 28.589844 47.804688 28.589844 L 46.585938 28.464844 L 47.804688 28.34375 C 48.210938 28.34375 48.554688 27.898438 48.554688 27.351562 L 48.65625 25.972656 L 48.757812 27.351562 C 48.757812 27.898438 49.082031 28.34375 49.507812 28.34375 Z M 50.726562 28.464844 " fill-opacity="1" fill-rule="nonzero"/><path fill="#04b1dc" d="M 34.453125 49.402344 L 41.292969 49.402344 C 31.816406 53.703125 22.34375 53.074219 19.238281 47.597656 C 18.792969 46.804688 18.488281 45.953125 18.347656 45.039062 C 18.488281 45.425781 18.652344 45.792969 18.855469 46.15625 C 21.1875 50.273438 27.476562 51.371094 34.453125 49.402344 Z M 34.453125 49.402344 " fill-opacity="1" fill-rule="nonzero"/><path fill="#04b1dc" d="M 53.625 40.152344 C 53.21875 40.660156 52.773438 41.167969 52.308594 41.652344 C 52.0625 41.894531 51.839844 42.140625 51.597656 42.382812 C 51.3125 42.667969 51.007812 42.953125 50.703125 43.234375 L 46.140625 43.234375 C 46.625 42.828125 47.09375 42.425781 47.539062 41.996094 C 47.722656 41.835938 47.90625 41.652344 48.066406 41.492188 C 48.9375 40.640625 49.710938 39.746094 50.398438 38.851562 C 53.585938 34.675781 54.660156 30.25 52.8125 26.964844 C 52.53125 26.457031 52.164062 25.972656 51.757812 25.566406 C 48.535156 22.257812 41.859375 21.894531 34.878906 24.511719 C 44.3125 20.269531 53.707031 20.917969 56.789062 26.375 C 58.921875 30.171875 57.5 35.363281 53.625 40.152344 Z M 53.625 40.152344 " fill-opacity="1" fill-rule="nonzero"/><path fill="#ffffff" d="M 44.152344 24.390625 C 40.886719 24.734375 37.234375 25.910156 33.664062 27.9375 C 33.378906 28.101562 33.117188 28.261719 32.832031 28.425781 C 32.691406 28.507812 32.566406 28.589844 32.425781 28.667969 C 32.40625 28.667969 32.40625 28.691406 32.386719 28.691406 C 32.261719 28.769531 32.140625 28.851562 32.019531 28.914062 C 31.898438 28.992188 31.757812 29.074219 31.632812 29.175781 C 31.472656 29.277344 31.332031 29.378906 31.1875 29.480469 C 30.964844 29.644531 30.722656 29.804688 30.5 29.96875 C 30.253906 30.148438 30.011719 30.332031 29.769531 30.515625 C 29.667969 30.597656 29.585938 30.65625 29.484375 30.738281 C 29.117188 31.042969 28.753906 31.347656 28.410156 31.652344 C 28.308594 31.753906 28.1875 31.835938 28.085938 31.933594 C 27.476562 32.503906 26.886719 33.070312 26.359375 33.679688 C 26.277344 33.761719 26.21875 33.84375 26.15625 33.921875 C 25.773438 34.371094 25.40625 34.816406 25.0625 35.261719 C 25.019531 35.324219 24.960938 35.40625 24.917969 35.464844 C 24.554688 35.972656 24.210938 36.5 23.925781 37.007812 C 23.886719 37.089844 23.84375 37.167969 23.804688 37.230469 C 23.703125 37.394531 23.621094 37.574219 23.539062 37.738281 C 23.480469 37.839844 23.4375 37.941406 23.398438 38.042969 C 23.359375 38.101562 23.335938 38.164062 23.316406 38.222656 C 23.296875 38.265625 23.277344 38.324219 23.257812 38.386719 L 20.234375 38.386719 C 21.898438 34.714844 25.589844 30.839844 30.621094 28 C 30.804688 27.898438 30.984375 27.796875 31.1875 27.695312 C 31.230469 27.675781 31.269531 27.65625 31.308594 27.632812 C 31.492188 27.535156 31.675781 27.453125 31.859375 27.351562 L 31.878906 27.351562 C 32.082031 27.25 32.285156 27.148438 32.507812 27.046875 C 32.710938 26.945312 32.914062 26.84375 33.117188 26.761719 C 33.339844 26.660156 33.542969 26.578125 33.765625 26.476562 L 33.785156 26.476562 C 34.007812 26.398438 34.210938 26.296875 34.433594 26.214844 C 34.636719 26.132812 34.820312 26.050781 35.023438 25.992188 C 35.0625 25.972656 35.105469 25.949219 35.144531 25.949219 C 35.328125 25.890625 35.507812 25.828125 35.671875 25.769531 C 35.753906 25.746094 35.8125 25.707031 35.894531 25.6875 C 36.058594 25.625 36.21875 25.585938 36.382812 25.523438 C 36.625 25.445312 36.867188 25.382812 37.089844 25.300781 C 37.253906 25.261719 37.4375 25.199219 37.597656 25.160156 C 37.640625 25.140625 37.679688 25.140625 37.71875 25.117188 C 37.902344 25.078125 38.085938 25.019531 38.269531 24.976562 L 38.289062 24.976562 C 38.492188 24.9375 38.695312 24.875 38.898438 24.835938 L 38.917969 24.835938 C 39.121094 24.792969 39.324219 24.753906 39.527344 24.714844 C 39.730469 24.671875 39.933594 24.632812 40.136719 24.613281 C 40.15625 24.613281 40.15625 24.613281 40.175781 24.613281 C 40.359375 24.589844 40.5625 24.550781 40.742188 24.53125 C 40.925781 24.511719 41.109375 24.488281 41.292969 24.46875 C 41.3125 24.46875 41.332031 24.46875 41.371094 24.46875 C 41.535156 24.449219 41.71875 24.449219 41.878906 24.429688 C 41.921875 24.429688 41.980469 24.429688 42.023438 24.429688 C 42.183594 24.429688 42.347656 24.410156 42.507812 24.410156 L 42.527344 24.410156 C 42.710938 24.410156 42.894531 24.410156 43.097656 24.410156 C 43.441406 24.347656 43.785156 24.347656 44.152344 24.390625 Z M 44.152344 24.390625 " fill-opacity="1" fill-rule="nonzero"/><path fill="#ffffff" d="M 22.324219 41.976562 L 19.28125 41.976562 C 19.28125 42.121094 19.28125 42.242188 19.28125 42.382812 C 19.28125 42.464844 19.28125 42.566406 19.28125 42.648438 C 19.28125 42.6875 19.28125 42.75 19.28125 42.789062 C 19.28125 42.871094 19.28125 42.929688 19.300781 43.011719 C 19.300781 43.054688 19.300781 43.09375 19.320312 43.152344 C 19.320312 43.253906 19.339844 43.355469 19.359375 43.457031 C 19.382812 43.539062 19.382812 43.621094 19.402344 43.703125 C 19.402344 43.722656 19.402344 43.742188 19.421875 43.761719 C 19.441406 43.863281 19.460938 43.964844 19.503906 44.085938 C 19.523438 44.167969 19.542969 44.25 19.585938 44.332031 C 19.605469 44.390625 19.625 44.433594 19.644531 44.492188 C 19.664062 44.574219 19.707031 44.636719 19.726562 44.714844 C 19.746094 44.777344 19.765625 44.816406 19.785156 44.878906 C 19.808594 44.941406 19.847656 45 19.867188 45.0625 C 19.929688 45.183594 19.988281 45.304688 20.050781 45.40625 C 21.632812 48.183594 25.367188 49.34375 29.929688 48.855469 C 26.785156 48.632812 24.3125 47.476562 23.09375 45.324219 C 22.585938 44.410156 22.34375 43.398438 22.34375 42.300781 C 22.324219 42.199219 22.324219 42.097656 22.324219 41.976562 Z M 22.324219 41.976562 " fill-opacity="1" fill-rule="nonzero"/><path fill="#04b1dc" d="M 19.339844 41.449219 L 25.628906 41.449219 L 25.933594 41.125 C 27.050781 39.96875 29.402344 37.59375 31.148438 35.851562 L 35.347656 40.640625 L 36.949219 40.640625 L 40.621094 35.363281 L 47.195312 41.714844 C 47.378906 41.53125 47.539062 41.367188 47.703125 41.1875 L 40.804688 34.53125 L 35.691406 36.175781 L 30.902344 35.039062 L 30.761719 35.179688 C 26.886719 39.054688 25.46875 40.515625 24.941406 41.105469 L 17.453125 41.105469 C 17.292969 41.105469 17.167969 41.1875 17.191406 41.265625 C 17.191406 41.289062 17.191406 41.308594 17.210938 41.308594 C 17.269531 41.367188 17.394531 41.429688 17.535156 41.429688 L 18.367188 41.429688 Z M 19.339844 41.449219 " fill-opacity="1" fill-rule="nonzero"/><g clip-path="url(#4e01eaddc6)"><path fill="#04b1dc" d="M 60.441406 41.570312 L 53.21875 41.570312 C 53.015625 41.816406 52.792969 42.058594 52.550781 42.300781 L 60.441406 42.300781 L 61.496094 42.648438 C 61.597656 42.179688 61.617188 41.714844 61.539062 41.246094 C 61.089844 41.390625 60.6875 41.511719 60.441406 41.570312 Z M 60.441406 41.570312 " fill-opacity="1" fill-rule="nonzero"/></g><path fill="#ffffff" d="M 31.128906 36.277344 L 29.363281 38.082031 L 31.105469 36.824219 L 33.5625 39.136719 Z M 31.128906 36.277344 " fill-opacity="1" fill-rule="nonzero"/><path fill="#ffffff" d="M 40.703125 35.808594 L 39.160156 37.820312 L 40.742188 36.359375 L 43.460938 38.367188 Z M 40.703125 35.808594 " fill-opacity="1" fill-rule="nonzero"/><path fill="#ffffff" d="M 29.644531 38.347656 L 30.621094 38.347656 L 30.621094 39.582031 L 29.644531 39.582031 Z M 29.644531 38.347656 " fill-opacity="1" fill-rule="nonzero"/><path fill="#ffffff" d="M 30.925781 38.347656 L 31.898438 38.347656 L 31.898438 39.582031 L 30.925781 39.582031 Z M 30.925781 38.347656 " fill-opacity="1" fill-rule="nonzero"/><path fill="#ffffff" d="M 29.644531 39.847656 L 30.621094 39.847656 L 30.621094 41.085938 L 29.644531 41.085938 Z M 29.644531 39.847656 " fill-opacity="1" fill-rule="nonzero"/><path fill="#ffffff" d="M 30.925781 39.847656 L 31.898438 39.847656 L 31.898438 41.085938 L 30.925781 41.085938 Z M 30.925781 39.847656 " fill-opacity="1" fill-rule="nonzero"/><path fill="#ffffff" d="M 40.136719 38.550781 L 41.007812 38.550781 L 41.007812 39.664062 L 40.136719 39.664062 Z M 40.136719 38.550781 " fill-opacity="1" fill-rule="nonzero"/><path fill="#ffffff" d="M 41.269531 38.550781 L 42.144531 38.550781 L 42.144531 39.664062 L 41.269531 39.664062 Z M 41.269531 38.550781 " fill-opacity="1" fill-rule="nonzero"/><path fill="#ffffff" d="M 40.136719 39.886719 L 41.007812 39.886719 L 41.007812 41.003906 L 40.136719 41.003906 Z M 40.136719 39.886719 " fill-opacity="1" fill-rule="nonzero"/><path fill="#ffffff" d="M 41.269531 39.886719 L 42.144531 39.886719 L 42.144531 41.003906 L 41.269531 41.003906 Z M 41.269531 39.886719 " fill-opacity="1" fill-rule="nonzero"/><g clip-path="url(#6ff14f2d46)"><g transform="matrix(1, 0, 0, 1, 19, 0.00000000000000059)"><g clip-path="url(#35dc0e3fea)"><g clip-path="url(#9074c9c585)"><g transform="matrix(1, 0, 0, 1, 0, 0.00000000000000059)"><g clip-path="url(#9b2ae84a28)"><g clip-path="url(#a436668df5)"><g mask="url(#6614c4d799)"><g transform="matrix(1, 0, 0, 1, 0, 0.00000000000000059)"><g clip-path="url(#add0d55f14)"><g clip-path="url(#ce47e4db4a)"><path fill="url(#061ed5acad)" d="M 5.980469 0.0546875 L 5.980469 74.945312 L 333 74.945312 L 333 0.0546875 Z M 5.980469 0.0546875 " fill-rule="nonzero"/></g></g></g></g></g></g></g></g></g></g></g><g clip-path="url(#d151965ee5)"><g clip-path="url(#718efc8a98)"><g transform="matrix(1, 0, 0, 1, 41, 25)"><g clip-path="url(#839ad72b12)"><g clip-path="url(#760d6aabc8)"><g clip-path="url(#3e0536e960)"><path fill="#0c2340" d="M 0.195312 0.714844 L 7.519531 0.714844 L 7.519531 8.039062 L 0.195312 8.039062 Z M 0.195312 0.714844 " fill-opacity="1" fill-rule="nonzero"/></g></g></g></g></g></g><g clip-path="url(#3a6c756c85)"><g clip-path="url(#3e00a5b3b1)"><g transform="matrix(1, 0, 0, 1, 44, 25)"><g clip-path="url(#582a35953a)"><g clip-path="url(#d58d7b0f54)"><g clip-path="url(#04d357c0bd)"><path fill="#0c2340" d="M 0.0117188 0.714844 L 7.335938 0.714844 L 7.335938 8.039062 L 0.0117188 8.039062 Z M 0.0117188 0.714844 " fill-opacity="1" fill-rule="nonzero"/></g></g></g></g></g></g><g clip-path="url(#db0811ff2f)"><g clip-path="url(#88487f9662)"><g transform="matrix(1, 0, 0, 1, 44, 30)"><g clip-path="url(#e4aa039197)"><g clip-path="url(#2169b9b892)"><g clip-path="url(#2fa342ca38)"><path fill="#0c2340" d="M 0.769531 0.136719 L 6.574219 0.136719 L 6.574219 5.941406 L 0.769531 5.941406 Z M 0.769531 0.136719 " fill-opacity="1" fill-rule="nonzero"/></g></g></g></g></g></g><g clip-path="url(#1276e93a90)"><g clip-path="url(#ba3d11caac)"><g transform="matrix(1, 0, 0, 1, 38, 26)"><g clip-path="url(#8a974b5ef3)"><g clip-path="url(#b4cee022e8)"><g clip-path="url(#2325a386c3)"><path fill="#0c2340" d="M 0.378906 0.765625 L 7.703125 0.765625 L 7.703125 8.089844 L 0.378906 8.089844 Z M 0.378906 0.765625 " fill-opacity="1" fill-rule="nonzero"/></g></g></g></g></g></g><g clip-path="url(#5a2d2b0df7)"><g clip-path="url(#4b27d01844)"><g transform="matrix(1, 0, 0, 1, 41, 26)"><g clip-path="url(#b78dfc406e)"><g clip-path="url(#53218a6bb7)"><g clip-path="url(#14ecfc6b18)"><path fill="#0c2340" d="M 0.195312 0.765625 L 7.519531 0.765625 L 7.519531 8.089844 L 0.195312 8.089844 Z M 0.195312 0.765625 " fill-opacity="1" fill-rule="nonzero"/></g></g></g></g></g></g><g clip-path="url(#683ed813a4)"><g clip-path="url(#eed652f3c7)"><g transform="matrix(1, 0, 0, 1, 44, 34)"><g clip-path="url(#bd277e0bf9)"><g clip-path="url(#56aa12c414)"><g clip-path="url(#392bda8056)"><path fill="#0c2340" d="M 0.855469 0.0898438 L 5.363281 0.0898438 L 5.363281 4.597656 L 0.855469 4.597656 Z M 0.855469 0.0898438 " fill-opacity="1" fill-rule="nonzero"/></g></g></g></g></g></g><g clip-path="url(#d99a0719db)"><g clip-path="url(#ea8a31c086)"><g transform="matrix(1, 0, 0, 1, 42, 31)"><g clip-path="url(#c574bda816)"><g clip-path="url(#451441bff3)"><g clip-path="url(#874cdfe068)"><path fill="#0c2340" d="M 0.601562 0.433594 L 5.109375 0.433594 L 5.109375 4.941406 L 0.601562 4.941406 Z M 0.601562 0.433594 " fill-opacity="1" fill-rule="nonzero"/></g></g></g></g></g></g><g clip-path="url(#a55680c576)"><path fill="#ffffff" d="M 46.558594 26.777344 C 46.539062 26.777344 46.519531 26.773438 46.5 26.769531 L 43.328125 25.625 C 43.253906 25.597656 43.214844 25.542969 43.214844 25.464844 C 43.214844 25.382812 43.253906 25.332031 43.328125 25.304688 L 46.5 24.160156 C 46.539062 24.144531 46.578125 24.144531 46.617188 24.160156 L 49.789062 25.304688 C 49.863281 25.332031 49.898438 25.382812 49.898438 25.464844 C 49.898438 25.542969 49.863281 25.597656 49.789062 25.625 L 46.617188 26.769531 C 46.597656 26.773438 46.578125 26.777344 46.558594 26.777344 Z M 43.886719 25.464844 L 46.558594 26.429688 L 49.230469 25.464844 L 46.558594 24.5 Z M 43.886719 25.464844 " fill-opacity="1" fill-rule="nonzero"/></g><path fill="#ffffff" d="M 48.820312 27.886719 L 44.292969 27.886719 C 44.179688 27.886719 44.125 27.832031 44.125 27.71875 L 44.125 25.792969 C 44.125 25.679688 44.179688 25.621094 44.292969 25.621094 C 44.40625 25.621094 44.464844 25.679688 44.464844 25.792969 L 44.464844 27.546875 L 48.652344 27.546875 L 48.652344 25.792969 C 48.652344 25.679688 48.707031 25.621094 48.820312 25.621094 C 48.933594 25.621094 48.992188 25.679688 48.992188 25.792969 L 48.992188 27.71875 C 48.992188 27.832031 48.933594 27.886719 48.820312 27.886719 Z M 48.820312 27.886719 " fill-opacity="1" fill-rule="nonzero"/><path fill="#ffffff" d="M 49.730469 26.871094 C 49.617188 26.871094 49.558594 26.8125 49.558594 26.699219 L 49.558594 25.464844 C 49.558594 25.351562 49.617188 25.292969 49.730469 25.292969 C 49.84375 25.292969 49.898438 25.351562 49.898438 25.464844 L 49.898438 26.699219 C 49.898438 26.8125 49.84375 26.871094 49.730469 26.871094 Z M 49.730469 26.871094 " fill-opacity="1" fill-rule="nonzero"/><path fill="#ffffff" d="M 46.558594 30.132812 C 45.335938 30.132812 44.34375 29.144531 44.34375 27.925781 C 44.34375 27.851562 44.34375 27.773438 44.351562 27.699219 C 44.363281 27.589844 44.425781 27.539062 44.539062 27.550781 C 44.652344 27.558594 44.703125 27.621094 44.691406 27.734375 C 44.683594 27.796875 44.679688 27.859375 44.679688 27.925781 C 44.679688 28.957031 45.523438 29.796875 46.558594 29.796875 C 47.59375 29.796875 48.433594 28.957031 48.433594 27.925781 C 48.433594 27.859375 48.433594 27.796875 48.425781 27.734375 C 48.414062 27.621094 48.464844 27.558594 48.578125 27.550781 C 48.691406 27.539062 48.75 27.589844 48.761719 27.699219 C 48.769531 27.773438 48.773438 27.847656 48.773438 27.925781 C 48.773438 29.144531 47.78125 30.132812 46.558594 30.132812 Z M 46.558594 30.132812 " fill-opacity="1" fill-rule="nonzero"/><g clip-path="url(#01954dca08)"><path fill="#ffffff" d="M 49.226562 35.058594 L 49.210938 35.058594 L 43.878906 35.003906 C 43.707031 35 43.546875 34.96875 43.390625 34.902344 C 43.234375 34.835938 43.09375 34.742188 42.976562 34.621094 C 42.855469 34.5 42.765625 34.363281 42.699219 34.207031 C 42.636719 34.050781 42.601562 33.886719 42.601562 33.714844 L 42.601562 32.65625 C 42.601562 32.277344 42.675781 31.910156 42.820312 31.5625 C 42.96875 31.210938 43.175781 30.898438 43.445312 30.632812 C 43.714844 30.363281 44.023438 30.15625 44.375 30.011719 C 44.726562 29.867188 45.09375 29.792969 45.472656 29.796875 L 47.644531 29.796875 C 48.023438 29.792969 48.390625 29.867188 48.742188 30.011719 C 49.089844 30.15625 49.402344 30.363281 49.671875 30.632812 C 49.941406 30.902344 50.148438 31.210938 50.292969 31.5625 C 50.441406 31.914062 50.511719 32.277344 50.511719 32.65625 L 50.511719 33.773438 C 50.511719 33.945312 50.480469 34.109375 50.414062 34.265625 C 50.347656 34.425781 50.257812 34.5625 50.136719 34.683594 C 50.015625 34.804688 49.875 34.898438 49.71875 34.960938 C 49.558594 35.027344 49.394531 35.058594 49.226562 35.058594 Z M 45.472656 30.132812 C 44.078125 30.132812 42.941406 31.265625 42.941406 32.65625 L 42.941406 33.714844 C 42.941406 34.234375 43.363281 34.65625 43.882812 34.664062 L 49.214844 34.71875 C 49.476562 34.722656 49.703125 34.632812 49.890625 34.449219 C 50.078125 34.261719 50.171875 34.039062 50.175781 33.773438 L 50.175781 32.65625 C 50.175781 31.265625 49.039062 30.132812 47.640625 30.132812 Z M 45.472656 30.132812 " fill-opacity="1" fill-rule="nonzero"/></g><g clip-path="url(#13b8267d37)"><path fill="#ffffff" d="M 46.441406 35.03125 C 46.382812 35.03125 46.335938 35.007812 46.300781 34.957031 L 44.890625 32.84375 C 44.839844 32.773438 44.847656 32.703125 44.902344 32.640625 L 45.582031 31.867188 L 44.78125 31.023438 C 44.730469 30.964844 44.71875 30.902344 44.753906 30.832031 L 45.207031 29.890625 C 45.253906 29.789062 45.328125 29.761719 45.433594 29.8125 C 45.535156 29.859375 45.5625 29.9375 45.511719 30.039062 L 45.109375 30.875 L 45.933594 31.746094 C 46.007812 31.824219 46.007812 31.898438 45.9375 31.976562 L 45.246094 32.765625 L 46.582031 34.765625 C 46.621094 34.824219 46.625 34.882812 46.59375 34.941406 C 46.5625 35 46.511719 35.03125 46.441406 35.03125 Z M 46.441406 35.03125 " fill-opacity="1" fill-rule="nonzero"/></g><g clip-path="url(#0acb5c7249)"><path fill="#ffffff" d="M 46.671875 35.03125 C 46.605469 35.03125 46.554688 35 46.523438 34.941406 C 46.492188 34.882812 46.492188 34.824219 46.53125 34.765625 L 47.871094 32.765625 L 47.175781 31.976562 C 47.109375 31.898438 47.109375 31.824219 47.179688 31.746094 L 48.003906 30.875 L 47.605469 30.039062 C 47.554688 29.9375 47.582031 29.863281 47.683594 29.8125 C 47.785156 29.765625 47.859375 29.789062 47.910156 29.890625 L 48.363281 30.832031 C 48.394531 30.902344 48.386719 30.964844 48.332031 31.023438 L 47.53125 31.867188 L 48.210938 32.640625 C 48.269531 32.703125 48.273438 32.773438 48.226562 32.84375 L 46.8125 34.957031 C 46.78125 35.007812 46.734375 35.03125 46.671875 35.03125 Z M 46.671875 35.03125 " fill-opacity="1" fill-rule="nonzero"/></g><path fill="#ffffff" d="M 46.566406 31 L 46.558594 31 C 46.40625 31 46.285156 30.933594 46.195312 30.808594 L 45.667969 30.0625 C 45.601562 29.96875 45.617188 29.890625 45.707031 29.828125 C 45.800781 29.761719 45.878906 29.773438 45.945312 29.867188 L 46.472656 30.613281 C 46.496094 30.644531 46.527344 30.660156 46.5625 30.660156 C 46.601562 30.660156 46.632812 30.648438 46.652344 30.617188 L 47.222656 29.863281 C 47.292969 29.773438 47.371094 29.761719 47.460938 29.828125 C 47.550781 29.898438 47.5625 29.976562 47.496094 30.066406 L 46.925781 30.820312 C 46.835938 30.941406 46.714844 31 46.566406 31 Z M 46.566406 31 " fill-opacity="1" fill-rule="nonzero"/></svg>