<svg xmlns="http://www.w3.org/2000/svg" xmlns:xlink="http://www.w3.org/1999/xlink" width="950" zoomAndPan="magnify" viewBox="0 0 712.5 69.749997" height="93" preserveAspectRatio="xMidYMid meet" version="1.0"><defs><g/><clipPath id="6d819d6db1"><path d="M 1.023438 0 L 710.980469 0 L 710.980469 69.5 L 1.023438 69.5 Z M 1.023438 0 " clip-rule="nonzero"/></clipPath><clipPath id="e216bbafc5"><path d="M 15.015625 36 L 55 36 L 55 56 L 15.015625 56 Z M 15.015625 36 " clip-rule="nonzero"/></clipPath><clipPath id="79c036917f"><path d="M 107 42 L 125.621094 42 L 125.621094 46 L 107 46 Z M 107 42 " clip-rule="nonzero"/></clipPath><clipPath id="45ada88785"><path d="M 84.109375 10.980469 L 98.882812 10.980469 L 98.882812 25.753906 L 84.109375 25.753906 Z M 84.109375 10.980469 " clip-rule="nonzero"/></clipPath><clipPath id="0484302749"><path d="M 91.496094 10.980469 C 87.414062 10.980469 84.109375 14.289062 84.109375 18.367188 C 84.109375 22.445312 87.414062 25.753906 91.496094 25.753906 C 95.574219 25.753906 98.882812 22.445312 98.882812 18.367188 C 98.882812 14.289062 95.574219 10.980469 91.496094 10.980469 Z M 91.496094 10.980469 " clip-rule="nonzero"/></clipPath><clipPath id="abc1ff964e"><path d="M 0.109375 0.980469 L 14.882812 0.980469 L 14.882812 15.753906 L 0.109375 15.753906 Z M 0.109375 0.980469 " clip-rule="nonzero"/></clipPath><clipPath id="b80c7d8947"><path d="M 7.496094 0.980469 C 3.414062 0.980469 0.109375 4.289062 0.109375 8.367188 C 0.109375 12.445312 3.414062 15.753906 7.496094 15.753906 C 11.574219 15.753906 14.882812 12.445312 14.882812 8.367188 C 14.882812 4.289062 11.574219 0.980469 7.496094 0.980469 Z M 7.496094 0.980469 " clip-rule="nonzero"/></clipPath><clipPath id="37874c2c46"><rect x="0" width="15" y="0" height="16"/></clipPath><clipPath id="e4ec05f806"><path d="M 89.789062 10.980469 L 104.5625 10.980469 L 104.5625 25.753906 L 89.789062 25.753906 Z M 89.789062 10.980469 " clip-rule="nonzero"/></clipPath><clipPath id="fd5052c508"><path d="M 97.175781 10.980469 C 93.097656 10.980469 89.789062 14.289062 89.789062 18.367188 C 89.789062 22.445312 93.097656 25.753906 97.175781 25.753906 C 101.253906 25.753906 104.5625 22.445312 104.5625 18.367188 C 104.5625 14.289062 101.253906 10.980469 97.175781 10.980469 Z M 97.175781 10.980469 " clip-rule="nonzero"/></clipPath><clipPath id="91087b2d34"><path d="M 0.789062 0.980469 L 15.5625 0.980469 L 15.5625 15.753906 L 0.789062 15.753906 Z M 0.789062 0.980469 " clip-rule="nonzero"/></clipPath><clipPath id="a4eb196863"><path d="M 8.175781 0.980469 C 4.097656 0.980469 0.789062 4.289062 0.789062 8.367188 C 0.789062 12.445312 4.097656 15.753906 8.175781 15.753906 C 12.253906 15.753906 15.5625 12.445312 15.5625 8.367188 C 15.5625 4.289062 12.253906 0.980469 8.175781 0.980469 Z M 8.175781 0.980469 " clip-rule="nonzero"/></clipPath><clipPath id="169b9889fa"><rect x="0" width="16" y="0" height="16"/></clipPath><clipPath id="e9c689124d"><path d="M 91.324219 19.902344 L 103.027344 19.902344 L 103.027344 31.605469 L 91.324219 31.605469 Z M 91.324219 19.902344 " clip-rule="nonzero"/></clipPath><clipPath id="2a7e5444b9"><path d="M 97.175781 19.902344 C 93.941406 19.902344 91.324219 22.523438 91.324219 25.753906 C 91.324219 28.984375 93.941406 31.605469 97.175781 31.605469 C 100.40625 31.605469 103.027344 28.984375 103.027344 25.753906 C 103.027344 22.523438 100.40625 19.902344 97.175781 19.902344 Z M 97.175781 19.902344 " clip-rule="nonzero"/></clipPath><clipPath id="3b237653a5"><path d="M 0.324219 0.902344 L 12.027344 0.902344 L 12.027344 12.605469 L 0.324219 12.605469 Z M 0.324219 0.902344 " clip-rule="nonzero"/></clipPath><clipPath id="0250c43d28"><path d="M 6.175781 0.902344 C 2.941406 0.902344 0.324219 3.523438 0.324219 6.753906 C 0.324219 9.984375 2.941406 12.605469 6.175781 12.605469 C 9.40625 12.605469 12.027344 9.984375 12.027344 6.753906 C 12.027344 3.523438 9.40625 0.902344 6.175781 0.902344 Z M 6.175781 0.902344 " clip-rule="nonzero"/></clipPath><clipPath id="ec560b65bb"><rect x="0" width="13" y="0" height="13"/></clipPath><clipPath id="278c8203af"><path d="M 78.429688 13.097656 L 93.203125 13.097656 L 93.203125 27.871094 L 78.429688 27.871094 Z M 78.429688 13.097656 " clip-rule="nonzero"/></clipPath><clipPath id="bbd4915b38"><path d="M 85.816406 13.097656 C 81.734375 13.097656 78.429688 16.40625 78.429688 20.484375 C 78.429688 24.5625 81.734375 27.871094 85.816406 27.871094 C 89.894531 27.871094 93.203125 24.5625 93.203125 20.484375 C 93.203125 16.40625 89.894531 13.097656 85.816406 13.097656 Z M 85.816406 13.097656 " clip-rule="nonzero"/></clipPath><clipPath id="f60be8da1c"><path d="M 0.429688 0.0976562 L 15.203125 0.0976562 L 15.203125 14.871094 L 0.429688 14.871094 Z M 0.429688 0.0976562 " clip-rule="nonzero"/></clipPath><clipPath id="84ff01e4c7"><path d="M 7.816406 0.0976562 C 3.734375 0.0976562 0.429688 3.40625 0.429688 7.484375 C 0.429688 11.5625 3.734375 14.871094 7.816406 14.871094 C 11.894531 14.871094 15.203125 11.5625 15.203125 7.484375 C 15.203125 3.40625 11.894531 0.0976562 7.816406 0.0976562 Z M 7.816406 0.0976562 " clip-rule="nonzero"/></clipPath><clipPath id="3ce711bd3f"><rect x="0" width="16" y="0" height="15"/></clipPath><clipPath id="6242bd755b"><path d="M 84.109375 13.097656 L 98.882812 13.097656 L 98.882812 27.871094 L 84.109375 27.871094 Z M 84.109375 13.097656 " clip-rule="nonzero"/></clipPath><clipPath id="13ac96c563"><path d="M 91.496094 13.097656 C 87.414062 13.097656 84.109375 16.40625 84.109375 20.484375 C 84.109375 24.5625 87.414062 27.871094 91.496094 27.871094 C 95.574219 27.871094 98.882812 24.5625 98.882812 20.484375 C 98.882812 16.40625 95.574219 13.097656 91.496094 13.097656 Z M 91.496094 13.097656 " clip-rule="nonzero"/></clipPath><clipPath id="d3cd860028"><path d="M 0.109375 0.0976562 L 14.882812 0.0976562 L 14.882812 14.871094 L 0.109375 14.871094 Z M 0.109375 0.0976562 " clip-rule="nonzero"/></clipPath><clipPath id="32fafae14e"><path d="M 7.496094 0.0976562 C 3.414062 0.0976562 0.109375 3.40625 0.109375 7.484375 C 0.109375 11.5625 3.414062 14.871094 7.496094 14.871094 C 11.574219 14.871094 14.882812 11.5625 14.882812 7.484375 C 14.882812 3.40625 11.574219 0.0976562 7.496094 0.0976562 Z M 7.496094 0.0976562 " clip-rule="nonzero"/></clipPath><clipPath id="af80362d42"><rect x="0" width="15" y="0" height="15"/></clipPath><clipPath id="697b5ac35d"><path d="M 91.496094 27.871094 L 100.589844 27.871094 L 100.589844 36.964844 L 91.496094 36.964844 Z M 91.496094 27.871094 " clip-rule="nonzero"/></clipPath><clipPath id="c8f1411cab"><path d="M 96.042969 27.871094 C 93.53125 27.871094 91.496094 29.90625 91.496094 32.417969 C 91.496094 34.929688 93.53125 36.964844 96.042969 36.964844 C 98.550781 36.964844 100.589844 34.929688 100.589844 32.417969 C 100.589844 29.90625 98.550781 27.871094 96.042969 27.871094 Z M 96.042969 27.871094 " clip-rule="nonzero"/></clipPath><clipPath id="200a39e298"><path d="M 0.496094 0.871094 L 9.589844 0.871094 L 9.589844 9.964844 L 0.496094 9.964844 Z M 0.496094 0.871094 " clip-rule="nonzero"/></clipPath><clipPath id="9d1697abfd"><path d="M 5.042969 0.871094 C 2.53125 0.871094 0.496094 2.90625 0.496094 5.417969 C 0.496094 7.929688 2.53125 9.964844 5.042969 9.964844 C 7.550781 9.964844 9.589844 7.929688 9.589844 5.417969 C 9.589844 2.90625 7.550781 0.871094 5.042969 0.871094 Z M 5.042969 0.871094 " clip-rule="nonzero"/></clipPath><clipPath id="a68ac65387"><rect x="0" width="10" y="0" height="10"/></clipPath><clipPath id="23ad344bff"><path d="M 86.949219 22.511719 L 96.042969 22.511719 L 96.042969 31.605469 L 86.949219 31.605469 Z M 86.949219 22.511719 " clip-rule="nonzero"/></clipPath><clipPath id="b5323634ea"><path d="M 91.496094 22.511719 C 88.984375 22.511719 86.949219 24.550781 86.949219 27.058594 C 86.949219 29.570312 88.984375 31.605469 91.496094 31.605469 C 94.007812 31.605469 96.042969 29.570312 96.042969 27.058594 C 96.042969 24.550781 94.007812 22.511719 91.496094 22.511719 Z M 91.496094 22.511719 " clip-rule="nonzero"/></clipPath><clipPath id="05f90e46b0"><path d="M 0.949219 0.511719 L 10.042969 0.511719 L 10.042969 9.605469 L 0.949219 9.605469 Z M 0.949219 0.511719 " clip-rule="nonzero"/></clipPath><clipPath id="52053d90ca"><path d="M 5.496094 0.511719 C 2.984375 0.511719 0.949219 2.550781 0.949219 5.058594 C 0.949219 7.570312 2.984375 9.605469 5.496094 9.605469 C 8.007812 9.605469 10.042969 7.570312 10.042969 5.058594 C 10.042969 2.550781 8.007812 0.511719 5.496094 0.511719 Z M 5.496094 0.511719 " clip-rule="nonzero"/></clipPath><clipPath id="81f38c2aac"><rect x="0" width="11" y="0" height="10"/></clipPath><clipPath id="64e81d4eae"><path d="M 88 7.8125 L 102 7.8125 L 102 14 L 88 14 Z M 88 7.8125 " clip-rule="nonzero"/></clipPath><clipPath id="22c09b2366"><path d="M 86.949219 19 L 102.644531 19 L 102.644531 29.484375 L 86.949219 29.484375 Z M 86.949219 19 " clip-rule="nonzero"/></clipPath><clipPath id="d10247f796"><path d="M 91 19 L 96 19 L 96 29.484375 L 91 29.484375 Z M 91 19 " clip-rule="nonzero"/></clipPath><clipPath id="8be8ca8395"><path d="M 94 19 L 99 19 L 99 29.484375 L 94 29.484375 Z M 94 19 " clip-rule="nonzero"/></clipPath></defs><g clip-path="url(#6d819d6db1)"><path fill="#ffffff" d="M 1.023438 0 L 710.980469 0 L 710.980469 69.5 L 1.023438 69.5 Z M 1.023438 0 " fill-opacity="1" fill-rule="nonzero"/><path fill="#0c2340" d="M 1.023438 0 L 710.980469 0 L 710.980469 69.5 L 1.023438 69.5 Z M 1.023438 0 " fill-opacity="1" fill-rule="nonzero"/></g><g clip-path="url(#e216bbafc5)"><path fill="#04b1dc" d="M 54.304688 37.242188 L 36.953125 37.242188 C 36.585938 37.242188 36.175781 37.40625 35.972656 37.734375 L 35.808594 37.9375 L 35.355469 37.9375 C 35.316406 37.898438 35.234375 37.816406 35.191406 37.773438 L 34.332031 37.078125 C 34.128906 36.914062 33.84375 36.792969 33.554688 36.792969 L 23.285156 36.792969 C 22.75 36.792969 22.261719 37.160156 22.097656 37.652344 L 21.441406 39.65625 C 21.277344 40.1875 21.484375 40.761719 21.933594 41.046875 L 22.425781 41.375 C 22.546875 41.457031 22.628906 41.582031 22.671875 41.703125 C 22.710938 41.867188 22.671875 41.988281 22.589844 42.113281 L 15.34375 52.753906 C 15.140625 53.039062 15.058594 53.40625 15.179688 53.734375 C 15.261719 54.0625 15.46875 54.347656 15.792969 54.554688 L 16.53125 54.964844 C 16.734375 55.046875 16.941406 55.128906 17.144531 55.128906 C 17.554688 55.128906 17.921875 54.921875 18.167969 54.59375 L 18.660156 53.898438 L 22.015625 55.824219 C 22.21875 55.945312 22.425781 55.988281 22.628906 55.988281 C 22.710938 55.988281 22.832031 55.988281 22.914062 55.945312 L 24.960938 55.453125 C 25.25 55.371094 25.492188 55.207031 25.65625 54.964844 L 32.984375 44.691406 C 33.230469 44.363281 33.269531 43.871094 33.105469 43.464844 L 32.492188 42.070312 L 33.636719 42.070312 C 33.964844 42.070312 34.292969 41.949219 34.496094 41.703125 L 35.273438 40.925781 C 35.316406 40.886719 35.316406 40.84375 35.355469 40.804688 L 36.707031 41.128906 C 36.789062 41.128906 36.914062 41.171875 36.992188 41.171875 L 50.746094 41.171875 L 54.429688 37.324219 C 54.386719 37.242188 54.347656 37.242188 54.304688 37.242188 Z M 22.75 55.25 C 22.628906 55.289062 22.464844 55.25 22.34375 55.207031 L 19.027344 53.328125 L 26.761719 42.398438 C 26.84375 42.277344 27.007812 42.195312 27.171875 42.195312 L 30.527344 42.152344 C 30.199219 42.398438 29.871094 42.605469 29.503906 42.847656 L 29.339844 42.972656 C 29.300781 43.011719 29.21875 43.054688 29.21875 43.054688 C 29.175781 43.054688 29.136719 43.09375 29.09375 43.09375 C 28.851562 43.09375 28.5625 43.09375 28.277344 43.054688 C 28.113281 43.054688 27.992188 43.054688 27.828125 43.054688 L 27.664062 43.054688 C 27.582031 43.054688 27.5 43.054688 27.457031 43.09375 C 27.335938 43.136719 27.210938 43.175781 27.089844 43.21875 C 26.84375 43.339844 26.640625 43.546875 26.476562 43.75 C 26.394531 43.871094 26.351562 43.953125 26.351562 43.996094 L 26.230469 44.199219 C 25.945312 44.730469 25.65625 45.304688 25.371094 45.878906 C 24.796875 47.023438 24.265625 48.167969 23.734375 49.234375 C 23.488281 49.765625 23.242188 50.296875 23.039062 50.789062 C 22.996094 50.910156 22.914062 51.035156 22.875 51.15625 C 22.832031 51.28125 22.75 51.402344 22.710938 51.648438 C 22.628906 52.058594 22.710938 52.46875 22.957031 52.753906 C 23.285156 53.164062 23.570312 53.449219 23.816406 53.777344 C 24.0625 54.0625 24.308594 54.308594 24.46875 54.554688 C 24.550781 54.675781 24.675781 54.757812 24.757812 54.839844 Z M 32.453125 44.242188 L 25.125 54.511719 C 25.042969 54.390625 25.003906 54.308594 24.921875 54.144531 C 24.632812 53.652344 24.226562 53 23.691406 52.179688 C 23.652344 52.097656 23.609375 51.933594 23.691406 51.851562 C 23.691406 51.8125 23.734375 51.730469 23.816406 51.609375 C 23.898438 51.484375 23.9375 51.363281 24.019531 51.238281 C 24.308594 50.746094 24.550781 50.257812 24.878906 49.726562 C 25.453125 48.703125 26.066406 47.554688 26.640625 46.449219 C 26.925781 45.878906 27.210938 45.304688 27.5 44.773438 L 27.664062 44.40625 C 27.664062 44.363281 27.703125 44.363281 27.746094 44.324219 L 27.867188 44.324219 C 28.03125 44.324219 28.152344 44.324219 28.316406 44.324219 C 28.644531 44.324219 28.929688 44.28125 29.257812 44.28125 C 29.503906 44.242188 29.75 44.160156 29.953125 44.035156 C 30.078125 43.953125 30.117188 43.914062 30.160156 43.871094 L 30.324219 43.75 C 30.730469 43.382812 31.140625 43.054688 31.46875 42.726562 C 31.632812 42.605469 31.753906 42.480469 31.878906 42.359375 L 32.492188 43.75 C 32.574219 43.914062 32.574219 44.078125 32.453125 44.242188 Z M 32.453125 44.242188 " fill-opacity="1" fill-rule="nonzero"/></g><path fill="#ffffff" d="M 100.550781 27.953125 L 96.664062 28.363281 C 95.355469 28.363281 94.332031 29.753906 94.332031 31.472656 L 94.003906 35.851562 L 93.675781 31.472656 C 93.675781 29.753906 92.613281 28.363281 91.34375 28.363281 L 87.457031 27.953125 L 91.34375 27.542969 C 92.652344 27.542969 93.675781 26.152344 93.675781 24.433594 L 94.003906 20.054688 L 94.332031 24.433594 C 94.332031 26.152344 95.394531 27.542969 96.664062 27.542969 Z M 100.550781 27.953125 " fill-opacity="1" fill-rule="nonzero"/><path fill="#ffffff" d="M 87.988281 20.625 L 85.53125 20.871094 C 84.714844 20.871094 84.019531 21.773438 84.019531 22.878906 L 83.8125 25.660156 L 83.609375 22.878906 C 83.609375 21.773438 82.953125 20.871094 82.09375 20.871094 L 79.640625 20.625 L 82.09375 20.382812 C 82.914062 20.382812 83.609375 19.480469 83.609375 18.375 L 83.8125 15.59375 L 84.019531 18.375 C 84.019531 19.480469 84.671875 20.382812 85.53125 20.382812 Z M 87.988281 20.625 " fill-opacity="1" fill-rule="nonzero"/><path fill="#ffffff" d="M 103.335938 16.535156 L 100.878906 16.78125 C 100.0625 16.78125 99.363281 17.679688 99.363281 18.785156 L 99.160156 21.566406 L 98.957031 18.785156 C 98.957031 17.679688 98.300781 16.78125 97.441406 16.78125 L 94.984375 16.535156 L 97.441406 16.289062 C 98.261719 16.289062 98.957031 15.386719 98.957031 14.28125 L 99.160156 11.5 L 99.363281 14.28125 C 99.363281 15.386719 100.019531 16.289062 100.878906 16.289062 Z M 103.335938 16.535156 " fill-opacity="1" fill-rule="nonzero"/><path fill="#04b1dc" d="M 70.511719 58.769531 L 84.304688 58.769531 C 65.191406 67.445312 46.078125 66.175781 39.816406 55.128906 C 38.917969 53.53125 38.304688 51.8125 38.015625 49.96875 C 38.304688 50.746094 38.632812 51.484375 39.039062 52.222656 C 43.746094 60.527344 56.433594 62.738281 70.511719 58.769531 Z M 70.511719 58.769531 " fill-opacity="1" fill-rule="nonzero"/><path fill="#04b1dc" d="M 109.1875 40.105469 C 108.367188 41.128906 107.46875 42.152344 106.527344 43.136719 C 106.035156 43.625 105.585938 44.117188 105.09375 44.609375 C 104.523438 45.183594 103.90625 45.753906 103.292969 46.328125 L 94.085938 46.328125 C 95.066406 45.507812 96.007812 44.691406 96.910156 43.832031 C 97.277344 43.503906 97.644531 43.136719 97.972656 42.808594 C 99.734375 41.089844 101.289062 39.289062 102.679688 37.488281 C 109.105469 29.058594 111.273438 20.136719 107.550781 13.503906 C 106.976562 12.480469 106.242188 11.5 105.421875 10.679688 C 98.914062 4.011719 85.449219 3.273438 71.371094 8.554688 C 90.402344 0 109.351562 1.308594 115.570312 12.320312 C 119.867188 19.972656 117.003906 30.449219 109.1875 40.105469 Z M 109.1875 40.105469 " fill-opacity="1" fill-rule="nonzero"/><path fill="#ffffff" d="M 90.074219 8.308594 C 83.484375 9.003906 76.117188 11.378906 68.917969 15.46875 C 68.34375 15.796875 67.8125 16.125 67.238281 16.453125 C 66.953125 16.617188 66.707031 16.78125 66.417969 16.941406 C 66.378906 16.941406 66.378906 16.984375 66.335938 16.984375 C 66.09375 17.148438 65.847656 17.3125 65.601562 17.433594 C 65.355469 17.597656 65.070312 17.761719 64.824219 17.964844 C 64.496094 18.171875 64.210938 18.375 63.921875 18.582031 C 63.472656 18.90625 62.980469 19.234375 62.53125 19.5625 C 62.039062 19.929688 61.550781 20.300781 61.058594 20.667969 C 60.855469 20.832031 60.691406 20.953125 60.484375 21.117188 C 59.75 21.730469 59.011719 22.34375 58.316406 22.960938 C 58.113281 23.164062 57.867188 23.328125 57.660156 23.53125 C 56.433594 24.679688 55.246094 25.824219 54.183594 27.050781 C 54.019531 27.214844 53.894531 27.378906 53.773438 27.542969 C 52.996094 28.445312 52.257812 29.34375 51.5625 30.246094 C 51.480469 30.367188 51.359375 30.53125 51.277344 30.652344 C 50.539062 31.675781 49.84375 32.742188 49.273438 33.765625 C 49.191406 33.925781 49.109375 34.089844 49.027344 34.214844 C 48.820312 34.542969 48.65625 34.910156 48.496094 35.238281 C 48.371094 35.441406 48.289062 35.644531 48.207031 35.851562 C 48.125 35.972656 48.085938 36.097656 48.042969 36.21875 C 48.003906 36.300781 47.960938 36.425781 47.921875 36.546875 L 41.824219 36.546875 C 45.179688 29.140625 52.628906 21.324219 62.777344 15.59375 C 63.144531 15.386719 63.515625 15.183594 63.921875 14.980469 C 64.003906 14.9375 64.085938 14.898438 64.167969 14.855469 C 64.535156 14.652344 64.90625 14.488281 65.273438 14.28125 L 65.316406 14.28125 C 65.722656 14.078125 66.132812 13.875 66.582031 13.667969 C 66.992188 13.464844 67.402344 13.261719 67.8125 13.097656 C 68.261719 12.890625 68.671875 12.726562 69.121094 12.523438 L 69.160156 12.523438 C 69.613281 12.359375 70.019531 12.15625 70.472656 11.992188 C 70.878906 11.828125 71.25 11.664062 71.65625 11.542969 C 71.738281 11.5 71.820312 11.460938 71.902344 11.460938 C 72.273438 11.335938 72.640625 11.214844 72.96875 11.089844 C 73.132812 11.050781 73.253906 10.96875 73.417969 10.925781 C 73.746094 10.804688 74.074219 10.722656 74.398438 10.601562 C 74.890625 10.4375 75.382812 10.3125 75.832031 10.148438 C 76.160156 10.066406 76.527344 9.945312 76.855469 9.863281 C 76.9375 9.820312 77.019531 9.820312 77.101562 9.78125 C 77.46875 9.699219 77.839844 9.578125 78.207031 9.496094 L 78.246094 9.496094 C 78.65625 9.414062 79.066406 9.289062 79.476562 9.207031 L 79.515625 9.207031 C 79.925781 9.125 80.335938 9.042969 80.742188 8.960938 C 81.152344 8.882812 81.5625 8.800781 81.972656 8.757812 C 82.011719 8.757812 82.011719 8.757812 82.054688 8.757812 C 82.421875 8.71875 82.832031 8.636719 83.199219 8.59375 C 83.566406 8.554688 83.9375 8.511719 84.304688 8.472656 C 84.34375 8.472656 84.386719 8.472656 84.46875 8.472656 C 84.796875 8.429688 85.164062 8.429688 85.492188 8.390625 C 85.574219 8.390625 85.695312 8.390625 85.777344 8.390625 C 86.105469 8.390625 86.433594 8.347656 86.761719 8.347656 L 86.800781 8.347656 C 87.167969 8.347656 87.539062 8.347656 87.945312 8.347656 C 88.640625 8.226562 89.339844 8.226562 90.074219 8.308594 Z M 90.074219 8.308594 " fill-opacity="1" fill-rule="nonzero"/><path fill="#ffffff" d="M 46.039062 43.789062 L 39.898438 43.789062 C 39.898438 44.078125 39.898438 44.324219 39.898438 44.609375 C 39.898438 44.773438 39.898438 44.976562 39.898438 45.140625 C 39.898438 45.222656 39.898438 45.347656 39.898438 45.425781 C 39.898438 45.589844 39.898438 45.714844 39.941406 45.878906 C 39.941406 45.960938 39.941406 46.042969 39.980469 46.164062 C 39.980469 46.367188 40.023438 46.574219 40.0625 46.777344 C 40.105469 46.941406 40.105469 47.105469 40.144531 47.269531 C 40.144531 47.308594 40.144531 47.351562 40.1875 47.390625 C 40.226562 47.597656 40.269531 47.800781 40.351562 48.046875 C 40.390625 48.210938 40.433594 48.375 40.511719 48.539062 C 40.554688 48.660156 40.59375 48.742188 40.636719 48.867188 C 40.675781 49.027344 40.757812 49.152344 40.800781 49.316406 C 40.839844 49.4375 40.882812 49.519531 40.921875 49.644531 C 40.964844 49.765625 41.046875 49.886719 41.085938 50.011719 C 41.210938 50.257812 41.332031 50.503906 41.453125 50.707031 C 44.648438 56.3125 52.175781 58.648438 61.386719 57.664062 C 55.042969 57.214844 50.050781 54.882812 47.59375 50.542969 C 46.570312 48.703125 46.078125 46.65625 46.078125 44.445312 C 46.039062 44.242188 46.039062 44.035156 46.039062 43.789062 Z M 46.039062 43.789062 " fill-opacity="1" fill-rule="nonzero"/><path fill="#04b1dc" d="M 40.023438 42.726562 L 52.710938 42.726562 L 53.324219 42.070312 C 55.574219 39.738281 60.320312 34.949219 63.839844 31.429688 L 72.3125 41.089844 L 75.546875 41.089844 L 82.953125 30.449219 L 96.214844 43.257812 C 96.582031 42.890625 96.910156 42.5625 97.238281 42.195312 L 83.320312 28.769531 L 73.007812 32.085938 L 63.351562 29.792969 L 63.0625 30.082031 C 55.246094 37.898438 52.382812 40.84375 51.316406 42.03125 L 36.214844 42.03125 C 35.890625 42.03125 35.644531 42.195312 35.683594 42.359375 C 35.683594 42.398438 35.683594 42.441406 35.726562 42.441406 C 35.847656 42.5625 36.09375 42.6875 36.378906 42.6875 L 38.058594 42.6875 Z M 40.023438 42.726562 " fill-opacity="1" fill-rule="nonzero"/><g clip-path="url(#79c036917f)"><path fill="#04b1dc" d="M 122.9375 42.972656 L 108.367188 42.972656 C 107.960938 43.464844 107.507812 43.953125 107.019531 44.445312 L 122.9375 44.445312 L 125.066406 45.140625 C 125.269531 44.199219 125.3125 43.257812 125.148438 42.316406 C 124.246094 42.605469 123.429688 42.847656 122.9375 42.972656 Z M 122.9375 42.972656 " fill-opacity="1" fill-rule="nonzero"/></g><path fill="#ffffff" d="M 63.800781 32.289062 L 60.238281 35.933594 L 63.757812 33.394531 L 68.710938 38.0625 Z M 63.800781 32.289062 " fill-opacity="1" fill-rule="nonzero"/><path fill="#ffffff" d="M 83.117188 31.347656 L 80.007812 35.402344 L 83.199219 32.453125 L 88.683594 36.503906 Z M 83.117188 31.347656 " fill-opacity="1" fill-rule="nonzero"/><path fill="#ffffff" d="M 60.8125 36.464844 L 62.777344 36.464844 L 62.777344 38.960938 L 60.8125 38.960938 Z M 60.8125 36.464844 " fill-opacity="1" fill-rule="nonzero"/><path fill="#ffffff" d="M 63.390625 36.464844 L 65.355469 36.464844 L 65.355469 38.960938 L 63.390625 38.960938 Z M 63.390625 36.464844 " fill-opacity="1" fill-rule="nonzero"/><path fill="#ffffff" d="M 60.8125 39.492188 L 62.777344 39.492188 L 62.777344 41.988281 L 60.8125 41.988281 Z M 60.8125 39.492188 " fill-opacity="1" fill-rule="nonzero"/><path fill="#ffffff" d="M 63.390625 39.492188 L 65.355469 39.492188 L 65.355469 41.988281 L 63.390625 41.988281 Z M 63.390625 39.492188 " fill-opacity="1" fill-rule="nonzero"/><path fill="#ffffff" d="M 81.972656 36.875 L 83.730469 36.875 L 83.730469 39.125 L 81.972656 39.125 Z M 81.972656 36.875 " fill-opacity="1" fill-rule="nonzero"/><path fill="#ffffff" d="M 84.261719 36.875 L 86.023438 36.875 L 86.023438 39.125 L 84.261719 39.125 Z M 84.261719 36.875 " fill-opacity="1" fill-rule="nonzero"/><path fill="#ffffff" d="M 81.972656 39.574219 L 83.730469 39.574219 L 83.730469 41.828125 L 81.972656 41.828125 Z M 81.972656 39.574219 " fill-opacity="1" fill-rule="nonzero"/><path fill="#ffffff" d="M 84.261719 39.574219 L 86.023438 39.574219 L 86.023438 41.828125 L 84.261719 41.828125 Z M 84.261719 39.574219 " fill-opacity="1" fill-rule="nonzero"/><g fill="#ffffff" fill-opacity="1"><g transform="translate(136.685353, 48.280591)"><g><path d="M 15.6875 -30.390625 C 17.863281 -30.390625 19.722656 -29.988281 21.265625 -29.1875 C 22.816406 -28.394531 23.984375 -27.28125 24.765625 -25.84375 C 25.554688 -24.40625 25.953125 -22.738281 25.953125 -20.84375 C 25.953125 -18.945312 25.554688 -17.285156 24.765625 -15.859375 C 23.984375 -14.429688 22.816406 -13.316406 21.265625 -12.515625 C 19.722656 -11.722656 17.863281 -11.328125 15.6875 -11.328125 L 9.953125 -11.328125 L 9.953125 0 L 3.953125 0 L 3.953125 -30.390625 Z M 14.90625 -16.078125 C 18.238281 -16.078125 19.90625 -17.664062 19.90625 -20.84375 C 19.90625 -24.03125 18.238281 -25.625 14.90625 -25.625 L 9.953125 -25.625 L 9.953125 -16.078125 Z M 14.90625 -16.078125 "/></g></g></g><g fill="#ffffff" fill-opacity="1"><g transform="translate(164.442977, 48.280591)"><g><path d="M 3.953125 0 L 3.953125 -30.390625 L 16.140625 -30.390625 C 19.285156 -30.390625 21.660156 -29.664062 23.265625 -28.21875 C 24.867188 -26.769531 25.671875 -24.769531 25.671875 -22.21875 C 25.671875 -20.375 25.203125 -18.863281 24.265625 -17.6875 C 23.328125 -16.507812 21.929688 -15.609375 20.078125 -14.984375 L 20.078125 -14.546875 C 21.035156 -14.128906 21.804688 -13.507812 22.390625 -12.6875 C 22.984375 -11.875 23.539062 -10.664062 24.0625 -9.0625 L 27.09375 0 L 20.921875 0 L 17.953125 -9.078125 C 17.648438 -9.992188 17.304688 -10.703125 16.921875 -11.203125 C 16.546875 -11.710938 16.0625 -12.082031 15.46875 -12.3125 C 14.882812 -12.539062 14.117188 -12.65625 13.171875 -12.65625 L 9.953125 -12.65625 L 9.953125 0 Z M 15.421875 -17.421875 C 18.328125 -17.421875 19.78125 -18.773438 19.78125 -21.484375 C 19.78125 -24.242188 18.328125 -25.625 15.421875 -25.625 L 9.953125 -25.625 L 9.953125 -17.421875 Z M 15.421875 -17.421875 "/></g></g></g><g fill="#ffffff" fill-opacity="1"><g transform="translate(192.844678, 48.280591)"><g><path d="M 16.5625 0.4375 C 13.78125 0.4375 11.320312 -0.128906 9.1875 -1.265625 C 7.0625 -2.398438 5.394531 -4.132812 4.1875 -6.46875 C 2.988281 -8.800781 2.390625 -11.707031 2.390625 -15.1875 C 2.390625 -18.664062 2.988281 -21.570312 4.1875 -23.90625 C 5.394531 -26.238281 7.0625 -27.972656 9.1875 -29.109375 C 11.320312 -30.253906 13.78125 -30.828125 16.5625 -30.828125 C 19.34375 -30.828125 21.789062 -30.257812 23.90625 -29.125 C 26.03125 -28 27.691406 -26.265625 28.890625 -23.921875 C 30.097656 -21.578125 30.703125 -18.664062 30.703125 -15.1875 C 30.703125 -11.707031 30.097656 -8.796875 28.890625 -6.453125 C 27.691406 -4.117188 26.03125 -2.382812 23.90625 -1.25 C 21.789062 -0.125 19.34375 0.4375 16.5625 0.4375 Z M 16.5625 -4.78125 C 19.132812 -4.78125 21.097656 -5.609375 22.453125 -7.265625 C 23.816406 -8.921875 24.5 -11.5625 24.5 -15.1875 C 24.5 -18.820312 23.816406 -21.46875 22.453125 -23.125 C 21.097656 -24.789062 19.132812 -25.625 16.5625 -25.625 C 13.96875 -25.625 11.988281 -24.789062 10.625 -23.125 C 9.257812 -21.46875 8.578125 -18.820312 8.578125 -15.1875 C 8.578125 -11.5625 9.257812 -8.921875 10.625 -7.265625 C 11.988281 -5.609375 13.96875 -4.78125 16.5625 -4.78125 Z M 16.5625 -4.78125 "/></g></g></g><g fill="#ffffff" fill-opacity="1"><g transform="translate(225.941906, 48.280591)"><g><path d="M 23.21875 -30.390625 L 23.21875 -25.359375 L 9.953125 -25.359375 L 9.953125 -17.3125 L 21.984375 -17.3125 L 21.984375 -12.34375 L 9.953125 -12.34375 L 9.953125 0 L 3.953125 0 L 3.953125 -30.390625 Z M 23.21875 -30.390625 "/></g></g></g><g fill="#ffffff" fill-opacity="1"><g transform="translate(250.499924, 48.280591)"><g><path d="M 23.21875 -30.390625 L 23.21875 -25.359375 L 9.953125 -25.359375 L 9.953125 -17.3125 L 21.984375 -17.3125 L 21.984375 -12.34375 L 9.953125 -12.34375 L 9.953125 0 L 3.953125 0 L 3.953125 -30.390625 Z M 23.21875 -30.390625 "/></g></g></g><g fill="#ffffff" fill-opacity="1"><g transform="translate(275.057942, 48.280591)"><g><path d="M 9.953125 -13.34375 L 9.953125 -5.03125 L 24.46875 -5.03125 L 24.46875 0 L 3.953125 0 L 3.953125 -30.390625 L 24.125 -30.390625 L 24.125 -25.359375 L 9.953125 -25.359375 L 9.953125 -18.25 L 22.34375 -18.25 L 22.34375 -13.34375 Z M 9.953125 -13.34375 "/></g></g></g><g fill="#ffffff" fill-opacity="1"><g transform="translate(301.17421, 48.280591)"><g><path d="M 13.46875 0.4375 C 11.363281 0.4375 9.488281 0.175781 7.84375 -0.34375 C 6.195312 -0.863281 4.828125 -1.546875 3.734375 -2.390625 C 2.640625 -3.234375 1.800781 -4.160156 1.21875 -5.171875 L 4.53125 -9.203125 L 5.046875 -9.203125 C 5.960938 -7.847656 7.125 -6.769531 8.53125 -5.96875 C 9.9375 -5.164062 11.582031 -4.765625 13.46875 -4.765625 C 15.070312 -4.765625 16.28125 -5.101562 17.09375 -5.78125 C 17.914062 -6.457031 18.328125 -7.390625 18.328125 -8.578125 C 18.328125 -9.296875 18.195312 -9.898438 17.9375 -10.390625 C 17.675781 -10.878906 17.238281 -11.296875 16.625 -11.640625 C 16.019531 -11.984375 15.195312 -12.28125 14.15625 -12.53125 L 10.25 -13.421875 C 7.519531 -14.046875 5.484375 -15.082031 4.140625 -16.53125 C 2.804688 -17.976562 2.140625 -19.859375 2.140625 -22.171875 C 2.140625 -23.890625 2.566406 -25.398438 3.421875 -26.703125 C 4.285156 -28.003906 5.535156 -29.015625 7.171875 -29.734375 C 8.816406 -30.460938 10.785156 -30.828125 13.078125 -30.828125 C 15.410156 -30.828125 17.410156 -30.515625 19.078125 -29.890625 C 20.753906 -29.273438 22.164062 -28.332031 23.3125 -27.0625 L 20.34375 -22.984375 L 19.828125 -22.984375 C 18.960938 -23.890625 17.976562 -24.566406 16.875 -25.015625 C 15.769531 -25.460938 14.503906 -25.6875 13.078125 -25.6875 C 11.421875 -25.6875 10.160156 -25.394531 9.296875 -24.8125 C 8.441406 -24.226562 8.015625 -23.425781 8.015625 -22.40625 C 8.015625 -21.445312 8.316406 -20.679688 8.921875 -20.109375 C 9.523438 -19.546875 10.566406 -19.101562 12.046875 -18.78125 L 16.046875 -17.953125 C 18.992188 -17.328125 21.132812 -16.269531 22.46875 -14.78125 C 23.800781 -13.289062 24.46875 -11.347656 24.46875 -8.953125 C 24.46875 -7.054688 24.054688 -5.40625 23.234375 -4 C 22.421875 -2.59375 21.1875 -1.5 19.53125 -0.71875 C 17.882812 0.0507812 15.863281 0.4375 13.46875 0.4375 Z M 13.46875 0.4375 "/></g></g></g><g fill="#ffffff" fill-opacity="1"><g transform="translate(327.269701, 48.280591)"><g><path d="M 13.46875 0.4375 C 11.363281 0.4375 9.488281 0.175781 7.84375 -0.34375 C 6.195312 -0.863281 4.828125 -1.546875 3.734375 -2.390625 C 2.640625 -3.234375 1.800781 -4.160156 1.21875 -5.171875 L 4.53125 -9.203125 L 5.046875 -9.203125 C 5.960938 -7.847656 7.125 -6.769531 8.53125 -5.96875 C 9.9375 -5.164062 11.582031 -4.765625 13.46875 -4.765625 C 15.070312 -4.765625 16.28125 -5.101562 17.09375 -5.78125 C 17.914062 -6.457031 18.328125 -7.390625 18.328125 -8.578125 C 18.328125 -9.296875 18.195312 -9.898438 17.9375 -10.390625 C 17.675781 -10.878906 17.238281 -11.296875 16.625 -11.640625 C 16.019531 -11.984375 15.195312 -12.28125 14.15625 -12.53125 L 10.25 -13.421875 C 7.519531 -14.046875 5.484375 -15.082031 4.140625 -16.53125 C 2.804688 -17.976562 2.140625 -19.859375 2.140625 -22.171875 C 2.140625 -23.890625 2.566406 -25.398438 3.421875 -26.703125 C 4.285156 -28.003906 5.535156 -29.015625 7.171875 -29.734375 C 8.816406 -30.460938 10.785156 -30.828125 13.078125 -30.828125 C 15.410156 -30.828125 17.410156 -30.515625 19.078125 -29.890625 C 20.753906 -29.273438 22.164062 -28.332031 23.3125 -27.0625 L 20.34375 -22.984375 L 19.828125 -22.984375 C 18.960938 -23.890625 17.976562 -24.566406 16.875 -25.015625 C 15.769531 -25.460938 14.503906 -25.6875 13.078125 -25.6875 C 11.421875 -25.6875 10.160156 -25.394531 9.296875 -24.8125 C 8.441406 -24.226562 8.015625 -23.425781 8.015625 -22.40625 C 8.015625 -21.445312 8.316406 -20.679688 8.921875 -20.109375 C 9.523438 -19.546875 10.566406 -19.101562 12.046875 -18.78125 L 16.046875 -17.953125 C 18.992188 -17.328125 21.132812 -16.269531 22.46875 -14.78125 C 23.800781 -13.289062 24.46875 -11.347656 24.46875 -8.953125 C 24.46875 -7.054688 24.054688 -5.40625 23.234375 -4 C 22.421875 -2.59375 21.1875 -1.5 19.53125 -0.71875 C 17.882812 0.0507812 15.863281 0.4375 13.46875 0.4375 Z M 13.46875 0.4375 "/></g></g></g><g fill="#ffffff" fill-opacity="1"><g transform="translate(353.365193, 48.280591)"><g><path d="M 16.5625 0.4375 C 13.78125 0.4375 11.320312 -0.128906 9.1875 -1.265625 C 7.0625 -2.398438 5.394531 -4.132812 4.1875 -6.46875 C 2.988281 -8.800781 2.390625 -11.707031 2.390625 -15.1875 C 2.390625 -18.664062 2.988281 -21.570312 4.1875 -23.90625 C 5.394531 -26.238281 7.0625 -27.972656 9.1875 -29.109375 C 11.320312 -30.253906 13.78125 -30.828125 16.5625 -30.828125 C 19.34375 -30.828125 21.789062 -30.257812 23.90625 -29.125 C 26.03125 -28 27.691406 -26.265625 28.890625 -23.921875 C 30.097656 -21.578125 30.703125 -18.664062 30.703125 -15.1875 C 30.703125 -11.707031 30.097656 -8.796875 28.890625 -6.453125 C 27.691406 -4.117188 26.03125 -2.382812 23.90625 -1.25 C 21.789062 -0.125 19.34375 0.4375 16.5625 0.4375 Z M 16.5625 -4.78125 C 19.132812 -4.78125 21.097656 -5.609375 22.453125 -7.265625 C 23.816406 -8.921875 24.5 -11.5625 24.5 -15.1875 C 24.5 -18.820312 23.816406 -21.46875 22.453125 -23.125 C 21.097656 -24.789062 19.132812 -25.625 16.5625 -25.625 C 13.96875 -25.625 11.988281 -24.789062 10.625 -23.125 C 9.257812 -21.46875 8.578125 -18.820312 8.578125 -15.1875 C 8.578125 -11.5625 9.257812 -8.921875 10.625 -7.265625 C 11.988281 -5.609375 13.96875 -4.78125 16.5625 -4.78125 Z M 16.5625 -4.78125 "/></g></g></g><g fill="#ffffff" fill-opacity="1"><g transform="translate(386.46242, 48.280591)"><g><path d="M 3.953125 0 L 3.953125 -30.390625 L 16.140625 -30.390625 C 19.285156 -30.390625 21.660156 -29.664062 23.265625 -28.21875 C 24.867188 -26.769531 25.671875 -24.769531 25.671875 -22.21875 C 25.671875 -20.375 25.203125 -18.863281 24.265625 -17.6875 C 23.328125 -16.507812 21.929688 -15.609375 20.078125 -14.984375 L 20.078125 -14.546875 C 21.035156 -14.128906 21.804688 -13.507812 22.390625 -12.6875 C 22.984375 -11.875 23.539062 -10.664062 24.0625 -9.0625 L 27.09375 0 L 20.921875 0 L 17.953125 -9.078125 C 17.648438 -9.992188 17.304688 -10.703125 16.921875 -11.203125 C 16.546875 -11.710938 16.0625 -12.082031 15.46875 -12.3125 C 14.882812 -12.539062 14.117188 -12.65625 13.171875 -12.65625 L 9.953125 -12.65625 L 9.953125 0 Z M 15.421875 -17.421875 C 18.328125 -17.421875 19.78125 -18.773438 19.78125 -21.484375 C 19.78125 -24.242188 18.328125 -25.625 15.421875 -25.625 L 9.953125 -25.625 L 9.953125 -17.421875 Z M 15.421875 -17.421875 "/></g></g></g><g fill="#ffffff" fill-opacity="1"><g transform="translate(414.864121, 48.280591)"><g/></g></g><g fill="#ffffff" fill-opacity="1"><g transform="translate(424.906188, 48.280591)"><g><path d="M 15.6875 -30.390625 C 17.863281 -30.390625 19.722656 -29.988281 21.265625 -29.1875 C 22.816406 -28.394531 23.984375 -27.28125 24.765625 -25.84375 C 25.554688 -24.40625 25.953125 -22.738281 25.953125 -20.84375 C 25.953125 -18.945312 25.554688 -17.285156 24.765625 -15.859375 C 23.984375 -14.429688 22.816406 -13.316406 21.265625 -12.515625 C 19.722656 -11.722656 17.863281 -11.328125 15.6875 -11.328125 L 9.953125 -11.328125 L 9.953125 0 L 3.953125 0 L 3.953125 -30.390625 Z M 14.90625 -16.078125 C 18.238281 -16.078125 19.90625 -17.664062 19.90625 -20.84375 C 19.90625 -24.03125 18.238281 -25.625 14.90625 -25.625 L 9.953125 -25.625 L 9.953125 -16.078125 Z M 14.90625 -16.078125 "/></g></g></g><g fill="#ffffff" fill-opacity="1"><g transform="translate(452.663813, 48.280591)"><g><path d="M 16.5625 0.4375 C 13.78125 0.4375 11.320312 -0.128906 9.1875 -1.265625 C 7.0625 -2.398438 5.394531 -4.132812 4.1875 -6.46875 C 2.988281 -8.800781 2.390625 -11.707031 2.390625 -15.1875 C 2.390625 -18.664062 2.988281 -21.570312 4.1875 -23.90625 C 5.394531 -26.238281 7.0625 -27.972656 9.1875 -29.109375 C 11.320312 -30.253906 13.78125 -30.828125 16.5625 -30.828125 C 19.34375 -30.828125 21.789062 -30.257812 23.90625 -29.125 C 26.03125 -28 27.691406 -26.265625 28.890625 -23.921875 C 30.097656 -21.578125 30.703125 -18.664062 30.703125 -15.1875 C 30.703125 -11.707031 30.097656 -8.796875 28.890625 -6.453125 C 27.691406 -4.117188 26.03125 -2.382812 23.90625 -1.25 C 21.789062 -0.125 19.34375 0.4375 16.5625 0.4375 Z M 16.5625 -4.78125 C 19.132812 -4.78125 21.097656 -5.609375 22.453125 -7.265625 C 23.816406 -8.921875 24.5 -11.5625 24.5 -15.1875 C 24.5 -18.820312 23.816406 -21.46875 22.453125 -23.125 C 21.097656 -24.789062 19.132812 -25.625 16.5625 -25.625 C 13.96875 -25.625 11.988281 -24.789062 10.625 -23.125 C 9.257812 -21.46875 8.578125 -18.820312 8.578125 -15.1875 C 8.578125 -11.5625 9.257812 -8.921875 10.625 -7.265625 C 11.988281 -5.609375 13.96875 -4.78125 16.5625 -4.78125 Z M 16.5625 -4.78125 "/></g></g></g><g fill="#ffffff" fill-opacity="1"><g transform="translate(485.76104, 48.280591)"><g><path d="M 14.5 0 L 7.796875 0 L 0.828125 -30.390625 L 6.8125 -30.390625 L 11.40625 -9.015625 L 11.921875 -9.015625 L 17.375 -30.390625 L 22.5 -30.390625 L 28.0625 -9.015625 L 28.578125 -9.015625 L 33.1875 -30.390625 L 38.96875 -30.390625 L 32.03125 0 L 25.296875 0 L 19.96875 -19.59375 L 19.53125 -19.59375 Z M 14.5 0 "/></g></g></g><g fill="#ffffff" fill-opacity="1"><g transform="translate(525.527577, 48.280591)"><g><path d="M 9.953125 -13.34375 L 9.953125 -5.03125 L 24.46875 -5.03125 L 24.46875 0 L 3.953125 0 L 3.953125 -30.390625 L 24.125 -30.390625 L 24.125 -25.359375 L 9.953125 -25.359375 L 9.953125 -18.25 L 22.34375 -18.25 L 22.34375 -13.34375 Z M 9.953125 -13.34375 "/></g></g></g><g fill="#ffffff" fill-opacity="1"><g transform="translate(551.643846, 48.280591)"><g><path d="M 3.953125 0 L 3.953125 -30.390625 L 16.140625 -30.390625 C 19.285156 -30.390625 21.660156 -29.664062 23.265625 -28.21875 C 24.867188 -26.769531 25.671875 -24.769531 25.671875 -22.21875 C 25.671875 -20.375 25.203125 -18.863281 24.265625 -17.6875 C 23.328125 -16.507812 21.929688 -15.609375 20.078125 -14.984375 L 20.078125 -14.546875 C 21.035156 -14.128906 21.804688 -13.507812 22.390625 -12.6875 C 22.984375 -11.875 23.539062 -10.664062 24.0625 -9.0625 L 27.09375 0 L 20.921875 0 L 17.953125 -9.078125 C 17.648438 -9.992188 17.304688 -10.703125 16.921875 -11.203125 C 16.546875 -11.710938 16.0625 -12.082031 15.46875 -12.3125 C 14.882812 -12.539062 14.117188 -12.65625 13.171875 -12.65625 L 9.953125 -12.65625 L 9.953125 0 Z M 15.421875 -17.421875 C 18.328125 -17.421875 19.78125 -18.773438 19.78125 -21.484375 C 19.78125 -24.242188 18.328125 -25.625 15.421875 -25.625 L 9.953125 -25.625 L 9.953125 -17.421875 Z M 15.421875 -17.421875 "/></g></g></g><g fill="#ffffff" fill-opacity="1"><g transform="translate(580.045547, 48.280591)"><g><path d="M 14.5 0 L 7.796875 0 L 0.828125 -30.390625 L 6.8125 -30.390625 L 11.40625 -9.015625 L 11.921875 -9.015625 L 17.375 -30.390625 L 22.5 -30.390625 L 28.0625 -9.015625 L 28.578125 -9.015625 L 33.1875 -30.390625 L 38.96875 -30.390625 L 32.03125 0 L 25.296875 0 L 19.96875 -19.59375 L 19.53125 -19.59375 Z M 14.5 0 "/></g></g></g><g fill="#ffffff" fill-opacity="1"><g transform="translate(619.812084, 48.280591)"><g><path d="M 29.15625 0 L 22.84375 0 L 20.546875 -7 L 8.921875 -7 L 6.625 0 L 0.453125 0 L 10.953125 -30.390625 L 18.65625 -30.390625 Z M 14.4375 -24.046875 L 10.53125 -12.046875 L 18.890625 -12.046875 L 14.96875 -24.046875 Z M 14.4375 -24.046875 "/></g></g></g><g fill="#ffffff" fill-opacity="1"><g transform="translate(649.418832, 48.280591)"><g><path d="M 13.46875 0.4375 C 11.363281 0.4375 9.488281 0.175781 7.84375 -0.34375 C 6.195312 -0.863281 4.828125 -1.546875 3.734375 -2.390625 C 2.640625 -3.234375 1.800781 -4.160156 1.21875 -5.171875 L 4.53125 -9.203125 L 5.046875 -9.203125 C 5.960938 -7.847656 7.125 -6.769531 8.53125 -5.96875 C 9.9375 -5.164062 11.582031 -4.765625 13.46875 -4.765625 C 15.070312 -4.765625 16.28125 -5.101562 17.09375 -5.78125 C 17.914062 -6.457031 18.328125 -7.390625 18.328125 -8.578125 C 18.328125 -9.296875 18.195312 -9.898438 17.9375 -10.390625 C 17.675781 -10.878906 17.238281 -11.296875 16.625 -11.640625 C 16.019531 -11.984375 15.195312 -12.28125 14.15625 -12.53125 L 10.25 -13.421875 C 7.519531 -14.046875 5.484375 -15.082031 4.140625 -16.53125 C 2.804688 -17.976562 2.140625 -19.859375 2.140625 -22.171875 C 2.140625 -23.890625 2.566406 -25.398438 3.421875 -26.703125 C 4.285156 -28.003906 5.535156 -29.015625 7.171875 -29.734375 C 8.816406 -30.460938 10.785156 -30.828125 13.078125 -30.828125 C 15.410156 -30.828125 17.410156 -30.515625 19.078125 -29.890625 C 20.753906 -29.273438 22.164062 -28.332031 23.3125 -27.0625 L 20.34375 -22.984375 L 19.828125 -22.984375 C 18.960938 -23.890625 17.976562 -24.566406 16.875 -25.015625 C 15.769531 -25.460938 14.503906 -25.6875 13.078125 -25.6875 C 11.421875 -25.6875 10.160156 -25.394531 9.296875 -24.8125 C 8.441406 -24.226562 8.015625 -23.425781 8.015625 -22.40625 C 8.015625 -21.445312 8.316406 -20.679688 8.921875 -20.109375 C 9.523438 -19.546875 10.566406 -19.101562 12.046875 -18.78125 L 16.046875 -17.953125 C 18.992188 -17.328125 21.132812 -16.269531 22.46875 -14.78125 C 23.800781 -13.289062 24.46875 -11.347656 24.46875 -8.953125 C 24.46875 -7.054688 24.054688 -5.40625 23.234375 -4 C 22.421875 -2.59375 21.1875 -1.5 19.53125 -0.71875 C 17.882812 0.0507812 15.863281 0.4375 13.46875 0.4375 Z M 13.46875 0.4375 "/></g></g></g><g fill="#ffffff" fill-opacity="1"><g transform="translate(675.514323, 48.280591)"><g><path d="M 23.5625 -18.953125 L 23.5625 -30.390625 L 29.546875 -30.390625 L 29.546875 0 L 23.5625 0 L 23.5625 -13.84375 L 9.953125 -13.84375 L 9.953125 0 L 3.953125 0 L 3.953125 -30.390625 L 9.953125 -30.390625 L 9.953125 -18.953125 Z M 23.5625 -18.953125 "/></g></g></g><g clip-path="url(#45ada88785)"><g clip-path="url(#0484302749)"><g transform="matrix(1, 0, 0, 1, 84, 10)"><g clip-path="url(#37874c2c46)"><g clip-path="url(#abc1ff964e)"><g clip-path="url(#b80c7d8947)"><path fill="#0c2340" d="M 0.109375 0.980469 L 14.882812 0.980469 L 14.882812 15.753906 L 0.109375 15.753906 Z M 0.109375 0.980469 " fill-opacity="1" fill-rule="nonzero"/></g></g></g></g></g></g><g clip-path="url(#e4ec05f806)"><g clip-path="url(#fd5052c508)"><g transform="matrix(1, 0, 0, 1, 89, 10)"><g clip-path="url(#169b9889fa)"><g clip-path="url(#91087b2d34)"><g clip-path="url(#a4eb196863)"><path fill="#0c2340" d="M 0.789062 0.980469 L 15.5625 0.980469 L 15.5625 15.753906 L 0.789062 15.753906 Z M 0.789062 0.980469 " fill-opacity="1" fill-rule="nonzero"/></g></g></g></g></g></g><g clip-path="url(#e9c689124d)"><g clip-path="url(#2a7e5444b9)"><g transform="matrix(1, 0, 0, 1, 91, 19)"><g clip-path="url(#ec560b65bb)"><g clip-path="url(#3b237653a5)"><g clip-path="url(#0250c43d28)"><path fill="#0c2340" d="M 0.324219 0.902344 L 12.027344 0.902344 L 12.027344 12.605469 L 0.324219 12.605469 Z M 0.324219 0.902344 " fill-opacity="1" fill-rule="nonzero"/></g></g></g></g></g></g><g clip-path="url(#278c8203af)"><g clip-path="url(#bbd4915b38)"><g transform="matrix(1, 0, 0, 1, 78, 13)"><g clip-path="url(#3ce711bd3f)"><g clip-path="url(#f60be8da1c)"><g clip-path="url(#84ff01e4c7)"><path fill="#0c2340" d="M 0.429688 0.0976562 L 15.203125 0.0976562 L 15.203125 14.871094 L 0.429688 14.871094 Z M 0.429688 0.0976562 " fill-opacity="1" fill-rule="nonzero"/></g></g></g></g></g></g><g clip-path="url(#6242bd755b)"><g clip-path="url(#13ac96c563)"><g transform="matrix(1, 0, 0, 1, 84, 13)"><g clip-path="url(#af80362d42)"><g clip-path="url(#d3cd860028)"><g clip-path="url(#32fafae14e)"><path fill="#0c2340" d="M 0.109375 0.0976562 L 14.882812 0.0976562 L 14.882812 14.871094 L 0.109375 14.871094 Z M 0.109375 0.0976562 " fill-opacity="1" fill-rule="nonzero"/></g></g></g></g></g></g><g clip-path="url(#697b5ac35d)"><g clip-path="url(#c8f1411cab)"><g transform="matrix(1, 0, 0, 1, 91, 27)"><g clip-path="url(#a68ac65387)"><g clip-path="url(#200a39e298)"><g clip-path="url(#9d1697abfd)"><path fill="#0c2340" d="M 0.496094 0.871094 L 9.589844 0.871094 L 9.589844 9.964844 L 0.496094 9.964844 Z M 0.496094 0.871094 " fill-opacity="1" fill-rule="nonzero"/></g></g></g></g></g></g><g clip-path="url(#23ad344bff)"><g clip-path="url(#b5323634ea)"><g transform="matrix(1, 0, 0, 1, 86, 22)"><g clip-path="url(#81f38c2aac)"><g clip-path="url(#05f90e46b0)"><g clip-path="url(#52053d90ca)"><path fill="#0c2340" d="M 0.949219 0.511719 L 10.042969 0.511719 L 10.042969 9.605469 L 0.949219 9.605469 Z M 0.949219 0.511719 " fill-opacity="1" fill-rule="nonzero"/></g></g></g></g></g></g><g clip-path="url(#64e81d4eae)"><path fill="#ffffff" d="M 94.9375 13.125 C 94.894531 13.125 94.855469 13.121094 94.820312 13.105469 L 88.414062 10.796875 C 88.265625 10.742188 88.1875 10.632812 88.1875 10.472656 C 88.1875 10.3125 88.265625 10.207031 88.414062 10.152344 L 94.820312 7.839844 C 94.898438 7.8125 94.976562 7.8125 95.050781 7.839844 L 101.457031 10.152344 C 101.605469 10.207031 101.683594 10.3125 101.683594 10.472656 C 101.683594 10.632812 101.605469 10.742188 101.457031 10.796875 L 95.050781 13.105469 C 95.015625 13.121094 94.976562 13.125 94.9375 13.125 Z M 89.542969 10.472656 L 94.9375 12.417969 L 100.332031 10.472656 L 94.9375 8.527344 Z M 89.542969 10.472656 " fill-opacity="1" fill-rule="nonzero"/></g><path fill="#ffffff" d="M 99.507812 15.367188 L 90.367188 15.367188 C 90.269531 15.367188 90.191406 15.332031 90.125 15.265625 C 90.054688 15.199219 90.023438 15.117188 90.023438 15.023438 L 90.023438 11.132812 C 90.023438 11.039062 90.054688 10.960938 90.125 10.890625 C 90.191406 10.824219 90.269531 10.792969 90.367188 10.792969 C 90.460938 10.792969 90.542969 10.824219 90.609375 10.890625 C 90.675781 10.960938 90.707031 11.039062 90.707031 11.132812 L 90.707031 14.679688 L 99.164062 14.679688 L 99.164062 11.132812 C 99.164062 11.039062 99.195312 10.960938 99.265625 10.890625 C 99.332031 10.824219 99.410156 10.792969 99.507812 10.792969 C 99.601562 10.792969 99.683594 10.824219 99.75 10.890625 C 99.816406 10.960938 99.847656 11.039062 99.847656 11.132812 L 99.847656 15.023438 C 99.847656 15.117188 99.816406 15.199219 99.75 15.265625 C 99.683594 15.332031 99.601562 15.367188 99.507812 15.367188 Z M 99.507812 15.367188 " fill-opacity="1" fill-rule="nonzero"/><path fill="#ffffff" d="M 101.339844 13.308594 C 101.246094 13.308594 101.164062 13.277344 101.097656 13.210938 C 101.03125 13.144531 100.996094 13.0625 100.996094 12.96875 L 100.996094 10.472656 C 100.996094 10.378906 101.03125 10.296875 101.097656 10.230469 C 101.164062 10.164062 101.246094 10.128906 101.339844 10.128906 C 101.433594 10.128906 101.515625 10.164062 101.582031 10.230469 C 101.648438 10.296875 101.683594 10.378906 101.683594 10.472656 L 101.683594 12.96875 C 101.683594 13.0625 101.648438 13.144531 101.582031 13.210938 C 101.515625 13.277344 101.433594 13.308594 101.339844 13.308594 Z M 101.339844 13.308594 " fill-opacity="1" fill-rule="nonzero"/><path fill="#ffffff" d="M 94.9375 19.902344 C 92.46875 19.902344 90.460938 17.902344 90.460938 15.441406 C 90.460938 15.289062 90.46875 15.140625 90.484375 14.988281 C 90.496094 14.894531 90.535156 14.816406 90.609375 14.757812 C 90.683594 14.699219 90.765625 14.671875 90.859375 14.683594 C 90.953125 14.691406 91.03125 14.734375 91.089844 14.808594 C 91.152344 14.878906 91.175781 14.964844 91.167969 15.058594 C 91.152344 15.183594 91.148438 15.3125 91.148438 15.441406 C 91.148438 17.523438 92.847656 19.21875 94.9375 19.21875 C 97.027344 19.21875 98.726562 17.523438 98.726562 15.441406 C 98.726562 15.3125 98.71875 15.183594 98.707031 15.058594 C 98.699219 14.964844 98.722656 14.878906 98.78125 14.808594 C 98.84375 14.734375 98.917969 14.691406 99.011719 14.683594 C 99.105469 14.671875 99.191406 14.699219 99.265625 14.757812 C 99.335938 14.816406 99.378906 14.894531 99.390625 14.988281 C 99.402344 15.136719 99.410156 15.289062 99.410156 15.441406 C 99.410156 17.902344 97.402344 19.902344 94.9375 19.902344 Z M 94.9375 19.902344 " fill-opacity="1" fill-rule="nonzero"/><g clip-path="url(#22c09b2366)"><path fill="#ffffff" d="M 100.320312 29.847656 L 100.292969 29.847656 L 89.523438 29.730469 C 89.183594 29.726562 88.851562 29.660156 88.539062 29.527344 C 88.222656 29.394531 87.945312 29.207031 87.703125 28.960938 C 87.460938 28.71875 87.277344 28.441406 87.144531 28.125 C 87.015625 27.804688 86.949219 27.476562 86.949219 27.136719 L 86.949219 24.996094 C 86.949219 24.617188 86.988281 24.242188 87.0625 23.867188 C 87.136719 23.496094 87.246094 23.132812 87.394531 22.78125 C 87.539062 22.433594 87.71875 22.097656 87.929688 21.78125 C 88.140625 21.46875 88.382812 21.175781 88.652344 20.90625 C 88.917969 20.636719 89.210938 20.398438 89.527344 20.1875 C 89.84375 19.976562 90.179688 19.800781 90.53125 19.65625 C 90.882812 19.511719 91.242188 19.402344 91.617188 19.328125 C 91.988281 19.253906 92.367188 19.21875 92.746094 19.21875 L 97.128906 19.21875 C 97.507812 19.21875 97.882812 19.253906 98.257812 19.328125 C 98.628906 19.402344 98.992188 19.511719 99.34375 19.65625 C 99.695312 19.800781 100.027344 19.976562 100.34375 20.1875 C 100.660156 20.398438 100.953125 20.640625 101.222656 20.90625 C 101.492188 21.175781 101.730469 21.46875 101.941406 21.785156 C 102.152344 22.097656 102.332031 22.433594 102.480469 22.785156 C 102.625 23.132812 102.734375 23.496094 102.808594 23.867188 C 102.882812 24.242188 102.921875 24.617188 102.921875 24.996094 L 102.921875 27.25 C 102.921875 27.59375 102.855469 27.925781 102.722656 28.246094 C 102.589844 28.5625 102.402344 28.84375 102.160156 29.085938 C 101.914062 29.332031 101.632812 29.519531 101.316406 29.648438 C 100.996094 29.78125 100.664062 29.847656 100.320312 29.847656 Z M 92.746094 19.902344 C 89.929688 19.902344 87.636719 22.1875 87.636719 24.996094 L 87.636719 27.136719 C 87.636719 28.175781 88.484375 29.035156 89.53125 29.046875 L 100.300781 29.160156 C 100.554688 29.164062 100.800781 29.117188 101.039062 29.023438 C 101.273438 28.929688 101.484375 28.789062 101.667969 28.609375 C 101.847656 28.429688 101.988281 28.222656 102.089844 27.988281 C 102.1875 27.753906 102.238281 27.507812 102.238281 27.25 L 102.238281 24.996094 C 102.238281 22.1875 99.945312 19.902344 97.125 19.902344 Z M 92.746094 19.902344 " fill-opacity="1" fill-rule="nonzero"/></g><g clip-path="url(#d10247f796)"><path fill="#ffffff" d="M 94.703125 29.789062 C 94.582031 29.789062 94.488281 29.738281 94.417969 29.636719 L 91.566406 25.375 C 91.472656 25.230469 91.480469 25.09375 91.597656 24.960938 L 92.964844 23.402344 L 91.351562 21.695312 C 91.246094 21.582031 91.226562 21.453125 91.292969 21.3125 L 92.203125 19.414062 C 92.246094 19.328125 92.308594 19.265625 92.398438 19.234375 C 92.488281 19.203125 92.578125 19.207031 92.664062 19.25 C 92.75 19.289062 92.808594 19.355469 92.839844 19.445312 C 92.871094 19.535156 92.863281 19.625 92.824219 19.710938 L 92.011719 21.398438 L 93.679688 23.160156 C 93.738281 23.222656 93.769531 23.300781 93.773438 23.390625 C 93.773438 23.476562 93.746094 23.554688 93.6875 23.621094 L 92.285156 25.214844 L 94.988281 29.257812 C 95.066406 29.371094 95.070312 29.488281 95.007812 29.609375 C 94.941406 29.730469 94.839844 29.789062 94.703125 29.789062 Z M 94.703125 29.789062 " fill-opacity="1" fill-rule="nonzero"/></g><g clip-path="url(#8be8ca8395)"><path fill="#ffffff" d="M 95.167969 29.789062 C 95.03125 29.789062 94.929688 29.730469 94.867188 29.609375 C 94.800781 29.488281 94.808594 29.371094 94.882812 29.257812 L 97.585938 25.214844 L 96.183594 23.621094 C 96.125 23.554688 96.097656 23.476562 96.097656 23.390625 C 96.101562 23.300781 96.132812 23.222656 96.191406 23.160156 L 97.859375 21.398438 L 97.050781 19.707031 C 97.007812 19.625 97.003906 19.535156 97.035156 19.449219 C 97.066406 19.359375 97.125 19.292969 97.210938 19.253906 C 97.296875 19.214844 97.382812 19.207031 97.472656 19.238281 C 97.558594 19.269531 97.625 19.328125 97.667969 19.410156 L 98.578125 21.3125 C 98.644531 21.453125 98.625 21.582031 98.519531 21.695312 L 96.90625 23.402344 L 98.277344 24.960938 C 98.390625 25.089844 98.398438 25.230469 98.304688 25.375 L 95.453125 29.636719 C 95.386719 29.738281 95.289062 29.789062 95.167969 29.789062 Z M 95.167969 29.789062 " fill-opacity="1" fill-rule="nonzero"/></g><path fill="#ffffff" d="M 94.953125 21.652344 L 94.9375 21.652344 C 94.628906 21.648438 94.382812 21.519531 94.207031 21.265625 L 93.140625 19.757812 C 93.085938 19.679688 93.066406 19.59375 93.082031 19.503906 C 93.097656 19.410156 93.144531 19.335938 93.222656 19.28125 C 93.300781 19.226562 93.382812 19.207031 93.476562 19.222656 C 93.570312 19.238281 93.644531 19.285156 93.699219 19.363281 L 94.765625 20.871094 C 94.8125 20.933594 94.871094 20.964844 94.945312 20.964844 C 95.023438 20.96875 95.082031 20.9375 95.128906 20.875 L 96.28125 19.355469 C 96.335938 19.277344 96.414062 19.234375 96.507812 19.222656 C 96.601562 19.207031 96.683594 19.230469 96.761719 19.285156 C 96.835938 19.34375 96.878906 19.417969 96.894531 19.511719 C 96.90625 19.605469 96.882812 19.691406 96.828125 19.765625 L 95.675781 21.289062 C 95.496094 21.53125 95.253906 21.652344 94.953125 21.652344 Z M 94.953125 21.652344 " fill-opacity="1" fill-rule="nonzero"/></svg>