<svg xmlns="http://www.w3.org/2000/svg" xmlns:xlink="http://www.w3.org/1999/xlink" width="3800" zoomAndPan="magnify" viewBox="0 0 2850 278.999983" height="372" preserveAspectRatio="xMidYMid meet" version="1.0"><defs><g/><clipPath id="1dc24da9a5"><path d="M 56.175781 147 L 215 147 L 215 225 L 56.175781 225 Z M 56.175781 147 " clip-rule="nonzero"/></clipPath><clipPath id="591b399396"><rect x="0" width="2302" y="0" height="236"/></clipPath><clipPath id="eec517926f"><path d="M 333.535156 44.082031 L 392.835938 44.082031 L 392.835938 103.386719 L 333.535156 103.386719 Z M 333.535156 44.082031 " clip-rule="nonzero"/></clipPath><clipPath id="ccafc38f05"><path d="M 363.1875 44.082031 C 346.808594 44.082031 333.535156 57.359375 333.535156 73.734375 C 333.535156 90.109375 346.808594 103.386719 363.1875 103.386719 C 379.5625 103.386719 392.835938 90.109375 392.835938 73.734375 C 392.835938 57.359375 379.5625 44.082031 363.1875 44.082031 Z M 363.1875 44.082031 " clip-rule="nonzero"/></clipPath><clipPath id="d1c459236a"><path d="M 0.535156 0.0820312 L 59.835938 0.0820312 L 59.835938 59.386719 L 0.535156 59.386719 Z M 0.535156 0.0820312 " clip-rule="nonzero"/></clipPath><clipPath id="55ef5e8294"><path d="M 30.1875 0.0820312 C 13.808594 0.0820312 0.535156 13.359375 0.535156 29.734375 C 0.535156 46.109375 13.808594 59.386719 30.1875 59.386719 C 46.5625 59.386719 59.835938 46.109375 59.835938 29.734375 C 59.835938 13.359375 46.5625 0.0820312 30.1875 0.0820312 Z M 30.1875 0.0820312 " clip-rule="nonzero"/></clipPath><clipPath id="6133f5dbb6"><rect x="0" width="60" y="0" height="60"/></clipPath><clipPath id="4145c60b04"><path d="M 356.335938 44.082031 L 415.636719 44.082031 L 415.636719 103.386719 L 356.335938 103.386719 Z M 356.335938 44.082031 " clip-rule="nonzero"/></clipPath><clipPath id="d3d839554a"><path d="M 385.988281 44.082031 C 369.609375 44.082031 356.335938 57.359375 356.335938 73.734375 C 356.335938 90.109375 369.609375 103.386719 385.988281 103.386719 C 402.363281 103.386719 415.636719 90.109375 415.636719 73.734375 C 415.636719 57.359375 402.363281 44.082031 385.988281 44.082031 Z M 385.988281 44.082031 " clip-rule="nonzero"/></clipPath><clipPath id="60f48e478c"><path d="M 0.335938 0.0820312 L 59.636719 0.0820312 L 59.636719 59.386719 L 0.335938 59.386719 Z M 0.335938 0.0820312 " clip-rule="nonzero"/></clipPath><clipPath id="276d9f086d"><path d="M 29.988281 0.0820312 C 13.609375 0.0820312 0.335938 13.359375 0.335938 29.734375 C 0.335938 46.109375 13.609375 59.386719 29.988281 59.386719 C 46.363281 59.386719 59.636719 46.109375 59.636719 29.734375 C 59.636719 13.359375 46.363281 0.0820312 29.988281 0.0820312 Z M 29.988281 0.0820312 " clip-rule="nonzero"/></clipPath><clipPath id="34d6527bf7"><rect x="0" width="60" y="0" height="60"/></clipPath><clipPath id="000f4db208"><path d="M 362.496094 79.894531 L 409.480469 79.894531 L 409.480469 126.878906 L 362.496094 126.878906 Z M 362.496094 79.894531 " clip-rule="nonzero"/></clipPath><clipPath id="2d25312c07"><path d="M 385.988281 79.894531 C 373.011719 79.894531 362.496094 90.410156 362.496094 103.386719 C 362.496094 116.359375 373.011719 126.878906 385.988281 126.878906 C 398.960938 126.878906 409.480469 116.359375 409.480469 103.386719 C 409.480469 90.410156 398.960938 79.894531 385.988281 79.894531 Z M 385.988281 79.894531 " clip-rule="nonzero"/></clipPath><clipPath id="42d02bd34b"><path d="M 0.496094 0.894531 L 47.480469 0.894531 L 47.480469 47.878906 L 0.496094 47.878906 Z M 0.496094 0.894531 " clip-rule="nonzero"/></clipPath><clipPath id="bb3f41b047"><path d="M 23.988281 0.894531 C 11.011719 0.894531 0.496094 11.410156 0.496094 24.386719 C 0.496094 37.359375 11.011719 47.878906 23.988281 47.878906 C 36.960938 47.878906 47.480469 37.359375 47.480469 24.386719 C 47.480469 11.410156 36.960938 0.894531 23.988281 0.894531 Z M 23.988281 0.894531 " clip-rule="nonzero"/></clipPath><clipPath id="612a6e8db9"><rect x="0" width="48" y="0" height="48"/></clipPath><clipPath id="55779cb923"><path d="M 310.734375 52.582031 L 370.035156 52.582031 L 370.035156 111.882812 L 310.734375 111.882812 Z M 310.734375 52.582031 " clip-rule="nonzero"/></clipPath><clipPath id="d025830a82"><path d="M 340.382812 52.582031 C 324.007812 52.582031 310.734375 65.855469 310.734375 82.230469 C 310.734375 98.609375 324.007812 111.882812 340.382812 111.882812 C 356.761719 111.882812 370.035156 98.609375 370.035156 82.230469 C 370.035156 65.855469 356.761719 52.582031 340.382812 52.582031 Z M 340.382812 52.582031 " clip-rule="nonzero"/></clipPath><clipPath id="c8c27be0cd"><path d="M 0.734375 0.582031 L 60.035156 0.582031 L 60.035156 59.882812 L 0.734375 59.882812 Z M 0.734375 0.582031 " clip-rule="nonzero"/></clipPath><clipPath id="62a4d8606a"><path d="M 30.382812 0.582031 C 14.007812 0.582031 0.734375 13.855469 0.734375 30.230469 C 0.734375 46.609375 14.007812 59.882812 30.382812 59.882812 C 46.761719 59.882812 60.035156 46.609375 60.035156 30.230469 C 60.035156 13.855469 46.761719 0.582031 30.382812 0.582031 Z M 30.382812 0.582031 " clip-rule="nonzero"/></clipPath><clipPath id="89323a6abd"><rect x="0" width="61" y="0" height="60"/></clipPath><clipPath id="e1287f482d"><path d="M 333.535156 52.582031 L 392.835938 52.582031 L 392.835938 111.882812 L 333.535156 111.882812 Z M 333.535156 52.582031 " clip-rule="nonzero"/></clipPath><clipPath id="c76df15897"><path d="M 363.1875 52.582031 C 346.808594 52.582031 333.535156 65.855469 333.535156 82.230469 C 333.535156 98.609375 346.808594 111.882812 363.1875 111.882812 C 379.5625 111.882812 392.835938 98.609375 392.835938 82.230469 C 392.835938 65.855469 379.5625 52.582031 363.1875 52.582031 Z M 363.1875 52.582031 " clip-rule="nonzero"/></clipPath><clipPath id="8c5dc1a25e"><path d="M 0.535156 0.582031 L 59.835938 0.582031 L 59.835938 59.882812 L 0.535156 59.882812 Z M 0.535156 0.582031 " clip-rule="nonzero"/></clipPath><clipPath id="b12fc3f71c"><path d="M 30.1875 0.582031 C 13.808594 0.582031 0.535156 13.855469 0.535156 30.230469 C 0.535156 46.609375 13.808594 59.882812 30.1875 59.882812 C 46.5625 59.882812 59.835938 46.609375 59.835938 30.230469 C 59.835938 13.855469 46.5625 0.582031 30.1875 0.582031 Z M 30.1875 0.582031 " clip-rule="nonzero"/></clipPath><clipPath id="3b8bb5a89d"><rect x="0" width="60" y="0" height="60"/></clipPath><clipPath id="dc6f80c288"><path d="M 363.1875 111.882812 L 399.6875 111.882812 L 399.6875 148.382812 L 363.1875 148.382812 Z M 363.1875 111.882812 " clip-rule="nonzero"/></clipPath><clipPath id="f1c5fb5aa6"><path d="M 381.4375 111.882812 C 371.355469 111.882812 363.1875 120.054688 363.1875 130.132812 C 363.1875 140.214844 371.355469 148.382812 381.4375 148.382812 C 391.515625 148.382812 399.6875 140.214844 399.6875 130.132812 C 399.6875 120.054688 391.515625 111.882812 381.4375 111.882812 Z M 381.4375 111.882812 " clip-rule="nonzero"/></clipPath><clipPath id="af990eb278"><path d="M 0.1875 0.882812 L 36.6875 0.882812 L 36.6875 37.382812 L 0.1875 37.382812 Z M 0.1875 0.882812 " clip-rule="nonzero"/></clipPath><clipPath id="13d07acc2f"><path d="M 18.4375 0.882812 C 8.355469 0.882812 0.1875 9.054688 0.1875 19.132812 C 0.1875 29.214844 8.355469 37.382812 18.4375 37.382812 C 28.515625 37.382812 36.6875 29.214844 36.6875 19.132812 C 36.6875 9.054688 28.515625 0.882812 18.4375 0.882812 Z M 18.4375 0.882812 " clip-rule="nonzero"/></clipPath><clipPath id="f357d0644e"><rect x="0" width="37" y="0" height="38"/></clipPath><clipPath id="b62e82cacf"><path d="M 344.933594 90.378906 L 381.4375 90.378906 L 381.4375 126.878906 L 344.933594 126.878906 Z M 344.933594 90.378906 " clip-rule="nonzero"/></clipPath><clipPath id="8019434619"><path d="M 363.1875 90.378906 C 353.105469 90.378906 344.933594 98.546875 344.933594 108.628906 C 344.933594 118.707031 353.105469 126.878906 363.1875 126.878906 C 373.265625 126.878906 381.4375 118.707031 381.4375 108.628906 C 381.4375 98.546875 373.265625 90.378906 363.1875 90.378906 Z M 363.1875 90.378906 " clip-rule="nonzero"/></clipPath><clipPath id="a68cfb3a3f"><path d="M 0.933594 0.378906 L 37.4375 0.378906 L 37.4375 36.878906 L 0.933594 36.878906 Z M 0.933594 0.378906 " clip-rule="nonzero"/></clipPath><clipPath id="0f01ca1b1d"><path d="M 19.1875 0.378906 C 9.105469 0.378906 0.933594 8.546875 0.933594 18.628906 C 0.933594 28.707031 9.105469 36.878906 19.1875 36.878906 C 29.265625 36.878906 37.4375 28.707031 37.4375 18.628906 C 37.4375 8.546875 29.265625 0.378906 19.1875 0.378906 Z M 19.1875 0.378906 " clip-rule="nonzero"/></clipPath><clipPath id="8534865fb7"><rect x="0" width="38" y="0" height="37"/></clipPath><clipPath id="d104e513ef"><path d="M 349 31.363281 L 405 31.363281 L 405 53 L 349 53 Z M 349 31.363281 " clip-rule="nonzero"/></clipPath><clipPath id="2defdaa65e"><path d="M 344.933594 77 L 409.433594 77 L 409.433594 119.863281 L 344.933594 119.863281 Z M 344.933594 77 " clip-rule="nonzero"/></clipPath><clipPath id="4f1e97f4e1"><path d="M 362 77 L 378 77 L 378 119.863281 L 362 119.863281 Z M 362 77 " clip-rule="nonzero"/></clipPath><clipPath id="3d97eeae60"><path d="M 376 77 L 392 77 L 392 119.863281 L 376 119.863281 Z M 376 77 " clip-rule="nonzero"/></clipPath></defs><rect x="-285" width="3420" fill="#ffffff" y="-27.899998" height="334.79998" fill-opacity="1"/><rect x="-285" width="3420" fill="#0c2340" y="-27.899998" height="334.79998" fill-opacity="1"/><g clip-path="url(#1dc24da9a5)"><path fill="#04b1dc" d="M 213.90625 149.503906 L 144.246094 149.503906 C 142.769531 149.503906 141.125 150.160156 140.304688 151.476562 L 139.644531 152.296875 L 137.839844 152.296875 C 137.675781 152.132812 137.347656 151.804688 137.183594 151.640625 L 133.730469 148.847656 C 132.910156 148.191406 131.761719 147.695312 130.609375 147.695312 L 89.375 147.695312 C 87.238281 147.695312 85.265625 149.175781 84.609375 151.148438 L 81.980469 159.195312 C 81.324219 161.332031 82.144531 163.632812 83.953125 164.78125 L 85.921875 166.097656 C 86.417969 166.425781 86.746094 166.917969 86.910156 167.410156 C 87.074219 168.070312 86.910156 168.5625 86.582031 169.054688 L 57.5 211.769531 C 56.679688 212.917969 56.351562 214.398438 56.84375 215.710938 C 57.171875 217.027344 57.992188 218.175781 59.308594 219 L 62.265625 220.640625 C 63.085938 220.96875 63.910156 221.296875 64.730469 221.296875 C 66.371094 221.296875 67.851562 220.476562 68.835938 219.164062 L 70.808594 216.371094 L 84.28125 224.089844 C 85.101562 224.585938 85.921875 224.75 86.746094 224.75 C 87.074219 224.75 87.566406 224.75 87.894531 224.585938 L 96.109375 222.613281 C 97.257812 222.285156 98.246094 221.628906 98.902344 220.640625 L 128.308594 179.40625 C 129.296875 178.089844 129.460938 176.117188 128.804688 174.476562 L 126.339844 168.890625 L 130.9375 168.890625 C 132.253906 168.890625 133.566406 168.398438 134.390625 167.410156 L 137.511719 164.289062 C 137.675781 164.125 137.675781 163.960938 137.839844 163.796875 L 143.261719 165.113281 C 143.589844 165.113281 144.082031 165.277344 144.410156 165.277344 L 199.613281 165.277344 L 214.398438 149.832031 C 214.234375 149.503906 214.070312 149.503906 213.90625 149.503906 Z M 87.238281 221.792969 C 86.746094 221.957031 86.085938 221.792969 85.59375 221.628906 L 72.289062 214.070312 L 103.339844 170.203125 C 103.667969 169.710938 104.324219 169.382812 104.980469 169.382812 L 118.453125 169.21875 C 117.136719 170.203125 115.824219 171.027344 114.34375 172.011719 L 113.6875 172.503906 C 113.523438 172.667969 113.195312 172.832031 113.195312 172.832031 C 113.03125 172.832031 112.867188 172.996094 112.703125 172.996094 C 111.71875 172.996094 110.566406 172.996094 109.417969 172.832031 C 108.757812 172.832031 108.265625 172.832031 107.609375 172.832031 L 106.953125 172.832031 C 106.625 172.832031 106.296875 172.832031 106.132812 172.996094 C 105.636719 173.160156 105.144531 173.324219 104.652344 173.492188 C 103.667969 173.984375 102.84375 174.804688 102.1875 175.625 C 101.859375 176.117188 101.695312 176.449219 101.695312 176.613281 L 101.203125 177.433594 C 100.050781 179.570312 98.902344 181.867188 97.753906 184.167969 C 95.453125 188.769531 93.316406 193.371094 91.179688 197.640625 C 90.195312 199.777344 89.210938 201.914062 88.386719 203.882812 C 88.222656 204.375 87.894531 204.871094 87.730469 205.363281 C 87.566406 205.855469 87.238281 206.347656 87.074219 207.335938 C 86.746094 208.976562 87.074219 210.621094 88.058594 211.769531 C 89.375 213.414062 90.523438 214.5625 91.507812 215.878906 C 92.496094 217.027344 93.480469 218.011719 94.136719 219 C 94.464844 219.492188 94.960938 219.820312 95.289062 220.148438 Z M 126.175781 177.597656 L 96.765625 218.835938 C 96.4375 218.339844 96.273438 218.011719 95.945312 217.355469 C 94.796875 215.382812 93.152344 212.753906 91.015625 209.46875 C 90.851562 209.140625 90.6875 208.484375 91.015625 208.15625 C 91.015625 207.992188 91.179688 207.664062 91.507812 207.167969 C 91.835938 206.675781 92.003906 206.183594 92.332031 205.691406 C 93.480469 203.71875 94.464844 201.75 95.78125 199.613281 C 98.082031 195.503906 100.546875 190.90625 102.84375 186.46875 C 103.996094 184.167969 105.144531 181.867188 106.296875 179.734375 L 106.953125 178.253906 C 106.953125 178.089844 107.117188 178.089844 107.28125 177.925781 L 107.773438 177.925781 C 108.429688 177.925781 108.925781 177.925781 109.582031 177.925781 C 110.894531 177.925781 112.046875 177.761719 113.359375 177.761719 C 114.34375 177.597656 115.332031 177.269531 116.152344 176.777344 C 116.644531 176.449219 116.808594 176.28125 116.972656 176.117188 L 117.632812 175.625 C 119.273438 174.148438 120.917969 172.832031 122.230469 171.519531 C 122.886719 171.027344 123.382812 170.53125 123.875 170.039062 L 126.339844 175.625 C 126.667969 176.28125 126.667969 176.941406 126.175781 177.597656 Z M 126.175781 177.597656 " fill-opacity="1" fill-rule="nonzero"/></g><path fill="#ffffff" d="M 399.554688 112.210938 L 383.945312 113.851562 C 378.6875 113.851562 374.582031 119.4375 374.582031 126.339844 L 373.265625 143.917969 L 371.953125 126.339844 C 371.953125 119.4375 367.679688 113.851562 362.585938 113.851562 L 346.980469 112.210938 L 362.585938 110.566406 C 367.84375 110.566406 371.953125 104.980469 371.953125 98.082031 L 373.265625 80.503906 L 374.582031 98.082031 C 374.582031 104.980469 378.851562 110.566406 383.945312 110.566406 Z M 399.554688 112.210938 " fill-opacity="1" fill-rule="nonzero"/><path fill="#ffffff" d="M 349.117188 82.800781 L 339.257812 83.789062 C 335.972656 83.789062 333.179688 87.402344 333.179688 91.839844 L 332.359375 103.011719 L 331.535156 91.839844 C 331.535156 87.402344 328.910156 83.789062 325.457031 83.789062 L 315.601562 82.800781 L 325.457031 81.816406 C 328.742188 81.816406 331.535156 78.203125 331.535156 73.765625 L 332.359375 62.59375 L 333.179688 73.765625 C 333.179688 78.203125 335.808594 81.816406 339.257812 81.816406 Z M 349.117188 82.800781 " fill-opacity="1" fill-rule="nonzero"/><path fill="#ffffff" d="M 410.726562 66.375 L 400.867188 67.359375 C 397.582031 67.359375 394.789062 70.972656 394.789062 75.410156 L 393.96875 86.582031 L 393.144531 75.410156 C 393.144531 70.972656 390.515625 67.359375 387.066406 67.359375 L 377.210938 66.375 L 387.066406 65.386719 C 390.351562 65.386719 393.144531 61.773438 393.144531 57.335938 L 393.96875 46.164062 L 394.789062 57.335938 C 394.789062 61.773438 397.417969 65.386719 400.867188 65.386719 Z M 410.726562 66.375 " fill-opacity="1" fill-rule="nonzero"/><path fill="#04b1dc" d="M 278.964844 235.921875 L 334.328125 235.921875 C 257.605469 270.75 180.882812 265.65625 155.746094 221.296875 C 152.132812 214.890625 149.667969 207.992188 148.519531 200.597656 C 149.667969 203.71875 150.980469 206.675781 152.625 209.632812 C 171.519531 242.984375 222.449219 251.855469 278.964844 235.921875 Z M 278.964844 235.921875 " fill-opacity="1" fill-rule="nonzero"/><path fill="#04b1dc" d="M 434.21875 161.003906 C 430.933594 165.113281 427.316406 169.21875 423.539062 173.160156 C 421.566406 175.132812 419.761719 177.105469 417.789062 179.074219 C 415.488281 181.375 413.023438 183.675781 410.558594 185.976562 L 373.59375 185.976562 C 377.539062 182.691406 381.316406 179.40625 384.929688 175.953125 C 386.410156 174.640625 387.886719 173.160156 389.203125 171.847656 C 396.265625 164.945312 402.511719 157.71875 408.097656 150.488281 C 433.890625 116.644531 442.597656 80.832031 427.648438 54.214844 C 425.347656 50.109375 422.390625 46.164062 419.105469 42.878906 C 392.980469 16.101562 338.929688 13.144531 282.414062 34.335938 C 358.808594 0 434.875 5.257812 459.847656 49.453125 C 477.097656 80.171875 465.597656 122.230469 434.21875 161.003906 Z M 434.21875 161.003906 " fill-opacity="1" fill-rule="nonzero"/><path fill="#ffffff" d="M 357.496094 33.351562 C 331.042969 36.144531 301.472656 45.671875 272.558594 62.101562 C 270.257812 63.414062 268.121094 64.730469 265.820312 66.042969 C 264.671875 66.703125 263.683594 67.359375 262.535156 68.015625 C 262.371094 68.015625 262.371094 68.179688 262.207031 68.179688 C 261.222656 68.835938 260.234375 69.496094 259.25 69.988281 C 258.261719 70.644531 257.113281 71.300781 256.128906 72.125 C 254.8125 72.945312 253.664062 73.765625 252.511719 74.585938 C 250.707031 75.902344 248.734375 77.214844 246.925781 78.53125 C 244.957031 80.007812 242.984375 81.488281 241.011719 82.964844 C 240.191406 83.625 239.535156 84.117188 238.714844 84.773438 C 235.757812 87.238281 232.796875 89.703125 230.003906 92.167969 C 229.183594 92.988281 228.199219 93.644531 227.378906 94.464844 C 222.449219 99.066406 217.683594 103.667969 213.414062 108.59375 C 212.753906 109.253906 212.261719 109.910156 211.769531 110.566406 C 208.648438 114.179688 205.691406 117.796875 202.898438 121.410156 C 202.570312 121.902344 202.078125 122.558594 201.746094 123.054688 C 198.789062 127.160156 195.996094 131.433594 193.699219 135.539062 C 193.367188 136.195312 193.039062 136.855469 192.710938 137.347656 C 191.890625 138.660156 191.234375 140.140625 190.574219 141.453125 C 190.082031 142.273438 189.753906 143.097656 189.425781 143.917969 C 189.097656 144.410156 188.933594 144.902344 188.769531 145.398438 C 188.605469 145.726562 188.441406 146.21875 188.277344 146.710938 L 163.796875 146.710938 C 177.269531 116.972656 207.167969 85.59375 247.914062 62.59375 C 249.390625 61.773438 250.871094 60.953125 252.511719 60.128906 C 252.84375 59.964844 253.171875 59.800781 253.5 59.636719 C 254.976562 58.816406 256.457031 58.160156 257.933594 57.335938 L 258.097656 57.335938 C 259.742188 56.515625 261.386719 55.695312 263.191406 54.871094 C 264.835938 54.050781 266.476562 53.230469 268.121094 52.574219 C 269.929688 51.75 271.570312 51.09375 273.378906 50.273438 L 273.542969 50.273438 C 275.351562 49.617188 276.992188 48.792969 278.800781 48.136719 C 280.441406 47.480469 281.921875 46.824219 283.5625 46.328125 C 283.894531 46.164062 284.222656 46 284.550781 46 C 286.027344 45.507812 287.507812 45.015625 288.820312 44.523438 C 289.480469 44.359375 289.972656 44.03125 290.628906 43.867188 C 291.941406 43.371094 293.257812 43.042969 294.570312 42.550781 C 296.542969 41.894531 298.515625 41.402344 300.320312 40.742188 C 301.636719 40.414062 303.113281 39.921875 304.429688 39.59375 C 304.757812 39.429688 305.085938 39.429688 305.414062 39.265625 C 306.894531 38.9375 308.371094 38.445312 309.851562 38.117188 L 310.015625 38.117188 C 311.65625 37.785156 313.300781 37.292969 314.945312 36.964844 L 315.109375 36.964844 C 316.75 36.636719 318.394531 36.308594 320.035156 35.980469 C 321.679688 35.652344 323.324219 35.324219 324.964844 35.15625 C 325.128906 35.15625 325.128906 35.15625 325.292969 35.15625 C 326.773438 34.992188 328.414062 34.664062 329.894531 34.5 C 331.371094 34.335938 332.851562 34.171875 334.328125 34.007812 C 334.496094 34.007812 334.660156 34.007812 334.988281 34.007812 C 336.300781 33.84375 337.78125 33.84375 339.09375 33.679688 C 339.421875 33.679688 339.914062 33.679688 340.246094 33.679688 C 341.558594 33.679688 342.871094 33.515625 344.1875 33.515625 L 344.351562 33.515625 C 345.832031 33.515625 347.308594 33.515625 348.953125 33.515625 C 351.746094 33.023438 354.539062 33.023438 357.496094 33.351562 Z M 357.496094 33.351562 " fill-opacity="1" fill-rule="nonzero"/><path fill="#ffffff" d="M 180.71875 175.789062 L 156.074219 175.789062 C 156.074219 176.941406 156.074219 177.925781 156.074219 179.074219 C 156.074219 179.734375 156.074219 180.554688 156.074219 181.210938 C 156.074219 181.539062 156.074219 182.035156 156.074219 182.363281 C 156.074219 183.019531 156.074219 183.511719 156.238281 184.167969 C 156.238281 184.496094 156.238281 184.828125 156.402344 185.320312 C 156.402344 186.140625 156.566406 186.960938 156.730469 187.785156 C 156.898438 188.441406 156.898438 189.097656 157.0625 189.753906 C 157.0625 189.917969 157.0625 190.082031 157.226562 190.246094 C 157.390625 191.070312 157.554688 191.890625 157.882812 192.875 C 158.046875 193.535156 158.210938 194.191406 158.539062 194.847656 C 158.703125 195.339844 158.867188 195.667969 159.03125 196.164062 C 159.195312 196.820312 159.523438 197.3125 159.691406 197.96875 C 159.855469 198.460938 160.019531 198.789062 160.183594 199.285156 C 160.347656 199.777344 160.675781 200.269531 160.839844 200.761719 C 161.332031 201.75 161.824219 202.734375 162.316406 203.554688 C 175.132812 226.0625 205.363281 235.425781 242.328125 231.484375 C 216.863281 229.675781 196.820312 220.3125 186.960938 202.898438 C 182.855469 195.503906 180.882812 187.289062 180.882812 178.417969 C 180.71875 177.597656 180.71875 176.777344 180.71875 175.789062 Z M 180.71875 175.789062 " fill-opacity="1" fill-rule="nonzero"/><path fill="#04b1dc" d="M 156.566406 171.519531 L 207.496094 171.519531 L 209.960938 168.890625 C 219 159.527344 238.054688 140.304688 252.183594 126.175781 L 286.191406 164.945312 L 299.171875 164.945312 L 328.910156 122.230469 L 382.136719 173.65625 C 383.617188 172.175781 384.929688 170.863281 386.246094 169.382812 L 330.386719 115.496094 L 288.984375 128.804688 L 250.214844 119.601562 L 249.0625 120.753906 C 217.683594 152.132812 206.183594 163.960938 201.914062 168.726562 L 141.289062 168.726562 C 139.976562 168.726562 138.988281 169.382812 139.152344 170.039062 C 139.152344 170.203125 139.152344 170.367188 139.316406 170.367188 C 139.808594 170.863281 140.796875 171.355469 141.945312 171.355469 L 148.683594 171.355469 Z M 156.566406 171.519531 " fill-opacity="1" fill-rule="nonzero"/><path fill="#04b1dc" d="M 489.417969 172.503906 L 430.933594 172.503906 C 429.289062 174.476562 427.480469 176.449219 425.511719 178.417969 L 489.417969 178.417969 L 497.960938 181.210938 C 498.785156 177.433594 498.949219 173.65625 498.292969 169.875 C 494.675781 171.027344 491.390625 172.011719 489.417969 172.503906 Z M 489.417969 172.503906 " fill-opacity="1" fill-rule="nonzero"/><path fill="#ffffff" d="M 252.019531 129.625 L 237.726562 144.246094 L 251.855469 134.0625 L 271.734375 152.789062 Z M 252.019531 129.625 " fill-opacity="1" fill-rule="nonzero"/><path fill="#ffffff" d="M 329.566406 125.847656 L 317.078125 142.109375 L 329.894531 130.28125 L 351.910156 146.546875 Z M 329.566406 125.847656 " fill-opacity="1" fill-rule="nonzero"/><path fill="#ffffff" d="M 240.027344 146.382812 L 247.914062 146.382812 L 247.914062 156.402344 L 240.027344 156.402344 Z M 240.027344 146.382812 " fill-opacity="1" fill-rule="nonzero"/><path fill="#ffffff" d="M 250.378906 146.382812 L 258.261719 146.382812 L 258.261719 156.402344 L 250.378906 156.402344 Z M 250.378906 146.382812 " fill-opacity="1" fill-rule="nonzero"/><path fill="#ffffff" d="M 240.027344 158.539062 L 247.914062 158.539062 L 247.914062 168.5625 L 240.027344 168.5625 Z M 240.027344 158.539062 " fill-opacity="1" fill-rule="nonzero"/><path fill="#ffffff" d="M 250.378906 158.539062 L 258.261719 158.539062 L 258.261719 168.5625 L 250.378906 168.5625 Z M 250.378906 158.539062 " fill-opacity="1" fill-rule="nonzero"/><path fill="#ffffff" d="M 324.964844 148.023438 L 332.03125 148.023438 L 332.03125 157.0625 L 324.964844 157.0625 Z M 324.964844 148.023438 " fill-opacity="1" fill-rule="nonzero"/><path fill="#ffffff" d="M 334.164062 148.023438 L 341.230469 148.023438 L 341.230469 157.0625 L 334.164062 157.0625 Z M 334.164062 148.023438 " fill-opacity="1" fill-rule="nonzero"/><path fill="#ffffff" d="M 324.964844 158.867188 L 332.03125 158.867188 L 332.03125 167.90625 L 324.964844 167.90625 Z M 324.964844 158.867188 " fill-opacity="1" fill-rule="nonzero"/><path fill="#ffffff" d="M 334.164062 158.867188 L 341.230469 158.867188 L 341.230469 167.90625 L 334.164062 167.90625 Z M 334.164062 158.867188 " fill-opacity="1" fill-rule="nonzero"/><g transform="matrix(1, 0, 0, 1, 544, 10)"><g clip-path="url(#591b399396)"><g fill="#ffffff" fill-opacity="1"><g transform="translate(0.593546, 183.814551)"><g><path d="M 62.984375 -121.953125 C 71.710938 -121.953125 79.175781 -120.351562 85.375 -117.15625 C 91.582031 -113.957031 96.269531 -109.476562 99.4375 -103.71875 C 102.601562 -97.96875 104.1875 -91.285156 104.1875 -83.671875 C 104.1875 -76.046875 102.601562 -69.367188 99.4375 -63.640625 C 96.269531 -57.921875 91.582031 -53.460938 85.375 -50.265625 C 79.175781 -47.066406 71.710938 -45.46875 62.984375 -45.46875 L 39.953125 -45.46875 L 39.953125 0 L 15.84375 0 L 15.84375 -121.953125 Z M 59.8125 -64.5625 C 73.21875 -64.5625 79.921875 -70.929688 79.921875 -83.671875 C 79.921875 -96.460938 73.21875 -102.859375 59.8125 -102.859375 L 39.953125 -102.859375 L 39.953125 -64.5625 Z M 59.8125 -64.5625 "/></g></g></g><g fill="#ffffff" fill-opacity="1"><g transform="translate(112.022, 183.814551)"><g><path d="M 15.84375 0 L 15.84375 -121.953125 L 64.8125 -121.953125 C 77.4375 -121.953125 86.960938 -119.046875 93.390625 -113.234375 C 99.816406 -107.429688 103.03125 -99.410156 103.03125 -89.171875 C 103.03125 -81.773438 101.148438 -75.710938 97.390625 -70.984375 C 93.640625 -66.265625 88.035156 -62.648438 80.578125 -60.140625 L 80.578125 -58.390625 C 84.421875 -56.722656 87.523438 -54.25 89.890625 -50.96875 C 92.253906 -47.6875 94.488281 -42.820312 96.59375 -36.375 L 108.78125 0 L 84 0 L 72.078125 -36.453125 C 70.847656 -40.117188 69.46875 -42.96875 67.9375 -45 C 66.414062 -47.03125 64.472656 -48.503906 62.109375 -49.421875 C 59.742188 -50.335938 56.671875 -50.796875 52.890625 -50.796875 L 39.953125 -50.796875 L 39.953125 0 Z M 61.890625 -69.90625 C 73.578125 -69.90625 79.421875 -75.351562 79.421875 -86.25 C 79.421875 -97.320312 73.578125 -102.859375 61.890625 -102.859375 L 39.953125 -102.859375 L 39.953125 -69.90625 Z M 61.890625 -69.90625 "/></g></g></g><g fill="#ffffff" fill-opacity="1"><g transform="translate(226.035996, 183.814551)"><g><path d="M 66.484375 1.75 C 55.304688 1.75 45.445312 -0.523438 36.90625 -5.078125 C 28.375 -9.640625 21.6875 -16.609375 16.84375 -25.984375 C 12.007812 -35.359375 9.59375 -47.023438 9.59375 -60.984375 C 9.59375 -74.941406 12.007812 -86.601562 16.84375 -95.96875 C 21.6875 -105.34375 28.375 -112.3125 36.90625 -116.875 C 45.445312 -121.4375 55.304688 -123.71875 66.484375 -123.71875 C 77.660156 -123.71875 87.503906 -121.445312 96.015625 -116.90625 C 104.523438 -112.375 111.1875 -105.410156 116 -96.015625 C 120.8125 -86.617188 123.21875 -74.941406 123.21875 -60.984375 C 123.21875 -47.023438 120.8125 -35.34375 116 -25.9375 C 111.1875 -16.539062 104.523438 -9.578125 96.015625 -5.046875 C 87.503906 -0.515625 77.660156 1.75 66.484375 1.75 Z M 66.484375 -19.1875 C 76.828125 -19.1875 84.722656 -22.507812 90.171875 -29.15625 C 95.628906 -35.800781 98.359375 -46.410156 98.359375 -60.984375 C 98.359375 -75.546875 95.628906 -86.164062 90.171875 -92.84375 C 84.722656 -99.519531 76.828125 -102.859375 66.484375 -102.859375 C 56.085938 -102.859375 48.148438 -99.519531 42.671875 -92.84375 C 37.191406 -86.164062 34.453125 -75.546875 34.453125 -60.984375 C 34.453125 -46.410156 37.191406 -35.800781 42.671875 -29.15625 C 48.148438 -22.507812 56.085938 -19.1875 66.484375 -19.1875 Z M 66.484375 -19.1875 "/></g></g></g><g fill="#ffffff" fill-opacity="1"><g transform="translate(358.899415, 183.814551)"><g><path d="M 93.1875 -121.953125 L 93.1875 -101.765625 L 39.953125 -101.765625 L 39.953125 -69.484375 L 88.265625 -69.484375 L 88.265625 -49.546875 L 39.953125 -49.546875 L 39.953125 0 L 15.84375 0 L 15.84375 -121.953125 Z M 93.1875 -121.953125 "/></g></g></g><g fill="#ffffff" fill-opacity="1"><g transform="translate(457.483572, 183.814551)"><g><path d="M 93.1875 -121.953125 L 93.1875 -101.765625 L 39.953125 -101.765625 L 39.953125 -69.484375 L 88.265625 -69.484375 L 88.265625 -49.546875 L 39.953125 -49.546875 L 39.953125 0 L 15.84375 0 L 15.84375 -121.953125 Z M 93.1875 -121.953125 "/></g></g></g><g fill="#ffffff" fill-opacity="1"><g transform="translate(556.067729, 183.814551)"><g><path d="M 39.953125 -53.5625 L 39.953125 -20.1875 L 98.1875 -20.1875 L 98.1875 0 L 15.84375 0 L 15.84375 -121.953125 L 96.84375 -121.953125 L 96.84375 -101.765625 L 39.953125 -101.765625 L 39.953125 -73.25 L 89.671875 -73.25 L 89.671875 -53.5625 Z M 39.953125 -53.5625 "/></g></g></g><g fill="#ffffff" fill-opacity="1"><g transform="translate(660.907227, 183.814551)"><g><path d="M 54.0625 1.75 C 45.601562 1.75 38.078125 0.707031 31.484375 -1.375 C 24.898438 -3.457031 19.410156 -6.195312 15.015625 -9.59375 C 10.617188 -12.988281 7.253906 -16.710938 4.921875 -20.765625 L 18.1875 -36.953125 L 20.265625 -36.953125 C 23.941406 -31.503906 28.601562 -27.164062 34.25 -23.9375 C 39.894531 -20.71875 46.5 -19.109375 54.0625 -19.109375 C 60.507812 -19.109375 65.375 -20.46875 68.65625 -23.1875 C 71.9375 -25.914062 73.578125 -29.671875 73.578125 -34.453125 C 73.578125 -37.347656 73.046875 -39.765625 71.984375 -41.703125 C 70.929688 -43.648438 69.179688 -45.316406 66.734375 -46.703125 C 64.285156 -48.097656 60.976562 -49.296875 56.8125 -50.296875 L 41.125 -53.890625 C 30.164062 -56.390625 22.003906 -60.546875 16.640625 -66.359375 C 11.273438 -72.171875 8.59375 -79.722656 8.59375 -89.015625 C 8.59375 -95.910156 10.316406 -101.96875 13.765625 -107.1875 C 17.210938 -112.414062 22.226562 -116.476562 28.8125 -119.375 C 35.40625 -122.269531 43.289062 -123.71875 52.46875 -123.71875 C 61.863281 -123.71875 69.910156 -122.476562 76.609375 -120 C 83.316406 -117.519531 88.976562 -113.722656 93.59375 -108.609375 L 81.671875 -92.265625 L 79.578125 -92.265625 C 76.128906 -95.878906 72.179688 -98.585938 67.734375 -100.390625 C 63.285156 -102.203125 58.195312 -103.109375 52.46875 -103.109375 C 45.851562 -103.109375 40.820312 -101.9375 37.375 -99.59375 C 33.925781 -97.257812 32.203125 -94.035156 32.203125 -89.921875 C 32.203125 -86.085938 33.410156 -83.03125 35.828125 -80.75 C 38.242188 -78.46875 42.429688 -76.6875 48.390625 -75.40625 L 64.40625 -72.078125 C 76.25 -69.578125 84.835938 -65.335938 90.171875 -59.359375 C 95.515625 -53.378906 98.1875 -45.578125 98.1875 -35.953125 C 98.1875 -28.335938 96.546875 -21.707031 93.265625 -16.0625 C 89.984375 -10.414062 85.03125 -6.035156 78.40625 -2.921875 C 71.789062 0.191406 63.675781 1.75 54.0625 1.75 Z M 54.0625 1.75 "/></g></g></g><g fill="#ffffff" fill-opacity="1"><g transform="translate(765.663319, 183.814551)"><g><path d="M 54.0625 1.75 C 45.601562 1.75 38.078125 0.707031 31.484375 -1.375 C 24.898438 -3.457031 19.410156 -6.195312 15.015625 -9.59375 C 10.617188 -12.988281 7.253906 -16.710938 4.921875 -20.765625 L 18.1875 -36.953125 L 20.265625 -36.953125 C 23.941406 -31.503906 28.601562 -27.164062 34.25 -23.9375 C 39.894531 -20.71875 46.5 -19.109375 54.0625 -19.109375 C 60.507812 -19.109375 65.375 -20.46875 68.65625 -23.1875 C 71.9375 -25.914062 73.578125 -29.671875 73.578125 -34.453125 C 73.578125 -37.347656 73.046875 -39.765625 71.984375 -41.703125 C 70.929688 -43.648438 69.179688 -45.316406 66.734375 -46.703125 C 64.285156 -48.097656 60.976562 -49.296875 56.8125 -50.296875 L 41.125 -53.890625 C 30.164062 -56.390625 22.003906 -60.546875 16.640625 -66.359375 C 11.273438 -72.171875 8.59375 -79.722656 8.59375 -89.015625 C 8.59375 -95.910156 10.316406 -101.96875 13.765625 -107.1875 C 17.210938 -112.414062 22.226562 -116.476562 28.8125 -119.375 C 35.40625 -122.269531 43.289062 -123.71875 52.46875 -123.71875 C 61.863281 -123.71875 69.910156 -122.476562 76.609375 -120 C 83.316406 -117.519531 88.976562 -113.722656 93.59375 -108.609375 L 81.671875 -92.265625 L 79.578125 -92.265625 C 76.128906 -95.878906 72.179688 -98.585938 67.734375 -100.390625 C 63.285156 -102.203125 58.195312 -103.109375 52.46875 -103.109375 C 45.851562 -103.109375 40.820312 -101.9375 37.375 -99.59375 C 33.925781 -97.257812 32.203125 -94.035156 32.203125 -89.921875 C 32.203125 -86.085938 33.410156 -83.03125 35.828125 -80.75 C 38.242188 -78.46875 42.429688 -76.6875 48.390625 -75.40625 L 64.40625 -72.078125 C 76.25 -69.578125 84.835938 -65.335938 90.171875 -59.359375 C 95.515625 -53.378906 98.1875 -45.578125 98.1875 -35.953125 C 98.1875 -28.335938 96.546875 -21.707031 93.265625 -16.0625 C 89.984375 -10.414062 85.03125 -6.035156 78.40625 -2.921875 C 71.789062 0.191406 63.675781 1.75 54.0625 1.75 Z M 54.0625 1.75 "/></g></g></g><g fill="#ffffff" fill-opacity="1"><g transform="translate(870.419412, 183.814551)"><g><path d="M 66.484375 1.75 C 55.304688 1.75 45.445312 -0.523438 36.90625 -5.078125 C 28.375 -9.640625 21.6875 -16.609375 16.84375 -25.984375 C 12.007812 -35.359375 9.59375 -47.023438 9.59375 -60.984375 C 9.59375 -74.941406 12.007812 -86.601562 16.84375 -95.96875 C 21.6875 -105.34375 28.375 -112.3125 36.90625 -116.875 C 45.445312 -121.4375 55.304688 -123.71875 66.484375 -123.71875 C 77.660156 -123.71875 87.503906 -121.445312 96.015625 -116.90625 C 104.523438 -112.375 111.1875 -105.410156 116 -96.015625 C 120.8125 -86.617188 123.21875 -74.941406 123.21875 -60.984375 C 123.21875 -47.023438 120.8125 -35.34375 116 -25.9375 C 111.1875 -16.539062 104.523438 -9.578125 96.015625 -5.046875 C 87.503906 -0.515625 77.660156 1.75 66.484375 1.75 Z M 66.484375 -19.1875 C 76.828125 -19.1875 84.722656 -22.507812 90.171875 -29.15625 C 95.628906 -35.800781 98.359375 -46.410156 98.359375 -60.984375 C 98.359375 -75.546875 95.628906 -86.164062 90.171875 -92.84375 C 84.722656 -99.519531 76.828125 -102.859375 66.484375 -102.859375 C 56.085938 -102.859375 48.148438 -99.519531 42.671875 -92.84375 C 37.191406 -86.164062 34.453125 -75.546875 34.453125 -60.984375 C 34.453125 -46.410156 37.191406 -35.800781 42.671875 -29.15625 C 48.148438 -22.507812 56.085938 -19.1875 66.484375 -19.1875 Z M 66.484375 -19.1875 "/></g></g></g><g fill="#ffffff" fill-opacity="1"><g transform="translate(1003.282831, 183.814551)"><g><path d="M 15.84375 0 L 15.84375 -121.953125 L 64.8125 -121.953125 C 77.4375 -121.953125 86.960938 -119.046875 93.390625 -113.234375 C 99.816406 -107.429688 103.03125 -99.410156 103.03125 -89.171875 C 103.03125 -81.773438 101.148438 -75.710938 97.390625 -70.984375 C 93.640625 -66.265625 88.035156 -62.648438 80.578125 -60.140625 L 80.578125 -58.390625 C 84.421875 -56.722656 87.523438 -54.25 89.890625 -50.96875 C 92.253906 -47.6875 94.488281 -42.820312 96.59375 -36.375 L 108.78125 0 L 84 0 L 72.078125 -36.453125 C 70.847656 -40.117188 69.46875 -42.96875 67.9375 -45 C 66.414062 -47.03125 64.472656 -48.503906 62.109375 -49.421875 C 59.742188 -50.335938 56.671875 -50.796875 52.890625 -50.796875 L 39.953125 -50.796875 L 39.953125 0 Z M 61.890625 -69.90625 C 73.578125 -69.90625 79.421875 -75.351562 79.421875 -86.25 C 79.421875 -97.320312 73.578125 -102.859375 61.890625 -102.859375 L 39.953125 -102.859375 L 39.953125 -69.90625 Z M 61.890625 -69.90625 "/></g></g></g><g fill="#ffffff" fill-opacity="1"><g transform="translate(1117.296826, 183.814551)"><g/></g></g><g fill="#ffffff" fill-opacity="1"><g transform="translate(1157.609067, 183.814551)"><g><path d="M 62.984375 -121.953125 C 71.710938 -121.953125 79.175781 -120.351562 85.375 -117.15625 C 91.582031 -113.957031 96.269531 -109.476562 99.4375 -103.71875 C 102.601562 -97.96875 104.1875 -91.285156 104.1875 -83.671875 C 104.1875 -76.046875 102.601562 -69.367188 99.4375 -63.640625 C 96.269531 -57.921875 91.582031 -53.460938 85.375 -50.265625 C 79.175781 -47.066406 71.710938 -45.46875 62.984375 -45.46875 L 39.953125 -45.46875 L 39.953125 0 L 15.84375 0 L 15.84375 -121.953125 Z M 59.8125 -64.5625 C 73.21875 -64.5625 79.921875 -70.929688 79.921875 -83.671875 C 79.921875 -96.460938 73.21875 -102.859375 59.8125 -102.859375 L 39.953125 -102.859375 L 39.953125 -64.5625 Z M 59.8125 -64.5625 "/></g></g></g><g fill="#ffffff" fill-opacity="1"><g transform="translate(1269.037522, 183.814551)"><g><path d="M 66.484375 1.75 C 55.304688 1.75 45.445312 -0.523438 36.90625 -5.078125 C 28.375 -9.640625 21.6875 -16.609375 16.84375 -25.984375 C 12.007812 -35.359375 9.59375 -47.023438 9.59375 -60.984375 C 9.59375 -74.941406 12.007812 -86.601562 16.84375 -95.96875 C 21.6875 -105.34375 28.375 -112.3125 36.90625 -116.875 C 45.445312 -121.4375 55.304688 -123.71875 66.484375 -123.71875 C 77.660156 -123.71875 87.503906 -121.445312 96.015625 -116.90625 C 104.523438 -112.375 111.1875 -105.410156 116 -96.015625 C 120.8125 -86.617188 123.21875 -74.941406 123.21875 -60.984375 C 123.21875 -47.023438 120.8125 -35.34375 116 -25.9375 C 111.1875 -16.539062 104.523438 -9.578125 96.015625 -5.046875 C 87.503906 -0.515625 77.660156 1.75 66.484375 1.75 Z M 66.484375 -19.1875 C 76.828125 -19.1875 84.722656 -22.507812 90.171875 -29.15625 C 95.628906 -35.800781 98.359375 -46.410156 98.359375 -60.984375 C 98.359375 -75.546875 95.628906 -86.164062 90.171875 -92.84375 C 84.722656 -99.519531 76.828125 -102.859375 66.484375 -102.859375 C 56.085938 -102.859375 48.148438 -99.519531 42.671875 -92.84375 C 37.191406 -86.164062 34.453125 -75.546875 34.453125 -60.984375 C 34.453125 -46.410156 37.191406 -35.800781 42.671875 -29.15625 C 48.148438 -22.507812 56.085938 -19.1875 66.484375 -19.1875 Z M 66.484375 -19.1875 "/></g></g></g><g fill="#ffffff" fill-opacity="1"><g transform="translate(1401.900941, 183.814551)"><g><path d="M 58.234375 0 L 31.28125 0 L 3.34375 -121.953125 L 27.359375 -121.953125 L 45.796875 -36.203125 L 47.890625 -36.203125 L 69.734375 -121.953125 L 90.34375 -121.953125 L 112.609375 -36.203125 L 114.703125 -36.203125 L 133.21875 -121.953125 L 156.40625 -121.953125 L 128.546875 0 L 101.515625 0 L 80.171875 -78.671875 L 78.421875 -78.671875 Z M 58.234375 0 "/></g></g></g><g fill="#ffffff" fill-opacity="1"><g transform="translate(1561.537216, 183.814551)"><g><path d="M 39.953125 -53.5625 L 39.953125 -20.1875 L 98.1875 -20.1875 L 98.1875 0 L 15.84375 0 L 15.84375 -121.953125 L 96.84375 -121.953125 L 96.84375 -101.765625 L 39.953125 -101.765625 L 39.953125 -73.25 L 89.671875 -73.25 L 89.671875 -53.5625 Z M 39.953125 -53.5625 "/></g></g></g><g fill="#ffffff" fill-opacity="1"><g transform="translate(1666.376714, 183.814551)"><g><path d="M 15.84375 0 L 15.84375 -121.953125 L 64.8125 -121.953125 C 77.4375 -121.953125 86.960938 -119.046875 93.390625 -113.234375 C 99.816406 -107.429688 103.03125 -99.410156 103.03125 -89.171875 C 103.03125 -81.773438 101.148438 -75.710938 97.390625 -70.984375 C 93.640625 -66.265625 88.035156 -62.648438 80.578125 -60.140625 L 80.578125 -58.390625 C 84.421875 -56.722656 87.523438 -54.25 89.890625 -50.96875 C 92.253906 -47.6875 94.488281 -42.820312 96.59375 -36.375 L 108.78125 0 L 84 0 L 72.078125 -36.453125 C 70.847656 -40.117188 69.46875 -42.96875 67.9375 -45 C 66.414062 -47.03125 64.472656 -48.503906 62.109375 -49.421875 C 59.742188 -50.335938 56.671875 -50.796875 52.890625 -50.796875 L 39.953125 -50.796875 L 39.953125 0 Z M 61.890625 -69.90625 C 73.578125 -69.90625 79.421875 -75.351562 79.421875 -86.25 C 79.421875 -97.320312 73.578125 -102.859375 61.890625 -102.859375 L 39.953125 -102.859375 L 39.953125 -69.90625 Z M 61.890625 -69.90625 "/></g></g></g><g fill="#ffffff" fill-opacity="1"><g transform="translate(1780.390709, 183.814551)"><g><path d="M 58.234375 0 L 31.28125 0 L 3.34375 -121.953125 L 27.359375 -121.953125 L 45.796875 -36.203125 L 47.890625 -36.203125 L 69.734375 -121.953125 L 90.34375 -121.953125 L 112.609375 -36.203125 L 114.703125 -36.203125 L 133.21875 -121.953125 L 156.40625 -121.953125 L 128.546875 0 L 101.515625 0 L 80.171875 -78.671875 L 78.421875 -78.671875 Z M 58.234375 0 "/></g></g></g><g fill="#ffffff" fill-opacity="1"><g transform="translate(1940.026984, 183.814551)"><g><path d="M 117.03125 0 L 91.671875 0 L 82.5 -28.109375 L 35.78125 -28.109375 L 26.609375 0 L 1.828125 0 L 43.96875 -121.953125 L 74.90625 -121.953125 Z M 57.984375 -96.515625 L 42.296875 -48.390625 L 75.828125 -48.390625 L 60.0625 -96.515625 Z M 57.984375 -96.515625 "/></g></g></g><g fill="#ffffff" fill-opacity="1"><g transform="translate(2058.878443, 183.814551)"><g><path d="M 54.0625 1.75 C 45.601562 1.75 38.078125 0.707031 31.484375 -1.375 C 24.898438 -3.457031 19.410156 -6.195312 15.015625 -9.59375 C 10.617188 -12.988281 7.253906 -16.710938 4.921875 -20.765625 L 18.1875 -36.953125 L 20.265625 -36.953125 C 23.941406 -31.503906 28.601562 -27.164062 34.25 -23.9375 C 39.894531 -20.71875 46.5 -19.109375 54.0625 -19.109375 C 60.507812 -19.109375 65.375 -20.46875 68.65625 -23.1875 C 71.9375 -25.914062 73.578125 -29.671875 73.578125 -34.453125 C 73.578125 -37.347656 73.046875 -39.765625 71.984375 -41.703125 C 70.929688 -43.648438 69.179688 -45.316406 66.734375 -46.703125 C 64.285156 -48.097656 60.976562 -49.296875 56.8125 -50.296875 L 41.125 -53.890625 C 30.164062 -56.390625 22.003906 -60.546875 16.640625 -66.359375 C 11.273438 -72.171875 8.59375 -79.722656 8.59375 -89.015625 C 8.59375 -95.910156 10.316406 -101.96875 13.765625 -107.1875 C 17.210938 -112.414062 22.226562 -116.476562 28.8125 -119.375 C 35.40625 -122.269531 43.289062 -123.71875 52.46875 -123.71875 C 61.863281 -123.71875 69.910156 -122.476562 76.609375 -120 C 83.316406 -117.519531 88.976562 -113.722656 93.59375 -108.609375 L 81.671875 -92.265625 L 79.578125 -92.265625 C 76.128906 -95.878906 72.179688 -98.585938 67.734375 -100.390625 C 63.285156 -102.203125 58.195312 -103.109375 52.46875 -103.109375 C 45.851562 -103.109375 40.820312 -101.9375 37.375 -99.59375 C 33.925781 -97.257812 32.203125 -94.035156 32.203125 -89.921875 C 32.203125 -86.085938 33.410156 -83.03125 35.828125 -80.75 C 38.242188 -78.46875 42.429688 -76.6875 48.390625 -75.40625 L 64.40625 -72.078125 C 76.25 -69.578125 84.835938 -65.335938 90.171875 -59.359375 C 95.515625 -53.378906 98.1875 -45.578125 98.1875 -35.953125 C 98.1875 -28.335938 96.546875 -21.707031 93.265625 -16.0625 C 89.984375 -10.414062 85.03125 -6.035156 78.40625 -2.921875 C 71.789062 0.191406 63.675781 1.75 54.0625 1.75 Z M 54.0625 1.75 "/></g></g></g><g fill="#ffffff" fill-opacity="1"><g transform="translate(2163.634535, 183.814551)"><g><path d="M 94.59375 -76.078125 L 94.59375 -121.953125 L 118.625 -121.953125 L 118.625 0 L 94.59375 0 L 94.59375 -55.5625 L 39.953125 -55.5625 L 39.953125 0 L 15.84375 0 L 15.84375 -121.953125 L 39.953125 -121.953125 L 39.953125 -76.078125 Z M 94.59375 -76.078125 "/></g></g></g></g></g><g clip-path="url(#eec517926f)"><g clip-path="url(#ccafc38f05)"><g transform="matrix(1, 0, 0, 1, 333, 44)"><g clip-path="url(#6133f5dbb6)"><g clip-path="url(#d1c459236a)"><g clip-path="url(#55ef5e8294)"><path fill="#0c2340" d="M 0.535156 0.0820312 L 59.835938 0.0820312 L 59.835938 59.386719 L 0.535156 59.386719 Z M 0.535156 0.0820312 " fill-opacity="1" fill-rule="nonzero"/></g></g></g></g></g></g><g clip-path="url(#4145c60b04)"><g clip-path="url(#d3d839554a)"><g transform="matrix(1, 0, 0, 1, 356, 44)"><g clip-path="url(#34d6527bf7)"><g clip-path="url(#60f48e478c)"><g clip-path="url(#276d9f086d)"><path fill="#0c2340" d="M 0.335938 0.0820312 L 59.636719 0.0820312 L 59.636719 59.386719 L 0.335938 59.386719 Z M 0.335938 0.0820312 " fill-opacity="1" fill-rule="nonzero"/></g></g></g></g></g></g><g clip-path="url(#000f4db208)"><g clip-path="url(#2d25312c07)"><g transform="matrix(1, 0, 0, 1, 362, 79)"><g clip-path="url(#612a6e8db9)"><g clip-path="url(#42d02bd34b)"><g clip-path="url(#bb3f41b047)"><path fill="#0c2340" d="M 0.496094 0.894531 L 47.480469 0.894531 L 47.480469 47.878906 L 0.496094 47.878906 Z M 0.496094 0.894531 " fill-opacity="1" fill-rule="nonzero"/></g></g></g></g></g></g><g clip-path="url(#55779cb923)"><g clip-path="url(#d025830a82)"><g transform="matrix(1, 0, 0, 1, 310, 52)"><g clip-path="url(#89323a6abd)"><g clip-path="url(#c8c27be0cd)"><g clip-path="url(#62a4d8606a)"><path fill="#0c2340" d="M 0.734375 0.582031 L 60.035156 0.582031 L 60.035156 59.882812 L 0.734375 59.882812 Z M 0.734375 0.582031 " fill-opacity="1" fill-rule="nonzero"/></g></g></g></g></g></g><g clip-path="url(#e1287f482d)"><g clip-path="url(#c76df15897)"><g transform="matrix(1, 0, 0, 1, 333, 52)"><g clip-path="url(#3b8bb5a89d)"><g clip-path="url(#8c5dc1a25e)"><g clip-path="url(#b12fc3f71c)"><path fill="#0c2340" d="M 0.535156 0.582031 L 59.835938 0.582031 L 59.835938 59.882812 L 0.535156 59.882812 Z M 0.535156 0.582031 " fill-opacity="1" fill-rule="nonzero"/></g></g></g></g></g></g><g clip-path="url(#dc6f80c288)"><g clip-path="url(#f1c5fb5aa6)"><g transform="matrix(1, 0, 0, 1, 363, 111)"><g clip-path="url(#f357d0644e)"><g clip-path="url(#af990eb278)"><g clip-path="url(#13d07acc2f)"><path fill="#0c2340" d="M 0.1875 0.882812 L 36.6875 0.882812 L 36.6875 37.382812 L 0.1875 37.382812 Z M 0.1875 0.882812 " fill-opacity="1" fill-rule="nonzero"/></g></g></g></g></g></g><g clip-path="url(#b62e82cacf)"><g clip-path="url(#8019434619)"><g transform="matrix(1, 0, 0, 1, 344, 90)"><g clip-path="url(#8534865fb7)"><g clip-path="url(#a68cfb3a3f)"><g clip-path="url(#0f01ca1b1d)"><path fill="#0c2340" d="M 0.933594 0.378906 L 37.4375 0.378906 L 37.4375 36.878906 L 0.933594 36.878906 Z M 0.933594 0.378906 " fill-opacity="1" fill-rule="nonzero"/></g></g></g></g></g></g><g clip-path="url(#d104e513ef)"><path fill="#ffffff" d="M 377.003906 52.695312 C 376.84375 52.695312 376.6875 52.667969 376.535156 52.613281 L 350.824219 43.339844 C 350.554688 43.238281 350.332031 43.070312 350.167969 42.835938 C 350 42.597656 349.917969 42.335938 349.917969 42.042969 C 349.917969 41.753906 350 41.492188 350.167969 41.253906 C 350.332031 41.015625 350.554688 40.847656 350.824219 40.75 L 376.535156 31.472656 C 376.847656 31.363281 377.160156 31.363281 377.46875 31.472656 L 403.179688 40.75 C 403.453125 40.847656 403.671875 41.015625 403.839844 41.253906 C 404.007812 41.492188 404.089844 41.753906 404.089844 42.042969 C 404.089844 42.335938 404.007812 42.597656 403.839844 42.835938 C 403.671875 43.070312 403.453125 43.238281 403.179688 43.339844 L 377.46875 52.617188 C 377.320312 52.671875 377.164062 52.699219 377.003906 52.695312 Z M 355.34375 42.042969 L 377.003906 49.859375 L 398.660156 42.042969 L 377.003906 34.230469 Z M 355.34375 42.042969 " fill-opacity="1" fill-rule="nonzero"/></g><path fill="#ffffff" d="M 395.351562 61.6875 L 358.652344 61.6875 C 358.472656 61.6875 358.296875 61.652344 358.128906 61.582031 C 357.960938 61.511719 357.808594 61.414062 357.679688 61.285156 C 357.550781 61.15625 357.453125 61.007812 357.382812 60.839844 C 357.3125 60.671875 357.277344 60.496094 357.277344 60.3125 L 357.277344 44.699219 C 357.277344 44.519531 357.3125 44.34375 357.382812 44.171875 C 357.453125 44.003906 357.550781 43.855469 357.679688 43.726562 C 357.808594 43.597656 357.960938 43.5 358.128906 43.429688 C 358.296875 43.359375 358.472656 43.324219 358.652344 43.324219 C 358.835938 43.324219 359.011719 43.359375 359.179688 43.429688 C 359.347656 43.5 359.496094 43.597656 359.625 43.726562 C 359.753906 43.855469 359.855469 44.003906 359.925781 44.171875 C 359.996094 44.34375 360.03125 44.519531 360.03125 44.699219 L 360.03125 58.9375 L 393.976562 58.9375 L 393.976562 44.699219 C 393.976562 44.519531 394.011719 44.34375 394.082031 44.171875 C 394.152344 44.003906 394.25 43.855469 394.378906 43.726562 C 394.507812 43.597656 394.65625 43.5 394.828125 43.429688 C 394.996094 43.359375 395.171875 43.324219 395.351562 43.324219 C 395.535156 43.324219 395.710938 43.359375 395.878906 43.429688 C 396.046875 43.5 396.195312 43.597656 396.324219 43.726562 C 396.453125 43.855469 396.554688 44.003906 396.625 44.171875 C 396.695312 44.34375 396.726562 44.519531 396.726562 44.699219 L 396.726562 60.3125 C 396.726562 60.496094 396.695312 60.671875 396.625 60.839844 C 396.554688 61.007812 396.453125 61.15625 396.324219 61.285156 C 396.195312 61.414062 396.046875 61.511719 395.878906 61.582031 C 395.710938 61.652344 395.535156 61.6875 395.351562 61.6875 Z M 395.351562 61.6875 " fill-opacity="1" fill-rule="nonzero"/><path fill="#ffffff" d="M 402.714844 53.433594 C 402.53125 53.433594 402.355469 53.398438 402.1875 53.328125 C 402.019531 53.261719 401.871094 53.160156 401.742188 53.03125 C 401.613281 52.902344 401.511719 52.753906 401.445312 52.585938 C 401.375 52.417969 401.339844 52.242188 401.339844 52.058594 L 401.339844 42.042969 C 401.339844 41.863281 401.375 41.6875 401.445312 41.519531 C 401.511719 41.347656 401.613281 41.199219 401.742188 41.070312 C 401.871094 40.941406 402.019531 40.84375 402.1875 40.773438 C 402.355469 40.703125 402.53125 40.667969 402.714844 40.667969 C 402.898438 40.667969 403.074219 40.703125 403.242188 40.773438 C 403.410156 40.84375 403.558594 40.941406 403.6875 41.070312 C 403.816406 41.199219 403.914062 41.347656 403.984375 41.519531 C 404.054688 41.6875 404.089844 41.863281 404.089844 42.042969 L 404.089844 52.058594 C 404.089844 52.242188 404.054688 52.417969 403.984375 52.585938 C 403.914062 52.753906 403.816406 52.902344 403.6875 53.03125 C 403.558594 53.160156 403.410156 53.261719 403.242188 53.328125 C 403.074219 53.398438 402.898438 53.433594 402.714844 53.433594 Z M 402.714844 53.433594 " fill-opacity="1" fill-rule="nonzero"/><path fill="#ffffff" d="M 377.003906 79.902344 C 367.097656 79.902344 359.039062 71.867188 359.039062 61.988281 C 359.039062 61.382812 359.070312 60.777344 359.132812 60.171875 C 359.148438 59.992188 359.203125 59.820312 359.289062 59.660156 C 359.375 59.5 359.492188 59.359375 359.632812 59.246094 C 359.773438 59.128906 359.933594 59.046875 360.105469 58.992188 C 360.28125 58.941406 360.460938 58.925781 360.640625 58.941406 C 360.824219 58.960938 360.996094 59.015625 361.15625 59.101562 C 361.316406 59.1875 361.453125 59.300781 361.570312 59.441406 C 361.683594 59.585938 361.769531 59.742188 361.820312 59.917969 C 361.871094 60.09375 361.890625 60.269531 361.871094 60.453125 C 361.820312 60.964844 361.792969 61.476562 361.792969 61.988281 C 361.792969 70.347656 368.617188 77.148438 377.007812 77.148438 C 385.394531 77.148438 392.222656 70.347656 392.222656 61.988281 C 392.222656 61.476562 392.195312 60.964844 392.144531 60.453125 C 392.125 60.269531 392.140625 60.09375 392.195312 59.917969 C 392.246094 59.742188 392.328125 59.585938 392.445312 59.441406 C 392.558594 59.300781 392.699219 59.1875 392.859375 59.101562 C 393.019531 59.015625 393.191406 58.960938 393.371094 58.941406 C 393.554688 58.925781 393.730469 58.941406 393.90625 58.992188 C 394.082031 59.046875 394.238281 59.128906 394.382812 59.246094 C 394.523438 59.359375 394.636719 59.5 394.722656 59.660156 C 394.808594 59.820312 394.863281 59.992188 394.882812 60.171875 C 394.941406 60.769531 394.972656 61.378906 394.972656 61.988281 C 394.96875 71.867188 386.910156 79.902344 377.003906 79.902344 Z M 377.003906 79.902344 " fill-opacity="1" fill-rule="nonzero"/><g clip-path="url(#2defdaa65e)"><path fill="#ffffff" d="M 398.621094 119.828125 L 398.503906 119.828125 L 355.277344 119.363281 C 354.597656 119.355469 353.921875 119.285156 353.257812 119.144531 C 352.589844 119.007812 351.941406 118.804688 351.316406 118.542969 C 350.6875 118.277344 350.09375 117.953125 349.53125 117.574219 C 348.964844 117.191406 348.445312 116.757812 347.964844 116.277344 C 347.484375 115.792969 347.058594 115.265625 346.679688 114.699219 C 346.304688 114.132812 345.988281 113.535156 345.726562 112.90625 C 345.46875 112.277344 345.269531 111.628906 345.140625 110.960938 C 345.007812 110.292969 344.941406 109.621094 344.9375 108.9375 L 344.9375 100.359375 C 344.941406 99.597656 344.976562 98.835938 345.054688 98.078125 C 345.128906 97.324219 345.242188 96.570312 345.390625 95.824219 C 345.542969 95.078125 345.726562 94.339844 345.949219 93.613281 C 346.171875 92.886719 346.429688 92.167969 346.71875 91.464844 C 347.011719 90.765625 347.339844 90.078125 347.699219 89.40625 C 348.058594 88.734375 348.449219 88.085938 348.875 87.453125 C 349.296875 86.820312 349.75 86.210938 350.234375 85.621094 C 350.71875 85.035156 351.230469 84.472656 351.769531 83.933594 C 352.308594 83.398438 352.871094 82.886719 353.460938 82.40625 C 354.050781 81.921875 354.660156 81.472656 355.292969 81.050781 C 355.925781 80.628906 356.582031 80.238281 357.253906 79.878906 C 357.921875 79.523438 358.613281 79.199219 359.316406 78.90625 C 360.019531 78.617188 360.734375 78.363281 361.464844 78.140625 C 362.191406 77.921875 362.929688 77.738281 363.675781 77.589844 C 364.421875 77.445312 365.175781 77.332031 365.933594 77.257812 C 366.691406 77.1875 367.449219 77.148438 368.210938 77.152344 L 385.800781 77.152344 C 386.5625 77.148438 387.320312 77.1875 388.078125 77.261719 C 388.835938 77.332031 389.585938 77.445312 390.332031 77.59375 C 391.082031 77.738281 391.816406 77.921875 392.546875 78.144531 C 393.273438 78.363281 393.992188 78.617188 394.695312 78.910156 C 395.398438 79.199219 396.085938 79.523438 396.757812 79.878906 C 397.429688 80.238281 398.082031 80.628906 398.714844 81.050781 C 399.347656 81.472656 399.960938 81.925781 400.546875 82.40625 C 401.136719 82.886719 401.699219 83.398438 402.238281 83.9375 C 402.777344 84.472656 403.289062 85.035156 403.773438 85.625 C 404.257812 86.210938 404.710938 86.820312 405.132812 87.453125 C 405.558594 88.085938 405.949219 88.738281 406.308594 89.40625 C 406.667969 90.078125 406.996094 90.765625 407.285156 91.46875 C 407.578125 92.171875 407.835938 92.886719 408.058594 93.613281 C 408.28125 94.339844 408.464844 95.078125 408.617188 95.824219 C 408.765625 96.570312 408.878906 97.324219 408.953125 98.078125 C 409.027344 98.835938 409.066406 99.597656 409.066406 100.359375 L 409.066406 109.40625 C 409.066406 110.089844 409 110.769531 408.863281 111.441406 C 408.730469 112.113281 408.53125 112.765625 408.269531 113.398438 C 408.007812 114.03125 407.683594 114.628906 407.300781 115.199219 C 406.921875 115.769531 406.488281 116.296875 406.003906 116.78125 C 405.519531 117.261719 404.992188 117.695312 404.421875 118.074219 C 403.851562 118.457031 403.25 118.777344 402.613281 119.039062 C 401.980469 119.300781 401.328125 119.496094 400.65625 119.628906 C 399.984375 119.761719 399.304688 119.828125 398.621094 119.828125 Z M 368.210938 79.902344 C 356.894531 79.902344 347.691406 89.078125 347.691406 100.359375 L 347.691406 108.9375 C 347.691406 113.125 351.105469 116.566406 355.304688 116.609375 L 398.535156 117.078125 C 399.042969 117.082031 399.546875 117.039062 400.046875 116.945312 C 400.546875 116.851562 401.03125 116.710938 401.503906 116.519531 C 401.972656 116.332031 402.421875 116.097656 402.847656 115.816406 C 403.269531 115.539062 403.664062 115.222656 404.027344 114.863281 C 404.386719 114.507812 404.710938 114.117188 404.996094 113.699219 C 405.28125 113.277344 405.523438 112.832031 405.71875 112.363281 C 405.914062 111.894531 406.0625 111.410156 406.164062 110.914062 C 406.265625 110.414062 406.316406 109.914062 406.316406 109.40625 L 406.316406 100.359375 C 406.316406 89.078125 397.109375 79.902344 385.796875 79.902344 Z M 368.210938 79.902344 " fill-opacity="1" fill-rule="nonzero"/></g><g clip-path="url(#4f1e97f4e1)"><path fill="#ffffff" d="M 376.070312 119.597656 C 375.582031 119.597656 375.199219 119.394531 374.925781 118.984375 L 363.480469 101.878906 C 363.308594 101.621094 363.234375 101.335938 363.253906 101.023438 C 363.273438 100.714844 363.386719 100.441406 363.59375 100.207031 L 369.09375 93.957031 L 362.617188 87.101562 C 362.421875 86.894531 362.300781 86.652344 362.257812 86.371094 C 362.214844 86.089844 362.253906 85.820312 362.375 85.5625 L 366.039062 77.933594 C 366.117188 77.769531 366.222656 77.625 366.359375 77.5 C 366.496094 77.378906 366.648438 77.285156 366.820312 77.222656 C 366.992188 77.164062 367.171875 77.136719 367.355469 77.144531 C 367.539062 77.15625 367.710938 77.199219 367.878906 77.28125 C 368.042969 77.359375 368.1875 77.46875 368.308594 77.605469 C 368.429688 77.742188 368.523438 77.894531 368.582031 78.070312 C 368.640625 78.242188 368.667969 78.421875 368.65625 78.605469 C 368.644531 78.785156 368.597656 78.960938 368.519531 79.125 L 365.265625 85.90625 L 371.957031 92.980469 C 372.074219 93.105469 372.164062 93.246094 372.230469 93.40625 C 372.296875 93.5625 372.328125 93.730469 372.332031 93.902344 C 372.335938 94.070312 372.308594 94.238281 372.246094 94.398438 C 372.1875 94.558594 372.101562 94.703125 371.988281 94.832031 L 366.355469 101.230469 L 377.214844 117.457031 C 377.355469 117.667969 377.433594 117.898438 377.445312 118.152344 C 377.457031 118.40625 377.402344 118.644531 377.285156 118.871094 C 377.164062 119.09375 376.996094 119.273438 376.777344 119.402344 C 376.5625 119.53125 376.324219 119.597656 376.070312 119.597656 Z M 376.070312 119.597656 " fill-opacity="1" fill-rule="nonzero"/></g><g clip-path="url(#3d97eeae60)"><path fill="#ffffff" d="M 377.933594 119.597656 C 377.679688 119.597656 377.445312 119.53125 377.226562 119.398438 C 377.011719 119.269531 376.839844 119.09375 376.722656 118.867188 C 376.601562 118.644531 376.546875 118.40625 376.5625 118.152344 C 376.574219 117.898438 376.652344 117.664062 376.792969 117.453125 L 387.648438 101.230469 L 382.015625 94.832031 C 381.902344 94.703125 381.816406 94.558594 381.757812 94.398438 C 381.695312 94.234375 381.667969 94.070312 381.671875 93.898438 C 381.675781 93.726562 381.707031 93.5625 381.773438 93.402344 C 381.839844 93.246094 381.929688 93.101562 382.046875 92.976562 L 388.738281 85.902344 L 385.488281 79.125 C 385.410156 78.960938 385.367188 78.785156 385.355469 78.605469 C 385.347656 78.421875 385.375 78.246094 385.433594 78.078125 C 385.496094 77.90625 385.585938 77.753906 385.707031 77.617188 C 385.828125 77.484375 385.972656 77.375 386.136719 77.296875 C 386.300781 77.21875 386.472656 77.175781 386.652344 77.164062 C 386.835938 77.152344 387.011719 77.179688 387.183594 77.238281 C 387.351562 77.296875 387.507812 77.386719 387.644531 77.507812 C 387.777344 77.628906 387.886719 77.769531 387.964844 77.933594 L 391.628906 85.5625 C 391.75 85.816406 391.789062 86.085938 391.746094 86.367188 C 391.703125 86.648438 391.582031 86.894531 391.386719 87.101562 L 384.910156 93.957031 L 390.410156 100.207031 C 390.617188 100.441406 390.730469 100.710938 390.75 101.023438 C 390.769531 101.332031 390.695312 101.617188 390.523438 101.875 L 379.078125 118.984375 C 378.808594 119.394531 378.425781 119.597656 377.933594 119.597656 Z M 377.933594 119.597656 " fill-opacity="1" fill-rule="nonzero"/></g><path fill="#ffffff" d="M 377.066406 86.921875 L 377.003906 86.921875 C 376.421875 86.914062 375.871094 86.777344 375.355469 86.503906 C 374.839844 86.230469 374.414062 85.855469 374.078125 85.378906 L 369.792969 79.320312 C 369.6875 79.171875 369.613281 79.007812 369.574219 78.832031 C 369.535156 78.652344 369.53125 78.476562 369.558594 78.292969 C 369.589844 78.113281 369.65625 77.949219 369.753906 77.792969 C 369.851562 77.640625 369.972656 77.507812 370.121094 77.402344 C 370.269531 77.296875 370.433594 77.226562 370.613281 77.1875 C 370.789062 77.144531 370.96875 77.140625 371.148438 77.171875 C 371.328125 77.203125 371.496094 77.265625 371.648438 77.363281 C 371.804688 77.460938 371.933594 77.582031 372.039062 77.734375 L 376.324219 83.789062 C 376.40625 83.90625 376.511719 84 376.640625 84.066406 C 376.769531 84.132812 376.902344 84.167969 377.046875 84.171875 C 377.191406 84.171875 377.328125 84.140625 377.457031 84.078125 C 377.585938 84.015625 377.695312 83.925781 377.78125 83.8125 L 382.398438 77.699219 C 382.511719 77.554688 382.644531 77.433594 382.800781 77.339844 C 382.957031 77.25 383.128906 77.191406 383.308594 77.164062 C 383.488281 77.140625 383.667969 77.152344 383.84375 77.195312 C 384.019531 77.242188 384.179688 77.320312 384.328125 77.429688 C 384.472656 77.539062 384.589844 77.671875 384.683594 77.832031 C 384.777344 77.988281 384.835938 78.15625 384.859375 78.339844 C 384.886719 78.519531 384.875 78.699219 384.828125 78.875 C 384.78125 79.050781 384.707031 79.210938 384.59375 79.355469 L 379.976562 85.472656 C 379.632812 85.929688 379.207031 86.285156 378.695312 86.542969 C 378.179688 86.796875 377.640625 86.921875 377.066406 86.921875 Z M 377.066406 86.921875 " fill-opacity="1" fill-rule="nonzero"/></svg>